<svg width="235" height="235" viewBox="0 0 235 235" fill="none" xmlns="http://www.w3.org/2000/svg">
<path opacity="0.105" d="M117.5 234.5C182.393 234.5 235 182.117 235 117.5C235 52.8827 182.393 0.5 117.5 0.5C52.6065 0.5 0 52.8827 0 117.5C0 182.117 52.6065 234.5 117.5 234.5Z" fill="white"/>
<path opacity="0.105" d="M117.5 210.5C168.586 210.5 210 169.086 210 118C210 66.9137 168.586 25.5 117.5 25.5C66.4137 25.5 25 66.9137 25 118C25 169.086 66.4137 210.5 117.5 210.5Z" fill="white"/>
<path d="M117.5 50.5C80.22 50.5 50 80.72 50 118C50 155.28 80.22 185.5 117.5 185.5C154.78 185.5 185 155.28 185 118C184.96 80.737 154.763 50.54 117.5 50.5ZM145.252 121.3C144.788 122.23 144.034 122.984 143.102 123.447V123.471L104.805 142.611C102.44 143.791 99.565 142.833 98.383 140.469C98.047 139.797 97.873 139.055 97.878 138.304V100.026C97.877 97.383 100.019 95.24 102.663 95.238C103.407 95.238 104.14 95.411 104.805 95.743L143.103 114.883C145.469 116.061 146.432 118.934 145.252 121.299V121.3Z" fill="white"/>
</svg>
