<svg width="530" height="248" viewBox="0 0 530 248" fill="none" xmlns="http://www.w3.org/2000/svg">
<path d="M103.963 244.69C103.963 244.69 129.782 231.96 134.223 225.319C138.663 218.679 132.135 218.303 132.135 218.303C132.135 218.303 143.657 207.097 142.036 202.379C140.414 197.662 134.447 201.988 134.447 201.988C134.447 201.988 141.855 185.497 138.363 183.838C131.857 180.75 122.729 198.494 122.729 198.494C122.729 198.494 124.691 190.787 120.21 191.037C113.454 191.415 113.732 208.851 113.732 208.851C113.732 208.851 112.969 202.166 108.897 204.338C101.59 208.235 103.963 244.69 103.963 244.69Z" fill="#3C8F7C"/>
<path d="M107.426 201.643C110.607 199.878 113.774 205.036 113.774 205.036C113.774 205.036 113.454 191.417 120.21 191.039C124.691 190.788 122.729 198.496 122.729 198.496C122.729 198.496 131.857 180.752 138.363 183.84L103.934 244.407C103.691 240.177 101.126 205.138 107.426 201.643Z" fill="#50BFA5"/>
<path d="M104.632 244.847C104.632 244.847 125.747 247.47 131.215 245.132C136.683 242.794 132.764 239.909 132.764 239.909C132.764 239.909 144.503 237.601 145.409 234C146.314 230.398 140.899 230.686 140.899 230.686C140.899 230.686 152.156 223.396 150.65 220.944C147.847 216.373 134.944 223.732 134.944 223.732C134.944 223.732 139.299 219.722 136.403 218.057C132.035 215.547 125.124 226.537 125.124 226.537C125.124 226.537 125.552 223.828 122.13 223.528C115.991 222.989 104.632 244.847 104.632 244.847Z" fill="#3C8F7C"/>
<path d="M121.994 221.56C125.416 221.86 125.125 226.537 125.125 226.537C125.125 226.537 132.162 213.51 136.529 216.021C139.425 217.685 135.999 223.152 135.999 223.152C135.999 223.152 147.848 216.375 150.652 220.945L104.566 244.731C106.134 241.994 116.257 221.057 121.994 221.56Z" fill="#50BFA5"/>
<path d="M330.744 147.744C330.744 147.744 302.315 133.727 297.426 126.415C292.537 119.105 299.724 118.69 299.724 118.69C299.724 118.69 287.037 106.352 288.822 101.158C290.608 95.9641 297.179 100.728 297.179 100.728C297.179 100.728 289.02 82.5688 292.867 80.7432C300.032 77.3425 310.082 96.8816 310.082 96.8816C310.082 96.8816 307.922 88.3939 312.856 88.6693C320.296 89.0855 319.988 108.284 319.988 108.284C319.988 108.284 320.828 100.923 325.312 103.313C333.359 107.605 330.744 147.744 330.744 147.744Z" fill="#3C8F7C"/>
<path d="M326.932 100.344C323.431 98.4007 319.943 104.08 319.943 104.08C319.943 104.08 320.296 89.0853 312.857 88.6691C307.924 88.3937 310.083 96.8814 310.083 96.8814C310.083 96.8814 300.033 77.3439 292.868 80.743L330.777 147.432C331.046 142.775 333.869 104.193 326.932 100.344Z" fill="#50BFA5"/>
<path d="M330.009 147.918C330.009 147.918 306.759 150.806 300.737 148.232C294.717 145.659 299.03 142.479 299.03 142.479C299.03 142.479 286.104 139.939 285.106 135.974C284.108 132.008 290.072 132.324 290.072 132.324C290.072 132.324 277.677 124.297 279.335 121.596C282.422 116.564 296.629 124.667 296.629 124.667C296.629 124.667 291.833 120.251 295.023 118.418C299.833 115.655 307.442 127.755 307.442 127.755C307.442 127.755 306.969 124.772 310.738 124.443C317.502 123.848 330.009 147.918 330.009 147.918Z" fill="#3C8F7C"/>
<path d="M310.892 122.275C307.123 122.606 307.443 127.755 307.443 127.755C307.443 127.755 299.695 113.411 294.887 116.176C291.698 118.008 295.47 124.028 295.47 124.028C295.47 124.028 282.423 116.566 279.336 121.597L330.08 147.789C328.355 144.775 317.208 121.721 310.892 122.275Z" fill="#50BFA5"/>
<path d="M36.0133 89.8296C36.0133 89.8296 40.8481 100.355 44.1018 104.8C47.3555 109.246 50.4545 113.498 53.0506 125.837C55.6467 138.177 55.2011 139.416 55.9113 142.603C56.6214 145.79 61.2459 158.703 61.2722 161.072C61.2985 163.439 70.617 176.919 73.0028 183.229C75.39 189.538 79.6169 198.55 79.3802 203.137L78.3188 202.868C78.3188 202.868 77.4524 192.17 70.0879 181.358C62.7219 170.546 63.7755 168.504 55.4116 162.95C47.0476 157.396 41.6449 142.052 41.6449 142.052C41.6449 142.052 33.1355 125.386 33.5316 116.724C33.9277 108.061 31.6673 100.247 36.0133 89.8296Z" fill="#256653"/>
<path d="M47.3354 73.6417C47.3354 73.6417 47.617 80.556 49.8465 84.6621C52.0759 88.7699 53.9975 91.2639 54.4029 95.7073C54.8082 100.151 56.2084 111.607 62.4264 117.2C68.6445 122.793 69.4397 139.552 74.1725 144.621C78.9068 149.691 79.5241 153.334 78.65 162.028C77.7758 170.721 74.8068 182.772 81.6731 198.499L83.2249 194.588C83.2249 194.588 78.3127 181.649 79.5009 174.073C80.6907 166.496 84.8293 155.049 83.3131 149.558C81.7984 144.067 87.4301 142.995 84.0387 134.691C80.6474 126.388 82.0398 123.502 77.4231 116.322C77.4231 116.322 76.9496 115.986 75.7351 109.91C74.5206 103.836 64.7348 92.7012 60.2248 88.9014C55.7195 85.1031 49.2214 79.0135 47.3354 73.6417Z" fill="#256653"/>
<path d="M65.705 107.874C65.705 107.874 71.1061 117.12 71.1819 123.072C71.2593 129.022 70.6141 133.863 73.3464 142.014C76.0787 150.163 70.6559 155.315 72.2185 159.814C73.7811 164.313 73.9018 169.641 73.8554 173.681C73.809 177.721 80.0409 191.091 80.9893 197.86C81.9378 204.629 80.7263 204.652 80.7263 204.652C80.7263 204.652 79.6928 195.714 78.2586 192.759C76.8244 189.804 72.4629 179.614 71.4449 175.672C70.4269 171.73 67.6637 169.2 65.2826 162.524C62.9 155.848 59.5132 150.226 59.7716 140.753C60.03 131.28 56.2178 121.279 65.705 107.874Z" fill="#3C8F7C"/>
<path d="M77.1384 198.448C77.1384 198.448 74.6196 186.714 63.9999 185.542C53.3802 184.37 47.1421 186.47 39.6399 177.897C32.1377 169.324 27.7809 155.72 25.3828 153.378C25.3828 153.378 29.1517 151.439 35.4192 157.297C41.6868 163.156 46.0885 167.599 49.7165 171.011C53.3446 174.422 56.2904 172.197 60.1212 174.447C63.3316 176.331 67.4826 181.779 69.3113 184.632C69.9054 185.559 70.6094 186.41 71.4186 187.155C72.155 187.835 73.0307 188.667 73.5923 189.28C74.7171 190.505 77.96 198.491 77.96 198.491L77.1384 198.448Z" fill="#3C8F7C"/>
<path d="M80.8809 196.376C80.8809 196.376 77.1384 182.026 79.6448 175.004C82.1512 167.981 89.9999 162.784 89.6843 158.373C89.3687 153.962 84.3311 142.039 88.4388 133.162C88.4388 133.162 89.9999 141.081 91.5393 142.841C93.0788 144.602 103.647 151.707 101.774 161.087C99.9002 170.468 89.627 172.661 87.0959 175.423C84.5663 178.185 81.1501 178.182 81.1285 180.018C81.1068 181.855 80.44 188.532 81.5756 195.12L80.8809 196.376Z" fill="#3C8F7C"/>
<path d="M76.7889 186.773L71.5316 171.628C71.5316 171.628 68.4435 159.446 66.6519 149.287C64.8618 139.128 65.705 107.874 65.705 107.874C65.705 107.874 71.1061 117.12 71.182 123.072C71.2593 129.022 70.6141 133.863 73.3464 142.014C76.0787 150.163 70.6559 155.315 72.2185 159.815C73.7812 164.315 73.9019 169.641 73.8554 173.681C73.8075 177.721 80.041 191.091 80.9894 197.86C81.5092 201.569 81.3808 203.25 81.158 204.015C82.0012 198.092 76.7889 186.773 76.7889 186.773Z" fill="#327F6B"/>
<path d="M50.8894 177.752C55.5804 178.688 59.7732 178.369 65.3414 182.514C70.9096 186.659 74.1834 191.084 74.1834 191.084C74.1834 191.084 76.6867 195.556 77.7218 197.914C77.8703 198.275 77.9585 198.49 77.9585 198.49L77.137 198.448C77.137 198.448 74.6182 186.714 63.9985 185.542C53.3788 184.37 47.1406 186.47 39.6384 177.897C32.1362 169.324 27.7794 155.72 25.3813 153.378C25.3813 153.378 33.3616 159.585 38.2909 165.079C43.2247 170.571 46.1999 176.814 50.8894 177.752Z" fill="#327F6B"/>
<path d="M91.5396 142.841C93.079 144.602 103.648 151.707 101.774 161.087C99.9004 170.468 89.6273 172.661 87.0961 175.423C84.5665 178.185 81.1504 178.182 81.1287 180.018C81.1071 181.855 80.4402 188.532 81.5758 195.12L81.2726 195.669C80.7187 193.098 79.9482 189.182 79.6976 186.208C79.2891 181.38 80.072 179.381 81.6238 175.469C83.1756 171.558 92.8191 163.59 95.2357 159.402C97.6524 155.214 90.5757 148.212 89.0053 144.831C87.4349 141.451 88.439 133.164 88.439 133.164C88.439 133.164 90.0001 141.079 91.5396 142.841Z" fill="#327F6B"/>
<path d="M66.4693 189.444L64.8185 185.453C63.5374 182.518 60.2605 181.118 57.4973 182.324C50.5366 185.362 47.5104 193.82 50.7378 201.214L53.0972 206.62C54.1307 208.989 53.7717 211.594 52.3762 213.431C51.1106 215.099 50.9033 217.419 51.7805 219.431L53.0245 222.281C54.372 225.366 56.9914 227.651 60.1012 228.594C61.9191 229.145 63.525 230.51 64.3729 232.455L66.1351 236.49C68.083 240.952 73.0664 243.082 77.2654 241.249L79.6619 240.203C83.8625 238.369 85.6881 233.267 83.7402 228.805C80.5902 223.47 80.8424 219.489 81.9579 216.788C83.5994 212.817 83.5793 208.249 81.8047 204.182L81.5556 203.611C79.682 199.319 76.0632 196.113 71.7559 194.743C69.856 194.139 67.8741 192.659 66.4693 189.444Z" fill="#50BFA5"/>
<path d="M96.1931 245.785C92.8157 241.405 74.2916 217.941 62.2129 214.031C48.881 209.715 61.4455 226.857 61.4455 226.857C61.4455 226.857 37.794 200.995 29.1145 203.326C21.159 205.463 29.1145 221.495 29.1145 221.495C29.1145 221.495 20.1533 212.617 9.28762 212.617C-1.28877 212.617 16.6769 244.099 17.6454 245.785H96.1931Z" fill="#96D9C9"/>
<path d="M24.9171 195.027C34.5807 210.12 41.6327 226.885 45.6646 244.696L46.3267 244.518C42.3119 227.08 35.3063 210.344 25.6582 195.269C23.4164 191.764 20.9951 187.609 16.7976 186.243C16.7172 186.216 16.6862 186.339 16.7636 186.368C20.599 187.811 22.8192 191.75 24.9171 195.027Z" fill="#3C8F7C"/>
<path d="M43.3361 245.319C32.5384 230.635 19.4092 217.062 3.79994 205.26C3.64367 205.143 3.43326 205.413 3.59107 205.534C18.3958 216.915 31.4941 230.352 42.5161 245.539L43.3361 245.319Z" fill="#3C8F7C"/>
<path d="M24.0337 185.667C23.7846 186.032 22.8331 186.987 22.553 188.24C22.1771 189.43 22.4741 190.918 22.5066 190.865C22.5778 190.895 21.4051 189.903 21.0384 188.325C20.5634 186.812 20.896 184.712 21.4871 184.016C22.5066 182.444 24.289 182.285 24.634 183.046C24.9991 183.804 24.5334 184.835 24.0337 185.667Z" fill="#3C8F7C"/>
<path d="M21.7224 199.138C22.0829 198.883 23.0189 197.911 24.2659 197.606C25.4479 197.207 26.941 197.475 26.8899 197.507C26.9208 197.579 25.9059 196.424 24.3201 196.089C22.7977 195.643 20.7044 196.018 20.0205 196.621C18.4687 197.671 18.3434 199.455 19.1139 199.786C19.8797 200.141 20.9008 199.655 21.7224 199.138Z" fill="#3C8F7C"/>
<path d="M25.211 205.044C25.5715 204.788 26.5075 203.817 27.7545 203.512C28.9365 203.113 30.4295 203.38 30.3785 203.413C30.4094 203.484 29.3945 202.33 27.8087 201.994C26.2862 201.55 24.1929 201.923 23.5091 202.526C21.9573 203.577 21.8335 205.361 22.6025 205.692C23.3668 206.045 24.3879 205.559 25.211 205.044Z" fill="#3C8F7C"/>
<path d="M12.7674 218.738C13.1279 218.482 14.0639 217.511 15.3109 217.206C16.4929 216.807 17.9859 217.074 17.9349 217.107C17.9658 217.178 16.9509 216.024 15.365 215.688C13.8426 215.244 11.7493 215.617 11.0655 216.22C9.51369 217.271 9.38992 219.055 10.1589 219.386C10.9232 219.74 11.9443 219.254 12.7674 218.738Z" fill="#3C8F7C"/>
<path d="M6.40848 213.137C6.76897 212.882 7.705 211.91 8.95201 211.605C10.134 211.206 11.6271 211.474 11.576 211.506C11.6069 211.577 10.592 210.423 9.00616 210.087C7.48376 209.642 5.39045 210.016 4.7066 210.62C3.1548 211.67 3.03103 213.454 3.79997 213.785C4.56581 214.139 5.58694 213.654 6.40848 213.137Z" fill="#3C8F7C"/>
<path d="M28.915 192.347C28.6118 192.669 27.521 193.461 27.0476 194.656C26.4891 195.771 26.5479 197.288 26.5866 197.241C26.6531 197.281 25.6505 196.116 25.5376 194.501C25.3071 192.931 25.9661 190.91 26.6593 190.316C27.914 188.924 29.6979 189.047 29.9207 189.855C30.1636 190.661 29.5401 191.605 28.915 192.347Z" fill="#3C8F7C"/>
<path d="M34.0453 199.044C33.6137 199.273 32.1052 199.687 31.3471 200.817C30.4884 201.821 30.3801 203.54 30.4358 203.504C30.5163 203.578 29.3605 201.847 29.41 199.994C29.3033 198.143 30.4018 196.171 31.3718 195.806C33.165 194.791 35.4594 195.696 35.6482 196.692C35.8648 197.698 34.9442 198.484 34.0453 199.044Z" fill="#3C8F7C"/>
<path d="M39.4449 209.185C38.9808 209.339 37.4244 209.495 36.4868 210.479C35.4718 211.325 35.0758 212.999 35.1376 212.974C35.2042 213.061 34.3563 211.16 34.7168 209.342C34.9226 207.499 36.3382 205.74 37.3547 205.543C39.2933 204.846 41.4036 206.124 41.4207 207.137C41.4655 208.164 40.4258 208.785 39.4449 209.185Z" fill="#3C8F7C"/>
<path d="M23.4673 216.25C23.1285 216.46 21.9264 216.884 21.3725 217.845C20.7304 218.711 20.7397 220.114 20.7846 220.084C20.8542 220.139 19.8161 218.796 19.7511 217.286C19.5592 215.787 20.3405 214.121 21.1079 213.768C22.5097 212.841 24.4266 213.446 24.637 214.246C24.8706 215.051 24.1667 215.742 23.4673 216.25Z" fill="#3C8F7C"/>
<path d="M15.1497 188.042C15.3524 187.875 15.863 187.259 16.5871 187.025C17.2694 186.738 18.1636 186.83 18.1358 186.852C18.1574 186.892 17.5061 186.255 16.553 186.125C15.6325 185.928 14.4117 186.241 14.0327 186.628C13.1601 187.318 13.1647 188.378 13.6351 188.54C14.1023 188.715 14.6856 188.384 15.1497 188.042Z" fill="#3C8F7C"/>
<path d="M17.0871 183.732C17.0778 183.995 16.903 184.774 17.1598 185.491C17.3485 186.205 17.9674 186.858 17.9674 186.823C18.0123 186.815 17.1103 186.688 16.4264 186.014C15.7086 185.404 15.2104 184.247 15.2862 183.71C15.3001 182.597 16.1433 181.954 16.5579 182.228C16.9819 182.492 17.0747 183.156 17.0871 183.732Z" fill="#3C8F7C"/>
<path d="M1.83041 207.431C2.03308 207.264 2.54365 206.648 3.26772 206.414C3.94847 206.127 4.84428 206.219 4.81643 206.241C4.83809 206.281 4.18673 205.644 3.23368 205.514C2.31312 205.317 1.09241 205.63 0.713358 206.017C-0.15924 206.707 -0.154598 207.767 0.315738 207.929C0.784528 208.105 1.36626 207.773 1.83041 207.431Z" fill="#3C8F7C"/>
<path d="M4.16798 203.085C4.13703 203.345 3.89877 204.109 4.09526 204.844C4.22368 205.573 4.78839 206.274 4.79148 206.238C4.8379 206.233 3.94828 206.034 3.32168 205.305C2.6564 204.64 2.25414 203.444 2.37482 202.916C2.48003 201.81 3.37274 201.236 3.76417 201.542C4.16488 201.839 4.20202 202.509 4.16798 203.085Z" fill="#3C8F7C"/>
<path d="M5.79421 231.174C15.662 232.255 24.8506 236.61 33.6988 240.859C39.6646 243.723 39.3629 244.539 40.579 244.965C40.7755 245.035 40.972 244.821 40.8776 244.631C40.4104 243.706 39.185 243.079 38.331 242.545C37.3377 241.925 36.3011 241.377 35.249 240.867C32.9979 239.773 30.6865 238.79 28.392 237.792C23.7227 235.764 18.9776 233.855 14.0437 232.563C11.3392 231.854 8.58684 231.344 5.80195 231.093C5.74935 231.088 5.74316 231.167 5.79421 231.174Z" fill="#3C8F7C"/>
<path d="M14.6874 228.115C14.6239 228.52 14.2016 229.695 14.4615 230.856C14.6162 232.001 15.4517 233.132 15.4579 233.075C15.529 233.072 14.1552 232.702 13.2238 231.525C12.2289 230.443 11.6781 228.553 11.8994 227.736C12.133 226.015 13.5641 225.178 14.1552 225.681C14.7616 226.172 14.7787 227.219 14.6874 228.115Z" fill="#3C8F7C"/>
<path d="M23.3809 231.226C23.3175 231.631 22.8951 232.806 23.155 233.968C23.3097 235.113 24.1452 236.244 24.1514 236.186C24.2226 236.183 22.8487 235.813 21.9188 234.636C20.924 233.555 20.3732 231.664 20.5945 230.847C20.8281 229.127 22.2592 228.29 22.8502 228.792C23.4552 229.284 23.4706 230.332 23.3809 231.226Z" fill="#3C8F7C"/>
<path d="M32.2134 235.164C32.1484 235.569 31.7276 236.743 31.9875 237.905C32.1422 239.05 32.9777 240.181 32.9839 240.124C33.0551 240.121 31.6812 239.751 30.7513 238.574C29.7565 237.492 29.2057 235.602 29.427 234.785C29.6606 233.064 31.0917 232.227 31.6827 232.73C32.2877 233.22 32.3032 234.269 32.2134 235.164Z" fill="#3C8F7C"/>
<path d="M12.0926 236.236C12.2705 235.902 12.6171 234.8 13.4557 234.09C14.2076 233.332 15.4561 232.965 15.4283 233.01C15.4793 233.053 14.2602 232.557 12.9172 232.906C11.5805 233.148 10.12 234.234 9.82602 234.96C9.03852 236.358 9.62644 237.772 10.3412 237.732C11.0638 237.709 11.6594 236.946 12.0926 236.236Z" fill="#3C8F7C"/>
<path d="M21.1344 239.435C21.3123 239.101 21.6588 238 22.4974 237.29C23.2493 236.531 24.4979 236.165 24.47 236.21C24.5211 236.253 23.3019 235.756 21.959 236.106C20.6223 236.347 19.1617 237.433 18.8678 238.159C18.0803 239.558 18.6682 240.972 19.383 240.932C20.1055 240.91 20.7012 240.147 21.1344 239.435Z" fill="#3C8F7C"/>
<path d="M5.20636 232.942C5.36262 232.756 5.72465 232.11 6.34661 231.774C6.91906 231.398 7.75143 231.331 7.72823 231.356C7.75453 231.39 7.05521 230.917 6.16559 230.959C5.29454 230.934 4.23319 231.423 3.95315 231.839C3.27395 232.612 3.45652 233.579 3.91138 233.648C4.36625 233.731 4.84123 233.33 5.20636 232.942Z" fill="#3C8F7C"/>
<path d="M6.2492 228.69C6.28479 228.93 6.25539 229.671 6.60969 230.281C6.90056 230.901 7.57512 231.392 7.56893 231.359C7.60916 231.344 6.76595 231.381 6.02951 230.88C5.27449 230.445 4.62623 229.473 4.60457 228.972C4.43129 227.957 5.09038 227.228 5.5143 227.408C5.94596 227.578 6.14245 228.167 6.2492 228.69Z" fill="#3C8F7C"/>
<path d="M451.321 165.015C463.913 153.788 470.388 137.661 473.603 126.11C477.092 113.571 477.601 103.564 477.605 103.465L478.289 103.423C478.284 103.523 477.774 113.605 474.263 126.228C471.019 137.892 464.476 154.184 451.727 165.551L451.321 165.015Z" fill="#3C8F7C"/>
<path d="M476.17 100.562C475.549 103.449 476.069 106.177 477.392 108.146C479.467 106.619 481.099 104.172 481.719 101.285C482.34 98.3977 481.82 95.6701 480.497 93.7006C478.422 95.2276 476.792 97.6752 476.17 100.562Z" fill="#3C8F7C"/>
<path d="M480.033 108.784C477.864 110.803 476.595 113.453 476.349 116.008C478.73 116.116 481.351 115.149 483.52 113.131C485.689 111.114 486.958 108.462 487.204 105.908C484.823 105.798 482.202 106.765 480.033 108.784Z" fill="#3C8F7C"/>
<path d="M481.051 117.422C478.354 118.268 476.143 120.145 474.834 122.427C476.792 123.683 479.413 124.045 482.109 123.199C484.806 122.352 487.017 120.476 488.326 118.194C486.369 116.937 483.748 116.575 481.051 117.422Z" fill="#3C8F7C"/>
<path d="M476.898 127.812C474.763 128.485 473.055 130.209 472.088 132.384C473.708 133.744 475.828 134.259 477.963 133.586C480.098 132.913 481.806 131.19 482.773 129.015C481.154 127.655 479.033 127.139 476.898 127.812Z" fill="#3C8F7C"/>
<path d="M473.252 112.981C471.572 111.289 469.345 110.568 467.19 110.8C467.071 113.08 467.857 115.392 469.539 117.084C471.219 118.777 473.445 119.498 475.6 119.266C475.718 116.985 474.932 114.674 473.252 112.981Z" fill="#3C8F7C"/>
<path d="M471.304 120.429C469.622 118.737 467.397 118.016 465.242 118.248C465.123 120.528 465.909 122.84 467.591 124.532C469.271 126.225 471.497 126.946 473.652 126.714C473.77 124.432 472.984 122.12 471.304 120.429Z" fill="#3C8F7C"/>
<path d="M460.095 231.785C480.333 226.147 495.41 210.16 504.495 197.741C514.358 184.259 519.487 171.951 519.537 171.829L520.38 172.241C520.329 172.365 515.164 184.763 505.238 198.337C496.065 210.88 480.831 227.03 460.342 232.736L460.095 231.785Z" fill="#96D9C9"/>
<path d="M519.121 167.183C517.071 170.412 516.466 174.213 517.171 177.602C520.36 177.08 523.431 175.095 525.481 171.866C527.531 168.637 528.136 164.836 527.43 161.446C524.242 161.969 521.171 163.954 519.121 167.183Z" fill="#96D9C9"/>
<path d="M520.063 180.202C516.538 181.279 513.814 183.77 512.365 186.83C515.186 188.586 518.778 189.145 522.303 188.068C525.827 186.991 528.552 184.5 530 181.44C527.181 179.684 523.587 179.126 520.063 180.202Z" fill="#96D9C9"/>
<path d="M517.391 191.815C513.761 191.053 510.249 191.924 507.644 193.918C509.434 196.836 512.429 199.075 516.059 199.839C519.688 200.602 523.2 199.731 525.806 197.736C524.016 194.818 521.02 192.58 517.391 191.815Z" fill="#96D9C9"/>
<path d="M509.587 202.54C505.957 201.778 502.445 202.649 499.84 204.643C501.63 207.561 504.625 209.801 508.255 210.564C511.885 211.327 515.397 210.456 518.002 208.461C516.212 205.543 513.217 203.305 509.587 202.54Z" fill="#96D9C9"/>
<path d="M511.485 185.051C511.558 181.482 510.316 178.16 508.295 175.802C506.186 177.769 504.814 180.844 504.741 184.414C504.668 187.983 505.911 191.306 507.931 193.663C510.04 191.696 511.412 188.622 511.485 185.051Z" fill="#96D9C9"/>
<path d="M503.344 196.147C503.469 192.58 502.276 189.235 500.29 186.841C498.152 188.768 496.734 191.815 496.609 195.383C496.484 198.951 497.677 202.296 499.663 204.689C501.8 202.763 503.219 199.715 503.344 196.147Z" fill="#96D9C9"/>
<path d="M496.857 213.275C495.515 212.431 493.979 212.291 492.639 212.752C492.925 214.234 493.793 215.605 495.135 216.448C496.476 217.291 498.012 217.432 499.352 216.971C499.068 215.488 498.198 214.118 496.857 213.275Z" fill="#96D9C9"/>
<path d="M423.118 245.425C423.118 245.425 406.028 177.832 411.695 171.04C419.527 161.654 425.988 192.792 426.622 190.146C432.609 165.17 434.203 133.212 453.516 129.83C464.495 127.907 450.98 153.594 451.794 160.541C452.606 167.488 472.392 144.423 484.415 132.338C496.438 120.253 502.646 127.904 495.05 143.1C487.704 157.793 463.941 173.85 468.839 175.756C473.738 177.661 503.476 158.686 507.118 166.798C511.583 176.743 466.975 190.279 471.175 192.513C475.376 194.747 496.696 187.389 496.114 194.995C495.532 202.601 466.871 202.318 467.362 205.663C468.155 211.079 487.111 198.818 487.944 206.314C488.796 213.98 463.005 212.581 463.452 218.561C463.709 221.997 470.465 218.939 471.281 223.698C473.14 234.55 437.919 245.646 437.919 245.646L423.118 245.425Z" fill="#3C8F7C"/>
<path d="M415.208 244.855C415.208 244.855 431.474 219.916 439.301 215.208C447.64 210.191 441.292 225.212 441.292 225.212C441.292 225.212 458.334 204.934 463.071 209.054C467.809 213.174 463.509 217.945 463.509 217.945C463.509 217.945 478.809 213.412 481.558 219.027C485.784 227.657 460.594 234.813 460.594 234.813C460.594 234.813 471.408 234.698 469.418 240.525C466.418 249.311 415.208 244.855 415.208 244.855Z" fill="#50BFA5"/>
<path d="M481.559 219.027C478.808 213.411 463.508 217.945 463.508 217.945C463.508 217.945 467.807 213.174 463.07 209.054C458.333 204.934 444.699 217.268 444.699 217.268C444.699 217.268 446.129 207.097 435.862 216.056C428.53 222.455 415.207 244.857 415.207 244.857L481.559 219.027Z" fill="#96D9C9"/>
<path d="M429.829 183.224L429.099 182.726C442.341 162.67 446.384 138.859 447.444 122.416C448.593 104.571 446.576 91.3088 446.555 91.1757L447.461 90.9127C447.481 91.0458 449.514 104.398 448.361 122.348C447.293 138.93 443.214 162.953 429.829 183.224Z" fill="#50BFA5"/>
<path d="M443.948 88.0505C443.919 92.0793 445.318 95.4103 447.549 97.4092C449.815 94.5284 451.265 90.6373 451.293 86.6085C451.322 82.5797 449.924 79.2487 447.693 77.2498C445.426 80.1321 443.976 84.0217 443.948 88.0505Z" fill="#50BFA5"/>
<path d="M451.121 97.1061C448.864 100.668 447.937 104.667 448.302 108.1C451.401 107.218 454.52 104.834 456.777 101.273C459.035 97.711 459.962 93.7116 459.596 90.2784C456.497 91.1603 453.378 93.5445 451.121 97.1061Z" fill="#50BFA5"/>
<path d="M454.738 107.925C451.489 110.186 449.141 113.582 448.064 117.115C450.922 117.912 454.396 117.258 457.646 114.999C460.895 112.738 463.243 109.342 464.32 105.809C461.462 105.012 457.987 105.666 454.738 107.925Z" fill="#50BFA5"/>
<path d="M450.502 126.814C449.085 127.659 448.008 129.016 447.456 130.473C448.62 130.907 450.083 130.747 451.499 129.903C452.916 129.058 453.993 127.701 454.545 126.244C453.382 125.81 451.918 125.97 450.502 126.814Z" fill="#50BFA5"/>
<path d="M449.35 133.812C447.933 134.657 446.856 136.014 446.303 137.47C447.467 137.903 448.929 137.744 450.346 136.899C451.763 136.054 452.84 134.697 453.393 133.24C452.231 132.808 450.767 132.968 449.35 133.812Z" fill="#50BFA5"/>
<path d="M443.502 105.489C440.884 104.005 437.822 104.02 435.107 105.247C435.562 108.27 437.192 110.945 439.81 112.429C442.428 113.913 445.49 113.897 448.205 112.67C447.752 109.647 446.121 106.972 443.502 105.489Z" fill="#50BFA5"/>
<path d="M442.98 116.029C440.362 114.545 437.3 114.561 434.585 115.788C435.04 118.811 436.671 121.486 439.289 122.97C441.906 124.453 444.968 124.438 447.683 123.211C447.229 120.188 445.598 117.513 442.98 116.029Z" fill="#50BFA5"/>
<path d="M443.498 131.117C441.795 130.152 439.802 130.163 438.034 130.961C438.331 132.929 439.392 134.67 441.096 135.635C442.799 136.6 444.792 136.59 446.56 135.791C446.265 133.823 445.203 132.083 443.498 131.117Z" fill="#50BFA5"/>
<path d="M125.1 92.1938C125.107 92.1196 125.142 92.0298 125.196 91.9293L121.953 91.6322C121.953 91.6368 121.953 91.643 121.953 91.6477C121.799 94.3707 120.252 103.043 120.757 105.386C121.339 108.083 127.126 116.698 127.126 116.698L129.615 112.934C129.615 112.934 125.719 106.765 125.042 104.713C124.364 102.662 125.037 92.8885 125.1 92.1938Z" fill="#F7A491"/>
<path d="M88.5396 245.646V86.819H181.705V110.805H116.588V145.493H165.846V169.479H116.588V245.646H88.5396Z" fill="#E25A44"/>
<path d="M174.933 245.646L222.935 86.8206H257.624L304.967 245.507H277.216L265.157 202.089H214.214L201.298 245.647H174.933V245.646ZM220.854 178.598H258.418L239.586 112.589L220.854 178.598Z" fill="#E25A44"/>
<path d="M436.621 220.818C433.514 220.62 430.541 219.827 427.702 218.44C424.859 217.053 422.118 215.006 419.475 212.295C423.902 206.283 427.272 198.932 429.585 190.243C431.896 181.556 433.053 171.794 433.053 160.956C433.053 137.103 427.618 118.486 416.749 105.106C405.879 91.7265 390.864 85.0366 371.702 85.0366C352.539 85.0366 337.541 91.7265 326.706 105.106C315.868 118.486 310.452 137.105 310.452 160.956C310.452 184.678 315.902 203.261 326.805 216.706C337.708 230.152 352.674 236.875 371.702 236.875C377.714 236.875 383.199 236.231 388.155 234.943C393.11 233.654 397.769 231.656 402.13 228.946C406.821 234.76 411.645 238.988 416.601 241.632C421.556 244.275 424.719 246.486 431.26 246.486L436.72 245.598L436.621 220.818ZM404.063 176.763C403.567 180.696 402.789 183.948 401.734 186.526L401.733 186.529C400.379 191.357 398.562 195.521 396.285 199.019C390.67 207.641 382.444 211.953 371.606 211.953C369.719 211.953 367.901 211.797 366.153 211.483C358.016 210.219 351.639 206.048 347.025 198.963C344.778 195.515 342.982 191.418 341.635 186.674L341.574 186.58C340.518 184.002 339.741 180.75 339.246 176.817C338.751 172.887 338.503 168.278 338.503 162.992C338.503 159.356 338.621 155.909 338.851 152.644C339.541 141.576 341.672 132.592 345.243 125.691C345.317 125.546 345.393 125.402 345.469 125.258C345.492 125.213 345.515 125.168 345.54 125.124C345.937 124.373 346.349 123.648 346.779 122.951C350.11 117.567 354.447 113.811 359.787 111.676C359.794 111.673 359.8 111.671 359.808 111.668C360.018 111.584 360.23 111.501 360.443 111.422C363.818 110.152 367.571 109.516 371.705 109.516C382.74 109.516 391.015 113.976 396.533 122.896C397.973 125.224 399.223 127.857 400.287 130.789C402.44 136.588 403.806 143.522 404.387 151.595C404.668 155.152 404.81 158.931 404.81 162.936C404.805 168.224 404.558 172.833 404.063 176.763Z" fill="#E25A44"/>
<path d="M78.0388 245.646V86.819H171.204V110.805H106.087V145.493H155.346V169.479H106.087V245.646H78.0388Z" fill="#F47458"/>
<path d="M164.432 245.646L212.435 86.8206H247.123L294.467 245.507H266.715L254.657 202.089H203.713L190.798 245.647H164.432V245.646ZM210.354 178.598H247.917L229.085 112.589L210.354 178.598Z" fill="#F47458"/>
<path d="M426.121 220.818C423.014 220.62 420.04 219.827 417.201 218.441C414.359 217.053 411.616 215.006 408.975 212.295C413.401 206.283 416.771 198.932 419.084 190.244C421.397 181.556 422.553 171.794 422.553 160.956C422.553 137.103 417.118 118.486 406.249 105.106C395.379 91.7265 380.363 85.0366 361.202 85.0366C342.039 85.0366 327.04 91.7265 316.204 105.106C305.366 118.486 299.95 137.105 299.95 160.956C299.95 184.678 305.4 203.261 316.303 216.706C327.206 230.153 342.172 236.875 361.2 236.875C367.213 236.875 372.697 236.231 377.653 234.943C382.608 233.654 387.267 231.656 391.628 228.946C396.319 234.76 401.143 238.988 406.099 241.632C411.054 244.275 416.804 245.596 423.343 245.596H426.218L426.121 220.818ZM393.562 176.763C393.067 180.696 392.289 183.948 391.234 186.526L391.232 186.529C389.878 191.357 388.062 195.521 385.785 199.019C380.17 207.641 371.944 211.953 361.106 211.953C359.218 211.953 357.4 211.797 355.652 211.483C347.516 210.219 341.138 206.048 336.525 198.963C334.278 195.515 332.483 191.418 331.134 186.674L331.074 186.58C330.017 184.002 329.241 180.75 328.745 176.817C328.25 172.887 328.003 168.278 328.003 162.992C328.003 159.356 328.12 155.909 328.351 152.644C329.041 141.576 331.171 132.592 334.742 125.691C334.817 125.546 334.892 125.402 334.968 125.258C334.991 125.213 335.015 125.168 335.039 125.124C335.437 124.373 335.848 123.648 336.279 122.951C339.61 117.567 343.946 113.811 349.287 111.676C349.293 111.673 349.299 111.671 349.307 111.668C349.518 111.584 349.73 111.501 349.943 111.422C353.317 110.152 357.071 109.516 361.205 109.516C372.239 109.516 380.515 113.976 386.032 122.896C387.473 125.224 388.723 127.857 389.787 130.789C391.939 136.588 393.305 143.522 393.887 151.595C394.167 155.152 394.309 158.931 394.309 162.936C394.305 168.224 394.057 172.833 393.562 176.763Z" fill="#F47458"/>
<path d="M131.787 109.196C132.567 107.317 133.362 105.434 135.387 104.484C137.026 103.714 138.739 104.005 140.194 105.1C144.321 108.202 140.725 111.621 145.422 117.505C146.881 119.334 148.648 120.81 149.522 122.953C150.746 125.951 149.289 127.392 146.952 128.827C135.773 135.7 129.912 121.59 130.122 118.362C130.279 115.96 131.284 110.405 131.787 109.196Z" fill="#13375B"/>
<path d="M158.244 64.8416L160.119 61.4007L158.355 57.901C158.154 57.5018 158.496 57.0454 158.934 57.129L162.777 57.853L165.551 55.0883C165.867 54.7726 166.405 54.9583 166.462 55.4008L166.962 59.2903L170.44 61.082C170.836 61.2862 170.827 61.8571 170.425 62.0489L166.891 63.7291L166.267 67.6001C166.196 68.0411 165.652 68.2082 165.347 67.8833L162.663 65.0318L158.798 65.6337C158.357 65.7018 158.03 65.2345 158.244 64.8416Z" fill="#F7CC7F"/>
<path d="M184.075 17.5634L185.591 13.6645L189.836 13.3907L191.227 8.89926L195.839 10.007L197.636 4.99733L202.008 5.49087L204.522 0.9546L202.809 0L200.93 3.39292L196.316 2.87153L194.589 7.68629L189.9 6.56151L188.365 11.5171L184.219 11.7847L182.814 15.3989L180.054 15.0028L179.777 16.9476L184.075 17.5634Z" fill="#50BFA5"/>
<path d="M328.846 61.5754L325.773 57.3532L321.659 59.9509L318.447 55.9252L314.21 57.9241L311.313 55.3032L309.988 56.7684L313.86 60.2727L317.877 58.379L321.217 62.5671L325.264 60.0128L328.049 63.8389L328.846 61.5754Z" fill="#F48C7F"/>
<path d="M145.492 36.7049L146.535 31.5884L141.839 30.3043L142.645 25.2188L138.31 23.438L138.29 19.533L136.313 19.5438L136.341 24.7655L140.448 26.4534L139.611 31.7431L144.228 33.0072L143.283 37.644L145.492 36.7049Z" fill="#F48C7F"/>
<path d="M103.624 62.2716L105.612 65.9848L109.9 65.745L111.834 70.0631L116.322 68.3999L118.725 73.1884L123.046 72.1657L126.111 76.3941L124.509 77.5544L122.218 74.3921L117.659 75.4704L115.349 70.8692L110.786 72.5602L108.653 67.795L104.464 68.0286L102.622 64.5877L99.9049 65.3164L99.3928 63.4072L103.624 62.2716Z" fill="#F7CC7F"/>
<path d="M131.787 109.196C132.567 107.317 133.362 105.434 135.387 104.484C137.026 103.714 138.739 104.005 140.194 105.1C144.321 108.202 140.725 111.621 145.422 117.505C146.881 119.334 148.648 120.81 149.522 122.953C150.746 125.951 149.289 127.392 146.952 128.827C135.773 135.7 129.912 121.59 130.122 118.362C130.279 115.96 131.284 110.405 131.787 109.196Z" fill="#13375B"/>
<path d="M108.43 159.665C107.525 162.053 107.054 164.353 107.012 164.632C106.992 164.765 107.181 165.415 107.164 165.554C105.346 168.032 102.735 168.575 100.496 168.733C101.638 167.619 103.313 166.564 103.394 166.211C103.522 165.65 104.211 163.149 104.549 159.684C105.94 160.326 106.886 159.815 108.43 159.665Z" fill="#F7A491"/>
<path d="M134.182 132.951L138.182 144.214C138.182 144.214 131.755 145.424 129.354 145.865C126.951 146.306 113.528 146.892 113.187 147.13C112.935 147.307 110.163 156.276 108.923 161.22C107.519 161.53 105.113 161.159 103.833 160.718C104.525 153.642 107.022 142.432 107.822 141.213C109.123 139.223 134.182 132.951 134.182 132.951Z" fill="#13375B"/>
<path d="M118.559 164.602C118.117 167.118 118.087 169.465 118.098 169.747C118.103 169.881 118.411 170.485 118.42 170.624C117.099 173.4 114.636 174.422 112.465 174.996C113.378 173.689 114.826 172.337 114.838 171.976C114.858 171.401 115.067 168.815 114.752 165.348C116.238 165.718 117.072 165.039 118.559 164.602Z" fill="#F7A491"/>
<path d="M138.85 133.535L140.4 136.184C142.761 140.218 140.951 145.407 136.594 147.098C136.571 147.107 136.548 147.116 136.525 147.124C134.247 148.008 121.172 151.099 120.883 151.396C120.668 151.617 119.625 160.946 119.334 166.035C118.011 166.601 115.579 166.688 114.239 166.495C113.593 159.415 113.945 147.936 114.501 146.587C115.411 144.392 138.85 133.535 138.85 133.535Z" fill="#355389"/>
<path d="M117.897 169.824C118.245 169.44 119.523 171.555 119.842 172.007C120.201 172.515 120.098 172.898 120.055 172.977C119.942 173.186 113.203 177.151 111.558 177.435C111.403 177.461 111.134 177.363 111.066 177.303C110.424 176.734 113.381 172.536 114.708 171.984C115.568 171.627 116.331 171.554 117.897 169.824Z" fill="#13375B"/>
<path d="M128.467 127.412C128.325 125.693 128.085 121.054 128.162 120.484C127.642 118.698 125.746 116.051 125.346 115.302C125.346 115.302 127.921 112.386 129.829 112.41C129.829 112.41 131.858 114.974 133.365 115.76C133.387 115.754 133.899 115.987 134.123 115.986C135.578 115.975 140.662 115.822 141.612 116.105L141.075 123.962C140.801 124.412 140.47 133.446 139.907 134.188C139.344 134.931 131.161 138.316 129.804 137.443C129.751 137.408 128.753 130.887 128.467 127.412Z" fill="#50BFA5"/>
<path d="M137.44 113.093C137.44 113.093 136.913 115.819 137.02 116.893C137.125 117.968 136.617 121.432 134.342 121.444C132.066 121.455 133.91 117.04 134.123 115.986C134.338 114.932 134.388 111.671 134.388 111.671L137.44 113.093Z" fill="#F7A491"/>
<path d="M134.343 113.308C134.379 112.415 134.39 111.671 134.39 111.671L137.441 113.093C137.441 113.093 137.332 113.65 137.224 114.36C135.889 114.629 134.922 114.134 134.343 113.308Z" fill="#F47458"/>
<path d="M138.556 105.57C138.556 105.57 139.732 106.223 140.162 107.636C140.592 109.05 140.103 112.698 137.065 113.579C134.028 114.459 132.711 111.57 133.338 109.312C133.963 107.054 135.324 104.194 138.556 105.57Z" fill="#F7A491"/>
<path d="M132.957 108.437C133.016 109.044 133.351 109.508 133.704 109.472C134.057 109.438 134.295 108.918 134.236 108.312C134.178 107.706 133.842 107.241 133.489 107.277C133.136 107.311 132.898 107.831 132.957 108.437Z" fill="#F7A491"/>
<path d="M106.796 164.708C107.211 164.395 108.069 166.713 108.298 167.217C108.557 167.783 108.383 168.141 108.326 168.21C108.176 168.394 100.812 171.026 99.1453 170.997C98.9875 170.994 98.7415 170.847 98.6873 170.776C98.1629 170.096 101.854 166.527 103.262 166.233C104.17 166.041 104.935 166.112 106.796 164.708Z" fill="#13375B"/>
<path d="M138.2 105.386C138.2 105.386 138.751 109.455 140.068 110.19C141.383 110.925 140.832 112.731 140.832 112.731C140.832 112.731 142.025 108.538 140.985 107.192C139.944 105.846 138.2 105.386 138.2 105.386Z" fill="#13375B"/>
<path d="M139.288 110.775C138.93 111.306 138.932 111.931 139.291 112.172C139.65 112.413 140.229 112.178 140.586 111.649C140.943 111.119 140.942 110.493 140.583 110.252C140.224 110.011 139.644 110.244 139.288 110.775Z" fill="#F7A491"/>
<path d="M134.861 111.001L137.003 111.539C137.003 111.539 136.746 112.353 135.797 112.143C134.64 111.889 134.861 111.001 134.861 111.001Z" fill="white"/>
<path d="M145.865 130.449C145.325 126.613 144.524 121.373 144.524 121.373L140.3 122.551C140.3 122.551 141.397 127.348 142.088 131.171L145.865 130.449Z" fill="#F7A491"/>
<path d="M366.035 62.9137L365.353 57.7787L361.528 57.7942L360.679 52.7504L356.98 52.1996L355.858 48.4957L354.404 49.0249L355.904 53.9789L359.41 54.5003L360.294 59.7482L364.055 59.7328L364.674 64.3866L366.035 62.9137Z" fill="#F7CC7F"/>
<path d="M389.676 80.9599L389.657 78.5509L387.668 77.2018C387.442 77.0487 387.488 76.7005 387.748 76.6139L390.025 75.8511L390.691 73.5366C390.766 73.2736 391.11 73.2117 391.274 73.4314L392.7 75.3684L395.1 75.288C395.374 75.2787 395.538 75.5881 395.38 75.8109L393.985 77.7712L394.803 80.0362C394.896 80.2946 394.654 80.5468 394.393 80.4648L392.103 79.7392L390.208 81.2198C389.993 81.3869 389.679 81.2337 389.676 80.9599Z" fill="#F47458"/>
<path d="M266.079 32.28L243.789 37.7801C242.821 38.0199 241.84 37.4274 241.601 36.4588L238.049 22.0672C237.809 21.0986 238.402 20.1177 239.37 19.8795L261.66 14.3793C262.629 14.1395 263.61 14.7321 263.848 15.7006L267.4 30.0923C267.639 31.0623 267.048 32.0417 266.079 32.28Z" fill="#F47458"/>
<path d="M240.593 28.9799L234.907 38.7626L243.93 34.5806L240.593 28.9799Z" fill="#F47458"/>
<path d="M247.24 26.1131L249.54 25.4834C249.54 25.4834 251.898 22.567 251.791 21.7748C251.685 20.9842 250.793 19.4788 251.193 19.1586C251.592 18.8399 252.508 18.4345 253.371 19.2978C253.998 19.9244 254.319 22.7139 254.637 22.8253C254.835 22.895 256.168 22.5701 257.137 22.3163C257.774 22.1492 258.45 22.3519 258.893 22.8393L258.894 22.8408C259.195 23.1704 259.222 23.6655 258.961 24.0259L258.556 24.5876L259.099 25.0239C259.502 25.3488 259.569 25.9382 259.247 26.3436L258.919 26.7582L259.278 27.0042C259.741 27.3214 259.826 27.9712 259.459 28.3967L259.162 28.7417L259.242 28.8283C259.575 29.1873 259.577 29.7396 259.249 30.1016L258.947 30.4343L252.82 32.1114C252.246 32.2692 251.646 32.3063 251.056 32.2228L248.804 32.4564C248.562 32.4812 248.338 32.3265 248.278 32.0897L246.892 26.7056C246.827 26.4488 246.981 26.1842 247.24 26.1131Z" fill="white"/>
<path d="M220.863 51.6613L223.453 50.8397C223.453 50.8397 223.705 51.8423 222.578 52.2368C221.201 52.7164 220.863 51.6613 220.863 51.6613Z" fill="white"/>
<path d="M155.197 145.062C155.159 144.964 155.073 144.963 154.987 144.96C154.142 144.933 153.297 144.896 152.459 144.771C152.32 144.751 152.182 144.718 152.053 144.667C151.82 144.574 151.589 144.576 151.354 144.641C151.227 144.676 151.097 144.683 150.966 144.683C150.54 144.681 149.329 144.268 148.705 144.16C148.563 144.135 148.45 144.027 148.415 143.887C147.802 141.465 146.488 136.028 146.318 134.241C146.1 131.956 144.522 121.649 144.522 121.649L140.298 122.826C140.298 122.826 142.037 130.433 142.517 134.122C142.888 136.97 145.735 143.015 146.628 144.752C147.064 146.046 148.042 146.081 148.269 146.109C148.399 146.125 148.518 146.188 148.603 146.289C148.758 146.468 148.934 146.624 149.135 146.753C149.286 146.847 149.4 146.971 149.499 147.115C149.679 147.376 149.839 147.65 149.997 147.926C150.102 148.108 150.212 148.165 150.369 148.122C150.536 148.076 150.616 147.952 150.613 147.748C150.608 147.446 150.512 147.174 150.361 146.915C150.218 146.674 150.229 146.535 150.395 146.312C150.489 146.185 150.588 146.061 150.712 145.959C150.839 145.855 150.972 145.778 151.144 145.801C151.447 145.877 151.753 145.939 152.064 145.973L152.32 146.026C152.329 146.027 152.459 146.055 152.459 146.055C152.48 146.061 152.929 146.109 153.084 146.111C153.208 146.111 153.407 146.118 153.577 146.128C153.732 146.135 154.057 146.055 154.068 146.055C154.218 146.052 154.351 145.998 154.462 145.897C154.509 145.855 154.552 145.811 154.529 145.739C154.507 145.674 154.458 145.648 154.391 145.636C154.289 145.617 153.765 145.554 153.771 145.532C153.927 145.532 154.414 145.521 154.571 145.517C154.781 145.51 154.962 145.436 155.108 145.28C155.169 145.221 155.236 145.161 155.197 145.062Z" fill="#F7A491"/>
<path d="M141.664 116.088C143.753 115.707 145.478 125.057 145.478 125.057C145.478 125.057 140.835 126.353 139.647 125.673C139.647 125.673 138.296 119.688 137.813 119.897L141.664 116.088Z" fill="#50BFA5"/>
<path d="M351.51 193.623L349.725 198.679C349.725 198.679 354.15 199.819 354.261 199.858C354.373 199.896 355.34 194.877 355.34 194.877L351.51 193.623Z" fill="#F48C7F"/>
<path d="M346.084 235.445C346.084 235.445 349.347 239.446 349.369 239.794C349.391 240.142 349.239 243.942 348.851 244.29C348.462 244.639 347.322 244.886 347.689 245.278C347.966 245.573 350.098 245.51 351.51 245.431C351.923 245.407 352.44 242.044 352.603 241.55C352.839 240.833 353.416 239.216 353.201 238.714C353.096 238.47 352.593 237.969 351.885 237.501C351.139 237.009 348.291 232.956 348.291 232.956L346.084 235.445Z" fill="#F48C7F"/>
<path d="M351.84 237.475C351.84 237.475 349.647 243.783 348.79 244.088C348.563 244.168 347.469 244.374 347.263 244.868C347.201 245.016 347.263 245.514 347.263 245.514H351.831C351.831 245.514 352.408 242.736 352.637 241.513C352.637 241.513 353.847 238.529 353.712 238.258C353.579 237.989 351.84 237.475 351.84 237.475Z" fill="#50BFA5"/>
<path d="M326.534 237.367C326.534 237.367 323.869 241.202 324.104 242.417C324.229 243.067 324.788 243.918 324.467 244.529C324.147 245.14 323.781 245.293 323.781 245.293L315.466 245.429C315.013 245.437 315.313 245.14 315.678 244.866C316.275 244.417 316.758 244.122 318.667 243.18C318.791 243.118 319.244 242.824 319.408 242.722C319.823 242.463 320.239 242.056 320.598 241.649C321.195 240.972 323.819 235.445 323.819 235.445L326.534 237.367Z" fill="#F7A491"/>
<path d="M336.175 213.702C336.175 213.702 339.475 217.552 340.317 218.162C341.158 218.772 349.236 233.979 349.236 233.979L346.358 236.126C346.358 236.126 339.139 226.924 335.748 222.001C332.881 217.839 333.938 218.103 332.251 215.569C331.323 214.175 331.534 212.289 332.757 211.156C332.909 211.016 333.074 210.869 333.256 210.716C335.751 208.59 352.856 206.196 352.856 206.196L363.796 207.292C363.796 207.292 354.857 213.7 354.524 213.87C354.19 214.04 342.18 215.832 341.93 215.832C341.68 215.834 336.175 213.702 336.175 213.702Z" fill="#F7CC7F"/>
<path d="M364.909 207.392C364.909 207.392 366.785 213.148 363.971 215.834C361.157 218.519 344.434 218.221 338.929 218.221C338.929 218.221 336.676 224.53 336.427 225.554C336.176 226.577 325.25 239.794 325.25 239.794L322.247 237.834C322.247 237.834 334.007 214.47 334.925 213.448C335.842 212.425 348.937 208.331 352.19 207.394C355.443 206.455 364.909 207.392 364.909 207.392Z" fill="#FAE0B2"/>
<path d="M352.419 188.686C354.469 182.328 356.761 182.599 356.761 182.599L354.988 195.967C353.723 195.612 352.074 194.825 350.81 194.46C351.229 192.448 351.913 190.251 352.419 188.686Z" fill="#13375B"/>
<path d="M362.008 181.457C362.008 181.457 365.786 181.211 367.279 182.879C368.773 184.548 363.963 197.75 363.693 199.874C363.42 201.999 365.077 207.646 365.077 207.646C365.077 207.646 356.204 209.476 353.667 207.756C353.667 207.756 353.395 192.482 353.667 190.964C353.939 189.447 356.203 183.277 356.746 182.67C357.292 182.064 362.008 181.457 362.008 181.457Z" fill="#355389"/>
<path d="M338.926 189.543H351.073C351.381 189.543 351.709 189.798 351.806 190.112L356.929 206.614C357.026 206.928 356.856 207.183 356.548 207.183H344.401C344.093 207.183 343.765 206.928 343.668 206.614L338.545 190.112C338.449 189.796 338.62 189.543 338.926 189.543Z" fill="#3C8F7C"/>
<path d="M346.027 194.839C346.152 195.331 345.937 195.813 345.544 195.919C345.151 196.024 344.732 195.71 344.605 195.219C344.48 194.727 344.695 194.244 345.088 194.139C345.481 194.034 345.902 194.347 346.027 194.839Z" fill="white"/>
<path d="M318.854 242.938C321.381 243.599 323.247 243.15 324.293 242.72C324.562 243.498 324.919 244.476 324.729 245.039C324.497 245.729 324.167 245.886 323.875 245.893C321.568 245.955 315.424 246.039 313.665 246.062C313.419 246.065 313.285 245.773 313.442 245.579C313.877 245.049 318.666 243.054 318.854 242.938Z" fill="#50BFA5"/>
<path d="M355.518 200.32C355.38 200.213 355.234 199.878 354.182 199.021C353.879 198.773 353.327 198.693 353.327 198.693C353.327 198.693 352.649 198.6 352.581 198.754C352.515 198.909 352.612 199.099 352.728 199.166C352.844 199.233 353.118 199.236 353.234 199.302C353.35 199.369 353.475 199.777 353.464 199.932C353.454 200.087 351.464 199.743 351.464 199.743C351.464 199.743 350.898 199.616 350.714 199.56C350.556 199.513 350.095 199.328 350.095 199.328C350.095 199.328 349.425 199.104 349.369 199.321C349.337 199.448 349.877 199.814 350.452 200.08C351.073 200.367 351.733 200.551 351.722 200.619C351.698 200.78 350.602 200.619 350.602 200.619C350.602 200.619 350.103 200.421 349.866 200.408C349.578 200.235 349.041 200.096 348.99 200.362C348.981 200.411 349.658 200.815 349.658 200.815C349.658 200.815 350.138 200.989 350.361 201.086C350.755 201.258 351.384 201.323 351.659 201.417C351.888 201.496 351.792 201.545 351.801 201.572C351.809 201.592 351.492 201.535 351.056 201.465C350.836 201.429 350.582 201.439 350.333 201.357C350.103 201.281 349.771 201.224 349.57 201.194C349.004 201.111 349.054 201.49 349.57 201.654C349.767 201.717 349.982 201.784 350.2 201.85C351.046 202.11 351.866 202.161 351.871 202.257C351.877 202.383 350.386 202.197 350.386 202.197C350.386 202.197 349.555 202.331 350.318 202.574C351.203 202.856 351.93 202.884 351.961 202.884C352.179 202.879 352.952 203.097 353.704 202.958C354.26 202.856 355.053 202.687 355.431 202.605L355.518 200.32Z" fill="#F8A492"/>
<path d="M368.264 192.255L364.46 193.069C364.46 193.069 364.881 196.327 364.856 196.711C364.856 196.711 358.253 199.502 355.519 200.32L355.39 202.616C355.926 202.471 356.357 202.31 356.62 202.251C357.139 202.135 365.427 200.387 365.427 200.387C365.427 200.387 368.705 199.542 368.863 198.945C369.021 198.347 368.264 192.255 368.264 192.255Z" fill="#F7A491"/>
<path d="M369.425 195.539C369.425 195.539 369.536 186.628 368.705 184.483C367.874 182.339 364.775 180.95 363.159 182.187C361.543 183.427 364.092 195.538 364.092 195.538H369.425V195.539Z" fill="#13375B"/>
<path d="M352.381 173.571C352.422 169.341 355.668 165.828 359.781 167.276C360.707 167.601 362.002 168.347 362.706 169.041C364.61 170.916 365.387 173.463 367.336 175.27C366.792 175.833 366.123 176.437 365.311 177.043L364.078 175.784L364.681 177.492C362.286 179.127 358.799 180.698 353.826 181.395C352.799 178.61 352.36 175.829 352.381 173.571Z" fill="#184655"/>
<path d="M360.75 176.285C360.75 176.285 360.77 176.4 360.804 176.593C360.973 177.523 361.621 180.611 362.059 181.459C362.588 182.485 360.246 185.755 357.991 185.356C357.32 185.237 358.559 182.351 358.499 182.045C358.384 181.46 358.231 180.662 358.072 179.842C357.982 179.379 357.892 178.912 357.807 178.471C357.566 177.221 357.369 176.197 357.369 176.197L360.75 176.285Z" fill="#F7A491"/>
<path d="M360.806 176.593C360.77 176.4 360.751 176.285 360.751 176.285L357.374 176.198C357.374 176.198 357.571 177.221 357.812 178.473C357.895 178.911 357.987 179.376 358.075 179.836C358.596 179.757 359.141 179.497 359.687 179.006C360.283 178.473 360.673 177.831 360.909 177.145C360.866 176.926 360.832 176.737 360.806 176.593Z" fill="#F47458"/>
<path d="M357.23 169.088C357.23 169.088 358.78 168.67 359.952 169.835C361.123 171 362.755 174.893 360.611 177.453C358.465 180.014 355.691 177.877 354.961 175.289C354.23 172.699 353.641 169.516 357.23 169.088Z" fill="#F7A491"/>
<path d="M354.229 175.355C354.603 175.895 355.14 176.147 355.428 175.915C355.716 175.685 355.645 175.06 355.27 174.518C354.896 173.978 354.359 173.726 354.071 173.958C353.783 174.19 353.854 174.815 354.229 175.355Z" fill="#F7A491"/>
<path d="M356.994 168.681C356.994 168.681 359.639 172.222 361.171 172.179C362.703 172.136 363.187 174.153 363.187 174.153C363.187 174.153 361.988 169.518 360.368 168.828C358.748 168.138 356.994 168.681 356.994 168.681Z" fill="#184655"/>
<path d="M360.911 173.205C360.885 173.907 361.219 174.498 361.658 174.524C362.098 174.551 362.475 174.005 362.501 173.304C362.528 172.601 362.193 172.01 361.754 171.984C361.315 171.958 360.937 172.504 360.911 173.205Z" fill="#F7A491"/>
<path d="M357.541 176.744L359.455 176.05C359.455 176.05 359.669 176.809 358.836 177.139C357.82 177.541 357.541 176.744 357.541 176.744Z" fill="white"/>
<path d="M342.405 198.97L342.104 201.485C342.094 201.481 342.079 201.471 342.057 201.459C341.664 201.227 341.319 200.922 341.038 200.563L339.139 198.156L339.459 196.079C339.459 196.079 340.985 195.479 341.212 195.574C341.44 195.668 340.456 196.344 340.456 196.344C340.456 196.344 341.242 196.035 341.324 196.226C341.406 196.418 340.714 196.985 340.714 196.985L342.405 198.97Z" fill="#F7A491"/>
<path d="M340.714 196.984C340.674 197.087 342.216 201.833 342.216 201.833C342.216 201.833 343.518 199.52 343.578 199.409C343.637 199.299 342.057 197.303 342.057 197.303L340.714 196.984Z" fill="#3C8F7C"/>
<path d="M230.863 158.982C230.863 159.684 230.601 160.252 230.276 160.252C229.953 160.252 229.69 159.682 229.69 158.982C229.69 158.281 229.951 157.711 230.276 157.711C230.601 157.711 230.863 158.279 230.863 158.982Z" fill="#F7A491"/>
<path d="M236.381 241.357C236.23 240.263 236.18 238.583 236.197 236.644H232.366C232.766 239.391 233.077 241.527 233.077 241.527L232.981 242.395L232.978 244.957H241.359C241.359 244.957 239.579 244.161 237.091 242.586C236.909 242.469 236.485 242.098 236.381 241.357Z" fill="#F7A491"/>
<path d="M220.045 240.713L221.159 237.521H218.242C218.091 239.57 218.034 240.953 218.034 240.953L217.293 243.051L216.539 245.545C216.539 245.545 219.019 246.184 220.32 245.466L220.176 242.984L220.045 240.713Z" fill="#F7A491"/>
<path d="M235.172 171.348C234.16 169.965 229.987 165.961 229.524 165.969C228.174 165.992 223.738 165.993 222.87 166.434L222.912 174.057C223.053 174.696 226.115 184.664 225.938 186.846L225.96 186.866C228.527 189.345 232.574 189.15 234.921 186.434C234.921 186.434 234.91 183.411 235.272 180.653C235.837 176.334 237.684 174.783 235.172 171.348Z" fill="#F7CC7F"/>
<path d="M228.164 161.678C228.164 161.678 228.282 164.491 228.028 165.557C227.776 166.623 227.439 166.703 229.608 167.028C230.46 167.155 231.282 167.346 231.282 167.346C231.282 167.346 231.059 165.78 231.025 165.119C230.969 164.03 231.276 160.67 231.276 160.67L228.164 161.678Z" fill="#F7A491"/>
<path d="M229.815 163.077C230.261 163.318 230.678 163.461 231.062 163.519C231.136 162.192 231.274 160.668 231.274 160.668L228.307 161.63C228.652 162.206 229.142 162.713 229.815 163.077Z" fill="#F47458"/>
<path d="M220.176 242.972C219.031 243.483 217.8 243.175 217.305 243.012L217.141 243.456L216.51 245.561C216.51 245.561 219.021 246.184 220.323 245.465L220.176 242.972Z" fill="#E25A44"/>
<path d="M232.892 245.593H241.605C241.926 245.564 242.005 245.301 241.894 245.138C241.663 244.804 240.647 244.558 239.505 244.026C237.501 244.238 233.296 242.853 232.981 242.389C232.798 243.32 232.715 245.553 232.892 245.593Z" fill="#E25A44"/>
<path d="M232.233 186.994L227.128 223.316L222.477 240.064H217.418C217.418 240.064 218.592 226.571 221.108 221.79C221.108 221.79 222.206 208.981 223.306 201.148C223.47 199.977 222.656 196.938 222.868 196.152C224.499 190.114 225.936 186.846 225.936 186.846L232.233 186.994Z" fill="#3C8F7C"/>
<path d="M229.076 202.698L230.258 216.65C230.258 216.65 229.049 224.625 229.879 229.916C230.708 235.207 231.806 240.064 231.806 240.064H236.457L237.381 213.714C237.381 213.714 239.168 199.397 238.549 195.515C237.93 191.633 234.919 186.438 234.919 186.438L227.349 186.882C227.349 186.882 225.622 193.879 225.957 196.265C226.206 198.035 229.076 202.698 229.076 202.698Z" fill="#50BFA5"/>
<path d="M227.605 170.488C229.812 168.562 230.644 164.316 229.205 161.787C230.205 160.485 230.845 160.717 230.622 159.099C230.183 155.907 234.625 153.984 231.306 153.135C227.952 152.462 225.162 154.523 223.629 156.57C222.938 157.492 222.077 158.288 221.055 158.85C219.029 159.961 217.96 162.627 219.037 165.405C217.416 166.315 215.999 168.947 217.072 171.131C217.331 171.656 217.851 172.27 217.868 172.42C217.837 172.235 216.356 177.108 221.884 178.768C227.525 180.461 228.687 175.046 227.605 170.488Z" fill="#184655"/>
<path d="M225.992 156.489C225.339 159.183 228.873 161.138 231.672 161.21C233.491 161.256 234.327 161.069 234.621 159.152C235.097 156.042 233.816 154.147 232.022 153.362C229.707 152.352 226.531 154.267 225.992 156.489Z" fill="#184655"/>
<path d="M230.103 154.677C230.103 154.677 228.873 155.092 228.217 156.334C227.561 157.577 227.887 161.556 230.616 162.868C233.346 164.18 234.599 161.2 234.402 159.002C234.203 156.803 233.412 153.925 230.103 154.677Z" fill="#F7A491"/>
<path d="M231.808 160.803L233.745 160.773C233.745 160.773 233.711 161.522 232.86 161.561C231.822 161.607 231.808 160.803 231.808 160.803Z" fill="white"/>
<path d="M227.247 159.345C226.843 157.289 227.001 155.731 228.461 154.979C229.922 154.227 231.17 153.481 232.478 154.834L232.773 155.001C232.773 155.001 230.307 155.683 230.169 156.992C230.032 158.302 228.72 159.859 228.922 160.502C229.125 161.146 229.357 162.429 229.357 162.429L228.817 161.985C228.817 161.985 227.651 161.401 227.247 159.345Z" fill="#184655"/>
<path d="M229.789 158.558C229.993 159.125 229.838 159.695 229.445 159.831C229.051 159.967 228.567 159.616 228.364 159.048C228.16 158.48 228.314 157.911 228.707 157.775C229.1 157.64 229.586 157.99 229.789 158.558Z" fill="#F7A491"/>
<path d="M250.789 175.061C250.926 174.665 249.005 174.346 248.901 173.947C248.799 173.548 251.329 173.516 251.418 173.164C251.585 172.518 248.646 173.028 248.703 172.725C248.76 172.422 251.766 171.746 251.441 171.227C251.117 170.708 248.398 172.253 248.316 171.902C248.234 171.549 250.973 170.692 250.925 169.92C250.898 169.507 246.429 171.979 245.91 171.755C245.392 171.531 246.467 169.589 246.056 169.301C245.643 169.013 244.459 173.245 244.173 173.387C243.89 173.528 237.85 176.975 235.701 177.523C235.439 176.803 234.876 175.832 234.645 175.151C233.44 176.01 232.544 176.44 231.301 177.223C232.203 179.481 233.485 181.955 234.113 182.238C236.026 183.102 243.421 176.969 244.899 175.918C246.376 174.868 247.222 175.208 248.22 174.876C249.22 174.544 250.651 175.456 250.789 175.061Z" fill="#F7A491"/>
<path d="M228.478 170.754C227.908 173.107 230.954 178.352 230.954 178.352C230.954 178.352 235.295 176.304 236.058 175.42C236.058 175.42 233.109 170.33 232.916 170.02C232.04 168.62 230.852 168.617 230.078 168.71C229.456 168.783 228.478 170.754 228.478 170.754Z" fill="#EAB765"/>
<path d="M9.65918 246.37C9.65918 246.874 10.4916 247.281 11.5173 247.281H474.906C475.931 247.281 476.764 246.873 476.764 246.37C476.764 245.865 475.931 245.459 474.906 245.459H11.5173C10.49 245.457 9.65918 245.865 9.65918 246.37Z" fill="#13375B"/>
<path d="M238.919 50.9573C238.891 51.0532 238.682 51.7154 238.362 52.7025L241.722 53.3801C241.758 52.8309 241.79 52.3714 241.831 52.0372C242.108 49.7056 243.203 49.0729 243.766 47.7794C244.329 46.4845 246.515 45.6645 246.246 45.2251C245.977 44.7857 243.939 46.5634 243.451 46.3731C242.962 46.1828 245.193 43.5077 244.925 43.1519C244.431 42.4959 242.31 45.9569 242.061 45.6707C241.812 45.3844 243.828 41.7316 243.02 41.6852C242.213 41.6388 241.319 45.6397 240.895 45.4633C240.471 45.287 242.069 41.778 241.257 41.2535C240.822 40.9735 239.282 47.4994 238.596 47.8754C237.909 48.2513 236.942 45.6799 236.286 45.8981C235.631 46.1162 239.033 50.5535 238.919 50.9573Z" fill="#F79C8D"/>
<path d="M207.632 37.0854C207.617 37.1844 207.535 37.8745 207.42 38.9049L204.08 38.1359C204.275 37.6207 204.434 37.1875 204.535 36.8688C205.243 34.6316 204.507 33.6027 204.528 32.1917C204.549 30.7807 202.896 29.1299 203.323 28.8421C203.75 28.5528 204.872 31.0128 205.396 31.0406C205.921 31.0685 204.991 27.7112 205.382 27.4977C206.103 27.1031 206.608 31.1319 206.953 30.9741C207.298 30.8163 206.968 26.6575 207.723 26.9484C208.477 27.2393 207.643 31.2526 208.101 31.2665C208.56 31.2805 208.553 27.4249 209.507 27.2826C210.018 27.2068 208.729 33.7869 209.199 34.4119C209.67 35.0385 211.611 33.0937 212.119 33.5625C212.623 34.0313 207.694 36.6708 207.632 37.0854Z" fill="#F79C8D"/>
<path d="M242.126 52.3853C242.126 52.3853 238.122 51.4276 238.084 51.7495C237.242 58.7921 236.864 61.3388 236.722 61.413C236.236 61.6621 229.805 55.7814 228.658 55.3822C228.111 55.1919 227.513 55.2228 226.941 55.2398C225.576 55.2801 225.307 55.2847 225.307 55.2847C225.268 55.2878 225.258 55.2878 225.258 55.2878L225.265 56.5704C226.802 57.9536 230.321 78.899 230.617 78.8851C230.948 78.8696 237.903 80.6195 237.78 80.0331C237.76 79.9372 233.066 76.0956 231.734 70.5506C231.287 68.6893 231.066 66.6842 230.824 64.9313C232.37 65.7064 238.405 68.6754 239.361 68.284C242.335 67.0648 242.126 52.3853 242.126 52.3853Z" fill="#F7CC7F"/>
<path d="M254.103 89.5759C254.103 89.5759 260.573 94.6444 260.79 95.5433C261.101 96.8383 267.026 95.1364 265.597 94.8734C265.269 94.813 264.217 94.5454 264.13 94.499C263.667 94.2514 257.91 87.314 257.91 87.314L254.103 89.5759Z" fill="#F7A491"/>
<path d="M268.374 94.8719L264.243 94.5361C264.243 94.5361 263.062 95.5139 260.792 95.5588C260.792 95.5588 260.43 96.5954 260.602 97.8068C260.632 98.0157 260.667 98.6469 260.878 98.633C261.64 98.5804 263.675 98.0745 265.991 97.6119C265.991 97.6119 269.105 96.9528 270.903 95.876C272.702 94.8007 268.374 94.8719 268.374 94.8719Z" fill="#F7CC7F"/>
<path d="M225.11 76.8614C225.11 76.8614 229.848 77.6581 235.09 76.4312C241.153 75.0125 247.858 73.7005 249.823 74.8439C251.404 75.7629 261.28 90.6837 261.28 90.6837L257.466 93.467L246.593 81.2924C246.593 81.2924 232.721 86.4104 229.605 85.8442C222.508 84.5523 222.407 78.885 225.11 76.8614Z" fill="#355389"/>
<path d="M239.924 99.5861C239.924 99.5861 239.637 107.412 239.457 108.738C239.279 110.057 242.779 114.032 242.332 112.649C242.228 112.33 241.964 111.278 241.964 111.18C241.962 110.656 243.262 101.729 243.262 101.729L239.924 99.5861Z" fill="#F7A491"/>
<path d="M244.569 115.5L241.985 111.3C241.985 111.3 240.563 110.726 239.446 108.75C239.446 108.75 238.362 108.923 237.378 109.65C237.208 109.776 236.05 110.622 236.131 110.817C236.428 111.535 238.003 113.074 239.726 114.756C239.726 114.756 242.169 116.725 243.97 117.798C245.771 118.868 244.569 115.5 244.569 115.5Z" fill="#F7CC7F"/>
<path d="M247.605 84.1578C245.948 81.9485 232.576 79.8505 232.576 79.8505L228.847 72.6841L220.602 77.768C220.602 77.768 221.427 84.3296 222.046 86.0825C222.87 88.4187 228.411 88.5378 231.796 88.5022C234.91 88.4698 240.598 89.1056 240.598 89.1056L238.673 106.076C238.673 106.076 242.454 106.937 243.517 106.797C243.638 106.782 249.667 86.9056 247.605 84.1578Z" fill="#466EB6"/>
<path d="M225.304 55.3002L220.653 55.5601C220.653 55.5601 220.546 55.5926 220.514 55.5988C220.135 55.6684 220.48 69.2246 220.817 74.2885C221.154 79.3523 221.84 81.4781 221.84 81.4781C221.84 81.4781 228.149 80.358 230.085 79.6061C230.888 79.2935 232.832 76.8629 232.832 76.8629C232.832 76.8629 230.846 74.191 229.845 69.8528C229.073 66.5063 228.121 60.5744 227.577 59.3367C226.325 56.493 225.304 55.3002 225.304 55.3002Z" fill="#9BC1F9"/>
<path d="M220.785 51.4524L220.653 55.5601C220.653 55.5601 223.664 60.7493 225.211 60.0252C226.508 59.4187 225.356 55.4719 225.356 55.4719C225.356 55.4719 225.132 54.5668 224.82 53.5271C224.601 52.8 224.42 52.014 224.434 51.4369C224.465 50.0321 220.785 51.4524 220.785 51.4524Z" fill="#F7A491"/>
<path d="M224.433 51.4353C224.465 50.0321 220.783 51.4524 220.783 51.4524L220.771 51.8531C220.895 52.0403 221.032 52.1981 221.182 52.3203C222.172 53.1233 223.604 53.4853 224.769 53.3523C224.574 52.6762 224.421 51.9676 224.433 51.4353Z" fill="#F47458"/>
<path d="M224.382 42.0842C224.382 42.0842 225.917 44.3972 226.031 46.3436C226.145 48.2899 225.734 49.6189 225.734 49.6189L220.809 43.7335L224.382 42.0842Z" fill="#184655"/>
<path d="M226.54 45.9459C226.61 46.6282 226.345 47.2131 225.949 47.2533C225.553 47.2935 225.175 46.7737 225.106 46.0929C225.036 45.4106 225.301 44.8258 225.697 44.7856C226.093 44.7438 226.47 45.2636 226.54 45.9459Z" fill="#F48C7F"/>
<path d="M219.216 44.6758C219.103 44.6511 219.114 50.3183 220.757 51.652C222.4 52.9856 225.257 53.1032 226.093 51.7587C227.016 50.2735 226.138 44.3014 223.695 43.0343C221.252 41.7672 219.216 44.6758 219.216 44.6758Z" fill="#F7A491"/>
<path d="M218.798 41.1621C217.545 42.2622 216.937 43.0651 216.089 45.0192C215.046 47.4219 217.115 49.9129 218.851 50.9015C220.587 51.8901 220.73 53.0876 220.73 53.0876L220.802 52.3496C220.836 52.0804 220.826 51.8607 220.78 51.672C220.726 51.4492 220.622 51.2651 220.532 51.0732C220.385 50.7576 219.91 49.6761 219.725 49.3899C219.236 48.6365 219.14 48.474 219.381 47.7577C219.567 47.2069 219.352 45.9924 219.64 45.0842L221.976 44.5798C221.976 44.5798 223.438 44.2286 224.176 43.3761C226.296 40.9331 222.106 38.2055 218.798 41.1621Z" fill="#184655"/>
<path d="M219.938 48.3781C220.226 49.0001 220.166 49.6391 219.805 49.8077C219.443 49.9748 218.917 49.6066 218.629 48.9846C218.341 48.3627 218.402 47.7237 218.762 47.555C219.124 47.388 219.65 47.7577 219.938 48.3781Z" fill="#F7A491"/>
<path d="M220.652 55.56C220.652 55.56 216.039 55.345 214.85 54.8065C214.129 54.4801 208.202 49.7056 208.202 49.7056L208.268 36.9198L204.1 36.6027C204.1 36.6027 201.939 50.7344 202.687 52.2816C203.461 53.8783 212.134 60.4552 213.869 63.3082C214.868 64.9528 216.952 87.3108 217.268 87.512C219.513 88.6801 226.444 89.8466 226.28 89.138C221.77 69.5572 220.652 55.56 220.652 55.56Z" fill="#F7CC7F"/>
<path d="M222.619 49.8542L225.304 49.0017C225.304 49.0017 225.565 50.0414 224.396 50.4498C222.969 50.9496 222.619 49.8542 222.619 49.8542Z" fill="white"/>
</svg>
