<svg width="401" height="296" viewBox="0 0 401 296" fill="none" xmlns="http://www.w3.org/2000/svg">
<path d="M51.9517 171.376C52.5235 176.609 59.5296 175.456 64.1743 179.362C68.8175 183.268 64.2168 188.604 74.8628 189.749C81.4204 190.454 80.9578 187.707 87.4771 194.449C93.2173 200.385 94.2873 190.596 100.709 192.144C108.993 194.142 109.623 177.831 101.993 174.66C94.3639 171.488 90.6218 175.93 89.2226 169.078C87.8234 162.227 82.682 159.654 76.1528 161.185C68.0711 163.081 69.212 170.148 65.0484 166.261C60.8848 162.373 51.1953 164.454 51.9517 171.376Z" fill="#80B2FF"/>
<path d="M112 192.732C88.7174 174.672 61.3347 171.915 61.0593 171.89C60.0163 171.789 60.1369 170.534 61.18 170.635C61.4595 170.662 89.3843 173.53 112.953 191.809L112 192.732Z" fill="#005CEA"/>
<path d="M78.6561 153.407C77.3009 156.749 81.9001 158.329 83.4327 162.193C84.9639 166.056 80.8841 169.344 86.9322 173.492C90.6573 176.046 92.2197 171.186 95.7703 175.586C99.3223 179.987 97.591 181.254 100.73 182.418C106.203 184.447 111.958 175.938 108.387 171.547C104.817 167.157 99.9495 168.719 101.33 164.133C102.711 159.546 103.172 157.601 98.7376 156.404C93.2486 154.923 89.4624 158.273 88.2136 154.577C86.9663 150.881 80.4484 148.987 78.6561 153.407Z" fill="#4D93FF"/>
<path d="M112 192.732L112.953 191.945C104.678 173.269 84.6205 156.064 84.4616 155.957C83.7804 155.502 83.3007 156.219 83.9819 156.674C84.138 156.78 103.831 174.292 112 192.732Z" fill="#005CEA"/>
<path d="M342.419 83.2253H331.905V70.2393H342.419V83.2253ZM332.463 82.6676H341.863V70.7955H332.463V82.6676Z" fill="#80B2FF"/>
<path d="M340.591 72.5581H335.441V73.367H340.591V72.5581Z" fill="#0041A6"/>
<path d="M340.593 74.4568H333.919V75.2657H340.593V74.4568Z" fill="#0041A6"/>
<path d="M340.593 76.3568H333.919V77.1657H340.593V76.3568Z" fill="#0041A6"/>
<path d="M340.593 78.2557H333.919V79.0646H340.593V78.2557Z" fill="#0041A6"/>
<path d="M340.593 80.1544H333.919V80.9633H340.593V80.1544Z" fill="#0041A6"/>
<path d="M343.736 72.0415H333.778V84.4699H343.736V72.0415Z" fill="#80B2FF"/>
<path d="M342.185 74.0823H337.035V74.8912H342.185V74.0823Z" fill="#005CEA"/>
<path d="M342.186 75.9808H335.512V76.7897H342.186V75.9808Z" fill="#005CEA"/>
<path d="M342.186 77.8798H335.512V78.6886H342.186V77.8798Z" fill="#005CEA"/>
<path d="M342.186 79.7783H335.512V80.5872H342.186V79.7783Z" fill="#005CEA"/>
<path d="M342.186 81.6786H335.512V82.4875H342.186V81.6786Z" fill="#005CEA"/>
<path d="M286.263 34.4595H285.333V35.1562H286.263V34.4595Z" fill="#97C6FF"/>
<path d="M286.263 61.3652H285.335V59.9092H286.263V61.3652ZM286.263 58.4532H285.335V56.9973H286.263V58.4532ZM286.263 55.5413H285.335V54.0853H286.263V55.5413ZM286.263 52.6293H285.335V51.1733H286.263V52.6293ZM286.263 49.7159H285.335V48.2599H286.263V49.7159ZM286.263 46.8039H285.335V45.348H286.263V46.8039ZM286.263 43.892H285.335V42.436H286.263V43.892ZM286.263 40.98H285.335V39.524H286.263V40.98ZM286.263 38.068H285.335V36.6121H286.263V38.068Z" fill="#97C6FF"/>
<path d="M286.263 62.8213H285.333V63.5181H286.263V62.8213Z" fill="#97C6FF"/>
<path d="M278.674 34.4595H277.745V35.1562H278.674V34.4595Z" fill="#97C6FF"/>
<path d="M83.0777 96.7149H82.1497V95.32H83.0777V96.7149ZM83.0962 93.9591L82.1695 93.8909C82.2064 93.3957 82.293 92.9032 82.4264 92.4279L83.3204 92.679C83.2026 93.0948 83.1274 93.5262 83.0962 93.9591ZM83.7972 91.47L82.9713 91.0442C83.1984 90.6043 83.4708 90.1857 83.7816 89.7983L84.5053 90.3801C84.2343 90.7193 83.9945 91.0854 83.7972 91.47ZM85.4164 89.4534L84.8218 88.7396C85.2021 88.4218 85.6165 88.1422 86.0521 87.9066L86.4935 88.724C86.1117 88.9298 85.7499 89.1753 85.4164 89.4534ZM87.694 88.2259L87.4258 87.3362C87.8998 87.1928 88.3894 87.0978 88.8846 87.0523L88.9698 87.9776C88.537 88.0187 88.107 88.1011 87.694 88.2259ZM270.343 87.9506H268.948V87.0226H270.343V87.9506ZM267.552 87.9506H266.157V87.0226H267.552V87.9506ZM264.761 87.9506H263.366V87.0226H264.761V87.9506ZM261.971 87.9506H260.576V87.0226H261.971V87.9506ZM259.179 87.9506H257.784V87.0226H259.179V87.9506ZM256.388 87.9506H254.993V87.0226H256.388V87.9506ZM253.597 87.9506H252.202V87.0226H253.597V87.9506ZM250.807 87.9506H249.412V87.0226H250.807V87.9506ZM248.015 87.9506H246.621V87.0226H248.015V87.9506ZM245.224 87.9506H243.829V87.0226H245.224V87.9506ZM242.433 87.9506H241.038V87.0226H242.433V87.9506ZM239.641 87.9506H238.246V87.0226H239.641V87.9506ZM236.852 87.9506H235.457V87.0226H236.852V87.9506ZM234.06 87.9506H232.665V87.0226H234.06V87.9506ZM231.269 87.9506H229.874V87.0226H231.269V87.9506ZM228.477 87.9506H227.083V87.0226H228.477V87.9506ZM225.686 87.9506H224.291V87.0226H225.686V87.9506ZM222.896 87.9506H221.501V87.0226H222.896V87.9506ZM220.105 87.9506H218.71V87.0226H220.105V87.9506ZM217.314 87.9506H215.919V87.0226H217.314V87.9506ZM214.522 87.9506H213.127V87.0226H214.522V87.9506ZM211.732 87.9506H210.337V87.0226H211.732V87.9506ZM208.941 87.9506H207.546V87.0226H208.941V87.9506ZM206.15 87.9506H204.755V87.0226H206.15V87.9506ZM203.358 87.9506H201.963V87.0226H203.358V87.9506ZM200.567 87.9506H199.172V87.0226H200.567V87.9506ZM197.777 87.9506H196.382V87.0226H197.777V87.9506ZM194.986 87.9506H193.591V87.0226H194.986V87.9506ZM192.194 87.9506H190.799V87.0226H192.194V87.9506ZM189.403 87.9506H188.008V87.0226H189.403V87.9506ZM186.613 87.9506H185.218V87.0226H186.613V87.9506ZM183.822 87.9506H182.427V87.0226H183.822V87.9506ZM181.03 87.9506H179.635V87.0226H181.03V87.9506ZM178.239 87.9506H176.844V87.0226H178.239V87.9506ZM175.448 87.9506H174.053V87.0226H175.448V87.9506ZM172.658 87.9506H171.263V87.0226H172.658V87.9506ZM169.866 87.9506H168.471V87.0226H169.866V87.9506ZM167.075 87.9506H165.68V87.0226H167.075V87.9506ZM164.284 87.9506H162.889V87.0226H164.284V87.9506ZM161.492 87.9506H160.097V87.0226H161.492V87.9506ZM158.702 87.9506H157.307V87.0226H158.702V87.9506ZM155.911 87.9506H154.516V87.0226H155.911V87.9506ZM153.12 87.9506H151.725V87.0226H153.12V87.9506ZM150.328 87.9506H148.933V87.0226H150.328V87.9506ZM147.538 87.9506H146.143V87.0226H147.538V87.9506ZM144.747 87.9506H143.352V87.0226H144.747V87.9506ZM141.956 87.9506H140.561V87.0226H141.956V87.9506ZM139.164 87.9506H137.769V87.0226H139.164V87.9506ZM136.373 87.9506H134.978V87.0226H136.373V87.9506ZM133.583 87.9506H132.188V87.0226H133.583V87.9506ZM130.792 87.9506H129.397V87.0226H130.792V87.9506ZM128 87.9506H126.605V87.0226H128V87.9506ZM125.209 87.9506H123.814V87.0226H125.209V87.9506ZM122.418 87.9506H121.023V87.0226H122.418V87.9506ZM119.628 87.9506H118.233V87.0226H119.628V87.9506ZM116.836 87.9506H115.441V87.0226H116.836V87.9506ZM114.045 87.9506H112.65V87.0226H114.045V87.9506ZM111.254 87.9506H109.859V87.0226H111.254V87.9506ZM108.462 87.9506H107.067V87.0226H108.462V87.9506ZM105.672 87.9506H104.277V87.0226H105.672V87.9506ZM102.881 87.9506H101.486V87.0226H102.881V87.9506ZM100.09 87.9506H98.6948V87.0226H100.09V87.9506ZM97.2984 87.9506H95.9035V87.0226H97.2984V87.9506ZM94.5085 87.9506H93.1135V87.0226H94.5085V87.9506ZM91.7171 87.9506H90.3222V87.0226H91.7171V87.9506ZM271.771 87.9336L271.707 87.0069C272.14 86.9771 272.571 86.9033 272.989 86.7884L273.235 87.6838C272.759 87.8158 272.266 87.8995 271.771 87.9336ZM274.621 87.1446L274.199 86.3173C274.585 86.1214 274.953 85.8844 275.292 85.6134L275.869 86.34C275.482 86.6493 275.06 86.9204 274.621 87.1446ZM276.934 85.3055L276.223 84.708C276.502 84.376 276.749 84.0141 276.956 83.6338L277.772 84.0779C277.535 84.5122 277.254 84.9251 276.934 85.3055ZM278.348 82.7085L277.46 82.4361C277.586 82.0231 277.672 81.5945 277.714 81.1617L278.638 81.2511C278.591 81.745 278.493 82.236 278.348 82.7085ZM278.673 79.8122H277.745V78.4172H278.673V79.8122ZM278.673 77.0208H277.745V75.6259H278.673V77.0208ZM278.673 74.2295H277.745V72.8345H278.673V74.2295ZM278.673 71.4395H277.745V70.0446H278.673V71.4395ZM278.673 68.6482H277.745V67.2532H278.673V68.6482ZM278.673 65.8569H277.745V64.4619H278.673V65.8569ZM278.673 63.0655H277.745V61.6705H278.673V63.0655ZM278.673 60.2742H277.745V58.8792H278.673V60.2742ZM278.673 57.4842H277.745V56.0893H278.673V57.4842ZM278.673 54.6929H277.745V53.2979H278.673V54.6929ZM278.673 51.9015H277.745V50.5066H278.673V51.9015ZM278.673 49.1102H277.745V47.7152H278.673V49.1102ZM278.673 46.3203H277.745V44.9253H278.673V46.3203ZM278.673 43.5289H277.745V42.134H278.673V43.5289ZM278.673 40.7376H277.745V39.3426H278.673V40.7376ZM278.673 37.9462H277.745V36.5513H278.673V37.9462Z" fill="#97C6FF"/>
<path d="M83.0777 98.1254H82.1497V98.8221H83.0777V98.1254Z" fill="#97C6FF"/>
<path d="M291.849 34.4595H290.919V35.1562H291.849V34.4595Z" fill="#97C6FF"/>
<path d="M291.847 49.6478H290.919V48.1989H291.847V49.6478ZM291.847 46.7486H290.919V45.2997H291.847V46.7486ZM291.847 43.8508H290.919V42.402H291.847V43.8508ZM291.847 40.9516H290.919V39.5028H291.847V40.9516ZM291.847 38.0539H290.919V36.605H291.847V38.0539Z" fill="#97C6FF"/>
<path d="M292.08 52.2577H290.919V51.0969H291.847V51.3282H292.08V52.2577Z" fill="#97C6FF"/>
<path d="M325.573 93.2239H324.645V91.8389H325.573V93.2239ZM325.573 90.4538H324.645V89.0688H325.573V90.4538ZM325.573 87.6824H324.645V86.2973H325.573V87.6824ZM325.573 84.9123H324.645V83.5273H325.573V84.9123ZM325.573 82.1408H324.645V80.7558H325.573V82.1408ZM325.573 79.3708H324.645V77.9857H325.573V79.3708ZM325.573 76.5993H324.645V75.2143H325.573V76.5993ZM325.573 73.8292H324.645V72.4442H325.573V73.8292ZM325.573 71.0578H324.645V69.6727H325.573V71.0578ZM325.573 68.2877H324.645V66.9027H325.573V68.2877ZM325.573 65.5162H324.645V64.1312H325.573V65.5162ZM325.573 62.7462H324.645V61.3611H325.573V62.7462ZM325.573 59.9761H324.645V58.5911H325.573V59.9761ZM324.639 57.2245C324.622 56.8002 324.553 56.3787 324.432 55.9743L325.323 55.7117C325.464 56.19 325.546 56.6852 325.567 57.1862L324.639 57.2245ZM323.927 54.8106C323.711 54.4459 323.451 54.1082 323.153 53.8059L323.815 53.1545C324.165 53.5107 324.472 53.9095 324.726 54.3395L323.927 54.8106ZM322.16 53.0169C321.798 52.7955 321.409 52.6195 321.006 52.4932L321.283 51.6063C321.76 51.7553 322.218 51.9639 322.645 52.225L322.16 53.0169ZM319.759 52.2662C319.66 52.2605 319.559 52.2577 319.458 52.2577H318.401V51.3296H319.458C319.576 51.3296 319.695 51.3324 319.813 51.3395L319.759 52.2662ZM317.016 52.2577H315.631V51.3296H317.016V52.2577ZM314.244 52.2577H312.859V51.3296H314.244V52.2577ZM311.474 52.2577H310.089V51.3296H311.474V52.2577ZM308.703 52.2577H307.318V51.3296H308.703V52.2577ZM305.933 52.2577H304.548V51.3296H305.933V52.2577ZM303.161 52.2577H301.776V51.3296H303.161V52.2577ZM300.391 52.2577H299.006V51.3296H300.391V52.2577ZM297.621 52.2577H296.236V51.3296H297.621V52.2577ZM294.85 52.2577H293.465V51.3296H294.85V52.2577Z" fill="#97C6FF"/>
<path d="M325.572 94.6145H324.644V95.3113H325.572V94.6145Z" fill="#97C6FF"/>
<path d="M279.524 34.4C279.542 34.1615 279.555 33.9217 279.555 33.6791C279.555 28.5959 275.434 24.4749 270.351 24.4749C265.267 24.4749 261.146 28.5959 261.146 33.6791C261.146 33.9217 261.159 34.1615 261.178 34.4H279.524Z" fill="#80B2FF"/>
<path d="M309.759 34.4C309.777 34.1615 309.79 33.9217 309.79 33.6791C309.79 28.5959 305.669 24.4749 300.586 24.4749C295.503 24.4749 291.381 28.5959 291.381 33.6791C291.381 33.9217 291.394 34.1615 291.413 34.4H309.759Z" fill="#80B2FF"/>
<path d="M299.172 34.4001C299.243 33.8381 299.28 33.2662 299.28 32.6844C299.28 25.2385 293.243 19.2017 285.797 19.2017C278.351 19.2017 272.315 25.2385 272.315 32.6844C272.315 33.2662 272.351 33.8381 272.422 34.4001H299.172Z" fill="#80B2FF"/>
<path d="M131.9 139.186H69.1893C67.8696 139.186 66.7982 138.116 66.7982 136.794V101.212C66.7982 99.8925 67.8681 98.821 69.1893 98.821H131.9C133.22 98.821 134.291 99.891 134.291 101.212V136.794C134.291 138.114 133.22 139.186 131.9 139.186Z" fill="#4D93FF"/>
<path d="M134.29 106.444H66.7983V113.409H134.29V106.444Z" fill="#0046B3"/>
<path d="M82.2578 131.44H72.3341C71.7026 131.44 71.1918 131.951 71.1918 132.582C71.1918 133.214 71.7026 133.725 72.3341 133.725H82.2578C82.8879 133.725 83.4002 133.214 83.4002 132.582C83.4002 131.952 82.8893 131.44 82.2578 131.44Z" fill="#D1F5FF"/>
<path d="M97.5186 131.44H87.5949C86.9634 131.44 86.4526 131.951 86.4526 132.582C86.4526 133.214 86.9634 133.725 87.5949 133.725H97.5186C98.1501 133.725 98.661 133.214 98.661 132.582C98.661 131.952 98.1487 131.44 97.5186 131.44Z" fill="#D1F5FF"/>
<path d="M112.78 131.44H102.856C102.224 131.44 101.714 131.951 101.714 132.582C101.714 133.214 102.224 133.725 102.856 133.725H112.78C113.411 133.725 113.922 133.214 113.922 132.582C113.92 131.952 113.41 131.44 112.78 131.44Z" fill="#D1F5FF"/>
<path d="M128.039 131.44H118.115C117.484 131.44 116.973 131.951 116.973 132.582C116.973 133.214 117.484 133.725 118.115 133.725H128.039C128.67 133.725 129.181 133.214 129.181 132.582C129.181 131.952 128.67 131.44 128.039 131.44Z" fill="#D1F5FF"/>
<path d="M71.8772 100.87C71.1804 100.87 70.617 101.435 70.617 102.13V102.573C70.617 103.27 71.1818 103.833 71.8772 103.833C72.5739 103.833 73.1373 103.268 73.1373 102.573V102.13C73.1373 101.435 72.5739 100.87 71.8772 100.87Z" fill="#D1F5FF"/>
<path d="M74.5934 102.352C74.5934 103.17 75.2575 103.833 76.0749 103.833H81.3284C82.1472 103.833 82.8099 103.169 82.8099 102.352C82.8099 101.533 82.1458 100.87 81.3284 100.87H76.0763C75.2561 100.87 74.5934 101.534 74.5934 102.352Z" fill="#D1F5FF"/>
<path d="M73.9036 117.156H80.6882C81.7753 117.156 82.6565 118.037 82.6565 119.124V124.973C82.6565 126.06 81.7753 126.942 80.6882 126.942H73.9036C72.8166 126.942 71.9353 126.06 71.9353 124.973V119.124C71.9353 118.037 72.8166 117.156 73.9036 117.156Z" fill="#FFBD73"/>
<path d="M182.87 51.8932C183.825 48.1241 183.982 44.3167 183.436 40.6881L184.588 40.515L186.864 40.1744L186.893 40.1687C186.275 36.015 184.855 32.0544 182.729 28.5038L179.731 30.2904C177.806 27.079 175.27 24.2323 172.199 21.976L174.281 19.1634C171.034 16.7396 167.257 14.9061 163.089 13.8489L162.229 17.2447C158.447 16.2869 154.652 16.1322 151.024 16.6785L150.504 13.2202C146.351 13.8375 142.387 15.2708 138.84 17.3838L140.626 20.3824C137.415 22.3066 134.568 24.8425 132.31 27.9135L129.498 25.8316C127.074 29.0771 125.239 32.8561 124.183 37.024L127.579 37.884C126.621 41.6658 126.467 45.4605 127.011 49.0891L124.565 49.4552L123.567 49.6127L123.555 49.6099C124.172 53.7636 125.605 57.7271 127.717 61.2748L130.715 59.4882C132.64 62.6996 135.188 65.5505 138.258 67.8068L136.176 70.6195C139.423 73.0433 143.189 74.8739 147.357 75.9297L148.217 72.5338C151.999 73.4917 155.806 73.6492 159.435 73.1043L159.835 75.7935L159.954 76.5626C164.108 75.9453 168.059 74.5092 171.605 72.3962L169.818 69.3976C173.03 67.4734 175.881 64.9247 178.15 61.858L180.962 63.9398C183.373 60.6901 185.204 56.9239 186.26 52.756L182.87 51.8932ZM151.421 59.8997C143.124 57.7966 138.11 49.3814 140.213 41.084C142.312 32.7994 150.729 27.7872 159.026 29.8888C167.311 31.9877 172.323 40.4043 170.224 48.6889C168.121 56.9849 159.706 61.9985 151.421 59.8997Z" stroke="#D2E4FF" stroke-width="3.9266" stroke-miterlimit="10"/>
<path d="M114.038 56.3078C112.762 54.707 111.217 53.427 109.523 52.5003L109.818 51.9625L110.401 50.8996L110.408 50.8854C108.47 49.8211 106.358 49.1541 104.193 48.9143L103.985 50.7407C102.026 50.5236 100.025 50.6797 98.1004 51.2473L97.5853 49.4791C95.5347 50.0666 93.5621 51.0671 91.7911 52.4776L92.9406 53.9209C91.3342 55.2009 90.0598 56.742 89.1332 58.4364L87.5182 57.5523C86.4539 59.4908 85.7912 61.6081 85.5457 63.7679L87.3721 63.9751C87.155 65.9348 87.3111 67.9358 87.8787 69.86L86.1105 70.3752C86.698 72.4258 87.6985 74.3983 89.109 76.1693L90.5523 75.0198C91.8323 76.6263 93.3734 77.9006 95.0678 78.8273L94.4406 79.9696L94.188 80.4379L94.1823 80.4422C96.1193 81.5065 98.238 82.1692 100.398 82.4147L100.605 80.5883C102.565 80.8055 104.571 80.6451 106.496 80.0775L107.011 81.8457C109.061 81.2582 111.028 80.262 112.799 78.8514L111.65 77.4082C113.256 76.1282 114.535 74.5828 115.463 72.8884L116.717 73.5781L117.078 73.7725C118.142 71.834 118.799 69.721 119.045 67.5611L117.218 67.3539C117.435 65.3942 117.275 63.3876 116.713 61.459L118.481 60.9439C117.888 58.8976 116.892 56.9307 115.481 55.1597L114.038 56.3078ZM107.374 72.0398C103.849 74.8467 98.7234 74.2663 95.9164 70.7413C93.1137 67.222 93.6941 62.0962 97.2191 59.2893C100.738 56.4866 105.864 57.067 108.667 60.5863C111.474 64.1113 110.893 69.2356 107.374 72.0398Z" stroke="#D2E4FF" stroke-width="3.9266" stroke-miterlimit="10"/>
<path d="M340.762 169.195C339.29 167.347 337.506 165.871 335.551 164.8L335.891 164.178L336.564 162.952L336.571 162.937C334.335 161.708 331.898 160.939 329.399 160.662L329.161 162.769C326.9 162.52 324.59 162.7 322.37 163.354L321.776 161.313C319.41 161.992 317.132 163.145 315.09 164.773L316.416 166.438C314.561 167.915 313.092 169.693 312.021 171.649L310.158 170.628C308.929 172.865 308.164 175.308 307.883 177.8L309.99 178.039C309.739 180.299 309.921 182.61 310.575 184.829L308.534 185.424C309.212 187.789 310.366 190.067 311.994 192.109L313.659 190.782C315.136 192.637 316.914 194.106 318.869 195.177L318.146 196.495L317.855 197.036L317.849 197.042C320.086 198.271 322.529 199.036 325.021 199.318L325.26 197.211C327.52 197.46 329.836 197.276 332.057 196.62L332.652 198.661C335.017 197.983 337.288 196.833 339.331 195.205L338.006 193.541C339.861 192.064 341.336 190.28 342.406 188.324L343.854 189.119L344.27 189.345C345.499 187.108 346.256 184.67 346.539 182.177L344.431 181.938C344.681 179.678 344.497 177.362 343.848 175.137L345.889 174.542C345.203 172.181 344.055 169.91 342.428 167.867L340.762 169.195ZM333.072 187.349C329.005 190.589 323.09 189.919 319.85 185.852C316.614 181.791 317.286 175.876 321.353 172.636C325.414 169.401 331.329 170.071 334.563 174.132C337.803 178.2 337.133 184.114 333.072 187.349Z" stroke="#00224D" stroke-opacity="0.28" stroke-width="3.9266" stroke-miterlimit="10"/>
<path d="M334.111 215.232H72.0552C71.198 215.232 70.5027 214.536 70.5027 213.679C70.5027 212.822 71.198 212.127 72.0552 212.127H334.112C334.97 212.127 335.665 212.822 335.665 213.679C335.665 214.536 334.97 215.232 334.111 215.232Z" fill="#003C99"/>
<g filter="url(#filter0_d)">
<path d="M307.297 204.238H96.9757C94.146 204.238 91.8514 201.943 91.8514 199.113V68.5928C91.8514 65.7632 94.146 63.4685 96.9757 63.4685H307.297C310.127 63.4685 312.422 65.7632 312.422 68.5928V199.113C312.422 201.943 310.128 204.238 307.297 204.238Z" fill="#B3D1FF"/>
<path d="M96.9756 203.287C94.6753 203.287 92.8035 201.415 92.8035 199.113V68.5928C92.8035 66.2924 94.6753 64.4207 96.9756 64.4207H307.297C309.598 64.4207 311.469 66.2924 311.469 68.5928V199.113C311.469 201.414 309.598 203.287 307.297 203.287H96.9756Z" fill="black"/>
<path d="M305.194 69.1604H99.3016V197.893H305.194V69.1604Z" fill="#6270F0"/>
<path d="M327.509 204.236V207.665C327.509 207.839 327.499 208.012 327.478 208.181C327.224 210.402 325.337 212.126 323.048 212.126H78.3813C76.0923 212.126 74.2064 210.402 73.9524 208.181C73.9311 208.012 73.9211 207.839 73.9211 207.665V204.236H327.509Z" fill="#599AFF"/>
<path d="M327.478 208.181C327.224 210.402 325.337 212.126 323.048 212.126H78.3813C76.0923 212.126 74.2063 210.402 73.9523 208.181H327.478Z" fill="#406EFF"/>
<path opacity="0.3" d="M259.895 173.803H145.9C142.784 173.803 140.256 171.275 140.256 168.159V102.11C140.256 98.994 142.784 96.4666 145.9 96.4666H259.895C263.012 96.4666 265.539 98.994 265.539 102.11V168.159C265.539 171.277 263.012 173.803 259.895 173.803Z" fill="#80B2FF"/>
<path d="M221.882 153.741H203.478C201.921 153.741 200.647 152.467 200.647 150.91C200.647 149.353 201.921 148.079 203.478 148.079H221.882C223.439 148.079 224.713 149.353 224.713 150.91C224.715 152.467 223.44 153.741 221.882 153.741Z" fill="#FF9F34"/>
<path d="M235.249 131.182H195.088C193.532 131.182 192.257 129.907 192.257 128.351C192.257 126.794 193.532 125.52 195.088 125.52H235.249C236.805 125.52 238.08 126.794 238.08 128.351C238.08 129.907 236.807 131.182 235.249 131.182Z" fill="white"/>
<path d="M235.249 141.841H195.088C193.532 141.841 192.257 140.566 192.257 139.009C192.257 137.453 193.532 136.178 195.088 136.178H235.249C236.805 136.178 238.08 137.453 238.08 139.009C238.08 140.566 236.807 141.841 235.249 141.841Z" fill="white"/>
<path d="M201.884 139.261C201.884 139.811 201.437 140.257 200.888 140.257C200.339 140.257 199.892 139.81 199.892 139.261C199.892 138.71 200.338 138.264 200.888 138.264C201.439 138.264 201.884 138.71 201.884 139.261Z" fill="#80B2FF"/>
<path d="M205.302 139.261C205.302 139.811 204.855 140.257 204.306 140.257C203.755 140.257 203.309 139.81 203.309 139.261C203.309 138.71 203.756 138.264 204.306 138.264C204.856 138.263 205.302 138.71 205.302 139.261Z" fill="#80B2FF"/>
<path d="M208.72 139.261C208.72 139.811 208.273 140.257 207.724 140.257C207.175 140.257 206.728 139.81 206.728 139.261C206.728 138.71 207.175 138.264 207.724 138.264C208.273 138.264 208.72 138.71 208.72 139.261Z" fill="#80B2FF"/>
<path d="M212.137 139.261C212.137 139.811 211.69 140.257 211.141 140.257C210.591 140.257 210.145 139.81 210.145 139.261C210.145 138.71 210.592 138.264 211.141 138.264C211.69 138.263 212.137 138.71 212.137 139.261Z" fill="#80B2FF"/>
<path d="M215.555 139.261C215.555 139.811 215.108 140.257 214.558 140.257C214.009 140.257 213.562 139.81 213.562 139.261C213.562 138.71 214.009 138.264 214.558 138.264C215.108 138.264 215.555 138.71 215.555 139.261Z" fill="#80B2FF"/>
<path d="M218.973 139.261C218.973 139.811 218.526 140.257 217.977 140.257C217.426 140.257 216.981 139.81 216.981 139.261C216.981 138.71 217.428 138.264 217.977 138.264C218.526 138.263 218.973 138.71 218.973 139.261Z" fill="#80B2FF"/>
<path d="M222.39 139.261C222.39 139.811 221.943 140.257 221.394 140.257C220.844 140.257 220.398 139.81 220.398 139.261C220.398 138.71 220.845 138.264 221.394 138.264C221.945 138.263 222.39 138.71 222.39 139.261Z" fill="#80B2FF"/>
<path d="M225.809 139.261C225.809 139.811 225.362 140.257 224.813 140.257C224.262 140.257 223.816 139.81 223.816 139.261C223.816 138.71 224.263 138.264 224.813 138.264C225.362 138.263 225.809 138.71 225.809 139.261Z" fill="#80B2FF"/>
<path d="M229.226 139.261C229.226 139.811 228.779 140.257 228.23 140.257C227.679 140.257 227.234 139.81 227.234 139.261C227.234 138.71 227.681 138.264 228.23 138.264C228.78 138.263 229.226 138.71 229.226 139.261Z" fill="#80B2FF"/>
<path d="M213.931 119.064C217.198 119.064 219.846 116.416 219.846 113.149C219.846 109.883 217.198 107.235 213.931 107.235C210.664 107.235 208.016 109.883 208.016 113.149C208.016 116.416 210.664 119.064 213.931 119.064Z" fill="white"/>
<path d="M213.94 112.911C214.517 112.911 215.051 112.63 215.39 112.2C215.641 111.889 215.79 111.489 215.79 111.045C215.79 110.023 214.961 109.179 213.94 109.179C212.904 109.179 212.073 110.023 212.073 111.045C212.073 111.489 212.221 111.889 212.474 112.2C212.814 112.63 213.348 112.911 213.94 112.911Z" fill="#005CEA"/>
<path d="M217.218 116.235C217.218 117.412 210.643 117.412 210.643 116.235L210.644 114.862C210.904 112.986 216.683 112.908 217.218 114.862V116.235Z" fill="#005CEA"/>
<path d="M201.164 138.487V138.335C201.164 137.721 200.664 137.221 200.05 137.221C199.435 137.221 198.936 137.721 198.936 138.335V138.487H198.767V140.495C198.767 140.842 201.34 140.842 201.34 140.495V138.487H201.164ZM199.333 138.335C199.333 137.949 199.57 137.6 200.05 137.6C200.529 137.6 200.775 137.928 200.775 138.335V138.487H199.333V138.335ZM200.24 139.499V140.079C200.24 140.183 200.15 140.258 200.047 140.258C199.943 140.258 199.868 140.184 199.868 140.079V139.499C199.764 139.439 199.689 139.336 199.689 139.201C199.689 139.008 199.852 138.843 200.047 138.843C200.24 138.843 200.404 139.007 200.404 139.201C200.403 139.336 200.329 139.439 200.24 139.499Z" fill="#4D4D4D"/>
<path d="M196.339 128.145C196.564 128.145 196.771 128.036 196.905 127.868C197.003 127.748 197.061 127.592 197.061 127.417C197.061 127.018 196.737 126.689 196.339 126.689C195.934 126.689 195.611 127.018 195.611 127.417C195.611 127.59 195.669 127.746 195.767 127.868C195.899 128.036 196.107 128.145 196.339 128.145Z" fill="#4D4D4D"/>
<path d="M197.617 129.442C197.617 129.902 195.037 129.902 195.037 129.442L195.051 128.907C195.152 128.175 197.409 128.143 197.617 128.907V129.442Z" fill="#4D4D4D"/>
<path d="M211.15 129.181H200.721C200.264 129.181 199.891 128.808 199.891 128.351C199.891 127.894 200.264 127.521 200.721 127.521H211.15C211.607 127.521 211.98 127.894 211.98 128.351C211.981 128.808 211.607 129.181 211.15 129.181Z" fill="#80B2FF"/>
<path d="M204.687 123.118H194.617C194.16 123.118 193.787 122.745 193.787 122.288C193.787 121.831 194.16 121.458 194.617 121.458H204.687C205.144 121.458 205.517 121.831 205.517 122.288C205.517 122.745 205.144 123.118 204.687 123.118Z" fill="#80B2FF"/>
<path d="M224.905 129.181H214.476C214.019 129.181 213.646 128.808 213.646 128.351C213.646 127.894 214.019 127.521 214.476 127.521H224.905C225.362 127.521 225.735 127.894 225.735 128.351C225.735 128.808 225.362 129.181 224.905 129.181Z" fill="#80B2FF"/>
<path d="M160.822 127.979V142.666C160.822 144.298 180.792 144.298 180.792 142.666V127.979H160.822Z" fill="white"/>
<path d="M170.808 135.991C172.169 135.991 173.273 134.887 173.273 133.526C173.273 132.165 172.169 131.061 170.808 131.061C169.446 131.061 168.343 132.165 168.343 133.526C168.343 134.887 169.446 135.991 170.808 135.991Z" fill="#005CEA"/>
<path d="M170.808 140.951C170.25 140.951 169.797 140.498 169.797 139.94V134.285H171.818V139.94C171.818 140.499 171.365 140.951 170.808 140.951Z" fill="#005CEA"/>
<path d="M179.043 126.933H177.022V125.944C177.022 122.517 174.235 119.73 170.808 119.73C167.381 119.73 164.594 122.517 164.594 125.944V126.933H162.573V125.944C162.573 121.403 166.267 117.709 170.808 117.709C175.349 117.709 179.043 121.403 179.043 125.944V126.933Z" fill="white"/>
</g>
<path d="M266.26 127.173L267.215 131.01L267.388 131.724C267.581 132.631 273.567 132.245 273.144 131.185L272.788 130.404L270.947 126.365L266.26 127.173Z" fill="#F7A58E"/>
<path d="M262.759 121.482C262.698 125.643 264.63 129.026 267.652 129.011C270.675 128.996 273.598 126.432 273.705 121.428C273.772 118.241 271.227 115.668 268.204 115.682C265.182 115.698 262.806 118.294 262.759 121.482Z" fill="#F7A58E"/>
<path d="M268.114 114.539C268.114 114.539 262.092 114.835 261.591 119.396C260.923 123.399 263.926 120.456 265.152 123.143C266.557 126.219 265.125 128.471 263.3 129.083C264.922 131.349 274.201 131.267 276.59 127.292C278.223 122.307 275.91 114.815 268.114 114.539Z" fill="black"/>
<path d="M265.744 123.929C266.216 123.528 266.274 122.82 265.872 122.347C265.471 121.875 264.762 121.817 264.29 122.218C263.818 122.62 263.76 123.328 264.161 123.801C264.563 124.273 265.271 124.331 265.744 123.929Z" fill="#F7A58E"/>
<path d="M264.813 200.378C264.53 200.078 263.199 200.074 263.077 200.517C262.955 200.96 263.191 201.275 262.629 201.976C262.952 202.069 264.099 202.078 264.449 201.976C264.801 201.872 265.095 200.676 264.813 200.378Z" fill="white"/>
<path d="M267.014 201.888H263.768C263.465 188.157 263.523 173.209 263.632 161.953C263.672 157.922 263.783 155.882 264.513 153.463C265.991 148.575 272.933 150.08 273.427 154.51C273.632 156.968 273.783 161.764 269.238 178.06C271.206 185.235 267.772 193.837 267.014 201.888Z" fill="#00050D"/>
<path d="M261.95 202.098C262.429 202.072 263.544 201.612 263.754 201.295C264.065 201.641 264.711 201.737 265.49 201.621C266.411 201.483 266.531 201.056 267.193 201.113C267.471 201.888 268.149 203.625 267.495 204.028C267.495 204.028 263.625 204.028 260.673 204.028C260.065 203.471 260.082 202.284 261.95 202.098Z" fill="white"/>
<path d="M281.332 200.724C281.095 200.473 279.976 200.469 279.874 200.84C279.771 201.212 279.969 201.477 279.496 202.066C279.769 202.144 280.732 202.152 281.027 202.066C281.322 201.981 281.569 200.977 281.332 200.724Z" fill="white"/>
<path d="M270.64 154.385C271.304 149.323 280.309 149.843 280.908 154.263C281.124 156.642 281.785 160.222 280.092 177.887C283.663 184.629 282.654 194.301 283.719 201.422C283.837 202.505 280.768 202.766 280.529 201.8C277.258 188.588 272.689 173.766 270.989 162.775C270.373 158.791 270.31 156.893 270.64 154.385Z" fill="#00050D"/>
<path d="M278.918 201.888C279.397 201.862 280.101 201.241 280.312 200.923C280.623 201.269 281.215 201.736 281.994 201.62C282.915 201.482 283.035 201.055 283.697 201.112C283.975 201.886 284.653 203.623 283.999 204.026C283.999 204.026 280.315 204.026 277.363 204.026C276.753 203.472 277.048 202.075 278.918 201.888Z" fill="white"/>
<path d="M241.947 147.23L241.611 145.543C242.435 145.222 243.684 144.555 245.137 143.989L245.935 146.724C244.327 146.963 242.901 147.138 241.947 147.23Z" fill="#F7A58E"/>
<path d="M245.139 143.989C247.94 142.686 252.739 139.855 253.843 139.34L265.686 132.07C268.24 131.295 271.217 136.35 267.989 138.631C267.989 138.631 249.678 146.167 245.937 146.724L245.139 143.989Z" fill="#FF7268"/>
<path d="M240.749 148.587C239.604 148.243 239.207 146.556 239.177 146.428L241.547 145.564C242.699 145.099 243.36 146.492 242.632 147.498C242.632 147.497 241.841 148.841 240.749 148.587Z" fill="#F7A58E"/>
<path d="M239.728 147.087C236.99 147.674 237.097 147.005 237.097 147.005C237.097 147.005 238.02 146.698 239.688 146.243C240.651 146.027 240.386 146.873 239.728 147.087Z" fill="#F7A58E"/>
<path d="M263.703 139.295C263.134 136.525 262.829 133.79 265.684 132.07C267.377 131.051 272.818 130.322 275.361 131.165C277.924 132.31 277.37 137.307 277.85 145.197C279.617 149.135 280.384 150.427 280.907 154.263C280.907 154.263 279.962 157.153 273.305 157.157C270.282 157.158 265.829 156.89 263.804 155.347C264.005 152.732 265.099 150.212 265.555 146.509C265.555 146.509 263.744 139.613 263.703 139.295Z" fill="#FF7268"/>
<path d="M276.727 131.722C279.852 134.108 282.9 137.86 284.341 139.851C285.781 141.842 289.512 149.85 289.512 149.85L287.138 151.601L280.715 142.849L272.869 136.414C270.146 133.634 273.685 129.398 276.727 131.722Z" fill="#FF7268"/>
<path d="M290.507 151.881L288.967 148.7C288.605 149.657 286.843 150.53 286.337 150.511C286.337 150.511 287.992 152.892 288.397 153.297C288.802 153.701 290.473 153.016 290.507 151.881Z" fill="#F7A58E"/>
<path d="M288.006 152.764C288.012 152.788 288.005 152.82 288.012 152.844C288.089 154 288.978 154.548 289.22 154.679C289.238 154.694 289.261 154.698 289.282 154.703C288.445 154.535 288.195 155.656 288.621 155.915C289.853 156.748 291.607 155.601 291.756 154.907C291.906 154.202 290.504 151.866 290.504 151.866C289.787 151.288 287.955 151.378 288.006 152.764Z" fill="#F7A58E"/>
<path d="M288.013 152.844C288.063 154.153 289.241 154.69 289.264 154.695C289.953 154.676 290.199 154.634 290.857 154.635C290.427 154.425 289.547 153.869 289.888 152.786C289.213 152.271 288.198 152.722 288.013 152.844Z" fill="#E6856A"/>
<path d="M287.995 152.697C287.813 153.776 287.89 155.315 288.147 155.992C288.147 155.992 288.808 156.026 288.747 154.777C288.732 154.452 288.778 153.745 289.1 153.51C290.091 152.855 290.251 152.254 289.887 151.761C289.403 151.104 288.033 151.77 287.995 152.697Z" fill="#F7A58E"/>
<path d="M291.062 155.647C290.524 156.02 289.1 156.742 288.876 156.564C288.652 156.385 289.79 155.174 290.524 155.014C291.259 154.854 291.338 155.455 291.062 155.647Z" fill="#F7A58E"/>
<path d="M250.569 63.4586C252.106 61.2321 250.691 54.3041 244.128 52.3131C238.584 50.8827 235.697 52.6367 228.197 54.6787L229.317 63.4572H250.569V63.4586Z" fill="#50318F"/>
<path d="M237.19 52.6764C237.19 52.6764 223.754 55.4508 218.794 57.2757C215.951 58.3216 215.245 60.6744 216.341 62.4838C217.964 65.1644 237.24 63.2628 237.24 63.2628C243.89 61.4024 240.37 52.5601 237.19 52.6764Z" fill="#50318F"/>
<path d="M243.444 51.9228C243.444 51.9228 252.024 54.8333 256.85 56.9875C261.533 57.3565 261.227 63.1719 259.009 63.5465C253.911 64.9302 242.681 62.4822 242.681 62.4822C236.171 60.1776 240.279 51.5936 243.444 51.9228Z" fill="#50318F"/>
<path d="M229.839 57.9071C229.839 57.9071 227.134 53.7903 233.848 50.6016C240.562 47.4129 245.077 50.6002 243.959 54.4601C242.841 58.32 238.883 60.8943 238.883 60.8943C238.883 60.8943 232.189 60.9283 229.839 57.9071Z" fill="#50318F"/>
<path d="M237.397 57.3563C240.629 55.1142 239.33 50.7491 239.33 50.7491L238.107 48.4147L237.088 46.4719L231.698 48.548L232.679 52.5385C232.679 52.5385 232.946 53.4737 233.532 54.5182C234.274 55.8436 235.528 57.3507 237.397 57.3563Z" fill="#F7A28A"/>
<path d="M233.53 54.5167C236.119 52.8479 237.441 50.3262 238.107 48.4147L237.088 46.4719L231.698 48.548L232.679 52.5385C232.678 52.5385 232.944 53.4723 233.53 54.5167Z" fill="#F0896C"/>
<path d="M225.494 41.3393C225.494 41.3393 224.254 41.6699 224.075 43.1514C223.896 44.633 225.368 45.2375 225.368 45.2375C225.368 45.2375 224.404 47.0866 226.439 47.8344C230.588 49.36 230.184 40.414 225.494 41.3393Z" fill="#3D3D3D"/>
<path d="M226.676 46.1144C227.948 49.8651 230.593 53.3773 232.721 52.5032C236.332 51.0202 239.361 46.9872 237.863 42.7398C236.364 38.4939 233.144 36.5413 229.73 37.7461C226.314 38.9523 225.23 41.8486 226.676 46.1144Z" fill="#F7A28A"/>
<path d="M224.938 41.2711C225.7 41.9182 228.526 43.0166 234.367 40.1869C235.337 40.888 236.06 41.9551 236.553 43.1401C237.104 43.0095 237.327 42.7229 237.706 43.194C238.229 43.8454 238.506 45.2701 237.855 45.7952C237.69 45.9286 237.506 46.0194 237.313 46.0733C237.078 47.0724 237.301 48.1707 238.106 48.4148C239.349 47.4144 239.199 47.183 239.657 46.0322C241.107 45.0147 241.11 42.781 239.942 42.1708C241.05 41.1321 239.712 38.8558 238.072 38.7792C238.083 37.5205 236.481 35.2712 234.466 36.5867C234.524 35.2329 232.066 34.3446 230.738 36.3384C229.667 34.8767 226.415 35.7608 226.54 37.7035C224.576 37.3615 223.496 40.0053 224.938 41.2711Z" fill="#3D3D3D"/>
<path d="M216.345 61.4747C216.345 61.4747 216.005 64.7357 222.014 65.2594C228.859 65.854 234.634 65.6808 234.634 65.6808L235.25 63.0967C235.25 63.0967 223.11 58.9785 220.138 58.7997C216.599 58.5854 216.345 61.4747 216.345 61.4747Z" fill="#F7A28A"/>
<path d="M235.103 63.0469L238.937 62.2466C238.937 62.2466 241.408 63.4287 242.175 64.9656C241.613 65.5956 240.079 64.2674 240.079 64.2674C240.079 64.2674 240.234 66.8373 239.858 67.3255C239.482 67.8137 237.599 68.1386 236.982 67.6093C236.364 67.0786 237.439 66.4485 237.439 66.4485L234.634 65.6822C234.633 65.6808 233.329 63.7239 235.103 63.0469Z" fill="#F7A28A"/>
<path d="M237.195 41.1663C237.195 41.108 237.148 41.061 237.09 41.061C237.031 41.061 236.984 41.108 236.984 41.1663C236.984 41.2246 237.031 41.2716 237.09 41.2716C237.148 41.2716 237.195 41.2246 237.195 41.1663Z" fill="#F7A28A"/>
<path d="M259.27 59.6098C259.27 59.6098 261.293 62.1897 256.484 65.8311C251.006 69.9777 246.025 72.9053 246.025 72.9053L244.128 71.0448C244.128 71.0448 252.214 61.097 254.634 59.3643C257.517 57.2981 259.27 59.6098 259.27 59.6098Z" fill="#F7A28A"/>
<path d="M244.125 71.0407L241.985 74.3216C241.985 74.3216 242.188 77.0519 243.34 78.3263C244.132 78.0311 243.451 76.1196 243.451 76.1196C243.451 76.1196 245.788 77.1981 246.38 77.025C246.972 76.8518 247.96 75.2156 247.69 74.4479C247.42 73.6802 246.443 74.4522 246.443 74.4522L246.907 72.0099C247.287 70.649 245.022 69.667 244.125 71.0407Z" fill="#F7A28A"/>
<path d="M138.257 120.114C138.629 123.616 136.863 127.348 134.644 127.322C131.599 127.285 127.661 124.779 127.289 121.276C126.917 117.774 129.071 114.676 132.101 114.354C135.129 114.035 137.885 116.613 138.257 120.114Z" fill="#F7B28A"/>
<path d="M119.383 200.725C119.383 200.725 122.582 200.368 125.075 200.725C127.143 202.091 128.035 202.011 128.035 202.011C128.919 202.242 129.313 203.456 128.546 203.456H119.125L119.383 200.725Z" fill="white"/>
<path d="M134.641 200.725C134.641 200.725 137.784 200.368 140.333 200.725C142.611 202.091 143.491 202.011 143.491 202.011C144.41 202.242 144.991 203.456 144.223 203.456H134.803L134.641 200.725Z" fill="white"/>
<path d="M131.711 131.467L125.789 129.469L130.079 120.534L134.242 122.534L131.711 131.467Z" fill="#F7B28A"/>
<path d="M137.589 137.733C137.589 137.733 142.182 141.1 139.94 144.671C138.268 147.334 132.92 144.45 132.92 141.354C132.921 138.562 135.07 136.916 137.589 137.733Z" fill="#F2B231"/>
<path d="M123.398 151.589C123.398 151.589 122.294 153.504 121.554 157.318C121.292 158.674 121.6 164.804 121.512 175.129C119.363 188.48 119.125 201.852 119.125 201.852L125.075 200.725L134.184 152.146L123.398 151.589Z" fill="#333333"/>
<path d="M136.868 152.828C138.037 161.994 138.883 170.222 138.958 176.223L140.333 200.725L134.675 201.807C133.516 194.203 131.584 184.707 131.279 175.898L125.111 152.899L136.868 152.828Z" fill="#333333"/>
<path d="M121.638 152.357C122.03 154.727 122.244 154.886 122.244 154.886L137.318 155.219C137.318 155.219 136.869 152.827 137.248 151.589C137.318 151.361 137.336 150.644 137.235 149.574C137.092 148.04 136.767 145.802 136.33 143.352C135.389 138.085 133.933 131.84 132.652 129.494L126.071 127.915C126.071 127.915 123.137 130.891 122.491 133.526C121.842 136.163 121.245 149.99 121.638 152.357Z" fill="#FFD834"/>
<path d="M132.24 141.622L137.234 149.576C137.091 148.042 136.766 145.804 136.329 143.353L132.24 141.622Z" fill="#F2B231"/>
<path d="M130.441 139.639C130.441 139.639 128.671 143.452 130.509 144.473C132.346 145.494 134.186 142.226 134.186 142.226L130.441 139.639Z" fill="#F7B28A"/>
<path d="M137.731 129.48L136.456 137.706L132.491 133.039C132.491 133.039 128.928 129.426 126.067 132.687C123.206 135.95 127.673 139.211 127.673 139.211C127.673 139.211 134.197 144.521 138.362 143.969C142.527 143.417 139.927 129.635 139.927 129.635L137.731 129.48Z" fill="#FFD834"/>
<path d="M137.73 129.48L137.088 126.347L138.725 123.859C138.725 123.859 139.335 123.409 139.56 124.79C140.008 125.433 140.556 125.908 140.491 126.633C140.427 127.358 139.927 129.635 139.927 129.635L137.73 129.48Z" fill="#F7B28A"/>
<path d="M126.071 127.918L126.537 126.713L133.507 129.48L134.055 132.507L126.071 127.918Z" fill="#FFEAC2"/>
<path d="M128.03 124.862C128.03 124.862 125.756 121.59 126.467 117.676C127.178 113.764 132.977 112.945 132.977 112.945C132.977 112.945 139.023 112.589 140.376 118.743C139.736 119.562 137.103 118.21 137.103 118.21L132.776 122.158C132.776 122.158 132.828 119.063 131.302 119.846C129.777 120.628 130.232 123.118 130.232 123.118C130.232 123.118 128.809 124.614 128.03 124.862Z" fill="black"/>
<path d="M287.805 104.421C287.805 104.314 287.805 104.267 287.806 104.256C287.806 104.277 287.805 104.421 287.805 104.421Z" fill="#D9FFFF"/>
<path d="M287.805 104.421C287.805 104.314 287.805 104.267 287.806 104.256C287.806 104.277 287.805 104.421 287.805 104.421Z" fill="#D9FFFF"/>
<path d="M351.248 104.705C351.248 104.705 351.248 104.56 351.249 104.541C351.249 104.551 351.249 104.598 351.248 104.705Z" fill="#D9FFFF"/>
<path d="M351.248 104.705C351.248 104.705 351.248 104.56 351.249 104.541C351.249 104.551 351.249 104.598 351.248 104.705Z" fill="#D9FFFF"/>
<path d="M319.645 89.5132C312.622 97.0358 301.415 103.202 289.424 105.828C289.42 106.629 289.4 111.066 289.309 131.518C289.187 158.8 315.152 172.132 319.182 174.179C323.087 172.381 349.38 159.07 349.502 131.786C349.593 111.334 349.613 106.897 349.617 106.097C337.65 103.363 326.6 97.0982 319.645 89.5132Z" fill="white"/>
<path d="M319.581 92.4719C312.341 99.1133 302.311 104.333 291.281 107.178L291.172 131.512C291.122 142.647 295.546 152.721 304.32 161.452C310.086 167.19 316.147 170.749 319.223 172.35C319.355 172.283 319.5 172.206 319.643 172.132V92.5287C319.623 92.5088 319.602 92.4904 319.581 92.4719Z" fill="#80B2FF"/>
<path d="M319.645 92.5287V172.132C322.843 170.469 328.656 167.029 334.224 161.587C343.077 152.934 347.589 142.901 347.639 131.765L347.748 107.431C336.774 104.496 326.82 99.2069 319.645 92.5287Z" fill="#4D93FF"/>
<path d="M341.743 116.92C333.346 118.214 321.912 125.873 314.699 135.081C313.687 130.739 309.145 126.776 306.769 125.91L299.57 133.146C304.066 135.172 308.977 140.911 309.629 146.787L316.821 147.901C319.853 141.911 327.684 127.584 343.264 119.882C342.963 118.708 341.863 117.087 341.743 116.92Z" fill="#0046B3"/>
<defs>
<filter id="filter0_d" x="0.921143" y="0.468506" width="399.588" height="294.658" filterUnits="userSpaceOnUse" color-interpolation-filters="sRGB">
<feFlood flood-opacity="0" result="BackgroundImageFix"/>
<feColorMatrix in="SourceAlpha" type="matrix" values="0 0 0 0 0 0 0 0 0 0 0 0 0 0 0 0 0 0 127 0"/>
<feOffset dy="10"/>
<feGaussianBlur stdDeviation="36.5"/>
<feColorMatrix type="matrix" values="0 0 0 0 1 0 0 0 0 1 0 0 0 0 1 0 0 0 0.88 0"/>
<feBlend mode="normal" in2="BackgroundImageFix" result="effect1_dropShadow"/>
<feBlend mode="normal" in="SourceGraphic" in2="effect1_dropShadow" result="shape"/>
</filter>
</defs>
</svg>
