<svg width="115" height="115" viewBox="0 0 115 115" fill="none" xmlns="http://www.w3.org/2000/svg">
<path opacity="0.45" d="M103.779 67.5696C109.552 41.7985 93.3408 16.2267 67.5696 10.4534C41.7985 4.68011 16.2267 20.8916 10.4534 46.6627C4.68016 72.4338 20.8916 98.0056 46.6627 103.779C72.4339 109.552 98.0057 93.3407 103.779 67.5696Z" fill="white" fill-opacity="0.55"/>
<path d="M103.304 79.2767C103.104 79.0767 102.894 78.8967 102.684 78.7067L36.124 12.1467L18.614 29.6567L85.774 96.8167L85.804 96.7867C90.644 101.627 98.484 101.627 103.314 96.7867C108.144 91.9467 108.144 84.1067 103.304 79.2767Z" fill="#F5F5F5"/>
<g opacity="0.25">
<path opacity="0.25" d="M27.134 21.1367L18.614 29.6567L85.774 96.8167L85.804 96.7867C90.554 101.537 98.184 101.617 103.034 97.0367L27.134 21.1367Z" fill="#939598"/>
</g>
<path d="M36.214 29.6868C31.374 34.5268 23.544 34.5268 18.704 29.6868C13.864 24.8468 13.864 17.0068 18.704 12.1768C23.544 7.33679 31.384 7.34679 36.214 12.1768C41.044 17.0168 41.044 24.8468 36.214 29.6868Z" fill="#B7BABC"/>
<path d="M34.204 27.6768C30.474 31.4068 24.444 31.4068 20.714 27.6768C16.984 23.9468 16.994 17.9168 20.714 14.1868C24.434 10.4668 30.474 10.4568 34.204 14.1868C37.924 17.9068 37.924 23.9468 34.204 27.6768Z" fill="#256A75"/>
<path d="M21.184 28.1168C21.154 28.0868 21.114 28.0568 21.074 28.0368C18.874 25.8868 18.834 22.3767 20.964 20.1767C23.104 17.9767 26.614 17.9367 28.814 20.0767C28.844 20.1067 28.874 20.1467 28.904 20.1767L30.764 18.2667C30.734 18.2367 30.704 18.1967 30.674 18.1667C27.424 14.9967 22.214 15.0667 19.054 18.3267C15.894 21.5767 15.954 26.7767 19.214 29.9467C19.244 29.9767 19.284 30.0068 19.314 30.0368L21.184 28.1168Z" fill="#B7BABC"/>
<path d="M72.9841 48.9569C72.7941 48.7469 70.8241 46.8269 70.6141 46.6469L65.5541 41.5869C67.3241 46.1969 66.1541 51.8669 62.1741 55.8569C58.3041 59.7269 52.8541 60.9269 48.3141 59.3769L53.6941 64.7569L53.7241 64.7269C58.5541 69.5569 66.4041 69.5669 71.2441 64.7269C76.0741 59.8769 76.7641 53.0569 72.9841 48.9569Z" fill="#A84A38"/>
<path d="M65.494 57.2168H40.364L45.884 62.7368L40.354 68.2668L40.364 68.2968L65.494 68.3068V57.2168Z" fill="#CD3C17"/>
<path d="M69.8441 62.4167V87.5468L64.324 82.0267L58.804 87.5468H58.764V62.4067L69.8441 62.4167Z" fill="#CD3C17"/>
<path d="M71.264 67.7668C67.844 71.1868 62.294 71.1868 58.884 67.7668C55.464 64.3368 55.464 58.7968 58.884 55.3768C62.304 51.9568 67.854 51.9568 71.274 55.3768C74.684 58.7968 74.684 64.3468 71.264 67.7668Z" fill="#8E0F0C"/>
</svg>
