<svg width="349" height="287" viewBox="0 0 349 287" fill="none" xmlns="http://www.w3.org/2000/svg">
<path d="M185.864 244.177C249.802 244.177 301.634 192.24 301.634 128.173C301.634 64.1054 249.802 12.1685 185.864 12.1685C121.926 12.1685 70.0936 64.1054 70.0936 128.173C70.0936 192.24 121.926 244.177 185.864 244.177Z" fill="#003C99" fill-opacity="0.15"/>
<path opacity="0.1" d="M98.0259 65.6387C108.107 65.6387 116.279 57.45 116.279 47.3487C116.279 37.2473 108.107 29.0586 98.0259 29.0586C87.9449 29.0586 79.7727 37.2473 79.7727 47.3487C79.7727 57.45 87.9449 65.6387 98.0259 65.6387Z" fill="#343434"/>
<path d="M96.6956 62.9727C106.042 62.9727 113.618 55.3808 113.618 46.0157C113.618 36.6505 106.042 29.0586 96.6956 29.0586C87.3493 29.0586 79.7727 36.6505 79.7727 46.0157C79.7727 55.3808 87.3493 62.9727 96.6956 62.9727Z" fill="#98D2F9"/>
<path opacity="0.1" d="M250.816 274.832H161.418C153.169 274.832 146.48 268.129 146.48 259.864V63.9131C146.48 55.6477 153.169 48.9451 161.418 48.9451H250.82C259.068 48.9451 265.758 55.6477 265.758 63.9131V259.864C265.753 268.129 259.064 274.832 250.816 274.832Z" fill="#343434"/>
<path d="M245.761 274.832H161.076C153.015 274.832 146.48 268.284 146.48 260.207V63.5704C146.48 55.4931 153.015 48.9451 161.076 48.9451H245.761C253.822 48.9451 260.357 55.4931 260.357 63.5704V260.207C260.357 268.284 253.822 274.832 245.761 274.832Z" fill="#57B7F9"/>
<path d="M246.14 55H234.238L232.528 60.3069C231.853 62.4088 229.918 63.8337 227.737 63.8337H179.67C177.489 63.8337 175.554 62.4088 174.879 60.3069L173.169 55H161.267C155.604 55 151 59.6718 151 65.4174V261.87C151 267.615 155.604 272.287 161.267 272.287H246.136C251.799 272.287 256.403 267.611 256.403 261.87V65.4174C256.407 59.6718 251.803 55 246.14 55Z" fill="#E9F7FF"/>
<path d="M220.448 57.0518H181.719C181.114 57.0518 180.626 56.5629 180.626 55.957V55.9444C180.626 55.3385 181.114 54.8496 181.719 54.8496H220.448C221.053 54.8496 221.54 55.3385 221.54 55.9444V55.957C221.545 56.5629 221.053 57.0518 220.448 57.0518Z" fill="#E9F7FF"/>
<path d="M225.123 57.4278C224.318 57.4278 223.663 56.7717 223.663 55.9652V55.9276C223.663 55.1211 224.318 54.4651 225.123 54.4651C225.928 54.4651 226.582 55.1211 226.582 55.9276V55.9652C226.582 56.7759 225.928 57.4278 225.123 57.4278Z" fill="#E9F7FF"/>
<path d="M203.417 161.891C226.335 161.891 244.915 143.274 244.915 120.309C244.915 97.3435 226.335 78.7266 203.417 78.7266C180.498 78.7266 161.918 97.3435 161.918 120.309C161.918 143.274 180.498 161.891 203.417 161.891Z" fill="#98D2F9"/>
<path d="M203.416 158.589C224.516 158.589 241.62 141.45 241.62 120.308C241.62 99.1665 224.516 82.0276 203.416 82.0276C182.317 82.0276 165.213 99.1665 165.213 120.308C165.213 141.45 182.317 158.589 203.416 158.589Z" fill="white"/>
<path d="M214.906 137.491H191.932C190.739 137.491 189.771 136.522 189.771 135.327V117.392C189.771 116.197 190.739 115.227 191.932 115.227H214.906C216.098 115.227 217.066 116.197 217.066 117.392V135.327C217.066 136.522 216.098 137.491 214.906 137.491Z" fill="#FF4F75"/>
<path d="M211.169 121.804H195.664V110.89C195.664 106.598 199.134 103.122 203.416 103.122C207.699 103.122 211.169 106.598 211.169 110.89V121.804V121.804Z" stroke="#FF4F75" stroke-width="8.1551" stroke-miterlimit="10"/>
<path d="M203.416 127.345C205.211 127.345 206.665 125.888 206.665 124.09C206.665 122.292 205.211 120.835 203.416 120.835C201.622 120.835 200.168 122.292 200.168 124.09C200.168 125.888 201.622 127.345 203.416 127.345Z" fill="#E03C60"/>
<path d="M203.416 131.883C202.645 131.883 202.019 131.257 202.019 130.483V125.866C202.019 125.093 202.645 124.466 203.416 124.466C204.188 124.466 204.814 125.093 204.814 125.866V130.483C204.814 131.257 204.188 131.883 203.416 131.883Z" fill="#E03C60"/>
<path d="M241.62 187.205H165.213V211.099H241.62V187.205Z" fill="#98D2F9"/>
<path d="M239.131 190.481H167.702V207.823H239.131V190.481Z" fill="white"/>
<path d="M176.973 194.936H179.642L179.488 197.531L181.902 196.582L182.728 199.123L180.209 199.774L181.869 201.784L179.7 203.368L178.303 201.162L176.906 203.368L174.746 201.784L176.397 199.774L173.879 199.131L174.704 196.578L177.131 197.526L176.973 194.936Z" fill="#343434"/>
<path d="M189.53 194.936H192.199L192.044 197.531L194.459 196.582L195.285 199.123L192.766 199.774L194.425 201.784L192.257 203.368L190.86 201.162L189.463 203.368L187.303 201.784L188.954 199.774L186.435 199.131L187.261 196.578L189.688 197.526L189.53 194.936Z" fill="#343434"/>
<path d="M202.082 194.936H204.751L204.597 197.531L207.011 196.582L207.837 199.123L205.318 199.774L206.978 201.784L204.809 203.368L203.412 201.162L202.015 203.368L199.855 201.784L201.507 199.774L198.988 199.131L199.813 196.578L202.24 197.526L202.082 194.936Z" fill="#343434"/>
<path d="M214.639 194.936H217.308L217.153 197.531L219.568 196.582L220.394 199.123L217.875 199.774L219.534 201.784L217.366 203.368L215.969 201.162L214.572 203.368L212.412 201.784L214.063 199.774L211.544 199.131L212.37 196.578L214.797 197.526L214.639 194.936Z" fill="#343434"/>
<path d="M227.191 194.936H229.86L229.706 197.531L232.12 196.582L232.946 199.123L230.427 199.774L232.087 201.784L229.918 203.368L228.521 201.162L227.124 203.368L224.964 201.784L226.616 199.774L224.097 199.131L224.922 196.578L227.35 197.526L227.191 194.936Z" fill="#343434"/>
<path d="M241.62 196.753C245.902 196.753 249.373 193.275 249.373 188.985C249.373 184.695 245.902 181.217 241.62 181.217C237.339 181.217 233.868 184.695 233.868 188.985C233.868 193.275 237.339 196.753 241.62 196.753Z" fill="#FF4F75"/>
<path d="M242.709 191.76C242.709 192.056 242.6 192.311 242.383 192.516C242.162 192.725 241.908 192.834 241.616 192.834C241.324 192.834 241.07 192.729 240.849 192.516C240.64 192.295 240.532 192.04 240.532 191.743C240.532 191.442 240.636 191.187 240.849 190.974C241.061 190.761 241.316 190.652 241.616 190.652C241.92 190.652 242.179 190.761 242.392 190.974C242.604 191.187 242.709 191.446 242.709 191.76ZM242.592 190.159H240.703V185.141H242.592V190.159Z" fill="white"/>
<path d="M232.17 226.693H174.667V241.758H232.17V226.693Z" fill="#FF4F75"/>
<path d="M191.869 236.798H190.155V230.438H193.183V231.934H191.869V232.861H193.095V234.299H191.869V236.798Z" fill="white"/>
<path d="M198.408 234.637C198.408 235.322 198.22 235.87 197.841 236.275C197.461 236.681 196.957 236.885 196.319 236.885C195.693 236.885 195.197 236.676 194.826 236.263C194.459 235.845 194.275 235.285 194.275 234.583C194.275 233.881 194.463 233.317 194.838 232.89C195.209 232.46 195.706 232.247 196.323 232.247C196.973 232.247 197.482 232.46 197.853 232.886C198.224 233.313 198.408 233.898 198.408 234.637ZM196.811 234.583C196.811 234.42 196.798 234.269 196.777 234.136C196.757 234.002 196.723 233.889 196.682 233.793C196.64 233.697 196.59 233.626 196.536 233.572C196.477 233.521 196.415 233.492 196.344 233.492C196.202 233.492 196.094 233.592 196.006 233.789C195.923 233.96 195.877 234.219 195.877 234.566C195.877 234.905 195.918 235.168 196.006 235.343C196.089 235.54 196.206 235.64 196.348 235.64C196.481 235.64 196.594 235.544 196.682 235.348C196.765 235.139 196.811 234.88 196.811 234.583Z" fill="white"/>
<path d="M201.323 236.798H199.676V232.347H201.323L201.235 233.216C201.486 232.565 201.899 232.239 202.474 232.239V234.094C202.295 233.994 202.14 233.948 202.015 233.948C201.794 233.948 201.623 234.027 201.502 234.19C201.381 234.353 201.323 234.583 201.323 234.892V236.798Z" fill="white"/>
<path d="M207.587 232.343V236.923C207.587 237.27 207.541 237.575 207.445 237.83C207.349 238.068 207.195 238.268 206.978 238.436C206.615 238.72 206.152 238.862 205.589 238.862C204.985 238.862 204.517 238.732 204.196 238.469C203.871 238.21 203.671 237.8 203.596 237.249H205.281C205.293 237.491 205.406 237.612 205.627 237.612C205.769 237.612 205.864 237.562 205.923 237.466C205.981 237.37 206.01 237.207 206.01 236.981V236.275C205.719 236.66 205.372 236.852 204.976 236.852C204.547 236.852 204.196 236.643 203.934 236.221C203.671 235.799 203.537 235.247 203.537 234.566C203.537 233.885 203.671 233.329 203.934 232.895C204.201 232.464 204.543 232.247 204.964 232.247C205.16 232.247 205.327 232.297 205.472 232.393C205.623 232.494 205.785 232.673 205.96 232.924L205.927 232.339H207.587V232.343ZM205.99 234.558C205.99 233.914 205.873 233.592 205.635 233.592C205.368 233.592 205.235 233.906 205.235 234.533C205.235 235.176 205.364 235.502 205.623 235.502C205.864 235.498 205.99 235.185 205.99 234.558Z" fill="white"/>
<path d="M212.983 234.637C212.983 235.322 212.795 235.87 212.416 236.275C212.036 236.681 211.532 236.885 210.894 236.885C210.268 236.885 209.772 236.676 209.401 236.263C209.034 235.845 208.85 235.285 208.85 234.583C208.85 233.881 209.038 233.317 209.413 232.89C209.784 232.46 210.281 232.247 210.898 232.247C211.548 232.247 212.057 232.46 212.428 232.886C212.795 233.313 212.983 233.898 212.983 234.637ZM211.382 234.583C211.382 234.42 211.369 234.269 211.348 234.136C211.327 234.002 211.294 233.889 211.252 233.793C211.211 233.697 211.161 233.626 211.106 233.572C211.048 233.521 210.986 233.492 210.915 233.492C210.773 233.492 210.664 233.592 210.577 233.789C210.493 233.96 210.448 234.219 210.448 234.566C210.448 234.905 210.489 235.168 210.577 235.343C210.66 235.54 210.777 235.64 210.919 235.64C211.052 235.64 211.165 235.544 211.252 235.348C211.34 235.139 211.382 234.88 211.382 234.583Z" fill="white"/>
<path d="M216.132 236.798H214.48V233.676H214.013V232.347H214.48V231.039H216.132V232.347H216.678V233.676H216.132V236.798Z" fill="white"/>
<path d="M90.5862 40.667C87.6378 40.667 85.2483 43.0614 85.2483 46.0157C85.2483 48.97 87.6378 51.3644 90.5862 51.3644C93.5346 51.3644 95.9241 48.97 95.9241 46.0157C95.92 43.0614 93.5304 40.667 90.5862 40.667ZM87.5711 47.5994C86.6995 47.5994 85.9906 46.889 85.9906 46.0157C85.9906 45.1424 86.6995 44.432 87.5711 44.432C88.4427 44.432 89.1517 45.1424 89.1517 46.0157C89.1517 46.8932 88.4427 47.5994 87.5711 47.5994Z" fill="white"/>
<path d="M90.4736 44.1938V47.8377H99.3146L100.532 46.6175L101.75 47.8377H101.833L103.08 46.5882L104.169 47.6789C104.256 47.7666 104.398 47.7708 104.49 47.6872L108.143 44.361V44.1938H90.4736Z" fill="white"/>
<path d="M60.2643 274.832H276.692" stroke="#98D2F9" stroke-width="2.3939" stroke-miterlimit="10" stroke-linecap="round"/>
<path d="M281.788 274.832H294.245" stroke="#98D2F9" stroke-width="2.3939" stroke-miterlimit="10" stroke-linecap="round"/>
<path d="M82.1081 239.401C81.2657 246.864 82.4542 252.43 82.4542 252.43H91.1992C97.4004 249.054 101.704 244.674 104.677 239.927C99.9859 240.287 96.5163 240.103 96.4329 239.418C96.3411 238.632 100.745 237.462 106.462 236.722C108.506 232.585 109.686 228.286 110.332 224.216C104.798 224.759 100.461 224.621 100.374 223.856C100.282 223.054 104.857 221.859 110.737 221.119C111.454 214.061 110.758 208.061 110.628 205.382C98.8057 209.406 91.7247 215.942 87.5461 222.878C90.2901 226.773 91.9415 229.894 91.391 230.321C90.8906 230.705 88.7137 228.749 86.0406 225.632C84.3475 229.067 83.2924 232.535 82.6585 235.782C85.0272 239.25 86.3909 241.937 85.8821 242.33C85.4901 242.635 84.0306 241.461 82.1081 239.401ZM97.7549 229C97.7549 228.423 98.9601 227.96 100.445 227.96C101.929 227.96 103.134 228.428 103.134 229C103.134 229.573 101.929 230.041 100.445 230.041C98.9601 230.041 97.7549 229.573 97.7549 229Z" fill="#C9ECFF"/>
<path d="M75.4774 252.434C75.4774 252.434 69.418 214.554 85.6694 185.843C80.1605 205.721 80.0188 252.434 80.0188 252.434H75.4774Z" fill="#C9ECFF"/>
<path d="M74.8226 242.33C74.3139 241.941 75.6775 239.255 78.0462 235.782C77.4124 232.535 76.3573 229.067 74.6642 225.632C71.991 228.749 69.8142 230.705 69.3137 230.321C68.7633 229.899 70.4147 226.773 73.1587 222.878C68.9759 215.942 61.899 209.406 50.0764 205.382C49.9471 208.061 49.2507 214.057 49.9679 221.119C55.848 221.859 60.4228 223.054 60.331 223.856C60.2434 224.625 55.9064 224.759 50.3724 224.216C51.023 228.286 52.199 232.585 54.2424 236.722C59.9599 237.462 64.3636 238.632 64.2719 239.418C64.1927 240.103 60.7188 240.287 56.0273 239.927C59.0007 244.674 63.3044 249.054 69.5056 252.43H78.2506C78.2506 252.43 79.4391 246.86 78.5967 239.401C76.6784 241.461 75.223 242.635 74.8226 242.33ZM60.2643 230.041C58.7797 230.041 57.5745 229.573 57.5745 229C57.5745 228.428 58.7797 227.96 60.2643 227.96C61.7489 227.96 62.9541 228.428 62.9541 229C62.9541 229.573 61.7531 230.041 60.2643 230.041Z" fill="#C9ECFF"/>
<path d="M78.2548 250.311C78.2548 250.311 79.1263 212.361 100.332 188.191C94.2352 201.738 79.5851 245.761 80.0188 252.434C78.2548 252.434 78.2548 250.311 78.2548 250.311Z" fill="#C9ECFF"/>
<path d="M79.4349 252.434L89.748 218.077C89.9023 217.567 90.3693 217.22 90.899 217.22H96.4079C97.2669 217.22 97.8508 218.098 97.5171 218.892L83.4384 252.3L79.4349 252.434Z" fill="#C9ECFF"/>
<path d="M78.2548 252.434L88.5678 218.077C88.7221 217.567 89.1892 217.22 89.7188 217.22H95.2277C96.0868 217.22 96.6706 218.097 96.337 218.891L82.2582 252.3L78.2548 252.434Z" fill="#E9F7FF"/>
<path d="M88.7971 217.947C89.5686 220.455 92.3835 228.762 96.7957 232.172C99.5939 231.236 97.3962 220.049 96.8916 217.663C96.8374 217.404 96.608 217.216 96.3411 217.216H89.3351C88.9598 217.22 88.6887 217.584 88.7971 217.947Z" fill="#E9F7FF"/>
<path d="M87.3542 256.458H73.3589H68.2336L70.84 274.594H75.9653H84.7437H89.8689L92.4795 256.458H87.3542Z" fill="#FFA6BA"/>
<path d="M68.6131 259.095L91.4286 263.783L92.4837 256.458H87.3584H77.8085C73.3297 257.649 69.7057 258.623 68.5923 258.924L68.6131 259.095Z" fill="#FF85A0"/>
<path d="M94.9358 252.434H65.7732V259.02H94.9358V252.434Z" fill="#FFA6BA"/>
<path d="M116.041 257.762L114.357 271.334C118.393 274.719 124.374 273.532 129.603 270.515C124.015 269.471 122.593 266.963 123.306 257.762H116.041Z" fill="#FFA6BA"/>
<path d="M114.465 270.081C113.564 271.652 113.948 272.738 113.706 274.832H135.863C135.863 274.832 135.712 271.761 132.46 270.745C129.207 269.73 128.798 270.44 122.622 272.312C117.509 273.812 114.465 270.081 114.465 270.081Z" fill="#13435E"/>
<path d="M104.707 257.762L105.628 272.195C101.3 275.58 95.4779 273.532 89.869 270.511C97.7466 271.46 97.1586 264.485 96.9626 257.758L104.707 257.762Z" fill="#FFA6BA"/>
<path d="M120.483 73.595C120.483 73.595 123.431 74.2761 122.334 80.8659C122.088 84.6559 124.82 99.8036 124.82 99.8036C114.886 106.569 104.069 108.85 94.1351 102.085C96.4538 92.1817 100.303 84.1044 105.599 77.7569L120.483 73.595Z" fill="#343434"/>
<path d="M77.0621 115.695L84.0765 121.474L104.882 101.73C100.374 97.5848 93.4971 97.7436 89.5187 102.085L77.0621 115.695Z" fill="#FF4F75"/>
<path d="M145.746 110.785L145.546 111.241C143.615 115.641 138.269 117.354 134.149 114.893L116.659 104.446L116.805 102.917C119.853 98.4331 126.367 97.5639 131.355 100.97L145.746 110.785Z" fill="#E03C60"/>
<path d="M106.321 99.2146C109.315 101.613 112.313 101.613 115.308 99.2146V82.6252H106.321V99.2146Z" fill="#FFA6BA"/>
<path d="M115.312 95.6585C114.749 95.8173 114.165 95.9051 113.568 95.9051C110.516 95.9051 107.834 93.7071 106.325 90.4018V82.6252H115.312V95.6585Z" fill="#FF85A0"/>
<path d="M113.089 92.934C117.575 92.934 121.213 87.9463 121.213 81.7937C121.213 75.641 117.575 70.6533 113.089 70.6533C108.602 70.6533 104.965 75.641 104.965 81.7937C104.965 87.9463 108.602 92.934 113.089 92.934Z" fill="#FFA6BA"/>
<path d="M112.33 89.3528C112.33 89.3528 115.203 89.0353 115.737 89.7289" stroke="#FF4F75" stroke-width="0.7219" stroke-miterlimit="10" stroke-linecap="round"/>
<path d="M120.483 73.5951C120.483 73.5951 115.274 80.2642 106.654 78.5552C105.507 79.1402 104.965 82.8383 104.965 82.8383L102.784 92.1568C102.784 92.1568 95.2027 82.2867 99.3104 75.371C103.418 67.2811 118.281 62.7848 120.483 73.5951Z" fill="#343434"/>
<path d="M105.053 84.2633C106.133 84.2633 107.009 83.3859 107.009 82.3036C107.009 81.2212 106.133 80.3438 105.053 80.3438C103.973 80.3438 103.097 81.2212 103.097 82.3036C103.097 83.3859 103.973 84.2633 105.053 84.2633Z" fill="#FFA6BA"/>
<path d="M120.846 81.3381C121.288 81.2336 118.873 79.6833 117.222 80.0427C116.934 80.2809 116.859 80.6611 116.821 81.0665C118.519 80.5232 119.69 80.9119 120.846 81.3381Z" fill="#343434"/>
<path d="M118.69 83.6574C118.954 83.6574 119.169 83.2402 119.169 82.7255C119.169 82.2109 118.954 81.7937 118.69 81.7937C118.425 81.7937 118.21 82.2109 118.21 82.7255C118.21 83.2402 118.425 83.6574 118.69 83.6574Z" fill="#343434"/>
<path d="M109.09 81.3382C108.631 81.0415 112.067 79.6249 112.939 80.0428C113.368 80.3771 113.214 80.7197 113.11 81.0666C111.417 80.5234 110.245 80.912 109.09 81.3382Z" fill="#343434"/>
<path d="M111.1 83.6574C111.365 83.6574 111.579 83.2402 111.579 82.7255C111.579 82.2109 111.365 81.7937 111.1 81.7937C110.835 81.7937 110.62 82.2109 110.62 82.7255C110.62 83.2402 110.835 83.6574 111.1 83.6574Z" fill="#343434"/>
<path d="M115.312 83.6572C115.312 83.6572 115.232 86.3483 115.808 86.5614C116.383 86.7745 115.574 88.2204 114.369 87.0127" stroke="#FF4F75" stroke-width="0.7219" stroke-miterlimit="10" stroke-linecap="round"/>
<path d="M104.832 82.947C105.207 82.947 105.512 82.642 105.512 82.2658C105.512 81.8897 105.207 81.5847 104.832 81.5847C104.456 81.5847 104.152 81.8897 104.152 82.2658C104.152 82.642 104.456 82.947 104.832 82.947Z" fill="#FF85A0"/>
<path d="M98.6598 98.8887H102.897C104.598 101.747 107.718 103.665 111.279 103.665C114.845 103.665 117.96 101.747 119.661 98.8887H122.072C125.833 98.8887 128.882 101.943 128.882 105.712V115.846C128.882 117.283 128.644 118.712 128.177 120.07L122.313 137.149H100.428L94.5646 120.07C94.0976 118.712 93.8599 117.283 93.8599 115.846V103.686C93.8682 101.037 96.0159 98.8887 98.6598 98.8887Z" fill="#FF4F75"/>
<path d="M128.89 112.728C126.897 114.993 129.115 120.873 117.914 118.019C114.165 116.815 108.231 120.881 104.882 119.356C100.203 118.403 94.8482 109.703 93.8682 110.43C93.4262 110.76 91.4453 111.111 89.8606 115.979L93.8682 112.177V115.846C93.8682 117.283 94.1059 118.712 94.573 120.07L96.9542 127.011C117.072 121.625 117.714 125.248 126.509 124.943L126.705 124.374L128.181 120.07C128.356 119.56 128.498 119.042 128.611 118.516C128.794 117.638 128.886 116.744 128.886 115.846V112.728H128.89Z" fill="#E8486B"/>
<path d="M100.599 139.657L122.322 139.657L122.322 137.149L100.599 137.149L100.599 139.657Z" fill="#343434"/>
<path d="M95.8074 152.781L100.599 139.66H122.322L125.258 147.696C128.565 156.755 129.991 166.395 129.445 176.027L127.501 210.238C127.476 210.664 127.405 211.078 127.289 211.475C126.963 212.599 126.842 213.785 127.059 214.935C127.13 215.302 127.155 215.687 127.138 216.08L124.887 261.188C121.5 262.923 118.218 263.052 115.07 261.188L113.548 222.828C113.556 222.043 113.602 221.303 113.685 220.609C114.632 212.749 114.761 204.81 114.302 196.904L112.242 167.214H110.678L107.905 210.234C107.88 210.693 107.797 211.14 107.663 211.567L105.728 261.138C102.567 263.065 99.2561 262.931 95.824 261.188L93.6221 225.574C93.5179 223.768 93.3803 220.271 93.7973 216.928C94.7731 209.043 94.9524 201.074 94.4896 193.143L93.1801 170.616C92.8298 164.552 93.7222 158.481 95.8074 152.781Z" fill="#9F59C1"/>
<path d="M97.0042 149.497C98.8641 148.836 106.058 148.247 102.784 139.656H100.599L97.0042 149.497Z" fill="#7C3992"/>
<path d="M112.801 176.758L112.242 167.218L117.551 165.977L112.801 176.758Z" fill="#7C3992"/>
<path d="M99.0935 258.648L97.0376 225.578C96.9334 223.773 96.7957 220.275 97.2128 216.932C98.1886 209.047 98.3679 201.078 97.905 193.147L96.5956 170.62C96.2453 164.556 97.1377 158.485 99.2187 152.781L104.01 139.66" stroke="white" stroke-width="0.6355" stroke-miterlimit="10"/>
<path d="M117.042 258.648L115.616 222.832C115.624 222.047 115.67 221.307 115.754 220.614C116.7 212.753 116.83 204.814 116.371 196.908L114.615 166.663" stroke="white" stroke-width="0.6355" stroke-miterlimit="10"/>
<path d="M120.174 98.8887C118.189 102.081 114.653 104.208 110.62 104.208C106.587 104.208 103.051 102.081 101.066 98.8887H120.174Z" fill="#FFA6BA"/>
<path d="M105.553 270.081C106.821 271.426 106.65 272.605 106.312 274.832H84.1557C83.526 274.46 85.0398 271.18 89.0099 270.44C92.6589 269.763 93.4053 270.841 96.2786 272.057C101.387 273.557 105.553 270.081 105.553 270.081Z" fill="#13435E"/>
<path d="M110.432 140.358H114.344C115.483 140.358 116.408 139.43 116.408 138.289C116.408 137.149 115.483 136.221 114.344 136.221H110.432C109.294 136.221 108.368 137.149 108.368 138.289C108.368 139.43 109.29 140.358 110.432 140.358Z" fill="white"/>
<path d="M98.4805 148.531L94.9816 145.531C94.9816 145.531 94.4228 142.184 97.5422 141.469C100.657 140.751 98.4805 148.531 98.4805 148.531Z" fill="#FF85A0"/>
<path d="M97.8925 137.608L101.512 140.445C102.346 141.097 102.818 142.117 102.755 143.174C102.642 145.088 101.883 147.913 98.4847 148.531C95.2402 142.794 94.2727 141.076 94.2727 141.076L97.8925 137.608Z" fill="#FFA6BA"/>
<path d="M76.178 122.005L94.9191 142.844C97.2628 142.334 99.1394 141.302 100.049 139.188L85.34 115.474C83.797 113.301 80.4942 113 77.967 114.801C75.4315 116.606 74.635 119.832 76.178 122.005Z" fill="#FF4F75"/>
<path d="M130.608 87.4976L126.851 79.93C126.851 79.93 120.324 76.7292 120.358 77.4103C120.391 78.0914 124.078 80.1557 124.078 80.1557C124.078 80.1557 120.929 84.1881 122.193 85.9097C123.456 87.6313 128.189 90.0006 128.189 90.0006L130.608 87.4976Z" fill="#FFA6BA"/>
<path d="M146.197 111.312L130.137 86.2815C127.814 86.3316 125.896 87.0086 124.803 88.9851L136.672 116.138C137.948 118.666 141.117 119.636 143.744 118.303C146.376 116.97 147.473 113.84 146.197 111.312Z" fill="#FF4F75"/>
<path d="M47.3699 274.832H54.8847" stroke="#98D2F9" stroke-width="2.3939" stroke-miterlimit="10" stroke-linecap="round"/>
</svg>
