<svg width="126" height="126" viewBox="0 0 126 126" fill="none" xmlns="http://www.w3.org/2000/svg">
<g opacity="0.45">
<path opacity="0.45" d="M81.514 106.734C105.806 96.3709 117.098 68.277 106.734 43.9849C96.3709 19.6927 68.277 8.40122 43.9848 18.7646C19.6927 29.128 8.40118 57.2218 18.7646 81.514C29.1279 105.806 57.2218 117.098 81.514 106.734Z" fill="white"/>
</g>
<path d="M65.5996 98.2988C65.5996 99.9588 64.2596 101.299 62.5996 101.299C60.9396 101.299 59.5996 99.9588 59.5996 98.2988V47.7988H65.5996V98.2988Z" fill="#A84A38"/>
<path d="M65.5996 68.0488H59.5996V16.5488C59.5996 14.8888 60.9396 13.5488 62.5996 13.5488C64.2596 13.5488 65.5996 14.8888 65.5996 16.5488V68.0488Z" fill="#A84A38"/>
<path d="M47.3996 98.5288C46.7596 100.059 44.9996 100.779 43.4696 100.139C41.9396 99.4989 41.2196 97.7488 41.8596 96.2188L59.9596 52.9288L65.4896 55.2389L47.3996 98.5288Z" fill="#A84A38"/>
<path d="M77.6996 98.5288C78.3396 100.059 80.0996 100.779 81.6196 100.139C83.1496 99.4989 83.8696 97.7488 83.2296 96.2188L65.1296 52.9288L59.5996 55.2389L77.6996 98.5288Z" fill="#A84A38"/>
<path d="M69.3496 24.5289H56.0696V22.9789C56.0696 21.8789 56.9596 20.9789 58.0696 20.9789H67.3496C68.4496 20.9789 69.3496 21.8689 69.3496 22.9789V24.5289Z" fill="#A84A38"/>
<path d="M77.7796 66.0189C77.7796 67.1189 76.8896 68.0189 75.7796 68.0189H49.2296C48.1296 68.0189 47.2296 67.1189 47.2296 66.0189V64.4689H77.7796V66.0189Z" fill="#A84A38"/>
<path d="M91.0096 63.4688C91.0096 64.0188 90.5596 64.4688 90.0096 64.4688H34.5296C33.9796 64.4688 33.5296 64.0188 33.5296 63.4688V25.5288C33.5296 24.9788 33.9796 24.5288 34.5296 24.5288H90.0096C90.5596 24.5288 91.0096 24.9788 91.0096 25.5288V63.4688Z" fill="#EFEFEF"/>
<path d="M65.5196 69.2489C65.5196 70.9089 64.1696 72.2589 62.5096 72.2589C60.8496 72.2589 59.4996 70.9089 59.4996 69.2489C59.4996 67.5889 60.8496 66.2389 62.5096 66.2389C64.1696 66.2389 65.5196 67.5889 65.5196 69.2489Z" fill="#F0901C"/>
</svg>
