<svg width="136" height="50" viewBox="0 0 136 50" fill="none" xmlns="http://www.w3.org/2000/svg">
<path d="M38.7713 20.7273C38.7713 8.11719 30.9418 0.927555 20.7219 0.927555C10.4457 0.927555 2.67259 8.11719 2.67259 20.7273C2.67259 33.2809 10.4457 40.527 20.7219 40.527C30.9418 40.527 38.7713 33.3374 38.7713 20.7273ZM30.5089 20.7273C30.5089 28.8956 26.6317 33.3185 20.7219 33.3185C14.7933 33.3185 10.935 28.8956 10.935 20.7273C10.935 12.5589 14.7933 8.13601 20.7219 8.13601C26.6317 8.13601 30.5089 12.5589 30.5089 20.7273ZM55.6067 8.17365H67.4075V40H75.4629V8.17365H87.2637V1.45454H55.6067V8.17365ZM104.744 40H112.893V27.5028H119.744C128.609 27.5028 133.766 22.2141 133.766 14.5163C133.766 6.85618 128.703 1.45454 119.951 1.45454H104.744V40ZM112.893 20.9719V8.11719H118.389C123.094 8.11719 125.372 10.6768 125.372 14.5163C125.372 18.337 123.094 20.9719 118.427 20.9719H112.893Z" fill="#97C6FF"/>
<line x1="7" y1="49.5" x2="33" y2="49.5" stroke="#97C6FF"/>
<line x1="59" y1="49.5" x2="85" y2="49.5" stroke="#97C6FF"/>
<line x1="100" y1="49.5" x2="126" y2="49.5" stroke="#97C6FF"/>
</svg>
