<svg width="109" height="99" viewBox="0 0 109 99" fill="none" xmlns="http://www.w3.org/2000/svg">
<g opacity="0.45">
<path opacity="0.45" d="M52.5381 97.5086C78.9404 96.8537 99.8129 74.9239 99.1581 48.5271C98.5032 22.1302 76.569 1.26236 50.1667 1.91734C23.7644 2.57231 2.89193 24.5021 3.54677 50.8989C4.20161 77.2957 26.1358 98.1636 52.5381 97.5086Z" fill="white"/>
</g>
<path d="M27.4213 42.0303V60.4603H27.5013C27.5013 71.2403 39.3713 79.9703 54.0013 79.9703C54.1713 79.9703 54.3413 79.9603 54.5113 79.9603V42.0303H27.4213Z" fill="#144856"/>
<path d="M54.5113 42.0303V79.9603C68.9113 79.7603 80.5113 71.1103 80.5113 60.4603H80.5913V42.0303H54.5113Z" fill="#29606D"/>
<path d="M1.74126 30.6202C-0.588742 31.5502 -0.578722 34.8702 1.76128 35.7802L47.4813 53.6902C51.6813 55.3402 56.3613 55.3502 60.5713 53.7402L106.251 36.2402C108.601 35.3402 108.641 32.0302 106.301 31.0802L60.5113 12.4102C56.3513 10.7102 51.6613 10.6902 47.4913 12.3602L1.74126 30.6202Z" fill="#256A75"/>
<path d="M84.1613 43.6302L79.8313 45.3202L80.8913 45.7802V45.9702L84.1613 44.7002V43.6302Z" fill="#A31919"/>
<path d="M80.8913 45.9702V59.0202H84.1613V44.7002L80.8913 45.9702Z" fill="#8E0F0C"/>
<path d="M84.1613 43.6202L54.6513 30.9502L53.3613 33.9502L79.8313 45.3202L84.1613 43.6302V43.6202Z" fill="#DD4A2C"/>
<path d="M61.4613 31.0402C61.4613 32.7402 58.3513 34.1202 54.5113 34.1202C50.6713 34.1202 47.5713 32.7402 47.5713 31.0402C47.5713 29.3402 50.6813 27.9602 54.5113 27.9602C58.3513 27.9602 61.4613 29.3402 61.4613 31.0402Z" fill="#144856"/>
<path d="M78.0413 64.2702C78.0413 66.7402 80.0412 68.7502 82.5212 68.7502C82.5312 68.7502 82.5313 68.7502 82.5413 68.7502V56.2302L78.0413 64.2702Z" fill="#8E0F0C"/>
<path d="M87.0013 64.2702L82.5613 56.2002L82.5513 56.2202V68.7402C85.0113 68.7402 87.0013 66.7402 87.0013 64.2702Z" fill="#DD4A2C"/>
<path d="M85.0013 56.5403C85.0013 57.9103 83.8912 59.0203 82.5212 59.0203C81.1512 59.0203 80.0413 57.9103 80.0413 56.5403C80.0413 55.1703 81.1512 54.0603 82.5212 54.0603C83.8912 54.0603 85.0013 55.1703 85.0013 56.5403Z" fill="#E56161"/>
<path d="M81.5212 56.2603C81.5212 55.3203 82.0513 54.5103 82.8213 54.0903C82.7213 54.0803 82.6312 54.0603 82.5212 54.0603C81.1512 54.0603 80.0413 55.1703 80.0413 56.5403C80.0413 57.9103 81.1512 59.0203 82.5212 59.0203C82.9512 59.0203 83.3512 58.9003 83.7012 58.7103C82.4712 58.5603 81.5212 57.5203 81.5212 56.2603Z" fill="#8E0F0C"/>
<path d="M85.0013 56.5403C85.0013 55.2703 84.0513 54.2403 82.8213 54.0903C82.0513 54.5103 81.5212 55.3203 81.5212 56.2603C81.5212 57.5303 82.4712 58.5603 83.7012 58.7103C84.4712 58.2903 85.0013 57.4803 85.0013 56.5403Z" fill="#DD4A2C"/>
</svg>
