<svg width="116" height="96" viewBox="0 0 116 96" fill="none" xmlns="http://www.w3.org/2000/svg">
<g opacity="0.45">
<path opacity="0.45" d="M97.42 47.81C97.42 74.22 76.01 95.63 49.6 95.63C23.19 95.63 1.78003 74.22 1.78003 47.81C1.78003 21.4 23.19 0 49.6 0C76.01 0 97.42 21.4 97.42 47.81Z" fill="white"/>
</g>
<path d="M35.58 69.1099H37.28C37.8 68.6399 38.23 68.0799 38.54 67.4499C38.57 67.3999 38.59 67.3399 38.61 67.2799C38.93 66.5799 39.11 65.8099 39.11 64.9899C39.11 64.1799 38.93 63.4099 38.62 62.7099C38.59 62.6499 38.56 62.5899 38.53 62.5299C38.49 62.4499 38.44 62.3799 38.4 62.2999C38.26 62.0699 38.12 61.8399 37.96 61.6299C37.93 61.5999 37.91 61.5599 37.88 61.5299C37.7 61.3099 37.51 61.0999 37.31 60.9099H35.6C34.78 60.8999 34.12 60.2299 34.12 59.4099C34.12 58.5899 34.79 57.9199 35.61 57.9199H96.83C99.41 57.9199 101.5 60.0199 101.5 62.5899V67.3799C101.5 69.9599 99.41 72.0599 96.83 72.0599H35.81C35.03 72.0599 34.12 71.4099 34.12 70.5599C34.12 69.7699 34.78 69.1099 35.58 69.1099Z" fill="#528700"/>
<path d="M6.70001 59.9199C8.64001 60.7899 10.01 62.7399 10.01 65.0099C10.01 67.2799 8.65001 69.2199 6.70001 70.0899V70.5999H67.72C69.49 70.5999 70.92 69.1699 70.92 67.3999V62.6099C70.92 60.8499 69.49 59.4199 67.72 59.4199H25.26H6.70001V59.9199Z" fill="#E4E4E4"/>
<g opacity="0.25">
<path opacity="0.25" d="M8.17999 60.8998L67.75 60.8699C68.69 60.8699 69.46 61.6398 69.46 62.5798V63.4698C69.22 62.8098 68.59 62.3398 67.86 62.3398L9.33997 62.3699C9.03997 61.8199 8.63999 61.3198 8.17999 60.8998Z" fill="black"/>
</g>
<path d="M67.72 72.0699C70.3 72.0699 72.4 69.9699 72.4 67.3899V62.5999C72.4 60.0199 70.3 57.9299 67.72 57.9299H6.5C5.68 57.9299 5.01001 58.5999 5.01001 59.4199C5.01001 60.2399 5.66999 60.9099 6.48999 60.9199L67.72 60.8899C68.67 60.8899 69.43 61.6599 69.43 62.6099V67.3999C69.43 68.3399 68.67 69.1199 67.72 69.1199H6.46997C5.66997 69.1199 5.01001 69.7699 5.01001 70.5799C5.01001 71.4299 5.91001 72.0799 6.70001 72.0799H67.72V72.0699Z" fill="#77B900"/>
<path d="M44.51 54.9199H46.33C46.89 54.4199 47.35 53.8199 47.68 53.1399C47.7 53.0799 47.73 53.0299 47.76 52.9699C48.1 52.2199 48.29 51.3999 48.29 50.5199C48.29 49.6499 48.1 48.8199 47.76 48.0699C47.73 48.0099 47.7 47.9399 47.67 47.8799C47.63 47.7899 47.58 47.7099 47.53 47.6299C47.39 47.3799 47.23 47.1399 47.06 46.9199C47.03 46.8799 47.01 46.8499 46.98 46.8099C46.79 46.5699 46.58 46.3499 46.36 46.1399H44.53C43.65 46.1299 42.94 45.4099 42.94 44.5399C42.94 43.6599 43.65 42.9399 44.53 42.9399H110.12C112.89 42.9399 115.13 45.1899 115.13 47.9499V53.0799C115.13 55.8399 112.88 58.0899 110.12 58.0899H44.76C43.92 58.0899 42.95 57.3899 42.95 56.4799C42.95 55.6299 43.65 54.9199 44.51 54.9199Z" fill="#088058"/>
<path d="M13.58 45.0799C15.66 46.0199 17.12 48.1099 17.12 50.5599C17.12 53.0099 15.66 55.0899 13.58 56.0299V56.5799H78.94C80.83 56.5799 82.37 55.0399 82.37 53.1399V47.9799C82.37 46.0799 80.84 44.5399 78.94 44.5399H33.46H13.58V45.0799Z" fill="#E4E4E4"/>
<g opacity="0.25">
<path opacity="0.25" d="M15.16 46.1398L78.98 46.1099C79.99 46.1099 80.82 46.9398 80.82 47.9598V48.9199C80.56 48.2099 79.88 47.7098 79.09 47.7098L16.4 47.7399C16.08 47.1299 15.65 46.5898 15.16 46.1398Z" fill="black"/>
</g>
<path d="M78.94 58.1699C81.7 58.1699 83.95 55.9099 83.95 53.1399V47.9799C83.95 45.1999 81.7 42.9399 78.94 42.9399H13.36C12.49 42.9399 11.77 43.6599 11.77 44.5499C11.77 45.4299 12.48 46.1599 13.36 46.1599L78.95 46.1299C79.97 46.1299 80.79 46.9599 80.79 47.9799V53.1399C80.79 54.1599 79.97 54.9899 78.95 54.9899H13.34C12.48 54.9899 11.78 55.6999 11.78 56.5599C11.78 57.4699 12.75 58.1699 13.6 58.1699H78.94Z" fill="#3B9378"/>
<path d="M23.39 40.6999H24.69C25.09 40.3399 25.42 39.9099 25.66 39.4299C25.68 39.3899 25.7 39.3499 25.72 39.2999C25.96 38.7699 26.09 38.1799 26.09 37.5499C26.09 36.9299 25.95 36.3399 25.72 35.7999C25.7 35.7499 25.68 35.7099 25.65 35.6599C25.62 35.5999 25.58 35.5399 25.55 35.4899C25.45 35.3099 25.34 35.1399 25.22 34.9799C25.2 34.9599 25.18 34.9299 25.16 34.8999C25.03 34.7299 24.88 34.5699 24.72 34.4199H23.42C22.79 34.4199 22.28 33.8999 22.28 33.2799C22.28 32.6499 22.79 32.1399 23.42 32.1399H70.26C72.23 32.1399 73.84 33.7499 73.84 35.7199V39.3899C73.84 41.3599 72.24 42.9699 70.26 42.9699H23.57C22.97 42.9699 22.27 42.4699 22.27 41.8199C22.27 41.1999 22.78 40.6999 23.39 40.6999Z" fill="#AB0000"/>
<path d="M1.29999 33.6798C2.77999 34.3498 3.82001 35.8498 3.82001 37.5898C3.82001 39.3298 2.77999 40.8298 1.29999 41.4998V41.8898H47.98C49.33 41.8898 50.43 40.7898 50.43 39.4298V35.7398C50.43 34.3798 49.34 33.2798 47.98 33.2798H15.5H1.29999V33.6798Z" fill="#E4E4E4"/>
<g opacity="0.25">
<path opacity="0.25" d="M2.42999 34.4299L48.01 34.4099C48.73 34.4099 49.32 34.9999 49.32 35.7299V36.4199C49.14 35.9199 48.65 35.5599 48.09 35.5599L3.32001 35.5799C3.08001 35.1399 2.77999 34.7499 2.42999 34.4299Z" fill="black"/>
</g>
<path d="M47.98 43.0198C49.95 43.0198 51.56 41.4099 51.56 39.4199V35.7299C51.56 33.7499 49.95 32.1299 47.98 32.1299H1.14001C0.510015 32.1299 0 32.6498 0 33.2798C0 33.9098 0.510005 34.4199 1.13 34.4299L47.98 34.4099C48.71 34.4099 49.29 34.9999 49.29 35.7299V39.4199C49.29 40.1499 48.7 40.7399 47.98 40.7399H1.12C0.499995 40.7399 0 41.2399 0 41.8599C0 42.5099 0.689988 43.0099 1.29999 43.0099H47.98V43.0198Z" fill="#EC0000"/>
<path d="M37.25 29.9099H38.55C38.95 29.5499 39.28 29.1198 39.52 28.6398C39.54 28.5998 39.57 28.5599 39.58 28.5099C39.82 27.9799 39.96 27.3899 39.96 26.7599C39.96 26.1399 39.82 25.5498 39.58 25.0198C39.57 24.9698 39.54 24.9299 39.52 24.8799C39.49 24.8199 39.45 24.7598 39.42 24.7098C39.32 24.5298 39.21 24.3598 39.09 24.1998C39.07 24.1698 39.05 24.1399 39.03 24.1199C38.9 23.9499 38.75 23.7898 38.59 23.6498H37.28C36.66 23.6398 36.15 23.1299 36.15 22.4999C36.15 21.8699 36.66 21.3599 37.29 21.3599H84.13C86.1 21.3599 87.71 22.9699 87.71 24.9299V28.5999C87.71 30.5699 86.11 32.1799 84.13 32.1799H37.44C36.84 32.1799 36.14 31.6798 36.14 31.0298C36.14 30.4098 36.63 29.9099 37.25 29.9099Z" fill="#CB8A00"/>
<path d="M15.16 22.8699C16.65 23.5399 17.69 25.0398 17.69 26.7798C17.69 28.5298 16.65 30.0199 15.16 30.6899V31.0798H61.85C63.2 31.0798 64.29 29.9799 64.29 28.6199V24.9399C64.29 23.5799 63.19 22.4899 61.85 22.4899H29.36H15.16V22.8699Z" fill="#E4E4E4"/>
<g opacity="0.25">
<path opacity="0.25" d="M16.28 23.6299L61.87 23.6099C62.59 23.6099 63.18 24.1999 63.18 24.9299V25.6199C62.99 25.1199 62.51 24.7499 61.95 24.7499L17.17 24.7698C16.95 24.3398 16.64 23.9499 16.28 23.6299Z" fill="black"/>
</g>
<path d="M61.85 32.2299C63.82 32.2299 65.43 30.6099 65.43 28.6299V24.9498C65.43 22.9698 63.83 21.3599 61.85 21.3599H15C14.38 21.3599 13.87 21.8699 13.87 22.5099C13.87 23.1399 14.38 23.6499 15 23.6599L61.85 23.6398C62.57 23.6398 63.16 24.2298 63.16 24.9598V28.6398C63.16 29.3698 62.57 29.9598 61.85 29.9598H14.98C14.37 29.9598 13.87 30.4698 13.87 31.0798C13.87 31.7298 14.56 32.2399 15.16 32.2399H61.85V32.2299Z" fill="#E1B900"/>
</svg>
