<svg width="172" height="138" viewBox="0 0 172 138" fill="none" xmlns="http://www.w3.org/2000/svg">
<path d="M132.216 130.091C148.715 116.659 159.256 96.1902 159.256 73.2561C159.256 32.7979 126.458 0 86 0C45.5418 0 12.7439 32.7979 12.7439 73.2561C12.7439 96.1902 23.2849 116.659 39.7837 130.091C53.132 129.774 68.9883 129.591 86 129.591C103.012 129.591 118.868 129.774 132.216 130.091Z" fill="#EA6237"/>
<g opacity="0.2">
<path opacity="0.2" d="M151.889 63.5822C151.889 61.3498 150.073 59.5338 147.841 59.5338H129.67C130.079 57.1559 130.294 54.7129 130.294 52.2204C130.294 45.4439 128.718 39.0292 125.918 33.3206C127.992 32.3042 129.842 31.0476 131.201 29.6893C134.223 26.667 135.397 22.4886 134.731 18.5644C130.213 14.5366 125.195 11.0599 119.779 8.24035C117.316 8.71735 115.051 9.9134 113.238 11.7261C112.143 12.8211 111.114 14.2367 110.224 15.8305C103.569 11.6122 95.6855 9.16667 87.2405 9.16667C78.7954 9.16667 70.9117 11.6128 64.2568 15.8305C63.3665 14.2373 62.3379 12.8218 61.2429 11.7268C58.8624 9.34627 55.7635 8.11354 52.6375 8.02148C48.3432 10.2224 44.2961 12.8366 40.5451 15.8087C38.6236 20.4203 39.5338 25.9435 43.2797 29.69C44.6379 31.0482 46.4893 32.3048 48.5634 33.3212C45.7625 39.0305 44.1867 45.4446 44.1867 52.2211C44.1867 57.5955 45.1793 62.7415 46.9863 67.4896C45.5842 66.9689 44.0695 66.6837 42.4892 66.6837C35.3457 66.6837 29.5342 72.4953 29.5342 79.6387C29.5342 86.403 34.7464 91.9693 41.3646 92.5416V97.3927C35.918 104.179 32.0653 112.175 30.3433 120.874C33.2092 124.22 36.3667 127.309 39.7849 130.091C53.1332 129.774 68.9895 129.591 86.0013 129.591C103.013 129.591 118.869 129.775 132.218 130.091C137.137 126.086 141.521 121.451 145.26 116.316C144.699 114.392 144.035 112.507 143.267 110.671H147.842C148.287 110.671 148.714 110.596 149.114 110.463C150.106 108.785 151.033 107.063 151.891 105.303V63.5822H151.889Z" fill="#6D4C41"/>
</g>
<g opacity="0.3">
<path opacity="0.3" d="M172 132.79C172 131.023 133.497 129.591 86 129.591C38.5032 129.591 0 131.023 0 132.79C0 133.812 12.8662 134.721 32.899 135.307C37.2216 136.452 53.981 137.306 73.9977 137.306C90.7597 137.306 105.237 136.708 112.041 135.84C146.806 135.429 172 134.219 172 132.79Z" fill="#6D4C41"/>
</g>
<path d="M164.039 131.568H7.96038C7.45634 131.568 7.04822 131.159 7.04822 130.656C7.04822 130.153 7.45634 129.744 7.96038 129.744H164.039C164.543 129.744 164.951 130.153 164.951 130.656C164.951 131.159 164.543 131.568 164.039 131.568Z" fill="#6D4C41"/>
<path d="M85.5423 74.5442C53.486 74.5442 27.5 99.1616 27.5 129.529H143.585C143.585 99.1616 117.598 74.5442 85.5423 74.5442Z" fill="#606060"/>
<path d="M143.585 130.515H27.4993C26.9547 130.515 26.5138 130.073 26.5138 129.529C26.5138 98.6672 52.9935 73.5586 85.5423 73.5586C118.091 73.5586 144.571 98.6672 144.571 129.529C144.571 130.073 144.129 130.515 143.585 130.515ZM28.4945 128.543H142.59C142.033 99.2201 116.656 75.5297 85.5423 75.5297C54.4284 75.5297 29.052 99.2208 28.4945 128.543Z" fill="#6D4C41"/>
<g opacity="0.5">
<path opacity="0.5" d="M86.6688 76.5157C101.295 76.5157 114.652 81.7518 124.761 90.3462C114.529 81.1686 100.719 75.5295 85.5422 75.5295C54.4283 75.5295 29.052 99.2206 28.4945 128.543H29.6526C30.7527 99.6777 55.9044 76.5157 86.6688 76.5157Z" fill="white"/>
</g>
<path d="M47.0384 111.462C46.9483 111.69 36.5141 108.129 32.8429 112.809C32.1368 113.71 31.8484 114.77 31.923 115.823C31.4847 117.078 30.5184 120.799 30.5184 120.799H49.3719L47.0384 111.462Z" fill="white"/>
<path d="M49.3726 121.628H30.5185C30.2623 121.628 30.0196 121.509 29.8625 121.306C29.7055 121.103 29.6514 120.838 29.7158 120.591C29.7544 120.443 30.6241 117.098 31.0863 115.708C31.0367 114.459 31.4165 113.283 32.1902 112.297C35.5428 108.022 43.3692 109.815 46.3149 110.489C46.564 110.546 46.8402 110.61 46.9767 110.635C47.0153 110.632 47.0533 110.631 47.0919 110.634C47.4511 110.658 47.7543 110.911 47.8418 111.26L50.176 120.598C50.2378 120.845 50.1824 121.107 50.0254 121.309C49.8689 121.51 49.6275 121.628 49.3726 121.628ZM31.5948 119.97H48.3105L46.3683 112.2C46.2357 112.172 46.0954 112.14 45.9448 112.106C43.534 111.553 36.1981 109.874 33.4944 113.32C32.9434 114.023 32.6859 114.868 32.7497 115.764C32.7574 115.877 32.7426 115.99 32.7052 116.096C32.4252 116.898 31.9115 118.782 31.5948 119.97ZM46.2679 111.155C46.2679 111.156 46.2679 111.156 46.2679 111.155C46.2679 111.156 46.2679 111.156 46.2679 111.155ZM46.4424 110.885C46.3722 110.957 46.3111 111.047 46.2679 111.155C46.3091 111.052 46.369 110.962 46.4424 110.885Z" fill="#6D4C41"/>
<path d="M123.256 111.462C123.347 111.69 133.781 108.129 137.452 112.809C138.158 113.71 138.446 114.77 138.372 115.823C138.81 117.078 139.776 120.799 139.776 120.799H120.922L123.256 111.462Z" fill="white"/>
<path d="M139.776 121.628H120.922C120.667 121.628 120.426 121.51 120.269 121.309C120.112 121.108 120.056 120.846 120.118 120.598L122.452 111.26C122.539 110.911 122.842 110.658 123.202 110.634C123.241 110.631 123.279 110.631 123.317 110.635C123.454 110.61 123.731 110.546 123.979 110.489C126.926 109.815 134.751 108.022 138.104 112.297C138.878 113.283 139.257 114.459 139.208 115.708C139.67 117.098 140.54 120.443 140.578 120.591C140.643 120.839 140.589 121.103 140.432 121.306C140.275 121.509 140.032 121.628 139.776 121.628ZM121.984 119.97H138.699C138.383 118.782 137.869 116.899 137.588 116.097C137.551 115.99 137.536 115.877 137.544 115.765C137.608 114.868 137.35 114.023 136.799 113.321C134.095 109.874 126.759 111.554 124.349 112.106C124.199 112.14 124.058 112.173 123.925 112.2L121.984 119.97ZM124.027 111.155C124.027 111.155 124.027 111.156 124.027 111.155C124.027 111.156 124.027 111.155 124.027 111.155ZM123.854 110.887C123.926 110.963 123.986 111.053 124.027 111.155C123.984 111.047 123.923 110.959 123.854 110.887Z" fill="#6D4C41"/>
<path d="M57.7287 10.7335C62.3043 15.3091 66.0206 26.4436 61.445 31.0186C56.8694 35.5942 45.7348 31.878 41.1599 27.3024C36.5842 22.7267 36.5842 15.3084 41.1599 10.7335C45.7348 6.15785 53.1531 6.15785 57.7287 10.7335Z" fill="#606060"/>
<path d="M55.3941 34.0698C50.093 34.0698 43.7973 31.334 40.4628 27.9995C35.5106 23.0473 35.5106 14.9891 40.4628 10.0363C42.862 7.63709 46.0516 6.31616 49.4447 6.31616C52.8378 6.31616 56.0275 7.63709 58.4267 10.0363C63.4413 15.0502 67.1009 26.7577 62.1429 31.7157C60.4821 33.3759 58.0636 34.0698 55.3941 34.0698ZM49.4441 8.28725C46.5782 8.28725 43.8836 9.40348 41.8565 11.4299C37.6729 15.6135 37.6729 22.4209 41.8565 26.6052C46.1154 30.8634 56.7066 34.3621 60.7479 30.3214C64.7892 26.2801 61.2899 15.6888 57.0317 11.4299C55.0052 9.40348 52.3106 8.28725 49.4441 8.28725Z" fill="#6D4C41"/>
<g opacity="0.5">
<path opacity="0.5" d="M57.0316 11.43C55.0051 9.40358 52.3105 8.28735 49.444 8.28735C49.1459 8.28735 48.8505 8.30216 48.5569 8.32598C46.0252 8.53197 43.6723 9.61408 41.8564 11.43C40.9835 12.3029 40.2953 13.2904 39.7868 14.3442C38.1099 17.8184 38.4118 22.0142 40.6951 25.2277C38.9551 21.7438 39.228 17.5062 41.5113 14.2592C42.5033 14.0622 43.6343 13.6348 44.7583 12.9859C46.3316 12.0776 47.5405 10.9414 48.1488 9.9089C48.846 9.76857 49.5618 9.69583 50.2886 9.69583C53.1544 9.69583 55.8491 10.8121 57.8762 12.8385C58.5386 13.5009 59.181 14.3139 59.7803 15.2267C58.9615 13.7365 58.0184 12.4169 57.0316 11.43Z" fill="white"/>
</g>
<path d="M111.118 10.7335C106.543 15.3091 102.826 26.4436 107.402 31.0186C111.978 35.5942 123.112 31.878 127.687 27.3024C132.263 22.7267 132.263 15.3084 127.687 10.7335C123.112 6.15785 115.694 6.15785 111.118 10.7335Z" fill="#606060"/>
<path d="M113.452 34.0698C110.783 34.0698 108.366 33.3759 106.705 31.7157C101.747 26.7577 105.406 15.0502 110.421 10.0363C112.82 7.63709 116.01 6.31616 119.403 6.31616C122.796 6.31616 125.986 7.63709 128.384 10.0363C133.336 14.9885 133.336 23.0466 128.384 27.9995C125.05 31.334 118.753 34.0692 113.452 34.0698ZM119.403 8.28725C116.536 8.28725 113.842 9.40348 111.815 11.4299C107.557 15.6882 104.058 26.2801 108.099 30.3214C109.358 31.5805 111.255 32.1077 113.396 32.1077C118.127 32.1084 124.059 29.5367 126.991 26.6052C131.175 22.4216 131.175 15.6142 126.991 11.4299C124.964 9.40348 122.269 8.28725 119.403 8.28725ZM111.118 10.7334H111.121H111.118Z" fill="#6D4C41"/>
<g opacity="0.5">
<path opacity="0.5" d="M107.351 22.511C108.225 18.8147 110.199 15.018 112.379 12.8383C114.471 10.7462 117.218 9.7008 119.966 9.7008C122.714 9.7008 125.462 10.7469 127.554 12.8383C128.413 13.6977 129.107 14.6781 129.623 15.7402C129.11 14.1322 128.219 12.6581 126.991 11.4305C124.898 9.33838 122.151 8.29297 119.403 8.29297C116.655 8.29297 113.907 9.33902 111.815 11.4305C109.636 13.6102 107.662 17.4069 106.788 21.1031C106.011 24.3868 106.175 27.2102 107.213 29.1201C106.712 27.3363 106.747 25.0627 107.351 22.511Z" fill="white"/>
</g>
<path d="M84.4234 92.5981C107.657 92.5981 126.492 73.7635 126.492 50.5299C126.492 27.2962 107.657 8.46167 84.4234 8.46167C61.1898 8.46167 42.3552 27.2962 42.3552 50.5299C42.3552 73.7635 61.1898 92.5981 84.4234 92.5981Z" fill="white"/>
<path d="M84.4235 93.5842C60.6835 93.5842 41.3698 74.2705 41.3698 50.5305C41.3698 26.7905 60.6835 7.47607 84.4235 7.47607C108.164 7.47607 127.478 26.7898 127.478 50.5305C127.478 74.2711 108.164 93.5842 84.4235 93.5842ZM84.4235 9.44717C61.7708 9.44717 43.3409 27.8771 43.3409 50.5298C43.3409 73.1826 61.7701 91.6125 84.4235 91.6125C107.077 91.6125 125.506 73.1832 125.506 50.5298C125.506 27.8764 107.076 9.44717 84.4235 9.44717Z" fill="#6D4C41"/>
<g opacity="0.2">
<g opacity="0.2">
<path opacity="0.2" d="M116.353 23.1411C119.409 28.9713 121.141 35.605 121.141 42.6448C121.141 65.8782 102.306 84.713 79.0728 84.713C66.3 84.713 54.8584 79.0198 47.1433 70.0334C54.1747 83.4461 68.2292 92.5986 84.4241 92.5986C107.658 92.5986 126.492 73.7638 126.492 50.5304C126.492 40.0686 122.672 30.5008 116.353 23.1411Z" fill="#6D4C41"/>
</g>
</g>
<path d="M114.121 57.8295C118.503 53.4468 116.954 44.7916 110.66 38.4975C104.366 32.2035 95.7108 30.6541 91.3281 35.0368C86.9453 39.4195 88.4948 48.0747 94.7888 54.3687C101.083 60.6628 109.738 62.2122 114.121 57.8295Z" fill="#606060"/>
<path d="M107.569 61.1475C103.218 61.1475 98.2231 58.9968 94.1927 54.9658C91.0275 51.8006 88.9084 47.9544 88.2247 44.1345C87.5211 40.2032 88.4114 36.7593 90.7327 34.4387C93.0533 32.118 96.4979 31.2271 100.428 31.9307C104.248 32.6143 108.095 34.7341 111.26 37.8993C114.426 41.0645 116.545 44.9108 117.228 48.7307C117.932 52.6619 117.042 56.1052 114.721 58.4265C112.883 60.2643 110.357 61.1475 107.569 61.1475ZM97.8838 33.3868C95.4718 33.3868 93.4048 34.1561 91.9274 35.6334C90.0091 37.5517 89.2849 40.4652 89.8881 43.8364C90.5112 47.3196 92.4643 50.8479 95.3881 53.7711C101.343 59.7255 109.479 61.2782 113.525 57.2317C115.443 55.3134 116.168 52.3999 115.564 49.0287C114.941 45.5455 112.988 42.0173 110.064 39.0941C107.141 36.1709 103.613 34.2179 100.13 33.5941C99.3548 33.4557 98.6035 33.3868 97.8838 33.3868Z" fill="#6D4C41"/>
<g opacity="0.5">
<path opacity="0.5" d="M91.9268 36.7599C93.4041 35.2825 95.4711 34.5132 97.8838 34.5132C98.6041 34.5132 99.3547 34.5821 100.13 34.7205C103.613 35.3443 107.141 37.2974 110.064 40.2205C112.988 43.1437 114.941 46.6713 115.564 50.1545C115.667 50.7262 115.728 51.2836 115.754 51.8263C115.799 50.9399 115.739 50.0039 115.564 49.028C114.941 45.5448 112.988 42.0165 110.064 39.094C107.141 36.1708 103.613 34.2178 100.13 33.594C99.3547 33.455 98.6035 33.3867 97.8838 33.3867C95.4718 33.3867 93.4041 34.156 91.9268 35.6333C90.3335 37.2266 89.5669 39.5066 89.6975 42.1646C89.807 39.9901 90.564 38.1233 91.9268 36.7599Z" fill="white"/>
</g>
<path d="M74.0554 54.3682C80.3494 48.0742 81.8988 39.419 77.5161 35.0362C73.1334 30.6535 64.4782 32.203 58.1842 38.497C51.8902 44.791 50.3407 53.4462 54.7234 57.8289C59.1061 62.2116 67.7613 60.6622 74.0554 54.3682Z" fill="#606060"/>
<path d="M61.2776 61.1476C58.489 61.1476 55.965 60.2644 54.1271 58.4266C51.8065 56.106 50.9156 52.662 51.6192 48.7308C52.3028 44.9109 54.4226 41.064 57.5872 37.8994C60.7524 34.7342 64.5993 32.6151 68.4192 31.9308C72.3491 31.2265 75.7937 32.1175 78.115 34.4387C80.4356 36.7594 81.3265 40.2027 80.6229 44.1346C79.9393 47.9544 77.8195 51.8007 74.6549 54.9659C70.6239 58.9963 65.6286 61.1476 61.2776 61.1476ZM70.9632 33.3869C70.2428 33.3869 69.4923 33.4551 68.7172 33.5942C65.234 34.218 61.7057 36.171 58.7826 39.0942C55.8588 42.0173 53.9057 45.5456 53.2826 49.0288C52.6787 52.4 53.4036 55.3135 55.3219 57.2318C59.3684 61.2777 67.5051 59.7256 73.4589 53.7712C76.3827 50.848 78.3358 47.3197 78.9589 43.8365C79.5627 40.4653 78.8379 37.5518 76.9196 35.6335C75.4429 34.1562 73.3752 33.3869 70.9632 33.3869Z" fill="#6D4C41"/>
<g opacity="0.5">
<path opacity="0.5" d="M59.3458 39.9392C62.269 37.016 65.7972 35.063 69.2804 34.4392C70.0555 34.3002 70.8061 34.2319 71.5264 34.2319C73.9385 34.2319 76.0061 35.0012 77.4835 36.4785C77.6985 36.6935 77.8942 36.9227 78.0776 37.1596C77.7609 36.6054 77.3785 36.0923 76.9202 35.6333C75.4428 34.156 73.3752 33.3867 70.9632 33.3867C70.2428 33.3867 69.4922 33.455 68.7172 33.594C65.234 34.2178 61.7057 36.1708 58.7825 39.094C53.1441 44.7324 51.4563 52.3245 54.7277 56.5506C52.2506 52.2125 54.066 45.2191 59.3458 39.9392Z" fill="white"/>
</g>
<path d="M94.8403 74.685C94.597 74.3773 94.2487 74.1835 93.8593 74.1385C93.4704 74.0934 93.0868 74.2029 92.7797 74.4462C90.7713 76.0381 88.0483 76.181 85.9047 74.8389V70.2246C85.9047 69.4155 85.2468 68.7576 84.4383 68.7576C83.6291 68.7576 82.9712 69.4155 82.9712 70.2246V74.815C80.8386 76.1656 78.0847 76.0452 76.0666 74.4455C75.7589 74.2022 75.3746 74.0934 74.9845 74.1391C74.5957 74.1848 74.2481 74.3786 74.0067 74.6844C73.7634 74.9914 73.6539 75.3751 73.699 75.7639C73.7441 76.1533 73.9378 76.5016 74.2449 76.7449C75.8214 77.9944 77.7873 78.6826 79.7822 78.6826C81.416 78.6826 83.0266 78.2146 84.4235 77.361C85.8204 78.2146 87.431 78.6826 89.0648 78.6826C91.0597 78.6826 93.0256 77.9944 94.6021 76.7449C95.2355 76.2428 95.3424 75.3184 94.8403 74.685Z" fill="#6D4C41"/>
<path d="M94.5854 64.0238C94.5854 66.0689 90.0355 72.0974 84.4235 72.0974C78.8115 72.0974 74.2616 66.0689 74.2616 64.0238C74.2616 61.9786 78.8115 60.321 84.4235 60.321C90.0355 60.321 94.5854 61.9793 94.5854 64.0238Z" fill="#6D4C41"/>
<g opacity="0.4">
<path opacity="0.4" d="M81.4288 65.3459C83.419 65.0963 84.9479 64.2203 84.8437 63.3893C84.7395 62.5582 83.0417 62.0867 81.0515 62.3363C79.0612 62.5858 77.5323 63.4618 77.6365 64.2929C77.7407 65.124 79.4386 65.5954 81.4288 65.3459Z" fill="white"/>
</g>
<path d="M72.3704 49.8281H65.3293C64.3959 49.8281 63.6395 49.0717 63.6395 48.1383C63.6395 47.2049 64.3959 46.4485 65.3293 46.4485H72.3704C73.3038 46.4485 74.0602 47.2049 74.0602 48.1383C74.0602 49.0717 73.3032 49.8281 72.3704 49.8281Z" fill="white"/>
<path d="M103.518 49.8276H96.4766C95.5432 49.8276 94.7869 49.0712 94.7869 48.1378C94.7869 47.2044 95.5432 46.448 96.4766 46.448H103.518C104.451 46.448 105.208 47.2044 105.208 48.1378C105.208 49.0712 104.45 49.8276 103.518 49.8276Z" fill="white"/>
<path d="M136.652 129.529H34.4324C30.7161 129.529 27.7035 126.517 27.7035 122.801C27.7035 121.366 28.8661 120.204 30.3003 120.204H140.784C142.218 120.204 143.381 121.366 143.381 122.801C143.381 126.517 140.369 129.529 136.652 129.529Z" fill="#E8EDF3"/>
<path d="M136.652 130.515H34.4317C30.1779 130.515 26.7179 127.054 26.7179 122.8C26.7179 120.825 28.3253 119.218 30.3002 119.218H140.784C142.759 119.218 144.366 120.826 144.366 122.8C144.367 127.054 140.906 130.515 136.652 130.515ZM30.3002 121.189C29.4119 121.189 28.6896 121.912 28.6896 122.8C28.6896 125.967 31.2658 128.543 34.4323 128.543H136.652C139.819 128.543 142.395 125.967 142.395 122.8C142.395 121.912 141.672 121.189 140.784 121.189H30.3002Z" fill="#6D4C41"/>
<g opacity="0.3">
<g opacity="0.3">
<path opacity="0.3" d="M136.652 129.529H34.4324C30.7161 129.529 27.7035 126.517 27.7035 122.8C27.7035 121.366 28.8661 120.204 30.3003 120.204H140.784C142.218 120.204 143.381 121.366 143.381 122.8C143.381 126.517 140.369 129.529 136.652 129.529Z" fill="#6D4C41"/>
</g>
</g>
<g opacity="0.8">
<path opacity="0.8" d="M30.3787 123.927C30.3787 123.039 31.1017 122.316 31.99 122.316H142.32C142.114 121.664 141.503 121.189 140.784 121.189H30.3002C29.4119 121.189 28.689 121.912 28.689 122.8C28.689 125.159 30.1187 127.187 32.1561 128.071C31.0637 127.025 30.3787 125.556 30.3787 123.927Z" fill="white"/>
</g>
<path d="M131.551 129.529H39.5332V76.9871C39.5332 73.3391 42.4905 70.3818 46.1385 70.3818H124.947C128.595 70.3818 131.552 73.3391 131.552 76.9871V129.529H131.551Z" fill="#E8EDF3"/>
<path d="M131.551 130.515H39.5333C38.9887 130.515 38.5477 130.073 38.5477 129.529V76.9871C38.5477 72.8016 41.953 69.3962 46.1386 69.3962H124.947C129.132 69.3962 132.538 72.8016 132.538 76.9871V129.529C132.537 130.073 132.095 130.515 131.551 130.515ZM40.5188 128.543H130.565V76.9864C130.565 73.8882 128.044 71.3673 124.946 71.3673H46.1379C43.0397 71.3673 40.5188 73.8882 40.5188 76.9864V128.543Z" fill="#6D4C41"/>
<g opacity="0.8">
<g opacity="0.8">
<path opacity="0.8" d="M88.8421 94.7256C89.8495 94.7256 90.7971 94.9747 91.6326 95.4092C89.6873 96.4199 88.3554 98.4495 88.3554 100.793C88.3554 103.137 89.6866 105.167 91.6326 106.177C90.7964 106.611 89.8489 106.861 88.8421 106.861C85.4908 106.861 82.7743 104.145 82.7743 100.793C82.7743 97.4421 85.4908 94.7256 88.8421 94.7256Z" fill="white"/>
</g>
</g>
<g opacity="0.8">
<path opacity="0.8" d="M42.7718 78.6768C42.7718 75.5785 45.2927 73.0577 48.3909 73.0577H127.199C127.953 73.0577 128.671 73.209 129.329 73.48C128.299 72.1945 126.718 71.3679 124.946 71.3679H46.1379C43.0396 71.3679 40.5188 73.8887 40.5188 76.987V128.544H42.7718V78.6768Z" fill="white"/>
</g>
<g opacity="0.2">
<path opacity="0.2" d="M124.946 70.3818H117.18H110.783V89.6628C110.783 105.508 100.079 119.378 84.7325 123.32C73.9578 126.087 59.3645 127.367 39.5332 127.012V129.529H131.551V111.516V76.9871C131.551 73.3391 128.594 70.3818 124.946 70.3818Z" fill="#6D4C41"/>
</g>
<path d="M87.1522 94.1624C88.1597 94.1624 89.1072 94.4115 89.9428 94.846C87.9975 95.8566 86.6656 97.8863 86.6656 100.23C86.6656 102.574 87.9968 104.604 89.9428 105.614C89.1066 106.048 88.159 106.298 87.1522 106.298C83.801 106.298 81.0845 103.581 81.0845 100.23C81.0845 96.8789 83.801 94.1624 87.1522 94.1624Z" fill="#6D4C41"/>
<path d="M118.078 108.136C116.311 108.136 114.874 106.699 114.874 104.933V61.8923C114.874 60.1259 116.311 58.6885 118.078 58.6885H145.024C146.79 58.6885 148.228 60.1259 148.228 61.8923V104.933C148.228 106.699 146.79 108.136 145.024 108.136H118.078Z" fill="white"/>
<path d="M145.025 59.5338C146.327 59.5338 147.384 60.5895 147.384 61.8924V104.933C147.384 106.236 146.327 107.291 145.025 107.291H118.078C116.776 107.291 115.72 106.235 115.72 104.933V61.8924C115.72 60.5895 116.776 59.5338 118.078 59.5338H145.025ZM145.025 57.844H118.078C115.846 57.844 114.03 59.6599 114.03 61.8924V104.933C114.03 107.165 115.846 108.981 118.078 108.981H145.025C147.257 108.981 149.074 107.165 149.074 104.933V61.8924C149.073 59.6599 147.257 57.844 145.025 57.844Z" fill="#6D4C41"/>
<g opacity="0.2">
<g opacity="0.2">
<path opacity="0.2" d="M145.025 59.5337H142.326C142.377 64.128 143.76 105.614 115.719 104.227V104.933C115.719 106.236 116.775 107.292 118.078 107.292H145.024C146.327 107.292 147.383 106.235 147.383 104.933V61.893C147.383 60.5894 146.328 59.5337 145.025 59.5337Z" fill="#6D4C41"/>
</g>
</g>
<path d="M39.6716 89.917C46.2822 89.917 51.6411 84.558 51.6411 77.9475C51.6411 71.3369 46.2822 65.978 39.6716 65.978C33.0611 65.978 27.7021 71.3369 27.7021 77.9475C27.7021 84.558 33.0611 89.917 39.6716 89.917Z" fill="#FF5722"/>
<path d="M39.6717 90.9024C32.5282 90.9024 26.7167 85.0909 26.7167 77.9474C26.7167 70.804 32.5282 64.9924 39.6717 64.9924C46.8151 64.9924 52.6267 70.804 52.6267 77.9474C52.6267 85.0909 46.8151 90.9024 39.6717 90.9024ZM39.6717 66.9642C33.6155 66.9642 28.6884 71.8913 28.6884 77.9474C28.6884 84.0036 33.6155 88.9307 39.6717 88.9307C45.7279 88.9307 50.655 84.0036 50.655 77.9474C50.655 71.8913 45.7279 66.9642 39.6717 66.9642Z" fill="#6D4C41"/>
<g opacity="0.2">
<g opacity="0.2">
<path opacity="0.2" d="M44.9888 67.228C46.8485 69.3382 47.9802 72.1043 47.9802 75.1311C47.9802 81.7312 42.6109 87.1005 36.0108 87.1005C34.1015 87.1005 32.2971 86.6486 30.6942 85.8504C32.8893 88.341 36.0996 89.9168 39.6723 89.9168C46.2724 89.9168 51.6417 84.5475 51.6417 77.9474C51.6411 73.2565 48.9271 69.1895 44.9888 67.228Z" fill="#6D4C41"/>
</g>
</g>
<g opacity="0.5">
<path opacity="0.5" d="M30.0962 79.0739C30.0962 73.0177 35.0233 68.0906 41.0795 68.0906C43.3403 68.0906 45.4427 68.7775 47.191 69.9529C45.2244 68.1022 42.5787 66.9641 39.671 66.9641C33.6148 66.9641 28.6877 71.8912 28.6877 77.9474C28.6877 81.7434 30.6234 85.0953 33.5595 87.069C31.43 85.0644 30.0962 82.223 30.0962 79.0739Z" fill="white"/>
</g>
<path d="M44.1346 80.1638L41.9189 77.9475L44.1353 75.7311C44.7545 75.1112 44.7539 74.1032 44.1346 73.4839C43.5154 72.8646 42.5073 72.8646 41.888 73.4839L39.6717 75.7002L37.4553 73.4832C36.836 72.864 35.828 72.864 35.2087 73.4832C34.5894 74.1025 34.5894 75.1106 35.2087 75.7311L37.4251 77.9468L35.21 80.1626C34.9094 80.4625 34.7433 80.8616 34.7433 81.2865C34.7433 81.7114 34.9087 82.1105 35.2081 82.4092C35.5074 82.7098 35.9065 82.8752 36.332 82.8752C36.7569 82.8752 37.156 82.7104 37.456 82.4105L39.6717 80.1941L41.888 82.4105C42.1873 82.7104 42.5865 82.8759 43.012 82.8759C43.4375 82.8759 43.8366 82.7104 44.1353 82.4111C44.4352 82.1111 44.6007 81.712 44.6007 81.2878C44.6007 80.8636 44.4352 80.4638 44.1346 80.1638Z" fill="white"/>
<g opacity="0.2">
<path opacity="0.2" d="M37.2429 110.942C37.2429 110.942 37.2371 119.539 31.9476 119.183L31.645 120.053H39.3401V110.438C39.3408 110.438 37.1167 110.801 37.2429 110.942Z" fill="#6D4C41"/>
</g>
<g opacity="0.2">
<path opacity="0.2" d="M133.721 110.843C133.721 110.843 133.727 119.44 139.017 119.084L139.319 119.954H131.624V110.339C131.624 110.339 133.848 110.702 133.721 110.843Z" fill="#6D4C41"/>
</g>
<g opacity="0.2">
<g opacity="0.2">
<path opacity="0.2" d="M140.969 69.3518H121.728C121.352 69.3518 121.047 69.0467 121.047 68.6708V68.5233C121.047 68.1474 121.352 67.8423 121.728 67.8423H140.969C141.344 67.8423 141.65 68.1474 141.65 68.5233V68.6708C141.65 69.0473 141.344 69.3518 140.969 69.3518Z" fill="#6D4C41"/>
</g>
</g>
<g opacity="0.2">
<g opacity="0.2">
<path opacity="0.2" d="M140.969 72.6792H121.728C121.352 72.6792 121.047 72.3741 121.047 71.9982V71.8507C121.047 71.4748 121.352 71.1697 121.728 71.1697H140.969C141.344 71.1697 141.65 71.4748 141.65 71.8507V71.9982C141.65 72.3741 141.344 72.6792 140.969 72.6792Z" fill="#6D4C41"/>
</g>
</g>
<path d="M122.104 84.5387C121.211 84.5387 120.484 83.8119 120.484 82.9184V77.8722C120.484 76.9787 121.211 76.252 122.104 76.252H140.593C141.486 76.252 142.213 76.9787 142.213 77.8722V82.9184C142.213 83.8119 141.486 84.5387 140.593 84.5387H122.104Z" fill="white"/>
<path d="M140.593 76.8152C141.176 76.8152 141.65 77.2884 141.65 77.8722V82.9184C141.65 83.5023 141.176 83.9754 140.593 83.9754H122.104C121.52 83.9754 121.047 83.5023 121.047 82.9184V77.8722C121.047 77.2884 121.52 76.8152 122.104 76.8152H140.593ZM140.593 75.6887H122.104C120.9 75.6887 119.921 76.6685 119.921 77.8722V82.9184C119.921 84.1228 120.9 85.1019 122.104 85.1019H140.593C141.797 85.1019 142.776 84.1222 142.776 82.9184V77.8722C142.776 76.6685 141.796 75.6887 140.593 75.6887Z" fill="#6D4C41"/>
<path d="M124.716 81.8075C125.496 81.8075 126.128 81.1755 126.128 80.3958C126.128 79.6162 125.496 78.9841 124.716 78.9841C123.937 78.9841 123.305 79.6162 123.305 80.3958C123.305 81.1755 123.937 81.8075 124.716 81.8075Z" fill="#FF5722"/>
<path d="M129.137 81.8073C129.917 81.8073 130.549 81.1752 130.549 80.3956C130.549 79.6159 129.917 78.9839 129.137 78.9839C128.358 78.9839 127.726 79.6159 127.726 80.3956C127.726 81.1752 128.358 81.8073 129.137 81.8073Z" fill="#FF5722"/>
<path d="M133.559 81.8073C134.338 81.8073 134.97 81.1752 134.97 80.3956C134.97 79.6159 134.338 78.9839 133.559 78.9839C132.779 78.9839 132.147 79.6159 132.147 80.3956C132.147 81.1752 132.779 81.8073 133.559 81.8073Z" fill="#FF5722"/>
<path d="M137.98 81.8073C138.759 81.8073 139.391 81.1752 139.391 80.3956C139.391 79.6159 138.759 78.9839 137.98 78.9839C137.2 78.9839 136.568 79.6159 136.568 80.3956C136.568 81.1752 137.2 81.8073 137.98 81.8073Z" fill="#FF5722"/>
<path d="M139.107 101.819H123.59C122.185 101.819 121.047 100.681 121.047 99.2761C121.047 97.8715 122.185 96.7334 123.59 96.7334H139.107C140.511 96.7334 141.649 97.8715 141.649 99.2761C141.649 100.68 140.511 101.819 139.107 101.819Z" fill="#FF5722"/>
<path d="M139.107 102.522H123.59C121.8 102.522 120.344 101.066 120.344 99.2755C120.344 97.4853 121.8 96.0286 123.59 96.0286H139.107C140.897 96.0286 142.353 97.4853 142.353 99.2755C142.353 101.066 140.897 102.522 139.107 102.522ZM123.589 97.437C122.575 97.437 121.751 98.2616 121.751 99.2755C121.751 100.289 122.575 101.114 123.589 101.114H139.106C140.12 101.114 140.945 100.289 140.945 99.2755C140.945 98.2616 140.12 97.437 139.106 97.437H123.589Z" fill="#6D4C41"/>
<g opacity="0.5">
<g opacity="0.5">
<path opacity="0.5" d="M140.969 65.7185H121.728C121.352 65.7185 121.047 65.4134 121.047 65.0374V64.4574C121.047 64.0815 121.352 63.7764 121.728 63.7764H140.969C141.344 63.7764 141.65 64.0815 141.65 64.4574V65.0374C141.65 65.414 141.344 65.7185 140.969 65.7185Z" fill="#6D4C41"/>
</g>
</g>
<g opacity="0.2">
<g opacity="0.2">
<path opacity="0.2" d="M140.969 93.2264H121.728C121.352 93.2264 121.047 92.9213 121.047 92.5453C121.047 92.1694 121.352 91.8643 121.728 91.8643H140.969C141.344 91.8643 141.65 92.1694 141.65 92.5453C141.65 92.9213 141.344 93.2264 140.969 93.2264Z" fill="#6D4C41"/>
</g>
</g>
<g opacity="0.2">
<g opacity="0.2">
<path opacity="0.2" d="M140.969 89.948H121.728C121.352 89.948 121.047 89.6429 121.047 89.267V88.8769C121.047 88.5009 121.352 88.1958 121.728 88.1958H140.969C141.344 88.1958 141.65 88.5009 141.65 88.8769V89.267C141.65 89.6429 141.344 89.948 140.969 89.948Z" fill="#6D4C41"/>
</g>
</g>
<path d="M147.854 51.7207C147.076 51.7207 146.445 51.0905 146.445 50.3123V44.7466C146.445 43.969 147.076 43.3381 147.854 43.3381C148.632 43.3381 149.262 43.9683 149.262 44.7466V50.3123C149.262 51.0899 148.631 51.7207 147.854 51.7207Z" fill="#6D4C41"/>
<path d="M154.016 55.3747C153.656 55.3747 153.295 55.2369 153.02 54.9621C152.471 54.4123 152.471 53.5208 153.02 52.9704L156.955 49.0346C157.505 48.4849 158.397 48.4849 158.947 49.0346C159.497 49.5844 159.497 50.4759 158.947 51.0263L155.012 54.9621C154.737 55.2369 154.377 55.3747 154.016 55.3747Z" fill="#6D4C41"/>
<path d="M162.36 62.1717H156.794C156.017 62.1717 155.386 61.5415 155.386 60.7632C155.386 59.9849 156.016 59.3547 156.794 59.3547H162.36C163.138 59.3547 163.769 59.9849 163.769 60.7632C163.769 61.5415 163.138 62.1717 162.36 62.1717Z" fill="#6D4C41"/>
<path d="M12.3493 118.035C13.1627 118.035 13.8222 117.376 13.8222 116.562C13.8222 115.749 13.1627 115.089 12.3493 115.089C11.5359 115.089 10.8765 115.749 10.8765 116.562C10.8765 117.376 11.5359 118.035 12.3493 118.035Z" fill="#6D4C41"/>
<path d="M158.174 119.62C159.112 119.62 159.872 118.86 159.872 117.922C159.872 116.984 159.112 116.224 158.174 116.224C157.236 116.224 156.476 116.984 156.476 117.922C156.476 118.86 157.236 119.62 158.174 119.62Z" fill="#6D4C41"/>
<path d="M159.828 23.6111C160.611 23.6111 161.245 22.9765 161.245 22.1936C161.245 21.4108 160.611 20.7761 159.828 20.7761C159.045 20.7761 158.41 21.4108 158.41 22.1936C158.41 22.9765 159.045 23.6111 159.828 23.6111Z" fill="#6D4C41"/>
<path d="M154.464 12.9073C154.792 12.5796 154.585 11.802 154.006 10.9207C153.834 10.6587 153.834 10.3208 154.006 10.0588C154.585 9.1775 154.791 8.39988 154.464 8.07222C154.137 7.74456 153.359 7.9512 152.478 8.53056C152.216 8.70243 151.878 8.70243 151.616 8.53056C150.735 7.95185 149.957 7.74521 149.629 8.07222C149.302 8.39988 149.508 9.1775 150.088 10.0588C150.259 10.3208 150.259 10.6587 150.088 10.9207C149.509 11.802 149.302 12.5796 149.629 12.9073C149.957 13.2349 150.735 13.0283 151.616 12.4489C151.878 12.277 152.216 12.277 152.478 12.4489C153.359 13.0283 154.137 13.2349 154.464 12.9073Z" fill="#6D4C41"/>
<path d="M6.45973 108.301C6.83631 108.301 7.16461 107.735 7.33906 106.895C7.39056 106.646 7.58497 106.451 7.83473 106.4C8.6748 106.226 9.24064 105.897 9.24064 105.52C9.24064 105.144 8.67415 104.815 7.83473 104.641C7.58497 104.589 7.39056 104.395 7.33906 104.145C7.16526 103.305 6.83631 102.739 6.45973 102.739C6.08315 102.739 5.75485 103.306 5.5804 104.145C5.5289 104.395 5.3345 104.589 5.08473 104.641C4.24467 104.815 3.67883 105.144 3.67883 105.52C3.67883 105.897 4.24531 106.225 5.08473 106.4C5.3345 106.451 5.5289 106.646 5.5804 106.895C5.75485 107.735 6.08315 108.301 6.45973 108.301Z" fill="#6D4C41"/>
<path d="M16.751 22.2581C17.9918 22.2581 18.9976 21.2523 18.9976 20.0115C18.9976 18.7707 17.9918 17.7649 16.751 17.7649C15.5102 17.7649 14.5044 18.7707 14.5044 20.0115C14.5044 21.2523 15.5102 22.2581 16.751 22.2581Z" fill="#6D4C41"/>
<path d="M7.8503 33.1994C8.66124 33.1994 9.31864 32.542 9.31864 31.731C9.31864 30.9201 8.66124 30.2627 7.8503 30.2627C7.03936 30.2627 6.38196 30.9201 6.38196 31.731C6.38196 32.542 7.03936 33.1994 7.8503 33.1994Z" fill="#6D4C41"/>
</svg>
