<?xml version="1.0" encoding="utf-8"?>
<!-- Generator: Adobe Illustrator 26.0.3, SVG Export Plug-In . SVG Version: 6.00 Build 0)  -->
<svg version="1.1" id="Layer_1" xmlns="http://www.w3.org/2000/svg" xmlns:xlink="http://www.w3.org/1999/xlink" x="0px" y="0px"
	 viewBox="0 0 1017.5 234.7" style="enable-background:new 0 0 1017.5 234.7;" xml:space="preserve">
<style type="text/css">
	.st0{fill-rule:evenodd;clip-rule:evenodd;fill:#72C16C;}
	.st1{fill-rule:evenodd;clip-rule:evenodd;fill:#E53462;}
	.st2{fill-rule:evenodd;clip-rule:evenodd;fill:#1E2343;}
	.st3{enable-background:new    ;}
	.st4{fill:#AB3BF4;}
	.st5{fill:#E53462;}
	.st6{fill:#72C16C;}
	.st7{fill:#4A62AC;}
	.st8{fill:#FF6712;}
</style>
<path class="st0" d="M200.8,166h-48.2v-26.8h48.2c4.2,0,7.6-3.4,7.6-7.6l0,0l0.3-97c0-4.2-3.4-7.6-7.6-7.6l0,0l-97-0.3
	c-4.2,0-7.6,3.4-7.6,7.6c0,0,0,0,0,0l-0.4,117.8H69.3l0.4-117.8c0.1-19,15.5-34.4,34.5-34.3c0,0,0,0,0,0l0,0l97.1,0.3
	c18.9,0.2,34.2,15.6,34.1,34.5l-0.3,97.1c-0.1,19-15.5,34.4-34.6,34.3l0,0"/>
<path class="st1" d="M131.2,234.7l-96.7-0.3C15.4,234.4-0.1,218.8,0,199.7l0.3-96.8C0.4,83.8,15.9,68.4,35,68.5c0,0,0,0,0,0h35v26.8
	H35c-4.3,0-7.8,3.5-7.8,7.8l-0.3,96.8c0,4.3,3.5,7.8,7.8,7.8l96.7,0.3c4.4,0,7.9-3.5,7.9-7.9l0.4-116.6h26.8l-0.4,116.6
	c-0.1,19.1-15.7,34.6-34.8,34.5"/>
<path class="st0" d="M104.9,150.6c0,12.2-9.9,22-22.1,21.9c-12.2,0-22-9.9-21.9-22.1c0-12.1,9.9-21.9,22-21.9H83
	C95.1,128.6,104.9,138.4,104.9,150.6L104.9,150.6"/>
<path class="st1" d="M174.5,82.9c0,12.2-9.9,22-22.1,21.9c-12.2,0-22-9.9-21.9-22.1c0-12.1,9.9-21.9,22-21.9l0,0
	C164.7,60.9,174.5,70.7,174.5,82.9C174.5,82.9,174.5,82.9,174.5,82.9"/>
<path class="st2" d="M329.1,150.6l8.8,22.6c0.4,0.9-0.1,2-1,2.3c0,0,0,0,0,0c-0.2,0.1-0.4,0.1-0.6,0.1h-17.6c-1,0-1.8-0.8-1.8-1.7
	c0-0.2,0-0.5,0.1-0.7l8.7-22.6c0.4-0.9,1.4-1.4,2.4-1C328.5,149.8,328.9,150.1,329.1,150.6 M344.2,189.5l4.1,10.2
	c0.3,0.7,0.9,1.1,1.7,1.1h12.4c1,0,1.8-0.8,1.8-1.8c0-0.2,0-0.5-0.1-0.7l-28.2-67.1c-0.3-0.7-0.9-1.1-1.6-1.1H321
	c-0.7,0-1.4,0.4-1.6,1.1l-28.4,67.1c-0.4,0.9,0,2,0.9,2.4c0.2,0.1,0.5,0.1,0.7,0.1H305c0.7,0,1.4-0.5,1.7-1.2l3.9-10.3
	c0.3-0.7,0.9-1.1,1.7-1.1h30.3C343.3,188.4,344,188.8,344.2,189.5 M376.2,132.4v66.7c0,1,0.8,1.8,1.8,1.8l0,0h11.9
	c1,0,1.8-0.8,1.8-1.8c0,0,0,0,0,0l0,0v-66.7c0-1-0.8-1.8-1.8-1.8H378C377,130.7,376.2,131.5,376.2,132.4 M487.3,141.9v-9.5
	c0-1-0.8-1.8-1.8-1.8h-48.9c-1,0-1.8,0.8-1.8,1.8l0,0v66.7c0,1,0.8,1.8,1.8,1.8l0,0h48.9c1,0,1.8-0.8,1.8-1.7c0,0,0,0,0,0v-9.5
	c0-1-0.8-1.8-1.8-1.8l0,0H452c-1,0-1.8-0.8-1.8-1.8l0,0l0,0v-11.8c0-1,0.8-1.8,1.7-1.8h28.8c1,0,1.8-0.8,1.8-1.8v-9.2
	c0-1-0.8-1.8-1.7-1.8H452c-1,0-1.8-0.8-1.8-1.8v-12.4c0-1,0.8-1.8,1.8-1.8h33.4C486.4,143.8,487.2,143,487.3,141.9
	C487.2,142,487.2,142,487.3,141.9L487.3,141.9 M528.3,187.3h-10.8c-1,0-1.8-0.8-1.8-1.7v-39.5c0-1,0.8-1.7,1.7-1.8h10.9
	c11.9-0.5,21.9,8.7,22.5,20.6c0.5,11.9-8.7,21.9-20.6,22.5l0,0C529.6,187.4,528.9,187.4,528.3,187.3 M528.3,130.7h-26.3
	c-1,0-1.8,0.8-1.8,1.8v66.7c0,1,0.8,1.8,1.7,1.8c0,0,0,0,0,0h26.3c22.3,0,38-14.5,38-35.3S550.7,130.7,528.3,130.7 M641,130.7h-12
	c-1,0-1.8,0.8-1.8,1.8l0,0v36.2c0,12-6.7,19.7-17.1,19.7s-17-7.7-17-19.7v-36.2c0-1-0.8-1.8-1.8-1.8c0,0,0,0,0,0h-12
	c-1,0-1.8,0.8-1.8,1.8v35.8c0,21.5,12.2,34.3,32.5,34.3c20.3,0,32.7-12.8,32.7-34.3v-35.8C642.7,131.5,641.9,130.7,641,130.7
	C640.9,130.6,640.9,130.6,641,130.7L641,130.7 M712.5,173.3c-0.8,0-1.5,0.5-1.7,1.3c-2.4,8.3-10.2,13.9-18.8,13.5
	c-12.5,0-21.5-9.4-21.5-22.3c0-12.9,9-22.3,21.5-22.3c8.6-0.3,16.4,5.2,18.8,13.5c0.2,0.7,0.9,1.3,1.7,1.3H725c1,0,1.8-0.8,1.8-1.7
	c0,0,0,0,0,0c0-0.1,0-0.2,0-0.3c-3.5-16.2-17-27-34.7-27c-21.6,0-37.3,15.4-37.3,36.6s15.7,36.6,37.3,36.6
	c17.6,0,31.1-10.7,34.7-26.9c0.1-0.9-0.6-1.8-1.5-1.9H725L712.5,173.3z M770.1,150.6l8.8,22.6c0.4,0.9-0.1,2-1,2.3c0,0,0,0,0,0
	c-0.2,0.1-0.4,0.1-0.6,0.1h-17.7c-1,0-1.8-0.8-1.8-1.8c0-0.2,0-0.4,0.1-0.6l8.9-22.6c0.4-0.9,1.4-1.4,2.4-1
	C769.6,149.8,769.9,150.1,770.1,150.6 M785.2,189.5l4.1,10.3c0.3,0.7,0.9,1.1,1.7,1.1h12.3c1,0,1.8-0.8,1.8-1.8c0-0.2,0-0.5-0.1-0.7
	l-28.2-67.1c-0.3-0.7-0.9-1.1-1.6-1.1H762c-0.7,0-1.4,0.4-1.7,1.1l-28.4,67.1c-0.4,0.9,0.1,2,1,2.4c0,0,0,0,0,0
	c0.2,0.1,0.5,0.1,0.7,0.1H746c0.7,0,1.4-0.5,1.7-1.2l3.9-10.3c0.3-0.7,0.9-1.1,1.7-1.1h30.3C784.3,188.4,785,188.8,785.2,189.5
	 M861.6,130.6h-58.3c-1,0-1.8,0.8-1.8,1.8v10.1c0,1,0.8,1.8,1.8,1.8H823c1,0,1.8,0.8,1.8,1.7c0,0,0,0,0,0v53.2c0,1,0.8,1.8,1.8,1.8
	l0,0h11.9c1,0,1.8-0.8,1.8-1.8l0,0l0,0V146c0-1,0.8-1.8,1.7-1.8h19.6c1,0,1.8-0.8,1.8-1.8v-9.9C863.4,131.5,862.6,130.7,861.6,130.6
	 M905.2,188.4c-12.4,0.5-22.9-9.2-23.4-21.6c-0.5-12.4,9.2-22.9,21.6-23.4c12.4-0.5,22.9,9.2,23.4,21.6c0,0,0,0,0,0
	c0,0.3,0,0.6,0,0.9c0.4,12.1-9.1,22.1-21.2,22.5L905.2,188.4 M905.2,129.2c-20.2,0-36.7,16.4-36.7,36.7c0,20.2,16.4,36.7,36.7,36.7
	l0,0c21.3,0,37.4-15.7,37.4-36.6S926.5,129.3,905.2,129.2"/>
<path class="st2" d="M971.8,145.8c0-1,0.8-1.8,1.8-1.8h13c8.1,0,13.9,4.6,13.9,11s-5.8,11.2-13.9,11.2h-13c-1,0-1.8-0.8-1.8-1.8l0,0
	V145.8z M1001.7,200.9h14c1,0,1.8-0.8,1.8-1.8c0,0,0,0,0,0c0-0.4-0.1-0.8-0.4-1.1l-15.9-20.9l1.4-0.7c8.2-4,13.4-12.3,13.2-21.5
	c0-14.8-11.3-24.4-28.8-24.4h-28.9c-1,0-1.8,0.8-1.8,1.8l0,0v66.7c0,1,0.8,1.8,1.7,1.8H970c1,0,1.8-0.8,1.8-1.8c0,0,0,0,0,0l0,0
	v-17.6c0-1,0.8-1.8,1.7-1.8h10.6c0.6,0,1.1,0.3,1.4,0.7l14.6,19.7C1000.6,200.6,1001.1,200.9,1001.7,200.9L1001.7,200.9z"/>
<g class="st3">
	<path class="st4" d="M362.1,93.7L362,49.8l-21.5,36.1h-7.6l-21.4-35.2v42.9h-15.9v-73h14L337,66l26.9-45.4h13.9l0.2,73H362.1z"/>
</g>
<g class="st3">
	<path class="st5" d="M442.6,78h-33.9l-6.5,15.6H385l32.5-73h16.7l32.6,73h-17.7L442.6,78z M437.3,65.2l-11.6-28l-11.6,28H437.3z"/>
</g>
<g class="st3">
	<path class="st6" d="M483.4,34.4h-23.4V20.6h63.6v13.8h-23.4v59.2h-16.9V34.4z"/>
</g>
<g class="st3">
	<path class="st7" d="M604.2,20.6v73h-16.9V63.7h-33.2v29.9h-16.9v-73h16.9v28.8h33.2V20.6H604.2z"/>
</g>
<g class="st3">
	<path class="st8" d="M619.9,86.5l5.7-12.7c6.2,4.5,15.3,7.6,24.1,7.6c10,0,14.1-3.3,14.1-7.8c0-13.7-42.5-4.3-42.5-31.4
		c0-12.4,10-22.7,30.8-22.7c9.2,0,18.6,2.2,25.3,6.5l-5.2,12.8c-6.8-3.9-13.8-5.7-20.2-5.7c-10,0-13.9,3.8-13.9,8.3
		c0,13.5,42.5,4.2,42.5,31c0,12.2-10.1,22.6-31,22.6C638,94.9,626.3,91.5,619.9,86.5z"/>
</g>
</svg>
