<svg width="528" height="389" viewBox="0 0 528 389" fill="none" xmlns="http://www.w3.org/2000/svg">
<g clip-path="url(#clip0)">
<path d="M200.639 73.8395L196.498 75.1172L193.714 68.6423L187.428 69.7596L184.558 65.2577L182.291 66.7197L186.127 72.74L192.085 71.6821L194.982 78.4186L201.215 76.4931L200.639 73.8395Z" fill="#9ED16F"/>
<path d="M466.31 306.721L462.17 307.999L459.386 301.524L453.1 302.644L450.23 298.14L447.963 299.602L451.802 305.622L457.757 304.564L460.654 311.301L466.887 309.375L466.31 306.721Z" fill="#9ED16F"/>
<path d="M175.112 383.381C175.112 383.381 153.005 308.044 151.232 291.427C149.458 274.81 161.821 279.96 161.821 279.96C161.821 279.96 151.421 248.295 158.94 240.777C166.458 233.259 173.244 247.27 173.244 247.27C173.244 247.27 175.52 208.833 183.538 208.818C198.469 208.792 198.177 250.741 198.177 250.741C198.177 250.741 201.986 234.317 209.998 238.819C222.057 245.609 204.764 278.521 204.764 278.521C204.764 278.521 220.133 278.521 225.527 286.322C235.197 300.297 175.112 383.381 175.112 383.381Z" fill="#7772D6"/>
<path d="M182.338 373.408C182.338 373.408 118.609 362.693 104.748 351.339C90.8867 339.985 104.606 334.868 104.606 334.868C104.606 334.868 72.5923 318.367 72.9617 307.146C73.3312 295.926 89.2376 301.631 89.2376 301.631C89.2376 301.631 62.2629 270.703 68.6408 264.832C80.5337 253.891 111.72 286.039 111.72 286.039C111.72 286.039 102.46 270.751 112.214 268.332C126.92 264.683 137.773 302.383 137.773 302.383C137.773 302.383 135.015 287.493 145.161 289.478C163.361 293.034 182.338 373.408 182.338 373.408Z" fill="#7772D6"/>
<path d="M145.164 289.478C135 287.629 137.775 302.383 137.775 302.383C137.775 302.383 126.923 264.683 112.216 268.332C102.463 270.751 111.723 286.039 111.723 286.039C111.723 286.039 80.5424 253.891 68.6406 264.832L182.131 373.426C180.104 363.056 162.208 292.574 145.164 289.478Z" fill="#45258F"/>
<path d="M200.471 382.246C200.471 382.246 166.908 347.919 150.009 344.353C133.109 340.787 136.147 352.869 136.147 352.869C136.147 352.869 102.629 323.389 94.8417 330.532C87.054 337.676 95.4771 344.573 95.4771 344.573C95.4771 344.573 67.5448 339.598 63.5579 348.813C57.4134 362.975 103.35 370.681 103.35 370.681C103.35 370.681 84.0985 372.024 88.5731 380.903C95.2879 394.292 200.471 382.246 200.471 382.246Z" fill="#7772D6"/>
<path d="M63.5488 348.81C67.5446 339.598 95.4681 344.57 95.4681 344.57C95.4681 344.57 87.0627 337.676 94.8326 330.529C102.603 323.383 135.095 348.861 135.095 348.861C135.095 348.861 127.435 334.14 144.337 337.712C161.239 341.283 200.462 382.243 200.462 382.243L63.5488 348.81Z" fill="#45258F"/>
<path d="M253.902 28.3276C242.604 30.1967 239.249 45.1019 248.642 51.77C250.321 52.9836 251.511 54.7639 251.993 56.7859L253.701 63.7185C253.928 64.6404 254.492 65.4426 255.281 65.9653C256.07 66.4879 257.025 66.6925 257.957 66.5385L262.237 65.8283C263.169 65.6753 264.009 65.1745 264.59 64.4259C265.17 63.6773 265.449 62.736 265.37 61.79C264.779 54.6315 264.043 52.0344 266.357 48.84C273.128 39.5005 265.201 26.4585 253.902 28.3276Z" fill="#62BDF3"/>
<path d="M255.055 58.6341C254.319 52.5009 253.282 46.026 252.936 44.1866C246.461 44.5461 248.923 37.6849 251.911 40.4751C252.762 41.2715 253.164 42.3502 253.43 43.5299C255.583 43.3346 257.677 42.721 259.598 41.7232C259.494 40.2107 259.347 39.0488 259.766 38.0949C260.402 36.6329 262.243 36.2348 262.994 37.6611C263.133 37.9343 263.216 38.2331 263.238 38.5395C263.26 38.8459 263.22 39.1536 263.121 39.444C262.686 40.6534 261.38 41.4528 260.242 42.0768C260.582 46.9531 261.052 51.8828 261.646 56.7086L261.037 56.7829C260.446 52.0284 259.985 47.1878 259.645 42.3918C257.738 43.3442 255.673 43.9364 253.554 44.139C253.997 46.4865 254.975 52.7981 255.667 58.5569L255.055 58.6341ZM249.859 42.7424C250.436 43.3664 251.399 43.6339 252.815 43.5744C252.573 42.5314 252.224 41.5954 251.5 40.9298C249.883 39.4262 248.896 41.6964 249.859 42.7424ZM260.331 38.3446C259.979 39.1588 260.112 40.1988 260.195 41.3993C261.12 40.8674 262.193 40.2107 262.541 39.236C262.787 38.5555 262.512 37.5957 261.823 37.4174C261.746 37.3937 260.579 37.774 260.331 38.3446V38.3446Z" fill="#D1EAF2"/>
<path d="M251.943 56.6136C251.943 56.673 251.979 56.7265 251.994 56.786L253.702 63.7186C253.929 64.6405 254.493 65.4427 255.281 65.9653C256.07 66.4879 257.026 66.6926 257.958 66.5385L262.237 65.8283C263.169 65.6753 264.009 65.1745 264.59 64.4259C265.171 63.6773 265.449 62.736 265.37 61.79C265.107 58.6045 264.815 56.3254 264.779 54.4919L251.943 56.6136Z" fill="#7772D6"/>
<path d="M245.526 23.1481L242.151 16.9495C242.066 16.8064 242.01 16.6474 241.987 16.482C241.963 16.3165 241.974 16.1481 242.017 15.9869C242.061 15.8256 242.136 15.6748 242.239 15.5436C242.342 15.4123 242.47 15.3033 242.615 15.2231C242.761 15.143 242.922 15.0932 243.087 15.0769C243.252 15.0607 243.419 15.0782 243.578 15.1284C243.736 15.1786 243.883 15.2606 244.009 15.3693C244.135 15.478 244.238 15.6112 244.312 15.7609L247.69 21.9625C247.768 22.1053 247.816 22.2621 247.834 22.4239C247.851 22.5858 247.837 22.7494 247.791 22.9056C247.746 23.0618 247.67 23.2074 247.568 23.3342C247.467 23.4609 247.341 23.5663 247.199 23.6444C247.057 23.7224 246.901 23.7716 246.74 23.789C246.579 23.8065 246.417 23.7919 246.261 23.7461C246.106 23.7003 245.961 23.6242 245.835 23.5221C245.709 23.42 245.604 23.2939 245.526 23.1511V23.1481Z" fill="#62BDF3"/>
<path d="M238.144 38.1456L230.779 37.4978C230.453 37.469 230.152 37.3113 229.942 37.0595C229.732 36.8076 229.63 36.4821 229.659 36.1546C229.688 35.8272 229.844 35.5246 230.095 35.3134C230.346 35.1022 230.669 34.9997 230.995 35.0284L238.36 35.6762C238.686 35.705 238.987 35.8627 239.197 36.1146C239.407 36.3664 239.509 36.6919 239.48 37.0194C239.451 37.3468 239.295 37.6494 239.044 37.8606C238.794 38.0718 238.47 38.1743 238.144 38.1456V38.1456Z" fill="#62BDF3"/>
<path d="M230.844 60.842C230.729 60.7272 230.638 60.5908 230.576 60.4406C230.514 60.2905 230.482 60.1295 230.482 59.9669C230.482 59.8044 230.514 59.6434 230.576 59.4932C230.638 59.343 230.729 59.2066 230.844 59.0918C232.657 57.29 234.636 55.6652 236.754 54.2393C236.889 54.1417 237.041 54.0724 237.203 54.0354C237.364 53.9985 237.532 53.9946 237.695 54.0241C237.858 54.0536 238.013 54.1158 238.152 54.2071C238.29 54.2984 238.409 54.4168 238.501 54.5553C238.593 54.6938 238.656 54.8495 238.687 55.0131C238.718 55.1768 238.716 55.345 238.68 55.5077C238.645 55.6705 238.578 55.8244 238.482 55.9602C238.386 56.0961 238.264 56.2112 238.123 56.2986C236.137 57.6424 234.283 59.1726 232.584 60.8688C232.468 60.9821 232.331 61.0714 232.181 61.1314C232.031 61.1914 231.87 61.221 231.708 61.2186C231.547 61.2161 231.387 61.1815 231.239 61.1169C231.09 61.0523 230.956 60.9589 230.844 60.842V60.842Z" fill="#62BDF3"/>
<path d="M263.721 22.8124C263.564 22.7719 263.416 22.7005 263.286 22.6023C263.156 22.5041 263.047 22.381 262.964 22.2402C262.882 22.0993 262.828 21.9435 262.806 21.7816C262.783 21.6197 262.793 21.455 262.834 21.2969C263.669 18.1518 264.178 14.9284 264.354 11.6781C264.371 11.3498 264.518 11.0421 264.761 10.8225C265.004 10.603 265.325 10.4896 265.651 10.5073C265.977 10.525 266.284 10.6724 266.502 10.9171C266.72 11.1617 266.833 11.4836 266.815 11.8118C266.631 15.2329 266.095 18.6256 265.217 21.9358C265.132 22.2502 264.928 22.5185 264.648 22.6825C264.368 22.8466 264.035 22.8932 263.721 22.8124V22.8124Z" fill="#62BDF3"/>
<path d="M271.305 32.3421C271.258 32.1864 271.242 32.023 271.258 31.8611C271.274 31.6993 271.322 31.5422 271.399 31.399C271.475 31.2557 271.579 31.129 271.704 31.0262C271.83 30.9234 271.974 30.8465 272.129 30.7999L279.784 28.4792C280.098 28.3842 280.436 28.4183 280.724 28.5741C281.013 28.7299 281.228 28.9945 281.322 29.3097C281.417 29.6249 281.383 29.965 281.228 30.255C281.073 30.5451 280.81 30.7614 280.496 30.8564L272.841 33.1771C272.528 33.2713 272.189 33.2362 271.901 33.0796C271.613 32.923 271.398 32.6578 271.305 32.3421V32.3421Z" fill="#62BDF3"/>
<path d="M283.88 52.81C283.767 52.8096 283.655 52.7946 283.546 52.7654C280.888 52.0131 278.318 50.9771 275.879 49.6751C275.596 49.5175 275.386 49.2545 275.295 48.9428C275.203 48.6311 275.237 48.2957 275.389 48.0088C275.541 47.7219 275.799 47.5066 276.107 47.4091C276.416 47.3117 276.75 47.34 277.038 47.488C279.32 48.7059 281.726 49.6752 284.214 50.3793C284.499 50.4612 284.746 50.644 284.908 50.8941C285.07 51.1442 285.137 51.4447 285.096 51.7405C285.056 52.0362 284.91 52.3073 284.687 52.5038C284.463 52.7003 284.176 52.809 283.88 52.81V52.81Z" fill="#62BDF3"/>
<path d="M396.008 107.575L392.145 98.3933L382.434 96.3846C382.185 96.3331 381.955 96.2126 381.77 96.0366C381.586 95.8607 381.454 95.6364 381.39 95.389C381.326 95.1417 381.332 94.8812 381.407 94.637C381.482 94.3928 381.624 94.1747 381.816 94.0074L389.308 87.47L388.203 77.5599C388.174 77.3046 388.217 77.0462 388.328 76.8144C388.438 76.5825 388.61 76.3863 388.826 76.2482C389.042 76.1102 389.291 76.0357 389.547 76.0333C389.803 76.0309 390.054 76.1006 390.272 76.2346L398.769 81.3902L407.801 77.2747C408.032 77.1695 408.288 77.1315 408.54 77.1649C408.792 77.1983 409.029 77.3018 409.226 77.4637C409.422 77.6256 409.57 77.8395 409.652 78.0813C409.733 78.323 409.746 78.5829 409.689 78.8318L407.446 88.5427L414.131 95.9062C414.303 96.0948 414.418 96.3278 414.464 96.5788C414.511 96.8299 414.487 97.089 414.395 97.327C414.302 97.5649 414.146 97.7722 413.943 97.9255C413.739 98.0787 413.498 98.1718 413.245 98.1942L403.365 99.05L398.467 107.718C398.343 107.945 398.157 108.131 397.932 108.257C397.706 108.382 397.45 108.44 397.193 108.425C396.936 108.41 396.688 108.323 396.479 108.172C396.269 108.022 396.106 107.815 396.008 107.575Z" fill="#7772D6"/>
<path d="M457.491 76.0681L455.904 82.4955L445.335 81.0692L441.86 90.1799L433.776 90.4147L433.895 94.5273L444.706 94.2153L447.998 85.58L458.993 87.0658L461.384 77.3904L457.491 76.0681Z" fill="#9ED16F"/>
<path d="M363.321 384.222H177.524C170.431 384.222 164.677 378.222 164.677 370.823V362.857C164.677 355.454 170.428 349.455 177.524 349.455H363.321C354.824 359.142 354.676 373.949 362.981 383.818L363.321 384.222Z" fill="#3B77BE"/>
<path d="M360.454 353.44H257.399C250.306 353.44 244.552 359.439 244.552 366.838C244.552 374.24 250.303 380.24 257.399 380.24H360.463C358.1 376.174 356.854 371.55 356.852 366.841C356.851 362.132 358.094 357.507 360.454 353.44V353.44Z" fill="#D1EAF2"/>
<path d="M298.049 325.308C298.106 325.185 298.13 325.049 298.118 324.914C298.106 324.778 298.059 324.648 297.981 324.537C297.904 324.426 297.799 324.337 297.676 324.279C297.554 324.221 297.418 324.197 297.284 324.209H198.978C191.27 324.209 185.025 329.855 185.025 336.835C185.025 343.809 191.27 349.461 198.978 349.461H297.316C297.451 349.472 297.587 349.448 297.71 349.389C297.832 349.331 297.938 349.242 298.015 349.13C298.093 349.018 298.14 348.888 298.151 348.752C298.163 348.616 298.139 348.479 298.081 348.356C296.169 344.82 295.165 340.861 295.159 336.836C295.154 332.812 296.147 328.849 298.049 325.308V325.308Z" fill="#3797DB"/>
<path d="M297.428 326.559H248.703C239.66 326.559 232.33 331.296 232.33 337.141C232.33 342.986 239.66 347.72 248.703 347.72H297.747C296.1 344.448 295.215 340.843 295.159 337.176C295.104 333.51 295.88 329.879 297.428 326.559Z" fill="#D1EAF2"/>
<path d="M284.844 331.575H278.498C277.136 331.575 276.027 332.036 276.027 332.603V332.695H284.844V331.575Z" fill="#96A65F"/>
<path d="M290.259 334.154C290.259 332.731 288.601 331.575 286.555 331.575H278.413C279.965 331.575 281.221 332.467 281.221 333.53L281.182 361.192L285.681 357.627L290.267 361.192L290.259 334.154Z" fill="#9ED16F"/>
<path d="M279.973 323.3H222.77C217.698 323.3 213.587 318.394 213.587 312.338C213.587 306.285 217.698 301.379 222.77 301.379H279.973C275.602 307.455 275.43 316.367 279.565 322.676L279.973 323.3Z" fill="#D1EAF2"/>
<path d="M213.593 312.338C213.593 306.285 217.801 301.379 222.994 301.379H281.064C281.204 301.367 281.334 301.301 281.425 301.193C281.516 301.086 281.562 300.946 281.551 300.805V300.805C281.559 300.666 281.513 300.529 281.422 300.424C281.33 300.319 281.202 300.254 281.064 300.244H188.929C183.202 300.244 178.556 305.658 178.556 312.338C178.556 319.021 183.202 324.435 188.929 324.435H281.052C281.19 324.424 281.319 324.359 281.41 324.254C281.501 324.149 281.548 324.012 281.539 323.873V323.873C281.55 323.732 281.505 323.593 281.413 323.485C281.322 323.378 281.192 323.311 281.052 323.3H222.994C217.801 323.3 213.593 318.394 213.593 312.338Z" fill="#45258F"/>
<path d="M269.983 306.766H263.641C262.275 306.766 261.167 307.218 261.167 307.773V307.865H269.983V306.766Z" fill="#3797DB"/>
<path d="M275.397 309.289C275.397 307.892 273.739 306.76 271.694 306.76H263.552C265.103 306.76 266.359 307.619 266.359 308.68L266.321 335.804L270.819 332.315L275.406 335.804L275.397 309.289Z" fill="#62BDF3"/>
<path d="M371.114 139.207L379.558 136.973L373.836 213.727L363.705 214.066L368.815 141.992C368.862 141.344 369.108 140.728 369.521 140.229C369.933 139.729 370.49 139.372 371.114 139.207Z" fill="#3B77BE"/>
<path d="M374.593 215.914C374.396 215.936 374.198 215.936 374.002 215.914C372.326 215.715 371.084 214.036 371.229 212.167L376.845 139.995C376.989 138.126 378.467 136.771 380.146 136.97C381.825 137.169 383.063 138.848 382.918 140.717L377.303 212.889C377.193 214.532 376.011 215.783 374.593 215.914Z" fill="#3797DB"/>
<path d="M296.872 219.759C296.872 219.813 296.872 219.866 296.872 219.92C297.135 222.856 299.399 225.052 301.926 224.823L373.242 218.407C375.769 218.179 377.601 215.614 377.338 212.678C377.338 212.553 377.311 212.432 377.291 212.31L296.872 219.759Z" fill="#3797DB"/>
<path d="M346.533 297.281C341.864 299.884 327.589 295.32 327.589 294.904C327.385 298.826 311.605 337.218 311.605 337.218V349.03C311.605 349.03 344.116 350.587 343.652 347.699C343.188 344.81 341.435 346.688 334.951 341.233C334.375 340.748 325.269 338.624 327.731 333.21C332.708 322.292 343.247 304.095 346.533 297.281Z" fill="#EFAC7F"/>
<path d="M310.548 349.455H346.141C347.423 349.324 347.725 348.266 347.27 347.636C346.336 346.32 339.514 343.218 334.93 341.161C326.951 342.1 312.906 339.01 311.621 337.18C308.239 341.741 309.832 349.306 310.548 349.455Z" fill="#45258F"/>
<path d="M302.743 269.717C302.261 268.267 333.385 254.987 334.777 256.502C337.242 259.177 317.931 309.565 317.931 309.565L340.097 316.379C340.097 316.379 363.15 258.175 362.189 247.531C361.229 236.887 349.679 224.787 324.655 232.528C299.63 240.269 302.743 269.717 302.743 269.717Z" fill="#2D185D"/>
<path d="M367.183 303.904C361.928 302.942 355.119 302.668 349.669 302.573C350.31 307.452 353.428 332.479 352.858 334.015C351.423 337.788 348.817 340.994 345.425 343.158C345.425 343.158 369.592 365.082 371.049 362.551C372.506 360.019 369.973 360.358 368.389 352.005C368.25 351.262 364.754 339.601 364.547 333.314C364.13 321.321 367.003 310.564 367.183 303.904Z" fill="#EFAC7F"/>
<path d="M359.428 222.036C356.056 220.229 347.31 220.167 337.681 220.794C318.917 222.043 300.389 225.699 282.547 231.672L270.604 235.648L270.642 223.337C270.642 223.337 232.646 216.946 231.334 226.413C229.345 240.676 231.816 269.619 244.474 276.079C283.782 296.149 338.902 244.108 339.103 250.916C339.369 260.059 347.035 294.086 348.998 308.986C354.448 309.078 363.814 309.075 367.878 308.139C368.655 278.955 369.027 227.185 359.428 222.036Z" fill="#45258F"/>
<path d="M344.684 343.672L371.853 365.492C372.929 366.208 373.822 365.587 373.875 364.803C373.981 363.192 370.659 356.447 368.41 351.933C361.642 347.571 352.714 336.184 352.876 333.955C350.003 336.386 344.228 343.099 344.684 343.672Z" fill="#45258F"/>
<path d="M283.209 103.029C282.299 94.6402 281.339 86.2218 274.423 80.0737C268.825 75.0994 261.714 74.2585 254.674 76.918C234.739 84.4597 245.01 102.262 219.593 120.207C211.693 125.785 202.989 129.6 197.042 137.112C188.702 147.637 191.847 160.266 199.43 168.706C235.73 209.095 276.252 154.549 279.163 141.457C281.327 131.713 283.783 108.428 283.209 103.029Z" fill="#5E2E0D"/>
<path d="M275.82 150.193C273.985 146.805 271.976 143.515 269.802 140.336C266.726 134.839 258.781 132.061 258.781 132.061C258.781 132.061 256.122 132.114 253.072 132.266C252.96 132.649 252.757 132.999 252.48 133.285C251.334 134.15 244.761 133.032 240.517 135.93C226.286 148.193 230.223 207.639 231.355 226.413L274.694 226.826C274.694 226.826 269.229 186.413 278.033 176.048C284.169 168.822 280.224 158.335 275.82 150.193Z" fill="#9ED16F"/>
<path d="M256.291 111.949C256.291 111.949 253.909 129.053 252.245 133.211C250.581 137.368 261.407 146.259 270.389 148.96C279.37 151.661 267.64 139.778 268.024 135.332C268.409 130.887 270.034 109.851 270.034 109.851L256.291 111.949Z" fill="#EFAC7F"/>
<path d="M269.567 115.881C269.83 112.401 270.022 109.849 270.022 109.849L256.291 111.949C256.291 111.949 255.945 113.958 255.561 116.802C261.129 120.047 266.132 119.022 269.567 115.881Z" fill="#D19369"/>
<path d="M260.596 80.7067C257.019 81.71 253.916 83.9626 251.842 87.0599C248.502 92.1858 246.209 107.281 257.215 114.327C268.221 121.372 276.778 111.406 276.919 101.686C277.061 91.9659 274.989 78.9951 260.596 80.7067Z" fill="#EFAC7F"/>
<path d="M279.44 98.6429C278.501 100.987 276.639 102.443 275.279 101.894C273.92 101.344 273.58 98.9965 274.52 96.6519C275.459 94.3074 277.321 92.8514 278.678 93.4011C280.035 93.9508 280.377 96.2983 279.44 98.6429Z" fill="#EFAC7F"/>
<path d="M262.225 80.3888C262.225 80.3888 255.327 95.9477 249.265 97.3265C243.203 98.7053 243.292 106.538 243.292 106.538C243.292 106.538 243.428 88.4594 249.108 84.3112C254.789 80.1629 262.225 80.3888 262.225 80.3888Z" fill="#5E2E0D"/>
<path d="M251.668 100.571C252.466 103.097 251.736 105.584 250.037 106.128C248.337 106.672 246.313 105.061 245.515 102.536C244.717 100.01 245.447 97.5197 247.146 96.9788C248.846 96.438 250.87 98.0456 251.668 100.571Z" fill="#EFAC7F"/>
<path d="M329.181 212.901C326.581 211.956 322.712 211.84 322.777 211.493C323.037 210.096 334.525 214.577 332.973 212.539C332.11 211.403 323.516 207.383 321.42 208.049C319.393 208.69 306.081 212.449 306.081 212.449L269.696 203.874C269.696 203.874 260.514 182.892 259.615 164.863C252.026 165.897 246.856 167.784 240.26 171.466C243.44 188.701 251.174 216.633 259.725 221.893C263.318 224.098 306.262 219.251 306.262 219.251C306.262 219.251 315.719 218.58 317.271 217.982C318.453 217.528 321.465 215.819 323.105 215.353C326.841 214.289 333.49 216.957 333.511 216.223C333.526 215.685 331.838 213.867 329.181 212.901Z" fill="#EFAC7F"/>
<path d="M259.84 145.605C259.491 140.057 257.399 134.699 251.529 132.976C247.891 131.906 243.81 132.931 240.89 135.317C237.432 138.158 236.456 142.714 236.483 147.025C236.518 156.831 237.183 166.97 238.963 176.613C245.559 172.931 253.261 170.717 260.854 169.686C260.863 169.627 260.304 152.936 259.84 145.605Z" fill="#96A65F"/>
<path d="M147.109 156.071L90.7005 145.51C90.157 145.407 89.676 145.092 89.363 144.634C89.05 144.176 88.9305 143.611 89.0307 143.064L96.0973 104.91C96.1992 104.363 96.5128 103.879 96.9694 103.564C97.426 103.249 97.9882 103.129 98.5326 103.231L154.941 113.792C155.211 113.842 155.468 113.945 155.698 114.096C155.927 114.246 156.126 114.441 156.281 114.668C156.436 114.895 156.545 115.151 156.601 115.421C156.658 115.691 156.661 115.969 156.611 116.24L149.541 154.392C149.44 154.939 149.127 155.423 148.671 155.738C148.215 156.052 147.653 156.172 147.109 156.071V156.071Z" fill="#3797DB"/>
<path d="M120.258 112.455L103.087 109.239C102.817 109.191 102.559 109.089 102.328 108.939C102.098 108.789 101.899 108.595 101.744 108.368C101.589 108.14 101.48 107.884 101.425 107.613C101.369 107.343 101.368 107.065 101.42 106.794L102.493 100.984C102.595 100.437 102.908 99.9533 103.365 99.6385C103.822 99.3237 104.384 99.204 104.928 99.3056L122.097 102.521C122.641 102.623 123.122 102.937 123.435 103.396C123.748 103.855 123.867 104.419 123.766 104.966L122.691 110.791C122.586 111.335 122.272 111.815 121.816 112.127C121.36 112.439 120.8 112.557 120.258 112.455V112.455Z" fill="#3797DB"/>
<path d="M149.678 154.612C149.535 155.114 149.211 155.544 148.769 155.819C148.328 156.094 147.8 156.193 147.29 156.097L90.5119 145.474C90.0023 145.378 89.5465 145.095 89.233 144.68C88.9194 144.265 88.7706 143.747 88.8154 143.228L91.7709 109.028C91.7965 108.737 91.8824 108.454 92.0231 108.198C92.1639 107.942 92.3564 107.718 92.5882 107.541C92.8201 107.364 93.0862 107.238 93.3694 107.171C93.6527 107.104 93.9468 107.097 94.2328 107.15L157.306 118.959C157.591 119.013 157.861 119.125 158.1 119.29C158.339 119.454 158.542 119.667 158.695 119.914C158.848 120.161 158.948 120.438 158.988 120.727C159.029 121.015 159.01 121.309 158.931 121.589L149.678 154.612Z" fill="#62BDF3"/>
<path d="M408.4 29.6469L398.742 32.2976L396.661 20.5303L399.823 19.9657L401.286 28.2533L407.555 26.5328L408.4 29.6469Z" fill="#9ED16F"/>
<path d="M100.667 191.277C103.088 191.078 106.803 192.151 108.467 193.286C108.715 193.521 110.63 194.288 112.622 197.604L112.173 197.901C110.074 195.69 108.662 195.194 106.977 194.686C104.205 193.97 101.409 194.507 101.181 194.629L100.667 191.277Z" fill="#7772D6"/>
<path d="M112.398 197.758C112.398 197.758 97.6585 200.234 99.0328 211.823C100.407 223.412 115.956 232.406 129.835 225.245C148.502 215.614 141.128 191.129 127.84 189.233C114.552 187.337 112.398 197.758 112.398 197.758Z" fill="#9ED16F"/>
<path d="M118.651 192.662C118.651 192.662 122.493 188.692 130.919 192.303C139.346 195.913 139.954 212.753 132.442 211.775C124.929 210.797 112.643 195.093 118.651 192.662Z" fill="#9ED16F"/>
<path d="M220.039 38.8795L159.422 60.6192C158.958 60.7861 158.465 60.8594 157.972 60.8348C157.479 60.8101 156.996 60.6881 156.551 60.4756C156.105 60.263 155.705 59.9643 155.374 59.5963C155.043 59.2283 154.788 58.7984 154.623 58.3311L143.436 26.7883C143.101 25.8449 143.153 24.8066 143.58 23.9016C144.007 22.9966 144.774 22.2991 145.712 21.9625L206.329 0.222833C206.793 0.0558497 207.286 -0.0174186 207.779 0.00722323C208.271 0.0318651 208.755 0.153931 209.2 0.36644C209.646 0.578949 210.046 0.877735 210.377 1.2457C210.708 1.61367 210.963 2.0436 211.128 2.51091L222.327 34.0448C222.494 34.5131 222.567 35.0101 222.543 35.5071C222.518 36.0041 222.396 36.4913 222.183 36.9406C221.971 37.3899 221.672 37.7926 221.304 38.1253C220.936 38.4581 220.506 38.7144 220.039 38.8795V38.8795Z" fill="#7772D6"/>
<path d="M179.862 30.7643C180.661 33.0144 180.778 35.4522 180.199 37.7693C179.62 40.0865 178.37 42.179 176.608 43.7821C174.846 45.3852 172.651 46.4269 170.3 46.7755C167.949 47.1242 165.549 46.7641 163.401 45.7407C161.254 44.7173 159.457 43.0767 158.237 41.0264C157.017 38.976 156.429 36.6079 156.548 34.2217C156.667 31.8355 157.487 29.5383 158.904 27.6207C160.322 25.703 162.273 24.251 164.511 23.4484C165.997 22.9152 167.572 22.6814 169.148 22.7605C170.724 22.8396 172.268 23.23 173.694 23.9093C175.119 24.5887 176.398 25.5437 177.456 26.7199C178.514 27.8961 179.332 29.2704 179.862 30.7643V30.7643Z" fill="white"/>
<path d="M170.268 29.0734C170.505 29.7377 170.54 30.4578 170.37 31.1424C170.199 31.827 169.831 32.4454 169.311 32.9192C168.79 33.393 168.142 33.701 167.448 33.8041C166.753 33.9072 166.044 33.8008 165.41 33.4985C164.776 33.1961 164.245 32.7113 163.885 32.1055C163.525 31.4996 163.352 30.8 163.387 30.0952C163.423 29.3904 163.666 28.7121 164.085 28.1461C164.505 27.5802 165.082 27.1521 165.743 26.9161C166.628 26.6004 167.601 26.6502 168.449 27.0546C169.297 27.459 169.951 28.1849 170.268 29.0734V29.0734Z" fill="#7772D6"/>
<path d="M167.496 36.2399L170.252 35.2516C170.771 35.0655 171.321 34.9839 171.872 35.0117C172.422 35.0394 172.962 35.1759 173.46 35.4133C173.958 35.6508 174.404 35.9845 174.774 36.3954C175.144 36.8064 175.429 37.2865 175.614 37.8084L176.041 39.0119L165.38 42.8353L164.953 41.6318C164.579 40.5777 164.637 39.4175 165.114 38.4063C165.591 37.3952 166.447 36.6159 167.496 36.2399V36.2399Z" fill="#7772D6"/>
<path d="M181.357 24.1734C180.997 24.1722 180.648 24.0435 180.373 23.8098C180.097 23.5761 179.912 23.2523 179.851 22.8953C179.789 22.5382 179.854 22.1707 180.035 21.8573C180.216 21.5438 180.501 21.3044 180.84 21.1811L207.339 11.6722C207.528 11.6043 207.729 11.5746 207.93 11.5847C208.131 11.5948 208.328 11.6447 208.509 11.7313C208.691 11.8179 208.854 11.9397 208.989 12.0897C209.124 12.2396 209.228 12.4148 209.295 12.6052C209.363 12.7957 209.392 12.9976 209.382 13.1995C209.372 13.4015 209.323 13.5994 209.236 13.7821C209.15 13.9647 209.029 14.1285 208.88 14.2641C208.731 14.3998 208.557 14.5045 208.367 14.5724L181.871 24.0813C181.706 24.1412 181.532 24.1723 181.357 24.1734V24.1734Z" fill="white"/>
<path d="M188.51 30.8147C188.148 30.8169 187.796 30.6898 187.518 30.456C187.24 30.2221 187.054 29.8967 186.992 29.5376C186.93 29.1785 186.997 28.8091 187.181 28.495C187.365 28.1809 187.654 27.9426 187.996 27.8224L208.684 20.3936C208.876 20.3159 209.081 20.2779 209.288 20.282C209.495 20.2861 209.698 20.3322 209.887 20.4175C210.075 20.5028 210.245 20.6255 210.385 20.7782C210.525 20.931 210.633 21.1107 210.703 21.3065C210.772 21.5023 210.801 21.7102 210.789 21.9176C210.776 22.1251 210.722 22.3279 210.629 22.5138C210.537 22.6997 210.408 22.8649 210.251 22.9994C210.093 23.134 209.91 23.2351 209.713 23.2968L189.024 30.7256C188.859 30.7847 188.685 30.8148 188.51 30.8147V30.8147Z" fill="white"/>
<path d="M314.224 276.739H167.857C166.776 276.739 165.707 276.953 164.708 277.368C163.71 277.784 162.803 278.393 162.039 279.162C161.275 279.93 160.669 280.842 160.255 281.846C159.842 282.849 159.629 283.925 159.629 285.011V291.971C159.629 294.165 160.496 296.27 162.039 297.822C163.582 299.373 165.674 300.246 167.857 300.246H314.224L314.147 300.166C311.136 297.014 309.46 292.808 309.474 288.437C309.489 284.066 311.192 279.871 314.224 276.739V276.739Z" fill="#9ED16F"/>
<path d="M311.635 280.218H233.388C232.308 280.218 231.238 280.432 230.239 280.847C229.241 281.262 228.334 281.871 227.569 282.639C226.805 283.407 226.199 284.319 225.785 285.322C225.371 286.326 225.158 287.402 225.157 288.488C225.157 290.683 226.024 292.788 227.568 294.34C229.112 295.892 231.205 296.764 233.388 296.764H311.632C310.219 294.238 309.477 291.389 309.477 288.491C309.478 285.593 310.221 282.744 311.635 280.218Z" fill="#D1EAF2"/>
<path d="M434.019 277.413L422.924 249.427C422.791 249.092 422.725 248.735 422.73 248.374C422.734 248.014 422.81 247.658 422.951 247.326C423.093 246.995 423.298 246.695 423.555 246.444C423.812 246.193 424.116 245.995 424.449 245.861L464.381 229.863C464.714 229.729 465.07 229.663 465.428 229.667C465.787 229.672 466.141 229.748 466.47 229.89C466.799 230.032 467.098 230.239 467.348 230.497C467.598 230.756 467.795 231.061 467.927 231.396L479.022 259.382C479.155 259.717 479.221 260.074 479.216 260.435C479.212 260.795 479.136 261.151 478.995 261.483C478.853 261.814 478.648 262.114 478.391 262.365C478.134 262.616 477.83 262.814 477.497 262.948L437.574 278.946C437.241 279.081 436.884 279.149 436.525 279.145C436.165 279.141 435.81 279.066 435.48 278.923C435.149 278.781 434.85 278.574 434.599 278.315C434.349 278.055 434.151 277.749 434.019 277.413Z" fill="#D1EAF2"/>
<path d="M471.68 261.23L461.72 236.082C461.644 235.888 461.647 235.672 461.729 235.48C461.811 235.288 461.965 235.137 462.158 235.06V235.06C462.351 234.983 462.567 234.986 462.758 235.068C462.949 235.15 463.1 235.306 463.177 235.5L473.146 260.648C473.223 260.842 473.22 261.058 473.138 261.25C473.056 261.441 472.902 261.593 472.709 261.67V261.67C472.613 261.71 472.51 261.731 472.405 261.731C472.301 261.73 472.198 261.709 472.102 261.668C472.007 261.627 471.92 261.567 471.847 261.492C471.775 261.417 471.718 261.328 471.68 261.23V261.23Z" fill="#3797DB"/>
<path d="M466.928 257.92L458.744 237.271C458.667 237.077 458.67 236.86 458.752 236.669C458.834 236.477 458.989 236.326 459.181 236.248V236.248C459.374 236.171 459.589 236.174 459.78 236.257C459.971 236.339 460.121 236.494 460.198 236.688L468.385 257.337C468.461 257.531 468.458 257.748 468.376 257.94C468.294 258.131 468.14 258.282 467.947 258.36V258.36C467.754 258.437 467.538 258.434 467.347 258.351C467.156 258.269 467.005 258.114 466.928 257.92V257.92Z" fill="#3797DB"/>
<path d="M465.749 263.607L455.777 238.459C455.7 238.266 455.703 238.049 455.785 237.857C455.867 237.666 456.022 237.515 456.214 237.437V237.437C456.408 237.36 456.624 237.363 456.815 237.445C457.006 237.528 457.157 237.683 457.234 237.877L467.203 263.025C467.28 263.219 467.277 263.435 467.195 263.627C467.113 263.819 466.958 263.97 466.766 264.047V264.047C466.67 264.086 466.568 264.105 466.465 264.104C466.362 264.102 466.261 264.081 466.166 264.04C466.072 263.999 465.986 263.94 465.915 263.866C465.843 263.791 465.787 263.704 465.749 263.607Z" fill="#3797DB"/>
<path d="M460.508 259.07L452.824 239.66C452.747 239.466 452.75 239.249 452.832 239.058C452.914 238.866 453.069 238.715 453.261 238.638V238.638C453.454 238.561 453.67 238.564 453.86 238.646C454.051 238.728 454.201 238.884 454.278 239.077L461.962 258.487C462.039 258.681 462.036 258.898 461.954 259.09C461.872 259.281 461.718 259.432 461.525 259.51V259.51C461.332 259.587 461.117 259.584 460.926 259.501C460.735 259.419 460.585 259.264 460.508 259.07V259.07Z" fill="#3797DB"/>
<path d="M471.412 233.402L471.211 232.894C471.179 232.806 471.113 232.735 471.029 232.695C470.945 232.656 470.849 232.651 470.761 232.683L466.972 234.201C466.887 234.238 466.82 234.308 466.786 234.395C466.751 234.482 466.753 234.579 466.789 234.665L466.99 235.173C467.022 235.261 467.087 235.332 467.171 235.372C467.256 235.411 467.352 235.416 467.439 235.384L471.228 233.865C471.314 233.828 471.381 233.759 471.415 233.672C471.449 233.585 471.448 233.488 471.412 233.402V233.402Z" fill="#3797DB"/>
<path d="M472.271 235.568L472.07 235.06C472.038 234.972 471.973 234.901 471.889 234.861C471.805 234.822 471.709 234.817 471.621 234.849L467.829 236.367C467.745 236.405 467.678 236.475 467.644 236.562C467.611 236.649 467.612 236.745 467.649 236.831L467.85 237.339C467.882 237.427 467.947 237.498 468.031 237.538C468.115 237.577 468.212 237.582 468.299 237.55L472.088 236.032C472.173 235.994 472.241 235.925 472.275 235.838C472.309 235.751 472.308 235.654 472.271 235.568V235.568Z" fill="#3797DB"/>
<path d="M473.128 237.734L472.927 237.226C472.895 237.138 472.83 237.067 472.746 237.027C472.662 236.988 472.566 236.984 472.478 237.015L468.689 238.534C468.604 238.571 468.537 238.64 468.502 238.727C468.468 238.814 468.469 238.911 468.506 238.997L468.707 239.505C468.74 239.593 468.805 239.663 468.889 239.703C468.973 239.742 469.069 239.747 469.156 239.716L472.948 238.198C473.033 238.16 473.099 238.09 473.133 238.003C473.167 237.917 473.165 237.82 473.128 237.734V237.734Z" fill="#3797DB"/>
<path d="M473.989 239.9L473.788 239.392C473.772 239.349 473.748 239.309 473.717 239.274C473.686 239.24 473.649 239.212 473.607 239.193C473.565 239.173 473.52 239.162 473.474 239.16C473.428 239.158 473.382 239.165 473.338 239.181L469.55 240.7C469.464 240.737 469.397 240.807 469.363 240.894C469.328 240.98 469.33 241.077 469.366 241.163L469.567 241.672C469.6 241.759 469.665 241.83 469.749 241.869C469.833 241.908 469.929 241.913 470.016 241.883L473.805 240.364C473.891 240.327 473.958 240.257 473.992 240.17C474.027 240.083 474.025 239.986 473.989 239.9V239.9Z" fill="#3797DB"/>
<path d="M474.846 242.064L474.645 241.559C474.63 241.515 474.606 241.475 474.575 241.441C474.544 241.406 474.506 241.378 474.464 241.359C474.423 241.339 474.377 241.328 474.331 241.326C474.285 241.324 474.239 241.332 474.196 241.348L470.407 242.866C470.322 242.904 470.256 242.974 470.221 243.06C470.187 243.147 470.188 243.244 470.224 243.33L470.425 243.838C470.458 243.925 470.524 243.996 470.608 244.036C470.693 244.075 470.789 244.08 470.877 244.049L474.666 242.53C474.751 242.492 474.817 242.421 474.851 242.334C474.885 242.247 474.883 242.15 474.846 242.064V242.064Z" fill="#3797DB"/>
<path d="M475.705 244.23L475.504 243.725C475.489 243.681 475.465 243.641 475.434 243.607C475.403 243.573 475.365 243.545 475.324 243.525C475.282 243.506 475.237 243.494 475.191 243.492C475.144 243.491 475.098 243.498 475.055 243.514L471.266 245.032C471.181 245.07 471.114 245.139 471.08 245.226C471.045 245.313 471.046 245.41 471.083 245.496L471.284 246.004C471.317 246.091 471.382 246.162 471.466 246.202C471.55 246.241 471.646 246.246 471.733 246.215L475.522 244.697C475.608 244.659 475.675 244.588 475.709 244.501C475.744 244.414 475.742 244.316 475.705 244.23V244.23Z" fill="#3797DB"/>
<path d="M476.563 246.396L476.362 245.891C476.347 245.847 476.323 245.807 476.292 245.773C476.261 245.739 476.223 245.711 476.181 245.691C476.14 245.672 476.094 245.661 476.048 245.659C476.002 245.657 475.956 245.664 475.913 245.68L472.124 247.199C472.082 247.217 472.044 247.244 472.012 247.277C471.98 247.31 471.955 247.35 471.938 247.393C471.921 247.436 471.913 247.482 471.914 247.528C471.915 247.574 471.925 247.62 471.944 247.662L472.145 248.17C472.177 248.257 472.243 248.328 472.327 248.368C472.411 248.407 472.507 248.412 472.594 248.381L476.383 246.863C476.468 246.824 476.534 246.754 476.568 246.667C476.602 246.579 476.6 246.482 476.563 246.396V246.396Z" fill="#3797DB"/>
<path d="M477.423 248.563L477.222 248.057C477.207 248.014 477.183 247.974 477.152 247.939C477.121 247.905 477.083 247.877 477.041 247.858C477 247.838 476.954 247.827 476.908 247.825C476.862 247.823 476.816 247.83 476.773 247.846L472.984 249.365C472.899 249.402 472.832 249.472 472.797 249.559C472.763 249.645 472.764 249.743 472.801 249.828L473.002 250.334C473.017 250.377 473.041 250.417 473.072 250.452C473.103 250.486 473.141 250.514 473.183 250.533C473.224 250.553 473.27 250.564 473.316 250.566C473.362 250.568 473.408 250.561 473.451 250.545L477.24 249.029C477.326 248.991 477.393 248.921 477.427 248.834C477.461 248.746 477.46 248.649 477.423 248.563V248.563Z" fill="#3797DB"/>
<path d="M478.271 250.729L478.07 250.224C478.055 250.18 478.031 250.14 478 250.106C477.969 250.071 477.931 250.044 477.889 250.024C477.848 250.004 477.802 249.993 477.756 249.991C477.71 249.989 477.664 249.997 477.621 250.013L473.832 251.531C473.79 251.55 473.752 251.576 473.72 251.609C473.688 251.643 473.663 251.682 473.646 251.725C473.629 251.768 473.621 251.814 473.622 251.861C473.623 251.907 473.633 251.952 473.652 251.995L473.853 252.5C473.868 252.544 473.892 252.584 473.923 252.618C473.954 252.652 473.992 252.68 474.034 252.7C474.075 252.719 474.121 252.73 474.167 252.732C474.213 252.734 474.259 252.727 474.302 252.711L478.091 251.192C478.133 251.174 478.171 251.147 478.203 251.114C478.235 251.081 478.26 251.041 478.277 250.998C478.294 250.955 478.302 250.909 478.301 250.863C478.3 250.817 478.29 250.771 478.271 250.729V250.729Z" fill="#3797DB"/>
<path d="M479.14 252.895L478.939 252.39C478.924 252.346 478.9 252.306 478.869 252.272C478.837 252.237 478.8 252.21 478.758 252.19C478.716 252.17 478.671 252.159 478.625 252.157C478.579 252.155 478.533 252.163 478.49 252.179L474.701 253.697C474.616 253.735 474.548 253.804 474.514 253.891C474.48 253.978 474.481 254.075 474.518 254.161L474.719 254.666C474.734 254.71 474.758 254.75 474.789 254.784C474.82 254.818 474.858 254.846 474.899 254.866C474.941 254.885 474.986 254.896 475.033 254.898C475.079 254.9 475.125 254.893 475.168 254.877L478.957 253.359C479.042 253.321 479.109 253.252 479.144 253.165C479.178 253.078 479.177 252.981 479.14 252.895V252.895Z" fill="#3797DB"/>
<path d="M479.997 255.061L479.796 254.556C479.781 254.512 479.757 254.472 479.726 254.437C479.695 254.403 479.657 254.375 479.616 254.355C479.574 254.336 479.528 254.324 479.482 254.323C479.436 254.321 479.39 254.329 479.347 254.345L475.558 255.864C475.515 255.882 475.477 255.909 475.445 255.942C475.413 255.975 475.388 256.015 475.372 256.058C475.355 256.101 475.347 256.147 475.348 256.193C475.349 256.239 475.359 256.285 475.377 256.327L475.578 256.832C475.594 256.876 475.618 256.916 475.649 256.95C475.68 256.985 475.717 257.012 475.759 257.032C475.801 257.052 475.846 257.063 475.892 257.065C475.938 257.067 475.984 257.059 476.028 257.043L479.817 255.525C479.859 255.506 479.897 255.48 479.929 255.446C479.961 255.413 479.986 255.374 480.003 255.331C480.02 255.288 480.028 255.242 480.027 255.195C480.026 255.149 480.015 255.104 479.997 255.061V255.061Z" fill="#3797DB"/>
<path d="M480.857 257.228L480.656 256.722C480.64 256.679 480.616 256.639 480.585 256.604C480.554 256.57 480.517 256.542 480.475 256.523C480.433 256.503 480.388 256.492 480.342 256.49C480.296 256.488 480.25 256.495 480.207 256.511L476.418 258.03C476.332 258.067 476.265 258.137 476.231 258.224C476.197 258.311 476.198 258.408 476.234 258.493L476.435 258.999C476.451 259.042 476.475 259.082 476.506 259.117C476.537 259.151 476.574 259.179 476.616 259.198C476.658 259.218 476.703 259.229 476.749 259.231C476.795 259.233 476.841 259.226 476.885 259.21L480.674 257.691C480.759 257.654 480.826 257.584 480.86 257.497C480.895 257.411 480.893 257.314 480.857 257.228V257.228Z" fill="#3797DB"/>
<path d="M491.326 254.999L475.481 277.684C475.445 277.734 475.417 277.79 475.398 277.85L473.782 282.833C473.74 282.96 473.739 283.097 473.781 283.224C473.822 283.351 473.902 283.461 474.01 283.538C474.119 283.616 474.249 283.657 474.381 283.654C474.514 283.652 474.643 283.607 474.748 283.526L478.986 280.31C479.039 280.271 479.085 280.224 479.122 280.171L495.008 257.427C495.058 257.358 495.093 257.279 495.111 257.196C495.129 257.112 495.13 257.026 495.114 256.943C495.097 256.859 495.064 256.78 495.016 256.71C494.968 256.64 494.906 256.58 494.834 256.535L492.174 254.824C492.038 254.736 491.873 254.705 491.714 254.738C491.556 254.771 491.416 254.864 491.326 254.999V254.999Z" fill="#3797DB"/>
<path d="M479.104 280.198L479.066 280.254L474.973 283.353L473.858 282.605L475.389 277.877C476.586 278.537 478.023 279.214 479.104 280.198Z" fill="#D1EAF2"/>
<path d="M330.792 9.41089C333.074 11.2414 337.043 17.1369 342.103 21.2643C345.059 23.6832 347.346 23.068 351.126 23.5286C369.06 25.7068 364.201 29.3944 366.353 29.7688C365.741 31.1833 360.146 43.1259 359.109 45.5387C358.145 47.7644 356.482 48.7629 354.085 48.4271C350.375 47.91 346.634 47.5356 342.981 46.7303C333.621 44.6919 328.413 39.985 321.701 34.2677C319.928 32.7493 319.485 30.8594 320.407 28.7169C324.695 18.7237 330.334 10.3291 330.792 9.41089Z" fill="#3B77BE"/>
<path d="M368.301 44.1213C368.221 48.0496 368.519 48.8401 366.841 48.2428C365.827 47.8705 364.839 47.4287 363.885 46.9204C363.214 46.5728 363.188 46.1122 363.734 45.5595C364.53 44.7542 365.348 43.9727 366.143 43.1823C365.871 42.4171 365.875 41.5804 366.152 40.8173C366.43 40.0542 366.964 39.4128 367.662 39.0043C367.958 38.8319 367.742 39.1974 370.24 33.4178C361.964 32.3926 356.151 31.7062 346.075 30.4611C343.43 30.1457 340.935 29.0543 338.903 27.3232C331.703 21.2672 324.511 15.2103 317.328 9.1523C316.352 8.32918 316.228 7.12571 317.002 6.1986C317.594 5.4884 318.38 5.45274 319.225 5.55972C321.524 5.85687 344.072 8.66794 346.362 8.93538C349.305 9.25849 352.084 10.4601 354.342 12.3853C361.412 18.3403 368.491 24.2833 375.58 30.2145C376.552 31.0287 376.815 31.7775 376.467 32.6838C376.091 33.6793 375.285 34.1548 374.037 33.8873C373.151 33.6942 372.749 33.9646 372.441 34.7966C371.052 38.5556 370.077 39.3876 370.417 40.7575C370.692 41.8272 369.433 43.6607 368.301 44.1213Z" fill="#3797DB"/>
<path d="M405.708 311.072L409.816 315.012C419.536 324.332 427.462 335.375 433.197 347.586L433.826 348.929C433.826 348.929 444.587 349.883 446.089 340.103C436.749 329.55 428.808 317.823 422.466 305.218L420.521 300.642L405.708 311.072Z" fill="#3797DB"/>
<path d="M420.509 300.621C421.038 301.381 418.144 304.323 414.063 307.191C409.981 310.058 406.213 311.8 405.687 311.036C405.161 310.272 408.051 307.301 412.15 304.433C416.25 301.566 419.983 299.86 420.509 300.621Z" fill="#3B77BE"/>
<path d="M420.527 300.648V300.633C420.527 300.633 412.334 307.604 408.959 308.314L410.002 309.744C411.406 308.969 412.765 308.117 414.075 307.191C418.106 304.356 420.97 301.45 420.527 300.648Z" fill="#3B77BE"/>
<path d="M431.47 320.878C431.47 322.066 431.027 327.267 422.444 329.43C423.01 330.206 423.564 330.987 424.108 331.771C429.54 330.158 431.985 327.353 433.084 325.216C433.255 324.88 433.465 324.426 433.604 324.075C432.881 323.023 432.17 321.957 431.47 320.878Z" fill="#9ED16F"/>
<path d="M423.217 327.905L410.585 327.451L413.579 330.006L411.791 333.269L423.746 330.205L423.217 327.905Z" fill="#9ED16F"/>
<path d="M424.369 330.859L419.88 338.719L423.036 337.509L424.251 340.005L426.361 331.739L424.369 330.859Z" fill="#9ED16F"/>
<path d="M426.08 332.99C425.262 333.07 424.439 332.903 423.715 332.511C422.992 332.119 422.401 331.519 422.018 330.788C421.635 330.056 421.477 329.227 421.565 328.405C421.652 327.583 421.982 326.806 422.51 326.173C423.039 325.541 423.743 325.08 424.533 324.852C425.323 324.623 426.163 324.636 426.946 324.889C427.728 325.142 428.418 325.624 428.927 326.273C429.436 326.922 429.742 327.708 429.804 328.532C429.851 329.071 429.792 329.614 429.631 330.129C429.469 330.645 429.208 331.123 428.862 331.537C428.516 331.951 428.092 332.293 427.615 332.542C427.138 332.791 426.616 332.943 426.08 332.99V332.99Z" fill="#9ED16F"/>
<path d="M452.893 154.647L426.294 130.783C424.565 129.232 425.283 126.043 427.668 124.685L448.897 112.6C450.257 111.825 451.788 111.896 452.772 112.781L479.371 136.646C481.1 138.197 480.382 141.4 477.997 142.746L456.768 154.832C455.408 155.604 453.877 155.533 452.893 154.647Z" fill="#62BDF3"/>
<path d="M451.63 135.665L449.414 117.328C449.389 116.961 449.488 116.597 449.694 116.293C449.899 115.989 450.2 115.763 450.549 115.652C450.7 115.591 450.863 115.566 451.026 115.579C451.188 115.592 451.345 115.642 451.485 115.726C451.625 115.81 451.744 115.925 451.832 116.063C451.92 116.201 451.976 116.357 451.994 116.52L454.033 133.392L474.204 138.295C474.861 138.455 475.165 139.169 474.881 139.891C474.757 140.232 474.519 140.519 474.207 140.703C473.896 140.888 473.53 140.958 473.173 140.901L451.63 135.665Z" fill="white"/>
<path d="M2.57718 384.002C1.15264 384.002 0 385.345 0 387.003C0 388.661 1.15264 390.001 2.88455 387.99H526.779C527.45 387.99 527.994 387.098 527.997 386.008C527.997 384.902 527.456 384.002 526.779 384.002H2.57718Z" fill="#62BDF3"/>
<path d="M104.284 51.6779L107.033 57.1455L113.245 56.9434L115.896 63.2936L122.446 61.0263L125.759 68.0748L132.045 66.7346L136.336 72.9926L133.981 74.624L130.774 69.9468L124.139 71.3613L120.953 64.5862L114.294 66.8891L111.369 59.8823L105.304 60.0813L102.756 55.0119L98.7989 55.9806L98.1221 53.1844L104.284 51.6779Z" fill="#62BDF3"/>
<path d="M436.939 191.572L442.587 193.877L447.139 189.622L453.283 192.659L456.741 186.624L463.843 189.75L467.709 184.589L475.032 186.472L474.323 189.257L468.847 187.848L464.768 193.298L457.941 190.294L454.427 196.43L447.644 193.078L443.199 197.232L437.965 195.096L435.615 198.439L433.277 196.778L436.939 191.572Z" fill="#9ED16F"/>
</g>
<defs>
<clipPath id="clip0">
<rect width="528" height="389" fill="white"/>
</clipPath>
</defs>
</svg>
