<svg width="365" height="339" viewBox="0 0 365 339" fill="none" xmlns="http://www.w3.org/2000/svg">
<path d="M328.933 277.078C269.204 295.275 277.929 272.171 223.403 287.601C168.876 303.031 155.318 341.765 118.042 338.442C68.7107 334.039 85.5467 283.775 43.8377 257.118C-15.6029 219.139 -12.0802 149.575 39.2198 122.704C90.5198 95.8327 111.759 128.521 142.9 103.159C174.042 77.8052 198.308 -13.5166 251.82 1.69875C357.129 31.641 277.766 123.274 333.418 165.367C377.355 198.588 375.068 263.024 328.933 277.078Z" fill="url(#paint0_linear)" fill-opacity="0.22"/>
<path d="M311.249 129.56C311.249 129.56 262.168 117.779 266.095 58.8861C266.095 58.8861 241.19 39.7607 189.536 39.2807V39.2615C189.2 39.2615 188.883 39.2711 188.557 39.2711C188.23 39.2711 187.904 39.2615 187.577 39.2615V39.2807C135.914 39.7607 111.018 58.8861 111.018 58.8861C114.945 117.779 65.8643 129.56 65.8643 129.56C94.5619 273.106 187.913 284.646 188.547 284.627C189.19 284.646 282.532 273.106 311.249 129.56Z" fill="#07C2EE"/>
<path d="M280.813 137.586C280.813 137.586 243.907 128.725 246.864 84.4445C246.864 84.4445 228.132 70.062 189.286 69.6972V69.678C189.036 69.678 188.796 69.6876 188.547 69.6876C188.297 69.6876 188.057 69.678 187.807 69.678V69.6972C148.961 70.062 130.23 84.4445 130.23 84.4445C133.187 128.734 96.2803 137.586 96.2803 137.586C117.873 245.532 188.067 254.221 188.547 254.201C189.027 254.221 259.23 245.541 280.813 137.586Z" fill="url(#paint1_linear)"/>
<path d="M140.455 228.144H196.775C202.584 228.144 207.298 223.43 207.298 217.621V65.703V36.8421C207.298 31.0335 202.584 26.3193 196.775 26.3193H120.59C114.782 26.3193 110.068 31.0335 110.068 36.8421V126.891V184.084" fill="url(#paint2_linear)"/>
<path d="M105.987 174.493V129.627" stroke="black" stroke-miterlimit="10"/>
<path d="M199.204 21.4612H118.958C111.796 21.4612 105.987 27.2698 105.987 34.4323V129.627V174.493C107.302 177.825 108.656 181.022 110.068 184.084V126.891V36.8421C110.068 31.0335 114.782 26.3193 120.59 26.3193H196.775C202.584 26.3193 207.298 31.0335 207.298 36.8421V65.703V217.621C207.298 223.43 202.584 228.144 196.775 228.144H140.455C142.241 229.872 144.027 231.485 145.803 233.012H199.194C206.357 233.012 212.166 227.203 212.166 220.041V66.3847V34.4323C212.166 27.2698 206.366 21.4612 199.204 21.4612Z" fill="white"/>
<path d="M201.23 119.565V134.937L190.467 119.565H126.764C120.888 119.565 116.126 115.187 116.126 109.782V90.5699C116.126 85.7502 120.379 81.8425 125.621 81.8425H191.6C196.919 81.8425 201.22 85.8078 201.22 90.6947V119.565H201.23Z" fill="white"/>
<path d="M178.072 152.766H138.468C134.858 152.766 131.929 149.837 131.929 146.227V136.617C131.929 133.007 134.858 130.078 138.468 130.078H178.072C181.682 130.078 184.611 133.007 184.611 136.617V146.227C184.611 149.837 181.682 152.766 178.072 152.766Z" fill="#FECC15"/>
<path d="M182.633 34.4324H142.011C141.367 34.4324 140.839 33.9139 140.839 33.261V31.5424C140.839 30.8992 141.358 30.3711 142.011 30.3711H182.633C183.276 30.3711 183.804 30.8896 183.804 31.5424V33.261C183.804 33.9043 183.276 34.4324 182.633 34.4324Z" fill="white"/>
<path d="M132.332 34.4323C133.451 34.4323 134.358 33.5253 134.358 32.4064C134.358 31.2876 133.451 30.3806 132.332 30.3806C131.214 30.3806 130.307 31.2876 130.307 32.4064C130.307 33.5253 131.214 34.4323 132.332 34.4323Z" fill="white"/>
<path d="M131.18 92.2983L130.643 97.1085L135.51 95.7451L135.942 99.0383L131.497 99.3551L134.406 103.234L131.44 104.818L129.404 100.728L127.618 104.789L124.536 103.234L127.426 99.3551L123.01 99.0191L123.519 95.7547L128.29 97.1181L127.753 92.3079H131.18V92.2983Z" fill="#001893"/>
<path d="M145.765 92.2981L145.227 97.1082L150.095 95.7449L150.527 99.0381L146.081 99.3549L148.99 103.234L146.024 104.818L143.988 100.728L142.203 104.789L139.121 103.234L142.011 99.3549L137.594 99.0189L138.103 95.7545L142.875 97.1178L142.337 92.3077H145.765V92.2981Z" fill="#001893"/>
<path d="M160.339 92.2981L159.801 97.1082L164.669 95.7449L165.101 99.0381L160.656 99.3549L163.565 103.234L160.598 104.818L158.563 100.728L156.777 104.789L153.695 103.234L156.585 99.3549L152.168 99.0189L152.677 95.7545L157.449 97.1178L156.911 92.3077H160.339V92.2981Z" fill="#001893"/>
<path d="M174.913 92.2981L174.376 97.1082L179.253 95.7449L179.685 99.0381L175.24 99.3549L178.149 103.234L175.182 104.818L173.147 100.728L171.361 104.789L168.279 103.234L171.169 99.3549L166.752 99.0189L167.261 95.7545L172.033 97.1178L171.495 92.3077H174.913V92.2981Z" fill="#001893"/>
<path d="M189.488 92.2981L188.95 97.1082L193.818 95.7449L194.25 99.0381L189.805 99.3549L192.714 103.234L189.747 104.818L187.711 100.728L185.926 104.789L182.844 103.234L185.734 99.3549L181.317 99.0189L181.826 95.7545L186.598 97.1178L186.06 92.3077H189.488V92.2981Z" fill="#001893"/>
<path d="M212.166 139.862V173.302C212.166 173.302 215.209 185.467 217.235 188.501C219.261 191.544 206.088 213.838 201.019 215.864C195.95 217.89 178.725 212.821 176.699 202.691C174.674 192.553 170.411 176.471 166.359 175.453C162.307 174.435 156.633 199.763 156.633 211.928C156.633 220.204 167.329 239.204 174.165 250.514C183.401 254.278 189.565 255.027 189.709 255.027C189.987 255.036 213.5 252.137 237.839 229.2C241.756 219.599 246.058 210.171 247.642 199.657C250.676 179.39 212.166 139.862 212.166 139.862Z" fill="#FFCBA7"/>
<path d="M263.979 139.031C277.666 133.472 284.255 117.87 278.696 104.183C273.137 90.4958 257.535 83.9067 243.848 89.4657C230.16 95.0248 223.571 110.627 229.13 124.314C234.689 138.001 250.292 144.59 263.979 139.031Z" fill="#F35B59"/>
<path d="M258.663 160.965C259.382 156.548 256.384 152.384 251.966 151.666C247.549 150.947 243.386 153.945 242.667 158.362C241.948 162.779 244.947 166.943 249.364 167.662C253.781 168.38 257.944 165.382 258.663 160.965Z" fill="#FECC15"/>
<defs>
<linearGradient id="paint0_linear" x1="427.93" y1="239.8" x2="-92.8172" y2="91.5599" gradientUnits="userSpaceOnUse">
<stop stop-color="#005CEA"/>
<stop offset="1" stop-color="#6270F0"/>
</linearGradient>
<linearGradient id="paint1_linear" x1="112.945" y1="71.478" x2="302.273" y2="270.156" gradientUnits="userSpaceOnUse">
<stop stop-color="#334BED"/>
<stop offset="1" stop-color="#5482FA"/>
</linearGradient>
<linearGradient id="paint2_linear" x1="98.3194" y1="-5.67793" x2="194.153" y2="176.639" gradientUnits="userSpaceOnUse">
<stop stop-color="#334BED"/>
<stop offset="1" stop-color="#5482FA"/>
</linearGradient>
</defs>
</svg>
