<svg width="333" height="332" viewBox="0 0 333 332" fill="none" xmlns="http://www.w3.org/2000/svg">
<path d="M287.732 279.391C281.093 286.387 274.811 290.898 269.847 294.462C211.506 336.361 142.472 324.147 127.8 321.165C106.135 316.761 64.2562 308.248 33.9787 272.61C-11.8274 218.694 -4.69452 133.749 30.837 77.677C37.336 67.4205 71.6675 10.4932 141.444 1.36437C183.672 -4.16106 232.897 6.98228 268.544 36.8742C343.37 99.621 338.043 226.377 287.732 279.391Z" fill="url(#paint0_linear)"/>
<path d="M0.840162 95.5398C0.330758 94.5402 1.6481 93.4683 2.74391 93.9841C13.8643 99.2273 41.6754 116.28 45.7968 157.025C50.9678 208.147 67.3043 223.245 84.829 230.594C84.829 230.594 63.2018 230.431 45.8999 215.29C3.42035 178.114 9.90044 113.314 0.840162 95.5398Z" fill="#BDD0FB"/>
<path opacity="0.5" d="M11.6857 109.236C14.1972 114.451 16.5855 119.714 18.7463 125.059C20.9391 130.392 22.9412 135.791 24.7454 141.25C26.5248 146.715 28.1845 152.217 29.5705 157.787C30.985 163.351 32.1223 168.978 33.2406 174.633C34.3945 180.277 35.5211 185.97 37.3218 191.539C39.1142 197.099 41.7062 202.514 45.381 207.283C46.2991 208.471 47.2457 209.648 48.2668 210.759C49.2631 211.889 50.3199 212.977 51.3991 214.046C53.5717 216.174 55.9197 218.17 58.4371 219.994C63.485 223.628 69.2116 226.545 75.2652 228.716C75.9026 228.945 76.6655 228.662 76.97 228.085C77.2685 227.518 77.0138 226.879 76.4013 226.64L76.3966 226.638C74.9442 226.073 73.5025 225.492 72.0986 224.855C71.3902 224.547 70.7007 224.211 70.0042 223.886C69.3242 223.539 68.6264 223.215 67.9606 222.848C65.2667 221.422 62.7031 219.825 60.2994 218.062C55.4767 214.559 51.2747 210.368 47.7539 205.818C46.0231 203.523 44.4973 201.108 43.1965 198.586C41.8981 196.061 40.826 193.432 39.9268 190.737C38.1297 185.343 36.9616 179.72 35.7604 174.086C34.5508 168.454 33.2904 162.803 31.7633 157.224C31.0087 154.432 30.196 151.656 29.3265 148.898C28.9012 147.516 28.4439 146.144 27.9902 144.771C27.5211 143.402 27.0437 142.036 26.552 140.675C24.5772 135.234 22.4105 129.86 20.0482 124.566C17.6564 119.284 15.1011 114.068 12.3136 108.962C12.2342 108.816 12.0305 108.763 11.8587 108.844C11.6917 108.916 11.617 109.093 11.6857 109.236Z" fill="white"/>
<path d="M51.5922 180.458C50.7523 181.945 48.6673 182.09 47.613 180.748C41.7915 173.338 27.225 150.9 34.3827 119.158C40.4268 92.3537 41.1601 77.2442 41.018 70.3623C40.9883 68.9074 42.8317 68.2588 43.719 69.4125C53.5114 82.1317 82.0392 126.578 51.5922 180.458Z" fill="#91B3FA"/>
<path opacity="0.5" d="M49.3105 180.087C49.2714 180.105 49.2312 180.118 49.1885 180.128C48.8296 180.211 48.4718 179.985 48.39 179.627C48.2965 179.22 39.1296 138.498 45.8525 100.848C45.9177 100.485 46.2636 100.245 46.6261 100.309C46.9886 100.374 47.2291 100.72 47.1651 101.083C40.4919 138.459 49.5972 178.924 49.6896 179.328C49.7619 179.645 49.5972 179.96 49.3105 180.087Z" fill="white"/>
<path d="M242.666 288.103H60.6407V27.5141C60.6407 18.3485 67.5958 11.0078 75.9832 11.322L247.887 13.8855C256.653 14.0159 263.629 21.9519 263.39 31.5242L257.393 272.45C257.177 281.163 250.647 288.103 242.666 288.103Z" fill="#91B3FA"/>
<path opacity="0.6" d="M239.427 248.571H63.4684V31.7732C63.4684 24.1479 70.1925 18.0403 78.3003 18.3023L244.475 20.4354C252.95 20.5445 259.693 27.1466 259.462 35.1098L253.664 235.548C253.455 242.796 247.142 248.571 239.427 248.571Z" fill="white"/>
<path d="M63.7088 35.3778L260.056 36.9133V27.4738C259.793 23.5467 255.929 18.294 249.926 18.294L72.6424 16.0684C68.4167 16.021 63.4233 21.9472 63.5063 26.4908L63.7088 35.3778Z" fill="#91B3FA"/>
<path opacity="0.6" d="M75.0649 27.3447C76.1359 26.2728 76.1359 24.5348 75.0649 23.4629C73.9939 22.3909 72.2575 22.3909 71.1865 23.4629C70.1155 24.5348 70.1155 26.2728 71.1865 27.3447C72.2575 28.4167 73.9939 28.4167 75.0649 27.3447Z" fill="white"/>
<path opacity="0.6" d="M86.0357 27.6614C87.1067 26.5894 87.1067 24.8515 86.0357 23.7795C84.9647 22.7076 83.2282 22.7076 82.1572 23.7795C81.0862 24.8515 81.0862 26.5894 82.1572 27.6614C83.2282 28.7333 84.9647 28.7333 86.0357 27.6614Z" fill="white"/>
<path opacity="0.6" d="M97.2959 26.3624C97.644 24.8871 96.7312 23.4087 95.2572 23.0603C93.7831 22.7119 92.306 23.6255 91.958 25.1009C91.6099 26.5762 92.5227 28.0546 93.9967 28.403C95.4708 28.7514 96.9479 27.8378 97.2959 26.3624Z" fill="white"/>
<path d="M145.02 90.4672H75.2534C74.757 90.4672 74.3542 90.0641 74.3542 89.5673V46.2899C74.3542 45.793 74.757 45.3899 75.2534 45.3899H145.02C145.517 45.3899 145.92 45.793 145.92 46.2899V89.5661C145.92 90.0641 145.517 90.4672 145.02 90.4672Z" fill="#91B3FA"/>
<path d="M140.465 88.6306H79.8096C78.0267 88.6306 76.5767 87.1793 76.5767 85.3948V50.5443C76.5767 48.7598 78.0267 47.3085 79.8096 47.3085H140.465C142.248 47.3085 143.698 48.7598 143.698 50.5443V85.396C143.698 87.1793 142.248 88.6306 140.465 88.6306ZM79.8084 47.7081C78.2458 47.7081 76.9747 48.9803 76.9747 50.5443V85.396C76.9747 86.96 78.2458 88.2322 79.8084 88.2322H140.464C142.027 88.2322 143.298 86.96 143.298 85.396V50.5443C143.298 48.9803 142.027 47.7081 140.464 47.7081H79.8084Z" fill="white"/>
<path d="M86.5561 83.5321H122.527C123.647 83.5321 124.343 82.3144 123.775 81.348L109.534 57.118C108.94 56.1077 107.455 56.1848 106.969 57.2508L100.093 72.3307C99.6845 73.2259 98.5224 73.4618 97.7974 72.7966L95.0158 70.245C94.3701 69.6521 93.349 69.766 92.849 70.4857L85.3667 81.2544C84.6998 82.2172 85.3869 83.5321 86.5561 83.5321Z" fill="white"/>
<path d="M124.024 61.1673C126.662 60.0734 127.915 57.0457 126.822 54.4048C125.729 51.7639 122.704 50.5098 120.066 51.6038C117.427 52.6977 116.174 55.7253 117.267 58.3662C118.36 61.0072 121.385 62.2612 124.024 61.1673Z" fill="white"/>
<path d="M144.825 143.52H75.4489C74.8435 143.52 74.3542 143.029 74.3542 142.424V99.5392C74.3542 98.9333 74.8447 98.4436 75.4489 98.4436H144.825C145.43 98.4436 145.92 98.9345 145.92 99.5392V142.424C145.92 143.029 145.429 143.52 144.825 143.52Z" fill="#91B3FA"/>
<path d="M88.2811 136.563H124.252C125.372 136.563 126.068 135.345 125.5 134.379L111.259 110.149C110.665 109.139 109.18 109.216 108.694 110.282L101.818 125.362C101.409 126.257 100.247 126.493 99.5223 125.828L96.7407 123.276C96.0951 122.683 95.0739 122.797 94.574 123.517L87.0917 134.285C86.4247 135.247 87.1118 136.563 88.2811 136.563Z" fill="white"/>
<path d="M125.749 114.198C128.388 113.104 129.641 110.077 128.548 107.436C127.455 104.795 124.43 103.541 121.791 104.635C119.153 105.729 117.9 108.756 118.993 111.397C120.086 114.038 123.111 115.292 125.749 114.198Z" fill="white"/>
<path d="M140.414 142.027H79.7574C77.9745 142.027 76.5245 140.576 76.5245 138.791V103.941C76.5245 102.156 77.9745 100.705 79.7574 100.705H140.414C142.197 100.705 143.647 102.156 143.647 103.941V138.792C143.646 140.576 142.196 142.027 140.414 142.027ZM79.7574 101.104C78.1948 101.104 76.9237 102.377 76.9237 103.941V138.792C76.9237 140.356 78.1948 141.628 79.7574 141.628H140.414C141.977 141.628 143.248 140.356 143.248 138.792V103.941C143.248 102.377 141.977 101.104 140.414 101.104H79.7574Z" fill="white"/>
<path d="M246.629 98.4542H164.182C163.686 98.4542 163.283 98.051 163.283 97.5542V46.2899C163.283 45.793 163.686 45.3899 164.182 45.3899H246.629C247.125 45.3899 247.528 45.793 247.528 46.2899V97.553C247.528 98.051 247.125 98.4542 246.629 98.4542Z" fill="#91B3FA"/>
<path d="M241.644 96.2569H169.166C167.383 96.2569 165.933 94.8056 165.933 93.0211V50.9199C165.933 49.1354 167.383 47.6841 169.166 47.6841H241.644C243.427 47.6841 244.877 49.1354 244.877 50.9199V93.0211C244.877 94.8056 243.427 96.2569 241.644 96.2569ZM169.166 48.0837C167.604 48.0837 166.332 49.3559 166.332 50.9199V93.0211C166.332 94.585 167.604 95.8573 169.166 95.8573H241.644C243.206 95.8573 244.477 94.585 244.477 93.0211V50.9199C244.477 49.3559 243.206 48.0837 241.644 48.0837H169.166Z" fill="white"/>
<g opacity="0.9">
<path opacity="0.9" d="M204.879 86.6838C196.63 86.6838 189.92 79.9667 189.92 71.7118C189.92 63.4568 196.631 56.7397 204.879 56.7397C213.126 56.7397 219.838 63.4568 219.838 71.7118C219.838 79.9667 213.128 86.6838 204.879 86.6838ZM204.879 59.2487C198.013 59.2487 192.427 64.8394 192.427 71.7118C192.427 78.5842 198.013 84.1748 204.879 84.1748C211.745 84.1748 217.331 78.5842 217.331 71.7118C217.332 64.8394 211.745 59.2487 204.879 59.2487Z" fill="white"/>
<path opacity="0.9" fill-rule="evenodd" clip-rule="evenodd" d="M200.192 77.4777V66.7138C200.192 65.5636 201.443 64.851 202.431 65.438L211.494 70.8199C212.462 71.395 212.462 72.7977 211.494 73.3728L202.431 78.7547C201.443 79.3404 200.192 78.6278 200.192 77.4777Z" fill="white"/>
</g>
<path d="M246.103 160.51H163.656C163.16 160.51 162.757 160.107 162.757 159.61V108.347C162.757 107.85 163.16 107.447 163.656 107.447H246.103C246.599 107.447 247.002 107.85 247.002 108.347V159.61C247.002 160.107 246.599 160.51 246.103 160.51Z" fill="#91B3FA"/>
<path d="M241.118 158.314H168.64C166.857 158.314 165.407 156.862 165.407 155.078V112.976C165.407 111.191 166.857 109.74 168.64 109.74H241.118C242.901 109.74 244.351 111.191 244.351 112.976V155.077C244.351 156.861 242.901 158.314 241.118 158.314ZM168.64 110.141C167.078 110.141 165.806 111.413 165.806 112.977V155.078C165.806 156.642 167.078 157.914 168.64 157.914H241.118C242.68 157.914 243.951 156.642 243.951 155.078V112.976C243.951 111.412 242.68 110.139 241.118 110.139H168.64V110.141Z" fill="white"/>
<g opacity="0.9">
<path opacity="0.9" d="M204.353 148.74C196.104 148.74 189.394 142.023 189.394 133.768C189.394 125.512 196.105 118.796 204.353 118.796C212.6 118.796 219.311 125.513 219.311 133.768C219.313 142.025 212.602 148.74 204.353 148.74ZM204.353 121.304C197.487 121.304 191.901 126.895 191.901 133.767C191.901 140.64 197.487 146.23 204.353 146.23C211.219 146.23 216.805 140.64 216.805 133.767C216.805 126.895 211.219 121.304 204.353 121.304Z" fill="white"/>
<path opacity="0.9" fill-rule="evenodd" clip-rule="evenodd" d="M199.667 139.534V128.771C199.667 127.62 200.918 126.908 201.906 127.495L210.969 132.877C211.937 133.452 211.937 134.854 210.969 135.43L201.906 140.811C200.917 141.397 199.667 140.685 199.667 139.534Z" fill="white"/>
</g>
<path d="M33.0972 233.417L35.4819 307.636C35.8977 320.578 46.5087 330.877 59.5068 330.953L237.078 332C245.765 332.051 253.166 325.733 254.433 317.172C257.21 298.43 260.747 264.893 256.763 233.416H33.0972V233.417Z" fill="url(#paint1_linear)"/>
<path d="M230.787 327.441H230.786L229.492 327.434C229.373 327.434 229.278 327.336 229.278 327.217C229.279 327.098 229.375 327.002 229.494 327.002H229.495L230.788 327.009C230.907 327.01 231.003 327.108 231.003 327.226C231.002 327.345 230.906 327.441 230.787 327.441ZM233.803 327.421C233.691 327.421 233.596 327.333 233.589 327.218C233.582 327.099 233.672 326.996 233.79 326.989C234.213 326.963 234.64 326.92 235.06 326.861C235.176 326.842 235.287 326.926 235.303 327.045C235.32 327.162 235.238 327.271 235.119 327.288C234.688 327.348 234.25 327.392 233.816 327.419C233.813 327.421 233.808 327.421 233.803 327.421ZM226.475 327.416H226.474L225.18 327.408C225.061 327.406 224.966 327.309 224.966 327.191C224.966 327.072 225.063 326.976 225.181 326.976H225.183L226.476 326.984C226.596 326.985 226.691 327.083 226.691 327.201C226.691 327.32 226.594 327.416 226.475 327.416ZM222.164 327.39H222.163L220.869 327.383C220.75 327.382 220.655 327.284 220.655 327.166C220.656 327.047 220.752 326.951 220.87 326.951H220.872L222.165 326.958C222.284 326.958 222.38 327.055 222.38 327.175C222.378 327.294 222.283 327.39 222.164 327.39ZM217.852 327.365H217.851L216.557 327.358C216.437 327.357 216.343 327.261 216.343 327.141C216.344 327.022 216.458 326.932 216.559 326.926L217.853 326.933C217.972 326.934 218.068 327.032 218.068 327.15C218.068 327.269 217.97 327.365 217.852 327.365ZM213.541 327.34H213.54L212.246 327.332C212.126 327.331 212.032 327.233 212.032 327.115C212.033 326.996 212.129 326.9 212.247 326.9H212.248L213.542 326.908C213.662 326.91 213.757 327.007 213.757 327.125C213.757 327.244 213.659 327.34 213.541 327.34ZM209.23 327.314H209.229L207.935 327.307C207.815 327.306 207.721 327.21 207.721 327.09C207.722 326.971 207.836 326.872 207.937 326.875L209.231 326.882C209.351 326.884 209.446 326.98 209.446 327.099C209.444 327.218 209.348 327.314 209.23 327.314ZM204.918 327.288H204.917L203.623 327.281C203.505 327.28 203.409 327.184 203.409 327.064C203.41 326.945 203.506 326.849 203.624 326.849H203.625L204.919 326.856C205.039 326.857 205.133 326.953 205.133 327.073C205.133 327.193 205.036 327.288 204.918 327.288ZM200.607 327.263H200.606L199.312 327.256C199.193 327.255 199.098 327.159 199.098 327.039C199.099 326.92 199.195 326.824 199.313 326.824H199.314L200.608 326.831C200.728 326.833 200.822 326.929 200.822 327.048C200.821 327.167 200.725 327.263 200.607 327.263ZM196.295 327.238H196.293L195 327.231C194.881 327.23 194.785 327.134 194.785 327.014C194.787 326.895 194.883 326.799 195.001 326.799H195.002L196.296 326.806C196.415 326.808 196.51 326.905 196.51 327.023C196.51 327.142 196.413 327.238 196.295 327.238ZM191.984 327.212H191.982L190.689 327.205C190.57 327.204 190.474 327.108 190.474 326.988C190.476 326.869 190.572 326.773 190.69 326.773H190.691L191.985 326.78C192.105 326.78 192.199 326.878 192.199 326.997C192.198 327.116 192.102 327.212 191.984 327.212ZM187.673 327.187H187.672L186.378 327.18C186.259 327.179 186.163 327.082 186.163 326.963C186.165 326.844 186.261 326.748 186.379 326.748H186.38L187.674 326.755C187.794 326.757 187.888 326.853 187.888 326.972C187.887 327.091 187.791 327.187 187.673 327.187ZM183.361 327.161H183.359L182.066 327.153C181.946 327.151 181.851 327.054 181.851 326.936C181.852 326.817 181.948 326.721 182.067 326.721H182.068L183.362 326.729C183.481 326.731 183.576 326.828 183.576 326.946C183.576 327.066 183.479 327.161 183.361 327.161ZM179.05 327.136H179.048L177.755 327.129C177.635 327.128 177.54 327.032 177.54 326.912C177.541 326.793 177.637 326.697 177.756 326.697H177.757L179.051 326.704C179.17 326.706 179.265 326.802 179.265 326.921C179.264 327.04 179.168 327.136 179.05 327.136ZM174.737 327.11H174.736L173.443 327.103C173.323 327.102 173.228 327.004 173.228 326.886C173.229 326.767 173.325 326.671 173.444 326.671H173.445L174.739 326.678C174.858 326.68 174.953 326.776 174.953 326.895C174.953 327.014 174.856 327.11 174.737 327.11ZM170.426 327.085H170.425L169.132 327.077C169.012 327.076 168.917 326.978 168.917 326.86C168.918 326.741 169.014 326.645 169.133 326.645H169.134L170.428 326.653C170.547 326.655 170.642 326.752 170.642 326.87C170.641 326.989 170.545 327.085 170.426 327.085ZM166.114 327.059H166.113L164.819 327.052C164.7 327.051 164.605 326.955 164.605 326.835C164.606 326.716 164.716 326.633 164.822 326.62L166.115 326.627C166.234 326.629 166.33 326.725 166.33 326.844C166.33 326.964 166.234 327.059 166.114 327.059ZM161.803 327.034H161.802L160.508 327.027C160.389 327.026 160.294 326.93 160.294 326.81C160.295 326.691 160.391 326.595 160.51 326.595H160.511L161.804 326.602C161.923 326.604 162.019 326.7 162.019 326.819C162.018 326.938 161.922 327.034 161.803 327.034ZM157.492 327.009H157.491L156.197 327.002C156.078 327.001 155.983 326.905 155.983 326.785C155.984 326.665 156.093 326.575 156.2 326.57L157.493 326.578C157.613 326.579 157.708 326.675 157.708 326.795C157.707 326.913 157.611 327.009 157.492 327.009ZM153.18 326.983H153.179L151.885 326.976C151.766 326.975 151.671 326.878 151.671 326.759C151.672 326.64 151.768 326.544 151.886 326.544H151.888L153.181 326.552C153.301 326.553 153.396 326.649 153.396 326.769C153.396 326.887 153.299 326.983 153.18 326.983ZM148.869 326.958H148.868L147.574 326.951C147.455 326.951 147.36 326.854 147.36 326.734C147.361 326.616 147.47 326.516 147.577 326.519L148.87 326.527C148.99 326.528 149.085 326.625 149.085 326.744C149.084 326.862 148.988 326.958 148.869 326.958ZM144.557 326.932H144.556L143.262 326.925C143.143 326.925 143.048 326.828 143.048 326.708C143.049 326.589 143.145 326.493 143.263 326.493H143.265L144.558 326.501C144.678 326.502 144.773 326.598 144.773 326.717C144.773 326.836 144.675 326.932 144.557 326.932ZM140.246 326.907H140.245L138.951 326.899C138.832 326.898 138.737 326.8 138.737 326.682C138.738 326.563 138.834 326.467 138.952 326.467H138.954L140.247 326.476C140.367 326.477 140.462 326.574 140.462 326.693C140.46 326.811 140.365 326.907 140.246 326.907ZM135.934 326.881H135.933L134.639 326.874C134.521 326.873 134.425 326.777 134.425 326.657C134.426 326.538 134.522 326.442 134.64 326.442H134.641L135.935 326.45C136.055 326.451 136.149 326.548 136.149 326.667C136.149 326.785 136.052 326.881 135.934 326.881ZM131.623 326.856H131.622L130.328 326.849C130.21 326.848 130.114 326.752 130.114 326.632C130.115 326.514 130.211 326.418 130.329 326.418H130.33L131.624 326.425C131.744 326.426 131.838 326.522 131.838 326.642C131.838 326.76 131.741 326.856 131.623 326.856ZM127.312 326.83H127.311L126.017 326.823C125.899 326.822 125.803 326.725 125.803 326.606C125.804 326.487 125.9 326.391 126.018 326.391H126.019L127.313 326.399C127.433 326.4 127.528 326.496 127.528 326.616C127.526 326.734 127.43 326.83 127.312 326.83ZM123 326.805H122.999L121.705 326.798C121.585 326.797 121.491 326.701 121.491 326.581C121.492 326.463 121.588 326.367 121.706 326.367H121.707L123.001 326.374C123.121 326.375 123.215 326.471 123.215 326.591C123.215 326.709 123.118 326.805 123 326.805ZM118.689 326.78H118.688L117.394 326.773C117.274 326.773 117.18 326.676 117.18 326.556C117.181 326.438 117.277 326.342 117.395 326.342H117.396L118.69 326.349C118.81 326.35 118.904 326.446 118.904 326.566C118.903 326.684 118.807 326.78 118.689 326.78ZM114.377 326.754H114.375L113.082 326.747C112.962 326.747 112.867 326.65 112.867 326.53C112.869 326.412 112.965 326.316 113.083 326.316H113.084L114.378 326.323C114.497 326.324 114.592 326.42 114.592 326.54C114.592 326.658 114.495 326.754 114.377 326.754ZM110.066 326.729H110.064L108.771 326.721C108.651 326.72 108.556 326.623 108.556 326.504C108.558 326.385 108.654 326.289 108.772 326.289H108.773L110.067 326.298C110.186 326.299 110.281 326.396 110.281 326.515C110.28 326.633 110.184 326.729 110.066 326.729ZM105.755 326.703H105.753L104.46 326.696C104.34 326.695 104.245 326.598 104.245 326.479C104.247 326.361 104.352 326.276 104.462 326.265L105.756 326.272C105.874 326.273 105.97 326.369 105.97 326.489C105.969 326.607 105.873 326.703 105.755 326.703ZM101.443 326.678H101.441L100.148 326.671C100.028 326.67 99.9333 326.574 99.9333 326.454C99.9344 326.336 100.03 326.24 100.149 326.24H100.15L101.444 326.247C101.562 326.248 101.658 326.345 101.658 326.464C101.657 326.582 101.561 326.678 101.443 326.678ZM97.1315 326.652H97.1303L95.8367 326.644C95.717 326.643 95.6223 326.546 95.6223 326.427C95.6235 326.307 95.7289 326.216 95.8391 326.212L97.1327 326.221C97.2524 326.222 97.3471 326.319 97.3471 326.438C97.3459 326.557 97.25 326.652 97.1315 326.652ZM92.8194 326.627H92.8182L91.5245 326.62C91.4049 326.619 91.3101 326.522 91.3101 326.403C91.3113 326.285 91.4073 326.189 91.5257 326.189H91.5269L92.8205 326.196C92.9402 326.197 93.035 326.293 93.035 326.413C93.035 326.531 92.9378 326.627 92.8194 326.627ZM238.024 326.604C237.934 326.604 237.85 326.547 237.819 326.455C237.781 326.343 237.843 326.221 237.956 326.183C238.358 326.049 238.76 325.898 239.151 325.733C239.261 325.688 239.387 325.738 239.433 325.848C239.479 325.959 239.428 326.084 239.318 326.131C238.918 326.3 238.504 326.455 238.092 326.592C238.069 326.6 238.047 326.604 238.024 326.604ZM88.5084 326.601H88.5072L87.2136 326.594C87.0939 326.593 86.9991 326.497 86.9991 326.377C87.0003 326.259 87.1046 326.158 87.2159 326.163L88.5096 326.17C88.6292 326.171 88.724 326.268 88.724 326.387C88.7228 326.505 88.6269 326.601 88.5084 326.601ZM84.1962 326.576H84.195L82.9014 326.569C82.7817 326.568 82.687 326.472 82.687 326.352C82.6882 326.234 82.7841 326.138 82.9026 326.138H82.9038L84.1974 326.145C84.3171 326.146 84.4118 326.242 84.4118 326.362C84.4118 326.48 84.3159 326.576 84.1962 326.576ZM79.8853 326.55H79.8841L78.5904 326.543C78.4708 326.542 78.376 326.446 78.376 326.326C78.3772 326.208 78.4731 326.112 78.5916 326.112H78.5928L79.8864 326.119C80.0061 326.12 80.1009 326.217 80.1009 326.336C80.0997 326.455 80.0037 326.55 79.8853 326.55ZM75.5731 326.525H75.5719L74.2783 326.518C74.1586 326.517 74.0638 326.421 74.0638 326.301C74.065 326.183 74.161 326.087 74.2794 326.087H74.2806L75.5743 326.094C75.6939 326.095 75.7887 326.191 75.7887 326.311C75.7887 326.429 75.6927 326.525 75.5731 326.525ZM71.2621 326.501H71.2609L69.9673 326.493C69.8488 326.492 69.7529 326.396 69.7529 326.276C69.754 326.158 69.85 326.062 69.9685 326.062H69.9696L71.2633 326.069C71.383 326.069 71.4777 326.166 71.4777 326.286C71.4777 326.404 71.3806 326.501 71.2621 326.501ZM66.9511 326.474H66.95L65.6563 326.466C65.5367 326.465 65.4419 326.368 65.4419 326.249C65.4431 326.131 65.539 326.035 65.6575 326.035H65.6587L66.9523 326.043C67.072 326.044 67.1668 326.141 67.1668 326.26C67.1656 326.38 67.0696 326.474 66.9511 326.474ZM62.6402 326.426C62.6366 326.426 62.6331 326.426 62.6295 326.426C62.1983 326.404 61.7612 326.37 61.3287 326.324C61.2103 326.312 61.125 326.205 61.1368 326.087C61.1499 325.968 61.2529 325.88 61.3738 325.895C61.7979 325.94 62.2267 325.973 62.6508 325.994C62.7693 326 62.8617 326.101 62.8558 326.221C62.8498 326.337 62.7539 326.426 62.6402 326.426ZM58.3801 325.812C58.3635 325.812 58.347 325.809 58.3292 325.806C57.9086 325.705 57.4845 325.59 57.0699 325.464C56.9562 325.43 56.891 325.31 56.9254 325.195C56.9597 325.081 57.0806 325.016 57.1943 325.05C57.6018 325.174 58.0176 325.286 58.4299 325.386C58.546 325.414 58.6171 325.531 58.5886 325.647C58.5661 325.745 58.4773 325.812 58.3801 325.812ZM241.895 324.73C241.825 324.73 241.756 324.696 241.715 324.633C241.649 324.533 241.677 324.399 241.776 324.334C242.132 324.101 242.481 323.852 242.816 323.593C242.91 323.521 243.046 323.537 243.118 323.632C243.191 323.726 243.174 323.862 243.079 323.935C242.737 324.2 242.378 324.456 242.013 324.696C241.976 324.718 241.935 324.73 241.895 324.73ZM54.3085 324.414C54.2788 324.414 54.2492 324.408 54.2196 324.395C53.8263 324.217 53.4318 324.025 53.048 323.824C52.9425 323.769 52.9011 323.639 52.9568 323.533C53.0124 323.427 53.1416 323.386 53.2482 323.441C53.6261 323.638 54.0123 323.827 54.3985 324.001C54.5075 324.05 54.5549 324.178 54.5063 324.287C54.4696 324.367 54.3914 324.414 54.3085 324.414ZM50.572 322.282C50.5294 322.282 50.4856 322.269 50.4488 322.243C50.0946 321.994 49.7428 321.732 49.4028 321.464C49.3092 321.39 49.2938 321.254 49.3672 321.16C49.4407 321.066 49.5769 321.051 49.6705 321.124C50.0046 321.388 50.3493 321.645 50.6976 321.889C50.7947 321.958 50.8184 322.092 50.7497 322.189C50.7059 322.25 50.6396 322.282 50.572 322.282ZM245.155 321.926C245.104 321.926 245.052 321.908 245.01 321.87C244.921 321.791 244.914 321.655 244.994 321.566C245.276 321.25 245.549 320.919 245.807 320.583C245.88 320.488 246.015 320.47 246.11 320.542C246.204 320.615 246.222 320.75 246.15 320.845C245.886 321.191 245.604 321.531 245.313 321.854C245.273 321.901 245.214 321.926 245.155 321.926ZM47.2953 319.492C47.2396 319.492 47.1827 319.47 47.1413 319.427C46.8392 319.116 46.5406 318.793 46.2563 318.466C46.1781 318.376 46.1876 318.24 46.2776 318.161C46.3677 318.083 46.5027 318.093 46.5821 318.183C46.8617 318.504 47.1531 318.821 47.4505 319.125C47.5334 319.211 47.5322 319.347 47.4469 319.43C47.4031 319.47 47.3498 319.492 47.2953 319.492ZM247.583 318.376C247.55 318.376 247.517 318.369 247.486 318.352C247.38 318.298 247.338 318.168 247.391 318.062C247.582 317.684 247.761 317.293 247.923 316.902C247.968 316.792 248.095 316.741 248.205 316.785C248.315 316.83 248.368 316.957 248.323 317.067C248.157 317.469 247.973 317.87 247.776 318.257C247.738 318.333 247.663 318.376 247.583 318.376ZM44.5907 316.139C44.5208 316.139 44.4521 316.104 44.4106 316.041C44.1701 315.678 43.9379 315.305 43.72 314.931C43.6595 314.828 43.6939 314.697 43.797 314.636C43.9 314.576 44.0315 314.611 44.092 314.713C44.3064 315.08 44.5338 315.446 44.7696 315.803C44.8347 315.903 44.8087 316.037 44.7092 316.102C44.6736 316.127 44.6322 316.139 44.5907 316.139ZM249.008 314.318C248.994 314.318 248.979 314.317 248.963 314.314C248.847 314.289 248.773 314.175 248.796 314.059C248.863 313.742 248.921 313.417 248.969 313.094L249.013 312.796C249.031 312.679 249.14 312.594 249.257 312.613C249.375 312.63 249.456 312.74 249.44 312.858L249.396 313.156C249.346 313.488 249.287 313.822 249.218 314.147C249.198 314.249 249.109 314.318 249.008 314.318ZM42.5614 312.337C42.4773 312.337 42.3967 312.287 42.3623 312.204C42.1953 311.805 42.0378 311.393 41.892 310.983C41.8529 310.87 41.911 310.747 42.0235 310.708C42.1349 310.67 42.2581 310.727 42.2984 310.84C42.4405 311.243 42.5957 311.646 42.7592 312.038C42.8054 312.149 42.7533 312.274 42.6431 312.321C42.6182 312.331 42.5898 312.337 42.5614 312.337ZM249.656 310.052C249.647 310.052 249.636 310.051 249.627 310.05C249.51 310.033 249.427 309.924 249.443 309.807C249.501 309.386 249.561 308.958 249.619 308.525C249.635 308.408 249.742 308.325 249.861 308.34C249.98 308.357 250.062 308.465 250.046 308.583C249.987 309.017 249.929 309.445 249.87 309.866C249.854 309.974 249.762 310.052 249.656 310.052ZM41.2843 308.218C41.1848 308.218 41.0948 308.148 41.0734 308.046C40.9846 307.62 40.9076 307.188 40.8436 306.761C40.8258 306.643 40.9076 306.533 41.0249 306.515C41.1445 306.5 41.2523 306.579 41.2701 306.697C41.3329 307.116 41.4087 307.541 41.4964 307.958C41.5212 308.074 41.4466 308.189 41.3293 308.213C41.3139 308.217 41.2985 308.218 41.2843 308.218ZM250.225 305.774C250.216 305.774 250.207 305.774 250.198 305.773C250.079 305.758 249.996 305.65 250.011 305.532L250.172 304.248C250.186 304.13 250.295 304.045 250.412 304.061C250.531 304.075 250.615 304.183 250.599 304.302L250.438 305.587C250.425 305.695 250.333 305.774 250.225 305.774ZM40.8033 303.938C40.6872 303.938 40.5913 303.845 40.5877 303.729L40.5463 302.435C40.5427 302.317 40.6363 302.217 40.7548 302.212C40.8744 302.202 40.9727 302.302 40.9775 302.421L41.0189 303.715C41.0225 303.833 40.9289 303.933 40.8104 303.938C40.8081 303.938 40.8057 303.938 40.8033 303.938ZM250.746 301.489C250.738 301.489 250.73 301.489 250.721 301.488C250.603 301.474 250.519 301.367 250.532 301.248C250.582 300.824 250.63 300.395 250.679 299.963C250.692 299.844 250.8 299.761 250.917 299.772C251.035 299.785 251.121 299.892 251.108 300.01C251.059 300.443 251.011 300.872 250.961 301.298C250.948 301.408 250.854 301.489 250.746 301.489ZM40.6647 299.624C40.5486 299.624 40.4527 299.531 40.4491 299.415L40.4077 298.122C40.4041 298.003 40.4977 297.903 40.6162 297.899C40.7334 297.892 40.8353 297.989 40.8389 298.107L40.8803 299.401C40.8839 299.52 40.7903 299.619 40.6718 299.624C40.6695 299.624 40.6671 299.624 40.6647 299.624ZM251.218 297.199C251.211 297.199 251.202 297.199 251.195 297.198C251.077 297.186 250.99 297.079 251.003 296.961C251.047 296.535 251.092 296.106 251.135 295.673C251.147 295.555 251.252 295.469 251.371 295.48C251.489 295.492 251.576 295.597 251.564 295.716C251.52 296.149 251.476 296.578 251.431 297.005C251.42 297.116 251.327 297.199 251.218 297.199ZM40.5261 295.311C40.41 295.311 40.3141 295.219 40.3105 295.103L40.2691 293.809C40.2655 293.691 40.3591 293.591 40.4776 293.586C40.5794 293.57 40.6967 293.675 40.7003 293.795L40.7417 295.089C40.7453 295.207 40.6517 295.307 40.5332 295.311C40.5309 295.311 40.5285 295.311 40.5261 295.311ZM251.64 292.903C251.632 292.903 251.627 292.903 251.619 292.902C251.501 292.891 251.413 292.786 251.425 292.667C251.464 292.24 251.503 291.811 251.542 291.378C251.553 291.26 251.655 291.171 251.776 291.183C251.894 291.193 251.982 291.298 251.971 291.416C251.933 291.849 251.894 292.28 251.854 292.706C251.845 292.819 251.75 292.903 251.64 292.903ZM40.3875 290.998C40.2714 290.998 40.1755 290.905 40.1719 290.789L40.1304 289.496C40.1269 289.377 40.2205 289.277 40.3389 289.273C40.442 289.257 40.5569 289.362 40.5617 289.481L40.6031 290.775C40.6067 290.893 40.5131 290.993 40.3946 290.998C40.3923 290.998 40.3899 290.998 40.3875 290.998ZM252.013 288.603C252.007 288.603 252.001 288.603 251.995 288.601C251.877 288.592 251.788 288.488 251.797 288.369L251.899 287.079C251.909 286.96 252.007 286.872 252.131 286.881C252.25 286.89 252.339 286.994 252.329 287.113L252.227 288.405C252.219 288.517 252.124 288.603 252.013 288.603ZM40.2489 286.684C40.1328 286.684 40.0369 286.592 40.0333 286.476L39.9918 285.182C39.9883 285.063 40.0819 284.964 40.2003 284.959C40.3153 284.953 40.4195 285.049 40.4231 285.168L40.4645 286.461C40.4681 286.58 40.3745 286.679 40.256 286.684C40.2537 286.684 40.2513 286.684 40.2489 286.684ZM252.334 284.299C252.329 284.299 252.324 284.299 252.318 284.299C252.2 284.29 252.11 284.187 252.118 284.068L252.205 282.777C252.212 282.659 252.312 282.571 252.434 282.576C252.553 282.584 252.643 282.686 252.636 282.806L252.549 284.098C252.541 284.212 252.446 284.299 252.334 284.299ZM40.1103 282.372C39.9942 282.372 39.8983 282.279 39.8947 282.163L39.8532 280.869C39.8497 280.751 39.9433 280.651 40.0617 280.647C40.1755 280.633 40.2809 280.737 40.2845 280.855L40.3259 282.149C40.3295 282.267 40.2359 282.367 40.1174 282.372C40.115 282.372 40.1127 282.372 40.1103 282.372ZM252.602 279.991C252.598 279.991 252.593 279.991 252.59 279.991C252.471 279.984 252.38 279.882 252.387 279.763C252.411 279.334 252.434 278.904 252.457 278.471C252.463 278.352 252.566 278.26 252.683 278.267C252.802 278.273 252.894 278.375 252.887 278.493C252.865 278.926 252.841 279.358 252.817 279.787C252.81 279.902 252.715 279.991 252.602 279.991ZM39.9717 278.058C39.8556 278.058 39.7596 277.966 39.7561 277.849L39.7146 276.556C39.7111 276.437 39.8047 276.338 39.9231 276.333C40.0369 276.323 40.1423 276.423 40.1459 276.542L40.1873 277.835C40.1909 277.954 40.0973 278.053 39.9788 278.058C39.9764 278.058 39.9741 278.058 39.9717 278.058ZM252.815 275.681C252.811 275.681 252.809 275.681 252.805 275.681C252.687 275.676 252.594 275.575 252.599 275.455C252.618 275.026 252.636 274.595 252.652 274.163C252.657 274.044 252.759 273.946 252.876 273.956C252.995 273.96 253.088 274.061 253.084 274.18C253.067 274.612 253.049 275.044 253.03 275.474C253.024 275.589 252.93 275.681 252.815 275.681ZM39.8331 273.746C39.717 273.746 39.621 273.653 39.6175 273.537L39.576 272.243C39.5725 272.125 39.6661 272.025 39.7845 272.02C39.89 272.007 40.0025 272.109 40.0072 272.229L40.0487 273.523C40.0523 273.641 39.9587 273.741 39.8402 273.746C39.8378 273.746 39.8355 273.746 39.8331 273.746ZM252.971 271.367C252.969 271.367 252.966 271.367 252.965 271.367C252.847 271.364 252.752 271.264 252.756 271.145C252.769 270.715 252.78 270.285 252.791 269.852C252.795 269.733 252.889 269.642 253.013 269.642C253.131 269.645 253.226 269.744 253.222 269.864C253.212 270.296 253.2 270.728 253.187 271.158C253.183 271.275 253.087 271.367 252.971 271.367ZM39.6945 269.432C39.5784 269.432 39.4824 269.34 39.4789 269.223L39.4374 267.93C39.4339 267.811 39.5275 267.712 39.6459 267.707C39.7514 267.695 39.8639 267.796 39.8686 267.915L39.9101 269.209C39.9137 269.328 39.8201 269.427 39.7016 269.432C39.6992 269.432 39.6969 269.432 39.6945 269.432ZM253.067 267.052C253.066 267.052 253.065 267.052 253.064 267.052C252.944 267.05 252.849 266.953 252.852 266.833C252.857 266.403 252.863 265.971 252.868 265.539C252.869 265.42 252.982 265.329 253.086 265.326C253.206 265.327 253.3 265.424 253.299 265.544C253.295 265.977 253.289 266.408 253.283 266.84C253.28 266.957 253.184 267.052 253.067 267.052ZM39.5559 265.118C39.4398 265.118 39.3438 265.026 39.3403 264.91L39.2988 263.616C39.2953 263.498 39.3889 263.398 39.5073 263.393C39.6128 263.381 39.7253 263.482 39.73 263.602L39.7715 264.895C39.775 265.014 39.6815 265.114 39.563 265.118C39.5606 265.118 39.5583 265.118 39.5559 265.118ZM253.1 262.736C252.982 262.736 252.885 262.64 252.885 262.52V262.416C252.885 262.02 252.883 261.624 252.882 261.228C252.882 261.109 252.978 261.012 253.097 261.011H253.098C253.216 261.011 253.314 261.107 253.314 261.226C253.315 261.623 253.316 262.02 253.316 262.416V262.52C253.316 262.64 253.22 262.736 253.1 262.736ZM39.4173 260.806C39.3012 260.806 39.2052 260.713 39.2017 260.597L39.1602 259.304C39.1567 259.185 39.2502 259.085 39.3687 259.081C39.4884 259.065 39.5867 259.171 39.5914 259.289L39.6329 260.583C39.6364 260.702 39.5429 260.801 39.4244 260.806C39.422 260.806 39.4197 260.806 39.4173 260.806ZM253.069 258.423C252.952 258.423 252.856 258.328 252.854 258.21C252.848 257.78 252.84 257.35 252.831 256.918C252.829 256.799 252.924 256.7 253.042 256.697C253.145 256.689 253.259 256.789 253.263 256.908C253.271 257.34 253.279 257.773 253.285 258.203C253.286 258.322 253.191 258.42 253.073 258.423C253.071 258.423 253.071 258.423 253.069 258.423ZM39.2787 256.492C39.1626 256.492 39.0666 256.4 39.0631 256.284L39.0216 254.99C39.018 254.871 39.1116 254.772 39.2301 254.767C39.3367 254.756 39.4481 254.856 39.4528 254.976L39.4943 256.269C39.4978 256.388 39.4043 256.488 39.2858 256.492C39.2834 256.492 39.281 256.492 39.2787 256.492ZM252.968 254.11C252.852 254.11 252.756 254.018 252.752 253.902C252.738 253.471 252.724 253.041 252.708 252.609C252.703 252.491 252.797 252.39 252.915 252.385C253.036 252.374 253.135 252.474 253.139 252.592C253.156 253.024 253.17 253.456 253.184 253.887C253.188 254.006 253.094 254.105 252.976 254.11C252.972 254.11 252.97 254.11 252.968 254.11ZM39.1401 252.18C39.024 252.18 38.928 252.087 38.9245 251.971L38.883 250.678C38.8794 250.559 38.973 250.459 39.0915 250.455C39.21 250.448 39.3095 250.545 39.3142 250.663L39.3557 251.957C39.3592 252.076 39.2656 252.175 39.1472 252.18C39.1448 252.18 39.1424 252.18 39.1401 252.18ZM252.793 249.799C252.68 249.799 252.584 249.709 252.578 249.594C252.557 249.163 252.534 248.733 252.511 248.303C252.504 248.184 252.596 248.082 252.715 248.075C252.831 248.07 252.936 248.159 252.943 248.279C252.966 248.71 252.989 249.142 253.01 249.572C253.016 249.691 252.924 249.793 252.805 249.799C252.801 249.799 252.797 249.799 252.793 249.799ZM39.0015 247.866C38.8854 247.866 38.7894 247.774 38.7859 247.658L38.7444 246.364C38.7408 246.245 38.8344 246.146 38.9529 246.141C39.0773 246.142 39.1721 246.231 39.1756 246.35L39.2171 247.643C39.2206 247.762 39.127 247.861 39.0086 247.866C39.0062 247.866 39.0038 247.866 39.0015 247.866ZM252.542 245.491C252.43 245.491 252.335 245.403 252.328 245.29C252.299 244.859 252.269 244.43 252.237 244C252.228 243.881 252.317 243.778 252.436 243.768C252.56 243.76 252.658 243.849 252.667 243.968C252.699 244.398 252.729 244.83 252.758 245.26C252.766 245.379 252.676 245.482 252.558 245.49C252.552 245.49 252.547 245.491 252.542 245.491ZM38.8629 243.553C38.7468 243.553 38.6508 243.46 38.6473 243.344L38.6058 242.05C38.6022 241.932 38.6958 241.832 38.8143 241.827C38.9221 241.81 39.0323 241.916 39.037 242.036L39.0785 243.33C39.082 243.448 38.9884 243.548 38.87 243.553C38.8676 243.553 38.8652 243.553 38.8629 243.553ZM252.208 241.188C252.098 241.188 252.003 241.104 251.994 240.991C251.956 240.562 251.917 240.133 251.877 239.704C251.866 239.585 251.952 239.48 252.071 239.469C252.19 239.46 252.295 239.545 252.305 239.663C252.346 240.094 252.385 240.524 252.423 240.953C252.433 241.072 252.346 241.178 252.227 241.187C252.22 241.188 252.214 241.188 252.208 241.188ZM38.7243 239.24C38.6082 239.24 38.5122 239.148 38.5087 239.031L38.4672 237.738C38.4636 237.619 38.5572 237.52 38.6757 237.515C38.7847 237.508 38.8937 237.604 38.8984 237.724L38.9399 239.017C38.9434 239.136 38.8498 239.235 38.7314 239.24C38.729 239.24 38.7266 239.24 38.7243 239.24ZM251.785 236.894C251.676 236.894 251.583 236.812 251.571 236.702C251.523 236.273 251.476 235.844 251.426 235.416C251.412 235.298 251.497 235.191 251.616 235.177C251.737 235.162 251.841 235.248 251.855 235.366C251.905 235.796 251.954 236.225 252 236.655C252.013 236.774 251.927 236.881 251.809 236.894C251.802 236.894 251.794 236.894 251.785 236.894ZM38.5856 234.927C38.4696 234.927 38.3736 234.834 38.37 234.718L38.3215 233.201H39.1033C39.223 233.201 39.319 233.297 39.319 233.417C39.319 233.536 39.223 233.633 39.1033 233.633H38.7657L38.8001 234.704C38.8036 234.822 38.71 234.922 38.5916 234.927C38.5904 234.927 38.588 234.927 38.5856 234.927ZM250.371 233.633H249.077C248.958 233.633 248.862 233.536 248.862 233.417C248.862 233.297 248.958 233.201 249.077 233.201H250.371C250.49 233.201 250.586 233.297 250.586 233.417C250.586 233.536 250.489 233.633 250.371 233.633ZM246.059 233.633H244.765C244.645 233.633 244.549 233.536 244.549 233.417C244.549 233.297 244.645 233.201 244.765 233.201H246.059C246.178 233.201 246.274 233.297 246.274 233.417C246.274 233.536 246.178 233.633 246.059 233.633ZM241.748 233.633H240.454C240.334 233.633 240.238 233.536 240.238 233.417C240.238 233.297 240.334 233.201 240.454 233.201H241.748C241.867 233.201 241.963 233.297 241.963 233.417C241.963 233.536 241.866 233.633 241.748 233.633ZM237.436 233.633H236.142C236.022 233.633 235.926 233.536 235.926 233.417C235.926 233.297 236.022 233.201 236.142 233.201H237.436C237.555 233.201 237.651 233.297 237.651 233.417C237.651 233.536 237.555 233.633 237.436 233.633ZM233.125 233.633H231.831C231.711 233.633 231.615 233.536 231.615 233.417C231.615 233.297 231.711 233.201 231.831 233.201H233.125C233.244 233.201 233.34 233.297 233.34 233.417C233.34 233.536 233.243 233.633 233.125 233.633ZM228.812 233.633H227.519C227.399 233.633 227.303 233.536 227.303 233.417C227.303 233.297 227.399 233.201 227.519 233.201H228.812C228.932 233.201 229.028 233.297 229.028 233.417C229.028 233.536 228.932 233.633 228.812 233.633ZM224.501 233.633H223.208C223.088 233.633 222.992 233.536 222.992 233.417C222.992 233.297 223.088 233.201 223.208 233.201H224.501C224.621 233.201 224.717 233.297 224.717 233.417C224.717 233.536 224.62 233.633 224.501 233.633ZM220.189 233.633H218.896C218.776 233.633 218.68 233.536 218.68 233.417C218.68 233.297 218.776 233.201 218.896 233.201H220.189C220.309 233.201 220.405 233.297 220.405 233.417C220.405 233.536 220.309 233.633 220.189 233.633ZM215.878 233.633H214.585C214.465 233.633 214.369 233.536 214.369 233.417C214.369 233.297 214.465 233.201 214.585 233.201H215.878C215.998 233.201 216.094 233.297 216.094 233.417C216.094 233.536 215.997 233.633 215.878 233.633ZM211.566 233.633H210.272C210.153 233.633 210.057 233.536 210.057 233.417C210.057 233.297 210.153 233.201 210.272 233.201H211.566C211.686 233.201 211.782 233.297 211.782 233.417C211.782 233.536 211.686 233.633 211.566 233.633ZM207.255 233.633H205.961C205.842 233.633 205.746 233.536 205.746 233.417C205.746 233.297 205.842 233.201 205.961 233.201H207.255C207.375 233.201 207.471 233.297 207.471 233.417C207.471 233.536 207.374 233.633 207.255 233.633ZM202.943 233.633H201.649C201.53 233.633 201.434 233.536 201.434 233.417C201.434 233.297 201.53 233.201 201.649 233.201H202.943C203.063 233.201 203.159 233.297 203.159 233.417C203.159 233.536 203.063 233.633 202.943 233.633ZM198.632 233.633H197.338C197.219 233.633 197.123 233.536 197.123 233.417C197.123 233.297 197.219 233.201 197.338 233.201H198.632C198.752 233.201 198.848 233.297 198.848 233.417C198.848 233.536 198.75 233.633 198.632 233.633ZM194.32 233.633H193.026C192.907 233.633 192.811 233.536 192.811 233.417C192.811 233.297 192.907 233.201 193.026 233.201H194.32C194.439 233.201 194.535 233.297 194.535 233.417C194.535 233.536 194.439 233.633 194.32 233.633ZM190.009 233.633H188.715C188.596 233.633 188.5 233.536 188.5 233.417C188.5 233.297 188.596 233.201 188.715 233.201H190.009C190.129 233.201 190.224 233.297 190.224 233.417C190.224 233.536 190.129 233.633 190.009 233.633ZM185.697 233.633H184.403C184.283 233.633 184.187 233.536 184.187 233.417C184.187 233.297 184.283 233.201 184.403 233.201H185.697C185.816 233.201 185.912 233.297 185.912 233.417C185.912 233.536 185.816 233.633 185.697 233.633ZM181.386 233.633H180.092C179.972 233.633 179.876 233.536 179.876 233.417C179.876 233.297 179.972 233.201 180.092 233.201H181.386C181.505 233.201 181.601 233.297 181.601 233.417C181.601 233.536 181.505 233.633 181.386 233.633ZM177.074 233.633H175.78C175.66 233.633 175.564 233.536 175.564 233.417C175.564 233.297 175.66 233.201 175.78 233.201H177.074C177.193 233.201 177.289 233.297 177.289 233.417C177.289 233.536 177.193 233.633 177.074 233.633ZM172.763 233.633H171.469C171.349 233.633 171.253 233.536 171.253 233.417C171.253 233.297 171.349 233.201 171.469 233.201H172.763C172.882 233.201 172.978 233.297 172.978 233.417C172.978 233.536 172.882 233.633 172.763 233.633ZM168.452 233.633H167.158C167.038 233.633 166.942 233.536 166.942 233.417C166.942 233.297 167.038 233.201 167.158 233.201H168.452C168.571 233.201 168.667 233.297 168.667 233.417C168.666 233.536 168.57 233.633 168.452 233.633ZM164.139 233.633H162.846C162.726 233.633 162.63 233.536 162.63 233.417C162.63 233.297 162.726 233.201 162.846 233.201H164.139C164.259 233.201 164.355 233.297 164.355 233.417C164.355 233.536 164.259 233.633 164.139 233.633ZM159.828 233.633H158.535C158.415 233.633 158.319 233.536 158.319 233.417C158.319 233.297 158.415 233.201 158.535 233.201H159.828C159.948 233.201 160.044 233.297 160.044 233.417C160.044 233.536 159.947 233.633 159.828 233.633ZM155.516 233.633H154.223C154.103 233.633 154.007 233.536 154.007 233.417C154.007 233.297 154.103 233.201 154.223 233.201H155.516C155.636 233.201 155.732 233.297 155.732 233.417C155.732 233.536 155.636 233.633 155.516 233.633ZM151.205 233.633H149.912C149.792 233.633 149.696 233.536 149.696 233.417C149.696 233.297 149.792 233.201 149.912 233.201H151.205C151.325 233.201 151.421 233.297 151.421 233.417C151.421 233.536 151.324 233.633 151.205 233.633ZM146.893 233.633H145.6C145.48 233.633 145.384 233.536 145.384 233.417C145.384 233.297 145.48 233.201 145.6 233.201H146.893C147.013 233.201 147.109 233.297 147.109 233.417C147.109 233.536 147.013 233.633 146.893 233.633ZM142.582 233.633H141.289C141.169 233.633 141.073 233.536 141.073 233.417C141.073 233.297 141.169 233.201 141.289 233.201H142.582C142.702 233.201 142.798 233.297 142.798 233.417C142.798 233.536 142.701 233.633 142.582 233.633ZM138.27 233.633H136.976C136.857 233.633 136.761 233.536 136.761 233.417C136.761 233.297 136.857 233.201 136.976 233.201H138.27C138.39 233.201 138.486 233.297 138.486 233.417C138.486 233.536 138.39 233.633 138.27 233.633ZM133.959 233.633H132.665C132.546 233.633 132.45 233.536 132.45 233.417C132.45 233.297 132.546 233.201 132.665 233.201H133.959C134.079 233.201 134.175 233.297 134.175 233.417C134.175 233.536 134.078 233.633 133.959 233.633ZM129.647 233.633H128.353C128.234 233.633 128.138 233.536 128.138 233.417C128.138 233.297 128.234 233.201 128.353 233.201H129.647C129.767 233.201 129.862 233.297 129.862 233.417C129.862 233.536 129.767 233.633 129.647 233.633ZM125.336 233.633H124.042C123.923 233.633 123.827 233.536 123.827 233.417C123.827 233.297 123.923 233.201 124.042 233.201H125.336C125.456 233.201 125.552 233.297 125.552 233.417C125.552 233.536 125.454 233.633 125.336 233.633ZM121.024 233.633H119.73C119.61 233.633 119.514 233.536 119.514 233.417C119.514 233.297 119.61 233.201 119.73 233.201H121.024C121.143 233.201 121.239 233.297 121.239 233.417C121.239 233.536 121.143 233.633 121.024 233.633ZM116.713 233.633H115.419C115.299 233.633 115.204 233.536 115.204 233.417C115.204 233.297 115.299 233.201 115.419 233.201H116.713C116.832 233.201 116.928 233.297 116.928 233.417C116.928 233.536 116.831 233.633 116.713 233.633ZM112.401 233.633H111.107C110.987 233.633 110.891 233.536 110.891 233.417C110.891 233.297 110.987 233.201 111.107 233.201H112.401C112.52 233.201 112.616 233.297 112.616 233.417C112.616 233.536 112.52 233.633 112.401 233.633ZM108.09 233.633H106.796C106.676 233.633 106.58 233.536 106.58 233.417C106.58 233.297 106.676 233.201 106.796 233.201H108.09C108.209 233.201 108.305 233.297 108.305 233.417C108.305 233.536 108.208 233.633 108.09 233.633ZM103.777 233.633H102.484C102.364 233.633 102.268 233.536 102.268 233.417C102.268 233.297 102.364 233.201 102.484 233.201H103.777C103.897 233.201 103.993 233.297 103.993 233.417C103.993 233.536 103.897 233.633 103.777 233.633ZM99.4665 233.633H98.1728C98.0532 233.633 97.9572 233.536 97.9572 233.417C97.9572 233.297 98.0532 233.201 98.1728 233.201H99.4665C99.5861 233.201 99.6821 233.297 99.6821 233.417C99.6821 233.536 99.585 233.633 99.4665 233.633ZM95.1543 233.633H93.8607C93.741 233.633 93.6451 233.536 93.6451 233.417C93.6451 233.297 93.741 233.201 93.8607 233.201H95.1543C95.274 233.201 95.3699 233.297 95.3699 233.417C95.3699 233.536 95.274 233.633 95.1543 233.633ZM90.8434 233.633H89.5497C89.4301 233.633 89.3341 233.536 89.3341 233.417C89.3341 233.297 89.4301 233.201 89.5497 233.201H90.8434C90.963 233.201 91.059 233.297 91.059 233.417C91.059 233.536 90.9618 233.633 90.8434 233.633ZM86.5312 233.633H85.2375C85.1179 233.633 85.0219 233.536 85.0219 233.417C85.0219 233.297 85.1179 233.201 85.2375 233.201H86.5312C86.6508 233.201 86.7468 233.297 86.7468 233.417C86.7468 233.536 86.6508 233.633 86.5312 233.633ZM82.2202 233.633H80.9266C80.8069 233.633 80.711 233.536 80.711 233.417C80.711 233.297 80.8069 233.201 80.9266 233.201H82.2202C82.3399 233.201 82.4358 233.297 82.4358 233.417C82.4358 233.536 82.3387 233.633 82.2202 233.633ZM77.9081 233.633H76.6144C76.4948 233.633 76.3988 233.536 76.3988 233.417C76.3988 233.297 76.4948 233.201 76.6144 233.201H77.9081C78.0277 233.201 78.1237 233.297 78.1237 233.417C78.1237 233.536 78.0277 233.633 77.9081 233.633ZM73.5971 233.633H72.3034C72.1838 233.633 72.0878 233.536 72.0878 233.417C72.0878 233.297 72.1838 233.201 72.3034 233.201H73.5971C73.7167 233.201 73.8127 233.297 73.8127 233.417C73.8127 233.536 73.7155 233.633 73.5971 233.633ZM69.2849 233.633H67.9913C67.8716 233.633 67.7757 233.536 67.7757 233.417C67.7757 233.297 67.8716 233.201 67.9913 233.201H69.2849C69.4046 233.201 69.5005 233.297 69.5005 233.417C69.5005 233.536 69.4046 233.633 69.2849 233.633ZM64.9739 233.633H63.6803C63.5606 233.633 63.4647 233.536 63.4647 233.417C63.4647 233.297 63.5606 233.201 63.6803 233.201H64.9739C65.0936 233.201 65.1896 233.297 65.1896 233.417C65.1896 233.536 65.0924 233.633 64.9739 233.633ZM60.6618 233.633H59.3681C59.2485 233.633 59.1525 233.536 59.1525 233.417C59.1525 233.297 59.2485 233.201 59.3681 233.201H60.6618C60.7814 233.201 60.8774 233.297 60.8774 233.417C60.8774 233.536 60.7814 233.633 60.6618 233.633ZM56.3508 233.633H55.0572C54.9375 233.633 54.8416 233.536 54.8416 233.417C54.8416 233.297 54.9375 233.201 55.0572 233.201H56.3508C56.4705 233.201 56.5664 233.297 56.5664 233.417C56.5664 233.536 56.4693 233.633 56.3508 233.633ZM52.0386 233.633H50.745C50.6253 233.633 50.5294 233.536 50.5294 233.417C50.5294 233.297 50.6253 233.201 50.745 233.201H52.0386C52.1583 233.201 52.2543 233.297 52.2543 233.417C52.2543 233.536 52.1583 233.633 52.0386 233.633ZM47.7277 233.633H46.434C46.3144 233.633 46.2184 233.536 46.2184 233.417C46.2184 233.297 46.3144 233.201 46.434 233.201H47.7277C47.8473 233.201 47.9433 233.297 47.9433 233.417C47.9433 233.536 47.8461 233.633 47.7277 233.633ZM43.4155 233.633H42.1219C42.0022 233.633 41.9063 233.536 41.9063 233.417C41.9063 233.297 42.0022 233.201 42.1219 233.201H43.4155C43.5352 233.201 43.6311 233.297 43.6311 233.417C43.6311 233.536 43.5352 233.633 43.4155 233.633Z" fill="white"/>
<path d="M85.1369 179.538L85.6712 173.814C86.2742 172.447 87.5264 171.481 89.006 171.245C94.5384 170.364 108.258 168.814 114.865 173.755L115.852 180.407L85.1369 179.538Z" fill="url(#paint2_linear)"/>
<path d="M102.419 174.031C101.145 174.341 99.8693 174.34 98.591 174.026C97.0439 173.645 95.9528 172.26 95.9528 170.674V152.75H105.066V170.661C105.065 172.254 103.973 173.651 102.419 174.031Z" fill="url(#paint3_linear)"/>
<path d="M173.405 179.538L173.939 173.814C174.542 172.447 175.794 171.481 177.274 171.245C182.806 170.364 196.526 168.814 203.133 173.755L204.119 180.407L173.405 179.538Z" fill="url(#paint4_linear)"/>
<path d="M190.685 174.031C189.412 174.341 188.136 174.34 186.858 174.026C185.311 173.645 184.22 172.26 184.22 170.674V150.862H193.333V170.66C193.333 172.254 192.241 173.651 190.685 174.031Z" fill="url(#paint5_linear)"/>
<path d="M95.0265 157.144L193.032 153.896C195.266 153.822 197.162 152.209 197.546 150.014C198.082 146.943 198.556 142.346 197.85 137.58C197.048 132.161 192.39 128.135 186.893 128.005C168.61 127.569 122.066 127.582 96.4125 137.739C93.6997 138.814 91.6869 141.134 90.9998 143.961C90.3447 146.657 89.9088 150.257 90.7653 153.922C91.2214 155.869 93.022 157.21 95.0265 157.144Z" fill="url(#paint6_linear)"/>
<path d="M93.3301 152.045C93.1121 152.045 92.9238 151.879 92.9013 151.657C92.8859 151.502 92.5293 147.814 93.4877 144.264C94.2162 141.567 96.3486 139.398 99.0532 138.604C104.513 137.001 114.947 134.275 123.47 134.035C123.71 134.028 123.906 134.217 123.913 134.455C123.92 134.693 123.732 134.891 123.494 134.898C115.066 135.135 104.716 137.841 99.2949 139.432C96.877 140.143 94.9708 142.08 94.3193 144.491C93.4024 147.882 93.7542 151.535 93.7578 151.571C93.7815 151.808 93.6085 152.019 93.3716 152.043C93.3585 152.044 93.3443 152.045 93.3301 152.045Z" fill="#91B3FA"/>
<path d="M39.665 177.308C71.3274 176.902 208.299 175.461 248.086 180.266C251.512 180.68 254.306 183.188 255.049 186.546C257.401 197.184 262.13 221.896 261.57 246.392C261.494 249.725 259.051 252.539 255.762 253.161L164.942 270.359H132.681L35.9108 251.107C32.5002 250.428 29.9851 247.536 29.8086 244.075C29.1796 231.751 28.1963 202.835 31.5264 184.222C32.2336 180.266 35.6336 177.36 39.665 177.308Z" fill="url(#paint7_linear)"/>
<path d="M164.195 262.742H162.902C162.783 262.742 162.686 262.646 162.686 262.526C162.686 262.407 162.783 262.311 162.902 262.311H164.195C164.315 262.311 164.411 262.407 164.411 262.526C164.411 262.646 164.315 262.742 164.195 262.742ZM159.884 262.742H158.591C158.472 262.742 158.375 262.646 158.375 262.526C158.375 262.407 158.472 262.311 158.591 262.311H159.884C160.004 262.311 160.1 262.407 160.1 262.526C160.1 262.646 160.003 262.742 159.884 262.742ZM155.572 262.742H154.278C154.16 262.742 154.063 262.646 154.063 262.526C154.063 262.407 154.16 262.311 154.278 262.311H155.572C155.692 262.311 155.788 262.407 155.788 262.526C155.788 262.646 155.692 262.742 155.572 262.742ZM151.261 262.742H149.967C149.849 262.742 149.752 262.646 149.752 262.526C149.752 262.407 149.849 262.311 149.967 262.311H151.261C151.381 262.311 151.477 262.407 151.477 262.526C151.477 262.646 151.38 262.742 151.261 262.742ZM146.949 262.742H145.655C145.537 262.742 145.44 262.646 145.44 262.526C145.44 262.407 145.537 262.311 145.655 262.311H146.949C147.069 262.311 147.164 262.407 147.164 262.526C147.164 262.646 147.069 262.742 146.949 262.742ZM142.638 262.742H141.344C141.226 262.742 141.129 262.646 141.129 262.526C141.129 262.407 141.226 262.311 141.344 262.311H142.638C142.758 262.311 142.854 262.407 142.854 262.526C142.854 262.646 142.756 262.742 142.638 262.742ZM138.326 262.742H137.032C136.914 262.742 136.816 262.646 136.816 262.526C136.816 262.407 136.914 262.311 137.032 262.311H138.326C138.445 262.311 138.541 262.407 138.541 262.526C138.541 262.646 138.445 262.742 138.326 262.742ZM134.015 262.742H133.451L132.141 262.486C132.025 262.462 131.948 262.35 131.971 262.232C131.995 262.116 132.106 262.039 132.225 262.063L133.494 262.315L134.015 262.311C134.134 262.311 134.23 262.407 134.23 262.526C134.23 262.646 134.133 262.742 134.015 262.742ZM167.16 262.182C167.058 262.182 166.968 262.11 166.948 262.007C166.926 261.89 167.003 261.777 167.12 261.754L168.391 261.514C168.507 261.491 168.621 261.568 168.644 261.686C168.666 261.803 168.589 261.916 168.472 261.938L167.201 262.179C167.188 262.181 167.173 262.182 167.16 262.182ZM129.223 261.9C129.209 261.9 129.194 261.899 129.18 261.896L127.911 261.643C127.795 261.619 127.718 261.507 127.742 261.389C127.766 261.273 127.877 261.195 127.996 261.22L129.264 261.472C129.38 261.496 129.457 261.609 129.434 261.726C129.414 261.83 129.324 261.9 129.223 261.9ZM171.397 261.381C171.295 261.381 171.205 261.309 171.185 261.205C171.162 261.088 171.239 260.975 171.356 260.953L172.628 260.712C172.745 260.691 172.857 260.767 172.88 260.884C172.902 261.001 172.825 261.114 172.708 261.137L171.437 261.377C171.424 261.38 171.411 261.381 171.397 261.381ZM124.994 261.06C124.979 261.06 124.965 261.058 124.951 261.055L123.682 260.802C123.566 260.779 123.489 260.666 123.513 260.549C123.535 260.431 123.648 260.354 123.766 260.379L125.035 260.632C125.151 260.655 125.228 260.768 125.204 260.885C125.184 260.988 125.094 261.06 124.994 261.06ZM175.633 260.578C175.531 260.578 175.441 260.506 175.421 260.403C175.398 260.285 175.475 260.173 175.593 260.15L176.864 259.909C176.981 259.888 177.094 259.964 177.116 260.081C177.139 260.199 177.062 260.311 176.944 260.334L175.673 260.575C175.66 260.577 175.647 260.578 175.633 260.578ZM120.764 260.218C120.75 260.218 120.736 260.217 120.722 260.213L119.453 259.96C119.337 259.937 119.26 259.824 119.284 259.707C119.307 259.59 119.419 259.512 119.537 259.537L120.806 259.79C120.922 259.813 120.999 259.926 120.975 260.043C120.955 260.148 120.866 260.218 120.764 260.218ZM179.869 259.777C179.768 259.777 179.677 259.704 179.657 259.601C179.635 259.484 179.712 259.371 179.829 259.349L181.1 259.108C181.218 259.088 181.33 259.162 181.353 259.28C181.375 259.397 181.298 259.51 181.181 259.532L179.91 259.773C179.897 259.775 179.884 259.777 179.869 259.777ZM116.536 259.377C116.522 259.377 116.508 259.376 116.494 259.372L115.225 259.12C115.109 259.096 115.032 258.983 115.055 258.866C115.079 258.75 115.191 258.673 115.309 258.696L116.578 258.949C116.694 258.973 116.771 259.085 116.747 259.203C116.727 259.306 116.637 259.377 116.536 259.377ZM184.106 258.974C184.004 258.974 183.914 258.902 183.894 258.798C183.871 258.681 183.948 258.568 184.065 258.546L185.337 258.305C185.454 258.284 185.566 258.36 185.589 258.477C185.611 258.594 185.534 258.707 185.417 258.73L184.146 258.97C184.133 258.973 184.12 258.974 184.106 258.974ZM112.307 258.535C112.293 258.535 112.279 258.534 112.264 258.53L110.996 258.278C110.88 258.254 110.803 258.142 110.826 258.024C110.85 257.907 110.961 257.83 111.08 257.855L112.349 258.107C112.465 258.131 112.542 258.243 112.518 258.361C112.498 258.464 112.408 258.535 112.307 258.535ZM188.343 258.172C188.241 258.172 188.151 258.1 188.131 257.997C188.109 257.88 188.186 257.767 188.303 257.744L189.574 257.504C189.691 257.482 189.804 257.558 189.826 257.676C189.849 257.793 189.772 257.906 189.655 257.928L188.384 258.169C188.369 258.171 188.356 258.172 188.343 258.172ZM108.078 257.695C108.064 257.695 108.049 257.693 108.035 257.69L106.766 257.437C106.65 257.413 106.573 257.301 106.597 257.183C106.62 257.067 106.733 256.99 106.851 257.014L108.119 257.266C108.235 257.29 108.312 257.403 108.289 257.52C108.269 257.623 108.18 257.695 108.078 257.695ZM192.58 257.37C192.478 257.37 192.388 257.297 192.368 257.194C192.345 257.077 192.422 256.964 192.539 256.942L193.81 256.701C193.929 256.68 194.04 256.755 194.062 256.873C194.084 256.99 194.007 257.103 193.89 257.125L192.619 257.366C192.606 257.368 192.593 257.37 192.58 257.37ZM103.85 256.853C103.836 256.853 103.821 256.851 103.807 256.848L102.538 256.595C102.422 256.572 102.345 256.459 102.369 256.342C102.393 256.224 102.505 256.147 102.622 256.172L103.891 256.425C104.009 256.448 104.084 256.561 104.061 256.678C104.041 256.782 103.95 256.853 103.85 256.853ZM196.816 256.568C196.714 256.568 196.624 256.496 196.604 256.393C196.581 256.275 196.658 256.163 196.776 256.14L198.047 255.899C198.165 255.879 198.277 255.954 198.299 256.071C198.322 256.189 198.245 256.301 198.127 256.324L196.856 256.565C196.842 256.567 196.829 256.568 196.816 256.568ZM99.6205 256.012C99.6063 256.012 99.5921 256.011 99.5779 256.007L98.3091 255.755C98.193 255.731 98.116 255.618 98.1397 255.501C98.1634 255.385 98.276 255.308 98.3932 255.331L99.662 255.584C99.7781 255.608 99.8551 255.72 99.8314 255.838C99.8113 255.941 99.7212 256.012 99.6205 256.012ZM201.052 255.765C200.95 255.765 200.86 255.693 200.84 255.59C200.818 255.472 200.895 255.36 201.012 255.337L202.283 255.097C202.402 255.075 202.513 255.151 202.536 255.269C202.558 255.386 202.481 255.499 202.364 255.521L201.093 255.762C201.078 255.764 201.065 255.765 201.052 255.765ZM95.3913 255.17C95.3771 255.17 95.3629 255.169 95.3487 255.165L94.0799 254.913C93.9638 254.889 93.8868 254.776 93.9105 254.659C93.933 254.542 94.0455 254.465 94.164 254.49L95.4328 254.742C95.5489 254.766 95.6259 254.878 95.6022 254.996C95.5832 255.099 95.4932 255.17 95.3913 255.17ZM205.289 254.964C205.187 254.964 205.097 254.891 205.077 254.788C205.054 254.671 205.131 254.558 205.248 254.536L206.52 254.295C206.636 254.274 206.749 254.35 206.772 254.467C206.794 254.584 206.717 254.697 206.6 254.72L205.329 254.96C205.315 254.961 205.302 254.964 205.289 254.964ZM91.1633 254.328C91.149 254.328 91.1348 254.327 91.1206 254.324L89.8518 254.071C89.7357 254.047 89.6587 253.935 89.6824 253.817C89.7061 253.701 89.8175 253.624 89.9359 253.648L91.2047 253.9C91.3208 253.924 91.3978 254.037 91.3741 254.154C91.354 254.258 91.264 254.328 91.1633 254.328ZM209.525 254.161C209.423 254.161 209.333 254.089 209.313 253.986C209.29 253.868 209.367 253.756 209.485 253.734L210.756 253.494C210.872 253.472 210.986 253.548 211.008 253.665C211.031 253.783 210.954 253.895 210.836 253.918L209.565 254.159C209.551 254.16 209.538 254.161 209.525 254.161ZM86.934 253.488C86.9198 253.488 86.9056 253.486 86.8914 253.483L85.6226 253.23C85.5065 253.207 85.4295 253.094 85.4532 252.977C85.4769 252.86 85.5883 252.783 85.7067 252.807L86.9755 253.06C87.0916 253.083 87.1686 253.196 87.1449 253.313C87.1247 253.416 87.0347 253.488 86.934 253.488ZM213.761 253.358C213.659 253.358 213.569 253.286 213.549 253.183C213.527 253.065 213.604 252.953 213.721 252.93L214.992 252.69C215.109 252.667 215.222 252.744 215.243 252.862C215.266 252.979 215.189 253.092 215.072 253.114L213.8 253.355C213.789 253.357 213.774 253.358 213.761 253.358ZM82.706 252.646C82.6917 252.646 82.6775 252.645 82.6633 252.641L81.3946 252.388C81.2785 252.365 81.2015 252.252 81.2251 252.135C81.2488 252.018 81.3602 251.94 81.4787 251.965L82.7474 252.218C82.8635 252.241 82.9405 252.354 82.9168 252.471C82.8967 252.575 82.8067 252.646 82.706 252.646ZM217.998 252.557C217.896 252.557 217.806 252.484 217.786 252.381C217.763 252.264 217.84 252.151 217.957 252.129L219.229 251.888C219.346 251.867 219.458 251.943 219.481 252.06C219.503 252.177 219.426 252.29 219.309 252.313L218.038 252.553C218.025 252.556 218.011 252.557 217.998 252.557ZM78.4767 251.805C78.4625 251.805 78.4483 251.804 78.4341 251.8L77.1653 251.548C77.0492 251.524 76.9722 251.411 76.9959 251.294C77.0196 251.178 77.131 251.101 77.2494 251.124L78.5182 251.377C78.6343 251.401 78.7113 251.513 78.6876 251.631C78.6675 251.734 78.5774 251.805 78.4767 251.805ZM222.234 251.754C222.132 251.754 222.042 251.682 222.022 251.579C221.999 251.461 222.076 251.349 222.194 251.326L223.465 251.085C223.582 251.064 223.695 251.14 223.717 251.257C223.74 251.375 223.663 251.487 223.545 251.51L222.274 251.751C222.261 251.753 222.247 251.754 222.234 251.754ZM74.2475 250.963C74.2333 250.963 74.2191 250.962 74.2048 250.958L72.9361 250.706C72.82 250.682 72.743 250.57 72.7667 250.452C72.7904 250.336 72.9017 250.258 73.0202 250.283L74.289 250.535C74.4051 250.559 74.4821 250.672 74.4584 250.789C74.4382 250.892 74.3482 250.963 74.2475 250.963ZM226.47 250.953C226.368 250.953 226.278 250.88 226.258 250.777C226.236 250.66 226.313 250.547 226.43 250.525L227.701 250.284C227.819 250.264 227.931 250.338 227.954 250.456C227.976 250.573 227.899 250.686 227.782 250.708L226.511 250.949C226.498 250.951 226.483 250.953 226.47 250.953ZM230.707 250.15C230.605 250.15 230.515 250.077 230.495 249.974C230.472 249.857 230.549 249.744 230.666 249.722L231.938 249.481C232.055 249.459 232.167 249.536 232.19 249.653C232.212 249.77 232.135 249.883 232.018 249.906L230.747 250.146C230.734 250.149 230.72 250.15 230.707 250.15ZM70.0195 250.123C70.0052 250.123 69.991 250.121 69.9768 250.118L68.708 249.865C68.5919 249.842 68.5149 249.729 68.5386 249.611C68.5611 249.495 68.6749 249.418 68.7921 249.442L70.0609 249.695C70.177 249.718 70.254 249.831 70.2303 249.948C70.2102 250.051 70.1201 250.123 70.0195 250.123ZM234.943 249.348C234.841 249.348 234.751 249.276 234.731 249.173C234.708 249.055 234.785 248.943 234.903 248.92L236.174 248.68C236.291 248.658 236.404 248.734 236.426 248.851C236.449 248.969 236.372 249.082 236.254 249.103L234.983 249.344C234.97 249.347 234.956 249.348 234.943 249.348ZM65.7902 249.281C65.776 249.281 65.7618 249.28 65.7476 249.276L64.4788 249.023C64.3627 249 64.2857 248.887 64.3094 248.77C64.3331 248.653 64.4444 248.575 64.5629 248.6L65.8317 248.853C65.9478 248.876 66.0248 248.989 66.0011 249.106C65.9809 249.21 65.8909 249.281 65.7902 249.281ZM239.179 248.546C239.077 248.546 238.987 248.473 238.967 248.37C238.945 248.253 239.022 248.14 239.139 248.118L240.41 247.877C240.529 247.855 240.64 247.931 240.661 248.049C240.684 248.166 240.607 248.279 240.49 248.301L239.218 248.542C239.207 248.544 239.192 248.546 239.179 248.546ZM61.561 248.44C61.5468 248.44 61.5325 248.439 61.5183 248.435L60.2496 248.183C60.1335 248.159 60.0565 248.046 60.0802 247.929C60.1038 247.813 60.2164 247.736 60.3337 247.759L61.6024 248.012C61.7185 248.036 61.7955 248.148 61.7718 248.266C61.7517 248.369 61.6617 248.44 61.561 248.44ZM243.416 247.744C243.314 247.744 243.224 247.672 243.204 247.569C243.181 247.451 243.258 247.338 243.375 247.317L244.647 247.076C244.763 247.056 244.876 247.131 244.899 247.248C244.921 247.366 244.844 247.478 244.727 247.501L243.456 247.742C243.443 247.743 243.429 247.744 243.416 247.744ZM57.3329 247.598C57.3187 247.598 57.3045 247.597 57.2903 247.593L56.0215 247.341C55.9054 247.317 55.8284 247.205 55.8521 247.087C55.8746 246.971 55.9872 246.893 56.1056 246.918L57.3744 247.17C57.4905 247.194 57.5675 247.306 57.5438 247.424C57.5237 247.527 57.4336 247.598 57.3329 247.598ZM247.652 246.941C247.55 246.941 247.46 246.869 247.44 246.766C247.418 246.648 247.495 246.536 247.612 246.513L248.883 246.273C248.999 246.251 249.113 246.327 249.135 246.444C249.158 246.562 249.081 246.674 248.964 246.697L247.692 246.938C247.679 246.94 247.666 246.941 247.652 246.941ZM53.1037 246.757C53.0895 246.757 53.0753 246.756 53.061 246.753L51.7923 246.5C51.6762 246.476 51.5992 246.364 51.6229 246.246C51.6466 246.13 51.7579 246.053 51.8764 246.077L53.1452 246.329C53.2613 246.353 53.3383 246.466 53.3146 246.583C53.2944 246.686 53.2044 246.757 53.1037 246.757ZM251.888 246.14C251.787 246.14 251.697 246.067 251.676 245.964C251.654 245.847 251.731 245.734 251.848 245.712L253.119 245.471C253.237 245.45 253.349 245.526 253.372 245.643C253.394 245.76 253.317 245.873 253.2 245.895L251.929 246.136C251.916 246.139 251.903 246.14 251.888 246.14ZM48.8745 245.916C48.8602 245.916 48.846 245.914 48.8318 245.911L47.563 245.658C47.4469 245.635 47.3699 245.522 47.3936 245.405C47.4173 245.287 47.5287 245.21 47.6471 245.235L48.9159 245.488C49.032 245.511 49.109 245.624 49.0853 245.741C49.0652 245.844 48.9763 245.916 48.8745 245.916ZM44.6464 245.074C44.6322 245.074 44.618 245.073 44.6038 245.069L43.335 244.816C43.2189 244.793 43.1419 244.68 43.1656 244.563C43.1893 244.447 43.3006 244.369 43.4191 244.393L44.6879 244.646C44.804 244.669 44.881 244.782 44.8573 244.899C44.8371 245.003 44.7471 245.074 44.6464 245.074ZM40.4172 244.233C40.403 244.233 40.3887 244.232 40.3745 244.228L39.1058 243.976C38.9897 243.952 38.9127 243.839 38.9363 243.722C38.9589 243.606 39.0714 243.528 39.1899 243.553L40.4586 243.805C40.5747 243.829 40.6517 243.941 40.628 244.059C40.6079 244.162 40.5179 244.233 40.4172 244.233ZM253.787 243.375C253.787 243.375 253.786 243.375 253.787 243.375C253.668 243.375 253.572 243.277 253.572 243.158L253.573 242.376L253.572 241.864C253.572 241.744 253.668 241.648 253.786 241.648H253.787C253.906 241.648 254.003 241.744 254.003 241.863L254.004 242.375L254.003 243.159C254.002 243.279 253.906 243.375 253.787 243.375ZM37.542 242.222C37.4283 242.222 37.3323 242.132 37.3264 242.017C37.3063 241.602 37.2861 241.169 37.2672 240.722C37.2624 240.604 37.3536 240.503 37.4733 240.497C37.5941 240.493 37.6925 240.583 37.6984 240.703C37.7185 241.149 37.7387 241.581 37.7576 241.996C37.7635 242.114 37.6711 242.216 37.5527 242.222C37.5491 242.222 37.5456 242.222 37.542 242.222ZM253.754 239.06C253.637 239.06 253.541 238.966 253.539 238.849C253.53 238.417 253.521 237.987 253.509 237.558C253.507 237.438 253.6 237.339 253.719 237.336C253.849 237.328 253.937 237.427 253.94 237.546C253.951 237.977 253.962 238.408 253.97 238.84C253.972 238.959 253.877 239.059 253.759 239.061C253.757 239.06 253.755 239.06 253.754 239.06ZM37.356 237.91C37.2411 237.91 37.1451 237.818 37.1404 237.702L37.0918 236.407C37.0871 236.289 37.1807 236.188 37.2991 236.184C37.4129 236.18 37.5183 236.273 37.5219 236.392L37.5704 237.686C37.5752 237.804 37.4828 237.905 37.3631 237.91C37.3619 237.91 37.3596 237.91 37.356 237.91ZM253.623 234.749C253.508 234.749 253.412 234.657 253.407 234.541C253.389 234.111 253.37 233.681 253.35 233.252C253.344 233.134 253.437 233.032 253.555 233.027C253.674 233.017 253.776 233.113 253.78 233.232C253.8 233.662 253.819 234.093 253.837 234.523C253.842 234.642 253.75 234.743 253.631 234.747C253.629 234.749 253.626 234.749 253.623 234.749ZM37.2079 233.596C37.0918 233.596 36.9959 233.504 36.9923 233.387L36.9544 232.093C36.9509 231.973 37.0444 231.874 37.1641 231.871C37.2861 231.873 37.3821 231.961 37.3856 232.081L37.4235 233.374C37.4271 233.493 37.3335 233.593 37.215 233.596C37.2127 233.596 37.2103 233.596 37.2079 233.596ZM253.401 230.442C253.289 230.442 253.193 230.354 253.187 230.239C253.161 229.808 253.132 229.377 253.104 228.948C253.096 228.829 253.186 228.726 253.304 228.718C253.427 228.716 253.526 228.8 253.534 228.918C253.562 229.349 253.591 229.779 253.617 230.212C253.624 230.331 253.534 230.434 253.415 230.441C253.411 230.441 253.406 230.442 253.401 230.442ZM37.0966 229.281C36.9793 229.281 36.8833 229.188 36.881 229.07L36.8549 227.774C36.8525 227.656 36.9473 227.557 37.067 227.555C37.1807 227.545 37.2837 227.647 37.2861 227.767L37.3122 229.061C37.3145 229.18 37.2198 229.279 37.1013 229.281C37.1001 229.281 37.0989 229.281 37.0966 229.281ZM253.096 226.136C252.984 226.136 252.889 226.05 252.881 225.938C252.847 225.506 252.811 225.077 252.775 224.647C252.764 224.529 252.853 224.425 252.971 224.414C253.087 224.4 253.194 224.492 253.205 224.611C253.241 225.04 253.277 225.47 253.312 225.902C253.322 226.021 253.233 226.125 253.115 226.134C253.107 226.136 253.102 226.136 253.096 226.136ZM37.0255 224.965C36.907 224.965 36.8111 224.87 36.8099 224.752L36.7957 223.456C36.7945 223.337 36.8904 223.239 37.0089 223.238C37.0101 223.238 37.0101 223.238 37.0113 223.238C37.1297 223.238 37.2257 223.333 37.2269 223.451L37.2411 224.746C37.2423 224.864 37.1475 224.963 37.0279 224.964C37.0267 224.965 37.0255 224.965 37.0255 224.965ZM252.713 221.835C252.603 221.835 252.509 221.752 252.499 221.641C252.456 221.21 252.413 220.781 252.369 220.353C252.358 220.234 252.444 220.129 252.561 220.116C252.681 220.104 252.785 220.189 252.798 220.308C252.842 220.736 252.886 221.166 252.927 221.597C252.939 221.715 252.853 221.821 252.734 221.833C252.726 221.835 252.719 221.835 252.713 221.835ZM36.9947 220.649C36.8762 220.649 36.7791 220.553 36.7791 220.433L36.7779 219.692V219.14C36.7779 219.021 36.875 218.924 36.9935 218.924C37.1132 218.924 37.2091 219.02 37.2091 219.14V219.694L37.2103 220.435C37.2103 220.552 37.1143 220.649 36.9947 220.649C36.9959 220.649 36.9947 220.649 36.9947 220.649ZM252.257 217.543C252.149 217.543 252.055 217.462 252.042 217.352C251.993 216.921 251.943 216.492 251.892 216.066C251.878 215.948 251.962 215.841 252.08 215.827C252.202 215.81 252.305 215.897 252.32 216.015C252.371 216.442 252.42 216.872 252.47 217.303C252.484 217.422 252.399 217.528 252.281 217.543C252.273 217.541 252.265 217.543 252.257 217.543ZM37.0113 216.336C37.0101 216.336 37.0101 216.336 37.0089 216.336C36.8904 216.334 36.7945 216.237 36.7957 216.117C36.7992 215.687 36.804 215.257 36.8099 214.824C36.8111 214.705 36.907 214.61 37.0255 214.61C37.0267 214.61 37.0267 214.61 37.0279 214.61C37.1463 214.612 37.2423 214.71 37.2411 214.829C37.2352 215.26 37.2304 215.692 37.2269 216.121C37.2257 216.24 37.1286 216.336 37.0113 216.336ZM251.732 213.258C251.625 213.258 251.533 213.178 251.519 213.07C251.463 212.64 251.406 212.212 251.348 211.787C251.333 211.669 251.416 211.561 251.533 211.544C251.654 211.528 251.759 211.612 251.776 211.729C251.833 212.154 251.89 212.583 251.946 213.013C251.962 213.132 251.879 213.24 251.76 213.255C251.751 213.256 251.742 213.258 251.732 213.258ZM37.0776 212.022C37.0764 212.022 37.0741 212.022 37.0729 212.022C36.9544 212.02 36.8596 211.921 36.862 211.801C36.8715 211.37 36.8821 210.938 36.8928 210.507C36.8952 210.387 36.9911 210.286 37.1143 210.297C37.2328 210.3 37.3276 210.399 37.324 210.518C37.3134 210.95 37.3027 211.381 37.2932 211.812C37.2897 211.928 37.1937 212.022 37.0776 212.022ZM251.142 208.981C251.037 208.981 250.944 208.904 250.929 208.796C250.866 208.365 250.803 207.938 250.739 207.515C250.722 207.398 250.803 207.287 250.921 207.27C251.039 207.254 251.148 207.334 251.166 207.451C251.23 207.874 251.293 208.302 251.355 208.733C251.373 208.851 251.291 208.96 251.173 208.977C251.162 208.979 251.152 208.981 251.142 208.981ZM37.202 207.707C37.1996 207.707 37.1973 207.707 37.1937 207.707C37.0752 207.702 36.9817 207.603 36.9864 207.484C37.0018 207.051 37.0184 206.62 37.0362 206.188C37.0409 206.069 37.1511 205.977 37.2601 205.982C37.3785 205.987 37.4709 206.088 37.4662 206.206C37.4484 206.636 37.4318 207.068 37.4164 207.5C37.4129 207.616 37.3169 207.707 37.202 207.707ZM250.488 204.713C250.384 204.713 250.293 204.637 250.275 204.532C250.206 204.101 250.136 203.675 250.066 203.255C250.047 203.137 250.127 203.026 250.244 203.007C250.364 202.987 250.473 203.067 250.492 203.185C250.562 203.606 250.63 204.033 250.7 204.464C250.719 204.582 250.639 204.693 250.521 204.712C250.511 204.712 250.5 204.713 250.488 204.713ZM37.3927 203.392C37.3892 203.392 37.3844 203.392 37.3809 203.392C37.2624 203.386 37.17 203.284 37.1771 203.166C37.2008 202.733 37.2245 202.3 37.2494 201.87C37.2565 201.751 37.356 201.66 37.4768 201.667C37.5953 201.674 37.6865 201.776 37.6794 201.895C37.6545 202.325 37.6297 202.757 37.6072 203.188C37.6024 203.303 37.5065 203.392 37.3927 203.392ZM249.773 200.455C249.67 200.455 249.578 200.382 249.561 200.278C249.485 199.846 249.41 199.421 249.334 199.003C249.313 198.885 249.391 198.773 249.508 198.753C249.626 198.731 249.738 198.81 249.758 198.927C249.833 199.346 249.909 199.771 249.985 200.203C250.005 200.32 249.927 200.432 249.809 200.453C249.797 200.454 249.786 200.455 249.773 200.455ZM37.664 199.082C37.6593 199.082 37.6534 199.082 37.6474 199.081C37.529 199.073 37.4389 198.968 37.4484 198.85C37.4804 198.417 37.5124 197.987 37.5467 197.557C37.5562 197.439 37.6569 197.354 37.7789 197.359C37.8974 197.369 37.9863 197.473 37.9768 197.592C37.9424 198.02 37.9092 198.449 37.8784 198.882C37.8702 198.996 37.7754 199.082 37.664 199.082ZM248.997 196.208C248.895 196.208 248.805 196.136 248.785 196.033C248.702 195.599 248.621 195.175 248.541 194.762C248.518 194.644 248.594 194.532 248.711 194.509C248.826 194.484 248.941 194.562 248.964 194.68C249.044 195.095 249.126 195.518 249.209 195.953C249.231 196.071 249.154 196.183 249.037 196.206C249.024 196.207 249.01 196.208 248.997 196.208ZM38.0289 194.781C38.0218 194.781 38.0147 194.781 38.0076 194.779C37.8891 194.767 37.8026 194.662 37.8145 194.543C37.8571 194.111 37.901 193.68 37.946 193.253C37.959 193.135 38.0621 193.049 38.1829 193.061C38.3014 193.074 38.3867 193.18 38.3748 193.298C38.3298 193.724 38.286 194.153 38.2433 194.585C38.2327 194.698 38.1391 194.781 38.0289 194.781ZM248.158 191.972C248.057 191.972 247.968 191.902 247.947 191.8C247.857 191.36 247.768 190.938 247.683 190.532C247.658 190.416 247.733 190.301 247.849 190.276C247.966 190.252 248.08 190.326 248.105 190.442C248.19 190.847 248.279 191.271 248.37 191.712C248.394 191.828 248.319 191.943 248.203 191.967C248.188 191.97 248.172 191.972 248.158 191.972ZM38.5146 190.493C38.5051 190.493 38.4957 190.492 38.4862 190.491C38.3677 190.475 38.2848 190.367 38.3002 190.249C38.3559 189.816 38.4151 189.388 38.4743 188.962C38.4909 188.845 38.5999 188.764 38.7184 188.778C38.8356 188.795 38.9186 188.904 38.902 189.023C38.8416 189.446 38.7835 189.873 38.7278 190.303C38.7148 190.414 38.6212 190.493 38.5146 190.493ZM246.775 188.214C246.767 188.214 246.759 188.214 246.751 188.213C246.335 188.164 245.907 188.116 245.466 188.068C245.348 188.055 245.263 187.948 245.276 187.83C245.289 187.711 245.392 187.626 245.514 187.639C245.956 187.688 246.384 187.736 246.8 187.785C246.919 187.799 247.003 187.906 246.99 188.024C246.977 188.133 246.883 188.214 246.775 188.214ZM242.487 187.767C242.48 187.767 242.474 187.767 242.467 187.766C242.046 187.727 241.617 187.689 241.179 187.65C241.061 187.639 240.973 187.535 240.984 187.416C240.994 187.297 241.1 187.211 241.217 187.22C241.655 187.258 242.085 187.297 242.506 187.337C242.624 187.347 242.712 187.453 242.701 187.571C242.691 187.683 242.597 187.767 242.487 187.767ZM238.19 187.404C238.184 187.404 238.18 187.404 238.174 187.403C237.751 187.371 237.321 187.338 236.885 187.307C236.766 187.299 236.676 187.196 236.686 187.076C236.694 186.957 236.799 186.869 236.917 186.877C237.354 186.909 237.784 186.941 238.208 186.973C238.326 186.982 238.415 187.085 238.407 187.204C238.396 187.319 238.303 187.404 238.19 187.404ZM233.889 187.101C233.884 187.101 233.879 187.101 233.874 187.101L232.584 187.018C232.466 187.011 232.376 186.907 232.383 186.789C232.39 186.67 232.487 186.582 232.612 186.587L233.903 186.67C234.021 186.679 234.111 186.781 234.104 186.9C234.096 187.013 234.001 187.101 233.889 187.101ZM229.585 186.839C229.58 186.839 229.577 186.839 229.573 186.839L228.282 186.766C228.163 186.76 228.072 186.658 228.078 186.539C228.084 186.419 228.186 186.331 228.305 186.335L229.598 186.407C229.716 186.413 229.808 186.516 229.8 186.635C229.793 186.75 229.699 186.839 229.585 186.839ZM225.279 186.61C225.275 186.61 225.271 186.61 225.268 186.61L223.977 186.547C223.858 186.541 223.766 186.44 223.772 186.32C223.778 186.202 223.881 186.109 223.997 186.115L225.289 186.178C225.408 186.184 225.5 186.285 225.494 186.405C225.488 186.52 225.394 186.61 225.279 186.61ZM220.972 186.407C220.969 186.407 220.966 186.407 220.963 186.407L219.67 186.351C219.552 186.347 219.46 186.246 219.464 186.126C219.469 186.007 219.576 185.916 219.689 185.92L220.982 185.975C221.1 185.98 221.193 186.081 221.188 186.201C221.182 186.317 221.087 186.407 220.972 186.407ZM216.665 186.227C216.663 186.227 216.659 186.227 216.657 186.227L215.364 186.177C215.246 186.172 215.152 186.073 215.157 185.953C215.162 185.833 215.271 185.736 215.381 185.745L216.673 185.795C216.792 185.8 216.885 185.901 216.881 186.019C216.875 186.135 216.78 186.227 216.665 186.227ZM39.1579 186.224C39.146 186.224 39.133 186.223 39.1212 186.221C39.0039 186.201 38.9257 186.089 38.9458 185.972L39.0181 185.564C39.0844 185.192 39.3913 184.928 39.7632 184.924L39.8758 184.922C40.0073 184.906 40.0926 185.015 40.0949 185.135C40.0973 185.253 40.0014 185.352 39.8829 185.354L39.7703 185.355C39.6045 185.358 39.473 185.471 39.4434 185.64L39.3723 186.045C39.3522 186.151 39.2609 186.224 39.1579 186.224ZM212.355 186.066C212.353 186.066 212.35 186.066 212.347 186.066L211.054 186.02C210.935 186.017 210.842 185.916 210.846 185.798C210.851 185.679 210.95 185.581 211.069 185.589L212.361 185.634C212.48 185.639 212.573 185.738 212.568 185.857C212.566 185.974 212.471 186.066 212.355 186.066ZM208.047 185.921C208.044 185.921 208.042 185.921 208.039 185.921L206.747 185.881C206.628 185.877 206.535 185.777 206.538 185.659C206.542 185.54 206.639 185.453 206.761 185.45L208.054 185.49C208.172 185.494 208.266 185.594 208.262 185.713C208.257 185.83 208.161 185.921 208.047 185.921ZM203.736 185.79C203.733 185.79 203.731 185.79 203.73 185.79L202.437 185.754C202.318 185.75 202.224 185.651 202.227 185.532C202.231 185.412 202.329 185.313 202.449 185.322L203.743 185.359C203.861 185.362 203.956 185.462 203.952 185.581C203.948 185.698 203.852 185.79 203.736 185.79ZM199.426 185.673C199.423 185.673 199.422 185.673 199.42 185.673L198.127 185.64C198.009 185.636 197.914 185.538 197.918 185.418C197.921 185.3 198.001 185.212 198.139 185.208L199.433 185.241C199.551 185.245 199.646 185.343 199.643 185.463C199.638 185.579 199.542 185.673 199.426 185.673ZM195.115 185.566C195.114 185.566 195.111 185.566 195.11 185.566L193.818 185.537C193.698 185.534 193.604 185.435 193.607 185.316C193.609 185.198 193.691 185.105 193.827 185.105L195.121 185.135C195.239 185.137 195.334 185.237 195.332 185.355C195.328 185.473 195.232 185.566 195.115 185.566ZM190.805 185.469C190.804 185.469 190.801 185.469 190.8 185.469L189.508 185.442C189.389 185.439 189.295 185.341 189.297 185.221C189.299 185.102 189.409 185.007 189.517 185.01L190.811 185.038C190.929 185.04 191.024 185.138 191.022 185.258C191.018 185.375 190.921 185.469 190.805 185.469ZM186.494 185.383C186.493 185.383 186.492 185.383 186.489 185.383L185.196 185.358C185.077 185.355 184.982 185.257 184.984 185.138C184.986 185.02 185.077 184.914 185.203 184.926L186.496 184.951C186.615 184.953 186.71 185.052 186.707 185.171C186.707 185.289 186.611 185.383 186.494 185.383ZM42.8978 185.316C42.7794 185.316 42.6834 185.221 42.6822 185.103C42.6811 184.984 42.7758 184.886 42.8955 184.885L44.1891 184.869C44.291 184.867 44.4059 184.963 44.4071 185.083C44.4083 185.201 44.3135 185.3 44.1939 185.301L42.9002 185.316C42.9002 185.316 42.899 185.316 42.8978 185.316ZM182.183 185.304C182.182 185.304 182.181 185.304 182.179 185.304L180.887 185.283C180.769 185.281 180.673 185.183 180.675 185.064C180.677 184.945 180.773 184.851 180.891 184.851C180.892 184.851 180.893 184.851 180.894 184.851L182.188 184.873C182.306 184.875 182.402 184.973 182.4 185.092C182.396 185.209 182.3 185.304 182.183 185.304ZM47.2124 185.265C47.0951 185.265 46.998 185.17 46.9968 185.052C46.9956 184.932 47.0904 184.835 47.21 184.834L48.5037 184.819C48.6257 184.807 48.7204 184.913 48.7216 185.033C48.7228 185.153 48.628 185.25 48.5084 185.251L47.2147 185.265C47.2136 185.265 47.2136 185.265 47.2124 185.265ZM177.872 185.233C177.871 185.233 177.87 185.233 177.868 185.233L176.575 185.213C176.455 185.211 176.36 185.113 176.363 184.994C176.365 184.874 176.449 184.774 176.582 184.781L177.876 184.802C177.994 184.804 178.09 184.901 178.088 185.021C178.085 185.139 177.989 185.233 177.872 185.233ZM51.5257 185.218C51.4073 185.218 51.3113 185.123 51.3101 185.004C51.3089 184.886 51.4037 184.787 51.5234 184.786L52.817 184.772C52.9485 184.777 53.0338 184.867 53.035 184.985C53.0362 185.104 52.9402 185.202 52.8217 185.204L51.5281 185.218C51.5269 185.218 51.5269 185.218 51.5257 185.218ZM55.8391 185.174C55.7206 185.174 55.6246 185.079 55.6235 184.96C55.6223 184.842 55.7182 184.743 55.8367 184.742L57.1304 184.729C57.263 184.738 57.3471 184.824 57.3483 184.943C57.3495 185.061 57.2536 185.16 57.1351 185.161L55.8414 185.174C55.8403 185.174 55.8403 185.174 55.8391 185.174ZM173.56 185.17C173.559 185.17 173.558 185.17 173.556 185.17L172.263 185.153C172.144 185.151 172.048 185.053 172.051 184.934C172.052 184.816 172.149 184.722 172.266 184.722C172.267 184.722 172.269 184.722 172.269 184.722L173.562 184.74C173.682 184.741 173.777 184.839 173.774 184.958C173.774 185.075 173.678 185.17 173.56 185.17ZM60.1524 185.131C60.0339 185.131 59.938 185.036 59.9368 184.918C59.9356 184.798 60.0316 184.701 60.15 184.7L61.4437 184.688C61.5764 184.698 61.6605 184.783 61.6617 184.901C61.6629 185.02 61.5669 185.118 61.4484 185.119L60.1548 185.131C60.1536 185.131 60.1536 185.131 60.1524 185.131ZM169.249 185.113C169.248 185.113 169.248 185.113 169.247 185.113L167.953 185.098C167.834 185.097 167.738 184.998 167.74 184.88C167.741 184.76 167.833 184.656 167.958 184.666L169.251 184.682C169.37 184.683 169.466 184.781 169.465 184.9C169.463 185.019 169.367 185.113 169.249 185.113ZM64.4658 185.092C64.3473 185.092 64.2513 184.996 64.2502 184.879C64.249 184.76 64.3449 184.662 64.4634 184.66L65.757 184.649C65.7582 184.649 65.7582 184.649 65.7594 184.649C65.8779 184.649 65.9738 184.745 65.975 184.862C65.9762 184.982 65.8802 185.079 65.7618 185.08L64.4681 185.092C64.467 185.092 64.4669 185.092 64.4658 185.092ZM164.938 185.064C164.937 185.064 164.937 185.064 164.936 185.064L163.642 185.049C163.523 185.048 163.428 184.951 163.429 184.831C163.43 184.711 163.534 184.612 163.647 184.618L164.94 184.632C165.06 184.633 165.155 184.732 165.154 184.85C165.152 184.969 165.055 185.064 164.938 185.064ZM68.7791 185.055C68.6606 185.055 68.5647 184.959 68.5635 184.842C68.5623 184.722 68.6583 184.625 68.7767 184.624L70.0704 184.613C70.0716 184.613 70.0716 184.613 70.0716 184.613C70.19 184.613 70.286 184.708 70.2872 184.828C70.2884 184.947 70.1924 185.045 70.0728 185.045L68.7791 185.055C68.7803 185.055 68.7791 185.055 68.7791 185.055ZM73.0913 185.022C72.9728 185.022 72.8768 184.927 72.8757 184.807C72.8745 184.689 72.9704 184.59 73.0901 184.59L74.3837 184.581C74.3849 184.581 74.3849 184.581 74.3849 184.581C74.5034 184.581 74.5993 184.677 74.6005 184.796C74.6017 184.915 74.5058 185.013 74.3861 185.013L73.0924 185.022C73.0924 185.022 73.0924 185.022 73.0913 185.022ZM160.626 185.019C160.625 185.019 160.625 185.019 160.623 185.019L159.33 185.007C159.21 185.005 159.115 184.908 159.117 184.789C159.118 184.67 159.214 184.575 159.332 184.575C159.333 184.575 159.333 184.575 159.335 184.575L160.628 184.587C160.748 184.588 160.843 184.685 160.841 184.805C160.84 184.924 160.744 185.019 160.626 185.019ZM77.4046 184.99C77.2861 184.99 77.1902 184.894 77.189 184.775C77.1878 184.657 77.2838 184.558 77.4034 184.558L78.6971 184.55C78.8144 184.539 78.9127 184.645 78.9139 184.765C78.9151 184.885 78.8191 184.981 78.6995 184.982L77.4058 184.99C77.4058 184.99 77.4058 184.99 77.4046 184.99ZM156.315 184.981C156.315 184.981 156.314 184.981 156.312 184.981L155.019 184.97C154.899 184.969 154.804 184.872 154.804 184.753C154.806 184.634 154.902 184.538 155.02 184.538C155.021 184.538 155.021 184.538 155.021 184.538L156.315 184.549C156.434 184.55 156.529 184.647 156.529 184.767C156.529 184.885 156.433 184.981 156.315 184.981ZM81.718 184.962C81.5995 184.962 81.5035 184.866 81.5023 184.747C81.5012 184.627 81.5971 184.53 81.7168 184.53L83.0104 184.522H83.0116C83.1301 184.522 83.226 184.618 83.2272 184.736C83.2284 184.856 83.1324 184.953 83.0128 184.953L81.7192 184.962C81.718 184.962 81.718 184.962 81.718 184.962ZM152.003 184.946H152.001L150.708 184.937C150.589 184.936 150.493 184.838 150.493 184.72C150.495 184.6 150.598 184.49 150.71 184.505L152.004 184.515C152.123 184.516 152.218 184.613 152.218 184.732C152.218 184.851 152.121 184.946 152.003 184.946ZM86.0301 184.937C85.9117 184.937 85.8157 184.841 85.8145 184.722C85.8133 184.602 85.9093 184.506 86.0289 184.505L87.3226 184.498H87.3238C87.4422 184.498 87.5382 184.594 87.5394 184.713C87.5406 184.832 87.4434 184.93 87.325 184.93L86.0313 184.937H86.0301ZM147.692 184.918H147.69L146.397 184.911C146.278 184.909 146.182 184.813 146.182 184.694C146.184 184.575 146.281 184.485 146.399 184.479L147.693 184.486C147.813 184.487 147.907 184.583 147.907 184.703C147.906 184.822 147.81 184.918 147.692 184.918ZM90.3435 184.913C90.225 184.913 90.129 184.817 90.1279 184.698C90.1267 184.579 90.2238 184.483 90.3423 184.481L91.6359 184.475H91.6371C91.7556 184.475 91.8516 184.572 91.8527 184.69C91.8539 184.81 91.7568 184.906 91.6383 184.907L90.3435 184.913ZM143.38 184.894L142.085 184.888C141.966 184.887 141.869 184.791 141.87 184.671C141.871 184.553 141.967 184.457 142.086 184.457H142.087L143.381 184.462C143.5 184.464 143.596 184.56 143.595 184.679C143.595 184.798 143.498 184.894 143.38 184.894ZM94.6556 184.893C94.5372 184.893 94.44 184.797 94.44 184.678C94.4388 184.56 94.536 184.462 94.6544 184.461L95.9481 184.457H95.9493C96.0677 184.457 96.1649 184.553 96.1649 184.671C96.1649 184.791 96.0689 184.887 95.9505 184.888L94.6556 184.893C94.6568 184.893 94.6556 184.893 94.6556 184.893ZM98.969 184.876C98.8505 184.876 98.7534 184.78 98.7534 184.662C98.7534 184.543 98.8493 184.446 98.9678 184.445L100.261 184.44H100.263C100.381 184.44 100.478 184.536 100.478 184.655C100.478 184.773 100.382 184.87 100.264 184.872L98.969 184.876ZM139.069 184.875L137.774 184.87C137.654 184.87 137.558 184.773 137.559 184.653C137.559 184.535 137.656 184.439 137.775 184.439H137.776L139.07 184.443C139.189 184.443 139.285 184.541 139.284 184.66C139.283 184.779 139.187 184.875 139.069 184.875ZM103.281 184.862C103.163 184.862 103.066 184.766 103.066 184.647C103.066 184.528 103.161 184.432 103.28 184.43L104.574 184.427C104.692 184.427 104.789 184.523 104.789 184.641C104.789 184.761 104.693 184.857 104.575 184.857L103.281 184.862ZM134.756 184.86L133.463 184.856C133.343 184.856 133.247 184.759 133.248 184.639C133.248 184.521 133.345 184.424 133.464 184.424H133.465L134.759 184.428C134.878 184.428 134.974 184.525 134.973 184.644C134.972 184.764 134.876 184.86 134.756 184.86ZM107.594 184.85C107.476 184.85 107.379 184.754 107.379 184.634C107.379 184.515 107.475 184.419 107.594 184.419L108.888 184.416C109.008 184.416 109.104 184.512 109.104 184.632C109.104 184.752 109.008 184.848 108.888 184.848L107.594 184.85ZM130.445 184.849C130.445 184.849 130.444 184.849 130.445 184.849L129.152 184.847C129.032 184.847 128.936 184.749 128.936 184.631C128.936 184.512 129.033 184.415 129.152 184.415L130.445 184.417C130.565 184.417 130.661 184.515 130.661 184.633C130.66 184.752 130.564 184.849 130.445 184.849ZM111.907 184.843C111.788 184.843 111.691 184.747 111.691 184.627C111.691 184.509 111.787 184.411 111.907 184.411L113.2 184.41C113.32 184.41 113.416 184.506 113.416 184.626C113.416 184.745 113.32 184.842 113.2 184.842L111.907 184.843ZM126.133 184.842L124.84 184.841C124.72 184.841 124.624 184.743 124.624 184.625C124.624 184.506 124.721 184.409 124.84 184.409L126.133 184.41C126.252 184.41 126.349 184.507 126.349 184.626C126.349 184.745 126.253 184.842 126.133 184.842ZM116.219 184.838C116.099 184.838 116.003 184.742 116.003 184.623C116.003 184.504 116.099 184.407 116.219 184.407L117.509 184.406C117.629 184.406 117.725 184.502 117.725 184.621C117.725 184.74 117.629 184.837 117.509 184.837L116.219 184.838ZM121.822 184.838H120.529C120.409 184.838 120.313 184.742 120.313 184.623C120.313 184.503 120.409 184.407 120.529 184.407H121.822C121.942 184.407 122.038 184.504 122.038 184.623C122.037 184.741 121.941 184.838 121.822 184.838Z" fill="white"/>
<path d="M161.904 283.916H133.64C129.937 283.916 126.818 281.158 126.378 277.494L123.114 250.273C122.594 245.937 125.992 242.123 130.376 242.123H164.329C168.623 242.123 171.994 245.791 171.615 250.053L169.19 277.273C168.856 281.033 165.694 283.916 161.904 283.916Z" fill="url(#paint8_linear)"/>
<mask id="mask0" mask-type="alpha" maskUnits="userSpaceOnUse" x="128" y="247" width="38" height="32">
<path d="M158.428 278.909H136.917C134.098 278.909 131.724 276.81 131.39 274.022L128.904 253.304C128.509 250.004 131.096 247.1 134.432 247.1H160.274C163.542 247.1 166.108 249.892 165.819 253.136L163.974 273.854C163.718 276.714 161.312 278.909 158.428 278.909Z" fill="url(#paint9_linear)"/>
</mask>
<g mask="url(#mask0)">
<path d="M158.428 278.909H136.917C134.098 278.909 131.724 276.81 131.39 274.022L128.904 253.304C128.509 250.004 131.096 247.1 134.432 247.1H160.274C163.542 247.1 166.108 249.892 165.819 253.136L163.974 273.854C163.718 276.714 161.312 278.909 158.428 278.909Z" fill="url(#paint10_linear)"/>
</g>
<path d="M266.738 330.231C260.133 330.536 253.738 330.343 249.468 330.124C253.355 327.354 262.311 321.33 269.805 318.931L274.949 318.623C274.949 318.623 276.692 321.276 277.315 327.348C276.462 328.413 273.971 329.898 266.738 330.231Z" fill="url(#paint11_linear)"/>
<path d="M249.415 330.162C249.432 330.15 249.45 330.137 249.468 330.124C253.738 330.343 260.133 330.534 266.738 330.231C273.969 329.898 276.462 328.413 277.315 327.348C277.343 327.628 277.373 327.906 277.397 328.2C277.503 329.532 276.515 330.703 275.184 330.803C269.773 331.212 256.358 332.14 249.89 331.801C249.036 331.756 248.72 330.658 249.415 330.162Z" fill="url(#paint12_linear)"/>
<path d="M313.988 328.46C314.472 325.356 315.248 320.868 315.847 319.722C316.788 317.922 320.006 319.722 320.006 319.722C320.006 319.722 322.267 320.776 323.306 322.534C323.969 323.655 325.802 326.843 327.044 329.008C327.188 329.257 327.247 329.522 327.24 329.779L314.351 330.231C314.036 329.724 313.888 329.107 313.988 328.46Z" fill="url(#paint13_linear)"/>
<path d="M327.24 329.779C327.219 330.517 326.635 331.184 325.811 331.207L316.629 331.459C315.659 331.486 314.819 330.981 314.351 330.23L327.24 329.779Z" fill="url(#paint14_linear)"/>
<path d="M313.003 309.405C313.114 309.777 314.78 317.859 315.508 321.405C315.71 322.386 316.592 323.074 317.591 323.024C318.136 322.997 318.771 322.948 319.437 322.862C320.618 322.709 321.517 321.722 321.562 320.532C321.681 317.425 321.739 311.46 320.599 309.149C319.027 305.959 313.003 309.405 313.003 309.405Z" fill="url(#paint15_linear)"/>
<path d="M275.961 311.718C275.247 311.696 276.246 315.409 275.165 319.06C274.921 319.883 274.306 320.53 273.448 320.541C272.893 320.548 272.233 320.538 271.565 320.484C270.559 320.404 269.75 319.622 269.656 318.617L268.777 309.148L275.961 311.718Z" fill="url(#paint16_linear)"/>
<path d="M255.98 211.061C256.299 212.614 267.553 278.314 268.236 312.311C268.248 312.881 268.666 313.359 269.231 313.437C270.66 313.637 273.442 313.893 276.14 313.392C276.509 313.324 276.788 313.019 276.811 312.644C277.205 306.309 280.368 252.743 276.494 227.528C276.494 227.528 308.493 294.933 313.343 313.519C313.461 313.971 313.876 314.276 314.341 314.251C315.712 314.179 318.562 313.932 320.825 313.098C321.637 312.8 322.099 311.946 321.894 311.106C319.183 299.983 300.192 223.348 287.297 206.464L255.98 211.061Z" fill="url(#paint17_linear)"/>
<path d="M276.493 227.949C276.598 227.949 276.705 227.908 276.787 227.829C276.952 227.667 276.956 227.401 276.794 227.235L272.509 222.849C272.347 222.683 272.081 222.681 271.915 222.842C271.749 223.004 271.747 223.271 271.908 223.436L276.193 227.822C276.275 227.906 276.384 227.949 276.493 227.949Z" fill="url(#paint18_linear)"/>
<path d="M245.157 126.277C254.731 124.837 273.519 122.773 285.776 126.372L284.447 164.285L240.044 159.494L236.278 154.136C236.277 154.134 238.022 127.35 245.157 126.277Z" fill="url(#paint19_linear)"/>
<path d="M267.273 105.98C267.273 105.98 268.16 121.06 267.992 125.751C267.992 125.751 255.657 127.771 252.721 125.659L255.041 107.784L267.273 105.98Z" fill="url(#paint20_linear)"/>
<path d="M255.281 90.8765C255.281 90.8765 250.315 99.6021 249.531 104.378C248.747 109.154 247.377 112.16 252.823 113.726C258.27 115.292 263.243 113.028 266.292 108.515C266.292 108.515 271.054 101.568 270.489 98.452C269.924 95.3348 255.281 90.8765 255.281 90.8765Z" fill="url(#paint21_linear)"/>
<path d="M264.766 104.869L264.064 104.793C264.064 104.793 267.595 99.1693 265.166 97.852C262.738 96.5358 252.895 93.3973 251.109 89.5887C249.387 85.9178 251.732 81.6682 254.658 80.7243C254.843 80.665 255.043 80.7706 255.114 80.9508L255.298 81.4144C255.425 81.7322 255.871 81.7334 256.002 81.418C256.125 81.118 256.548 81.0955 256.689 81.3871C257.238 82.5278 258.851 84.4593 263.582 85.8715C270.296 87.8742 274.525 91.1373 274.126 95.8861C274.101 96.1872 274.403 96.3864 274.677 96.2584C275.216 96.0046 276.04 95.9465 277.023 96.9734C278.734 98.7591 277.522 102.781 273.037 105.714C272.824 105.854 272.793 106.16 272.99 106.322C273.685 106.89 274.674 108.168 271.621 109.401C268.499 110.662 266.769 110.302 266.128 110.062C265.955 109.998 265.853 109.823 265.884 109.642L266.595 105.471C266.632 105.256 266.479 105.054 266.262 105.03L264.766 104.869Z" fill="url(#paint22_linear)"/>
<path d="M264.499 105.73C264.499 105.73 266.647 100.046 269.091 101.968C271.534 103.89 267.027 108.373 264.897 108.366L264.499 105.73Z" fill="url(#paint23_linear)"/>
<path d="M211.314 155.936L212.491 151.303C213.074 149.011 215.351 147.581 217.666 148.054L328.556 170.698C331.082 171.213 332.704 173.688 332.172 176.212L325.411 208.287L211.314 155.936Z" fill="url(#paint24_linear)"/>
<path d="M200.8 212.2L209.14 152.203C209.313 150.962 210.506 150.132 211.729 150.404L325.622 175.718C328.053 176.259 329.577 178.678 329.018 181.106L319.459 222.578L200.8 212.2Z" fill="#BDD0FB"/>
<path d="M203.808 209.481L207.003 155.929C207.085 154.553 208.371 153.571 209.719 153.857L324.81 178.233C326.433 178.576 327.502 180.132 327.242 181.772L321.112 220.456L203.808 209.481Z" fill="url(#paint25_linear)"/>
<path d="M195.472 222.14L202.717 164.136C203.078 161.245 205.801 159.258 208.662 159.799L326.679 182.094C329.072 182.545 330.646 184.854 330.195 187.249L320.227 240.107C319.757 242.601 317.419 244.291 314.907 243.956L200.498 228.664C197.316 228.237 195.073 225.326 195.472 222.14Z" fill="url(#paint26_linear)"/>
<path d="M250.189 167.643C249.724 170.105 247.355 171.723 244.897 171.258L218.583 166.288C216.124 165.823 214.507 163.452 214.971 160.991C215.435 158.53 217.805 156.911 220.263 157.376L246.577 162.347C249.036 162.81 250.653 165.182 250.189 167.643Z" fill="url(#paint27_linear)"/>
<path d="M273.39 142.903L285.776 126.372C285.776 126.372 305.677 147.532 309.495 174.39L297.081 180.449C293.227 171.406 286.135 159.154 273.39 142.903Z" fill="url(#paint28_linear)"/>
<path d="M291.135 217.373C292.603 214.917 295.467 210.239 296.861 208.779C296.861 208.779 295.587 207.974 293.143 208.274C290.7 208.574 288.786 207.381 288.859 206.051L300.518 202.471C301.041 201.376 303.348 195.16 297.08 180.449L309.494 174.39C310.924 184.445 310.103 195.297 305.134 206.138C305.134 206.138 301.279 218.122 296.85 220.781C285.291 227.721 290.571 218.316 291.135 217.373Z" fill="url(#paint29_linear)"/>
<defs>
<linearGradient id="paint0_linear" x1="367.249" y1="421.082" x2="77.8962" y2="62.0438" gradientUnits="userSpaceOnUse">
<stop stop-color="#DAE3FE"/>
<stop offset="1" stop-color="#E9EFFD"/>
</linearGradient>
<linearGradient id="paint1_linear" x1="143.765" y1="325.51" x2="146.542" y2="224.813" gradientUnits="userSpaceOnUse">
<stop stop-color="#4F52FF"/>
<stop offset="1" stop-color="#4042E2"/>
</linearGradient>
<linearGradient id="paint2_linear" x1="101.088" y1="194.38" x2="99.781" y2="162.723" gradientUnits="userSpaceOnUse">
<stop stop-color="#09005D"/>
<stop offset="1" stop-color="#1A0F91"/>
</linearGradient>
<linearGradient id="paint3_linear" x1="99.4363" y1="146.851" x2="105.969" y2="237.579" gradientUnits="userSpaceOnUse">
<stop stop-color="#09005D"/>
<stop offset="1" stop-color="#1A0F91"/>
</linearGradient>
<linearGradient id="paint4_linear" x1="189.206" y1="190.743" x2="187.899" y2="159.086" gradientUnits="userSpaceOnUse">
<stop stop-color="#09005D"/>
<stop offset="1" stop-color="#1A0F91"/>
</linearGradient>
<linearGradient id="paint5_linear" x1="187.317" y1="140.523" x2="193.85" y2="231.25" gradientUnits="userSpaceOnUse">
<stop stop-color="#09005D"/>
<stop offset="1" stop-color="#1A0F91"/>
</linearGradient>
<linearGradient id="paint6_linear" x1="151.12" y1="96.3416" x2="142.301" y2="160.959" gradientUnits="userSpaceOnUse">
<stop stop-color="#4F52FF"/>
<stop offset="1" stop-color="#4042E2"/>
</linearGradient>
<linearGradient id="paint7_linear" x1="153.776" y1="146.666" x2="121.438" y2="448.217" gradientUnits="userSpaceOnUse">
<stop stop-color="#4F52FF"/>
<stop offset="1" stop-color="#4042E2"/>
</linearGradient>
<linearGradient id="paint8_linear" x1="123.061" y1="263.019" x2="171.644" y2="263.019" gradientUnits="userSpaceOnUse">
<stop stop-color="#09005D"/>
<stop offset="1" stop-color="#1A0F91"/>
</linearGradient>
<linearGradient id="paint9_linear" x1="128.864" y1="263.004" x2="165.841" y2="263.004" gradientUnits="userSpaceOnUse">
<stop stop-color="white"/>
<stop offset="1"/>
</linearGradient>
<linearGradient id="paint10_linear" x1="49.0001" y1="407.947" x2="157.856" y2="246.294" gradientUnits="userSpaceOnUse">
<stop stop-color="#09005D"/>
<stop offset="1" stop-color="#1A0F91"/>
</linearGradient>
<linearGradient id="paint11_linear" x1="260.499" y1="401.102" x2="258.515" y2="450.657" gradientUnits="userSpaceOnUse">
<stop stop-color="#09005D"/>
<stop offset="1" stop-color="#1A0F91"/>
</linearGradient>
<linearGradient id="paint12_linear" x1="263.219" y1="330.619" x2="263.219" y2="220.011" gradientUnits="userSpaceOnUse">
<stop stop-color="#09005D"/>
<stop offset="1" stop-color="#1A0F91"/>
</linearGradient>
<linearGradient id="paint13_linear" x1="317.637" y1="403.389" x2="315.653" y2="452.945" gradientUnits="userSpaceOnUse">
<stop stop-color="#09005D"/>
<stop offset="1" stop-color="#1A0F91"/>
</linearGradient>
<linearGradient id="paint14_linear" x1="320.795" y1="330.619" x2="320.795" y2="220.009" gradientUnits="userSpaceOnUse">
<stop stop-color="#09005D"/>
<stop offset="1" stop-color="#1A0F91"/>
</linearGradient>
<linearGradient id="paint15_linear" x1="321.622" y1="315.41" x2="313.003" y2="315.41" gradientUnits="userSpaceOnUse">
<stop stop-color="#FEBBBA"/>
<stop offset="1" stop-color="#FF928E"/>
</linearGradient>
<linearGradient id="paint16_linear" x1="275.961" y1="314.846" x2="268.777" y2="314.846" gradientUnits="userSpaceOnUse">
<stop stop-color="#FEBBBA"/>
<stop offset="1" stop-color="#FF928E"/>
</linearGradient>
<linearGradient id="paint17_linear" x1="321.529" y1="125.198" x2="286.826" y2="270.049" gradientUnits="userSpaceOnUse">
<stop stop-color="#09005D"/>
<stop offset="1" stop-color="#1A0F91"/>
</linearGradient>
<linearGradient id="paint18_linear" x1="258.098" y1="204.304" x2="287.533" y2="242.325" gradientUnits="userSpaceOnUse">
<stop stop-color="#CB236D"/>
<stop offset="1" stop-color="#4C246D"/>
</linearGradient>
<linearGradient id="paint19_linear" x1="-127.569" y1="571.14" x2="-175.093" y2="622.697" gradientUnits="userSpaceOnUse">
<stop stop-color="#09005D"/>
<stop offset="1" stop-color="#1A0F91"/>
</linearGradient>
<linearGradient id="paint20_linear" x1="260.964" y1="133.826" x2="259.838" y2="112.846" gradientUnits="userSpaceOnUse">
<stop stop-color="#FEBBBA"/>
<stop offset="1" stop-color="#FF928E"/>
</linearGradient>
<linearGradient id="paint21_linear" x1="253.58" y1="98.8453" x2="274.485" y2="118.71" gradientUnits="userSpaceOnUse">
<stop stop-color="#FEBBBA"/>
<stop offset="1" stop-color="#FF928E"/>
</linearGradient>
<linearGradient id="paint22_linear" x1="271.051" y1="86.8072" x2="247.562" y2="111.127" gradientUnits="userSpaceOnUse">
<stop stop-color="#09005D"/>
<stop offset="1" stop-color="#1A0F91"/>
</linearGradient>
<linearGradient id="paint23_linear" x1="256.801" y1="95.4567" x2="277.705" y2="115.321" gradientUnits="userSpaceOnUse">
<stop stop-color="#FEBBBA"/>
<stop offset="1" stop-color="#FF928E"/>
</linearGradient>
<linearGradient id="paint24_linear" x1="214.914" y1="101.502" x2="378.337" y2="282.757" gradientUnits="userSpaceOnUse">
<stop stop-color="#FF928E"/>
<stop offset="1" stop-color="#FE7062"/>
</linearGradient>
<linearGradient id="paint25_linear" x1="268.936" y1="155.688" x2="255.585" y2="252.255" gradientUnits="userSpaceOnUse">
<stop stop-color="#DAE3FE"/>
<stop offset="1" stop-color="#E9EFFD"/>
</linearGradient>
<linearGradient id="paint26_linear" x1="277.732" y1="183.78" x2="169.456" y2="304.637" gradientUnits="userSpaceOnUse">
<stop stop-color="#FF928E"/>
<stop offset="1" stop-color="#FE7062"/>
</linearGradient>
<linearGradient id="paint27_linear" x1="243.001" y1="152.664" x2="134.725" y2="273.521" gradientUnits="userSpaceOnUse">
<stop stop-color="#FF928E"/>
<stop offset="1" stop-color="#FE7062"/>
</linearGradient>
<linearGradient id="paint28_linear" x1="-107.012" y1="590.151" x2="-154.539" y2="641.712" gradientUnits="userSpaceOnUse">
<stop stop-color="#09005D"/>
<stop offset="1" stop-color="#1A0F91"/>
</linearGradient>
<linearGradient id="paint29_linear" x1="306.589" y1="186.104" x2="362.906" y2="96.5516" gradientUnits="userSpaceOnUse">
<stop stop-color="#FEBBBA"/>
<stop offset="1" stop-color="#FF928E"/>
</linearGradient>
</defs>
</svg>
