<?xml version="1.0" encoding="utf-8"?>
<!-- Generator: Adobe Illustrator 25.0.0, SVG Export Plug-In . SVG Version: 6.00 Build 0)  -->
<svg version="1.1" id="Layer_1" xmlns="http://www.w3.org/2000/svg" xmlns:xlink="http://www.w3.org/1999/xlink" x="0px" y="0px"
	 viewBox="0 0 458 663.8" style="enable-background:new 0 0 458 663.8;" xml:space="preserve">
<style type="text/css">
	.st0{filter:url(#Adobe_OpacityMaskFilter);}
	.st1{fill-rule:evenodd;clip-rule:evenodd;fill:#FFFFFF;}
	.st2{mask:url(#e1pfd8f6ib_14_);}
	.st3{enable-background:new    ;}
	.st4{fill:#FFFFFF;}
	.st5{font-family:'Nunito-Bold';}
	.st6{font-size:20px;}
	.st7{fill:#1F2343;}
	.st8{filter:url(#Adobe_OpacityMaskFilter_1_);}
	.st9{mask:url(#e1pfd8f6ib_13_);}
	.st10{fill-rule:evenodd;clip-rule:evenodd;fill:#10C9B9;}
	.st11{fill-rule:evenodd;clip-rule:evenodd;}
	.st12{font-family:'Nunito-Regular';}
	.st13{font-size:14px;}
	.st14{filter:url(#Adobe_OpacityMaskFilter_2_);}
	.st15{mask:url(#e1pfd8f6ib_12_);}
	.st16{fill-rule:evenodd;clip-rule:evenodd;fill:#3A5EDD;}
	.st17{filter:url(#Adobe_OpacityMaskFilter_3_);}
	.st18{mask:url(#e1pfd8f6ib_10_);}
	.st19{filter:url(#Adobe_OpacityMaskFilter_4_);}
	.st20{mask:url(#e1pfd8f6ib_9_);}
	.st21{filter:url(#Adobe_OpacityMaskFilter_5_);}
	.st22{mask:url(#e1pfd8f6ib_6_);}
	.st23{filter:url(#Adobe_OpacityMaskFilter_6_);}
	.st24{mask:url(#e1pfd8f6ib_5_);}
</style>
<defs>
	<filter id="Adobe_OpacityMaskFilter" filterUnits="userSpaceOnUse" x="194.7" y="58" width="25" height="22.6">
		<feColorMatrix  type="matrix" values="1 0 0 0 0  0 1 0 0 0  0 0 1 0 0  0 0 0 1 0"/>
	</filter>
</defs>
<mask maskUnits="userSpaceOnUse" x="194.7" y="58" width="25" height="22.6" id="e1pfd8f6ib_14_">
	<g class="st0">
		<circle id="nzo1tz9nda_14_" class="st1" cx="208.3" cy="302" r="229"/>
	</g>
</mask>
<g class="st2">
	<g>
		<g class="st3">
			<text transform="matrix(1 0 0 1 194.7156 75.05)" class="st4 st5 st6">P1</text>
		</g>
	</g>
</g>
<path class="st7" d="M198.6,116.7l-5.8,12l-5.8-12H198.6z M193.6,111v3h-1.5v-3H193.6z M193.6,105v3h-1.5v-3H193.6z M193.6,99v3
	h-1.5v-3H193.6z M193.6,93v3h-1.5v-3H193.6z"/>
<defs>
	<filter id="Adobe_OpacityMaskFilter_1_" filterUnits="userSpaceOnUse" x="157.3" y="130" width="169.9" height="70">
		<feColorMatrix  type="matrix" values="1 0 0 0 0  0 1 0 0 0  0 0 1 0 0  0 0 0 1 0"/>
	</filter>
</defs>
<mask maskUnits="userSpaceOnUse" x="157.3" y="130" width="169.9" height="70" id="e1pfd8f6ib_13_">
	<g class="st8">
		<circle id="nzo1tz9nda_13_" class="st1" cx="208.3" cy="302" r="229"/>
	</g>
</mask>
<g class="st9">
	<g>
		<g transform="translate(178 57)">
			<circle class="st10" cx="14.3" cy="108" r="35"/>
			<g transform="translate(23 23)">
				<g>
					<path id="cdywg28x6d" class="st11" d="M-8.7,73c-6.6,0-12,5.4-12,12c0,6.6,5.4,12,12,12s12-5.4,12-12C3.3,78.4-2.1,73.1-8.7,73
						z M-3.7,85.7c-0.1,0.2-0.2,0.3-0.4,0.4v0l-6.8,3.4c-0.4,0.2-0.9,0-1.1-0.4c-0.1-0.1-0.1-0.3-0.1-0.4v-6.8
						c0-0.5,0.4-0.9,0.9-0.9c0.1,0,0.3,0,0.4,0.1l6.8,3.4C-3.7,84.8-3.5,85.3-3.7,85.7z"/>
				</g>
				<g>
					<path id="cdywg28x6d_1_" class="st1" d="M-8.7,73c-6.6,0-12,5.4-12,12c0,6.6,5.4,12,12,12s12-5.4,12-12
						C3.3,78.4-2.1,73.1-8.7,73z M-3.7,85.7c-0.1,0.2-0.2,0.3-0.4,0.4v0l-6.8,3.4c-0.4,0.2-0.9,0-1.1-0.4c-0.1-0.1-0.1-0.3-0.1-0.4
						v-6.8c0-0.5,0.4-0.9,0.9-0.9c0.1,0,0.3,0,0.4,0.1l6.8,3.4C-3.7,84.8-3.5,85.3-3.7,85.7z"/>
				</g>
			</g>
		</g>
		<g>
			<g class="st3">
				<text transform="matrix(1 0 0 1 241.3156 167.0499)" class="st7 st12 st13">Sub Topic 1.1</text>
			</g>
		</g>
	</g>
</g>
<path class="st7" d="M198.6,226.7l-5.8,12l-5.8-12H198.6z M193.6,221v3h-1.5v-3H193.6z M193.6,215v3h-1.5v-3H193.6z M193.6,209v3
	h-1.5v-3H193.6z M193.6,203v3h-1.5v-3H193.6z"/>
<defs>
	<filter id="Adobe_OpacityMaskFilter_2_" filterUnits="userSpaceOnUse" x="157.3" y="240" width="169.9" height="70">
		<feColorMatrix  type="matrix" values="1 0 0 0 0  0 1 0 0 0  0 0 1 0 0  0 0 0 1 0"/>
	</filter>
</defs>
<mask maskUnits="userSpaceOnUse" x="157.3" y="240" width="169.9" height="70" id="e1pfd8f6ib_12_">
	<g class="st14">
		<circle id="nzo1tz9nda_12_" class="st1" cx="208.3" cy="302" r="229"/>
	</g>
</mask>
<g class="st15">
	<g>
		<g transform="translate(178 167)">
			<circle class="st10" cx="14.3" cy="108" r="35"/>
			<g>
				<path class="st1" d="M25.5,98.3c-6.4-2.6-9.8,0.2-11.3,2.1c-1.4-1.7-4.3-4.2-9.7-2.6c-0.6,0.2-1.1,0.4-1.6,0.6
					c-0.1,0.1-0.2,0.1-0.3,0.2c-0.1,0.1-0.1,0.1-0.1,0.2c0,0.1-0.1,0.1-0.1,0.2c0,0.1-0.1,0.2-0.1,0.4v15.9c0,0.1,0,0.2,0.1,0.3v0.1
					c0.2,0.4,0.5,0.6,0.9,0.6c0.1,0,0.3,0,0.4-0.1c7.1-2.9,9.5,2.2,9.6,2.4c0,0,0,0.1,0.1,0.1c0,0.1,0.1,0.1,0.1,0.2
					c0,0,0.1,0.1,0.1,0.1c0,0,0.1,0.1,0.1,0.1l0.2,0.1c0.1,0,0.1,0,0.2,0c0,0,0.1,0,0.1,0c0,0,0.1,0,0.1,0c0.1,0,0.1,0,0.2,0
					l0.2-0.1c0.1,0,0.1-0.1,0.1-0.1c0,0,0.1-0.1,0.1-0.1c0.1-0.1,0.1-0.1,0.1-0.2l0.1-0.1c0.1-0.3,2.4-5.4,9.6-2.4
					c0.3,0.1,0.7,0.1,0.9-0.1c0.3-0.2,0.4-0.5,0.4-0.8V99.2C26.1,98.8,25.9,98.5,25.5,98.3L25.5,98.3z M4.3,113.7V99.9
					c0.2-0.1,0.4-0.2,0.6-0.2c0.2-0.1,0.3-0.1,0.4-0.1c0.3-0.1,0.5-0.1,0.7-0.2c0.1,0,0.3,0,0.4-0.1c0.1,0,0.4-0.1,0.6-0.1h1
					c0.2,0,0.3,0,0.4,0c0.1,0,0.3,0,0.5,0.1l0.4,0.1c0.1,0,0.3,0.1,0.4,0.1l0.3,0.1l0.4,0.1l0.3,0.1c0.1,0.1,0.2,0.1,0.3,0.2
					c0.1,0.1,0.2,0.1,0.2,0.1c0.1,0,0.2,0.1,0.3,0.2c0.1,0.1,0.1,0.1,0.2,0.1c0.1,0.1,0.2,0.2,0.3,0.3c0.1,0.1,0.1,0.1,0.1,0.1
					c0.1,0.1,0.2,0.2,0.3,0.4l0.1,0.1l0.2,0.2c0,0,0.1,0.1,0.1,0.1L13,102l0.1,0.1l0.1,0.2c0,0,0,0.1,0,0.1c0,0,0,0,0,0.1v12.7
					C11.6,113.7,8.7,112.3,4.3,113.7z M24.1,113.7c-4.4-1.4-7.3,0-8.9,1.5v-12.8c0.4-0.9,2.8-4.7,8.9-2.5V113.7z"/>
			</g>
		</g>
		<g>
			<g class="st3">
				<text transform="matrix(1 0 0 1 241.3156 277.05)" class="st7 st12 st13">Sub Topic 1.2</text>
			</g>
		</g>
	</g>
</g>
<g transform="translate(-654 -2951) translate(654 2951) translate(158)">
	<path class="st16" d="M-1.7,51h72c10.5,0,19,8.5,19,19l0,0c0,10.5-8.5,19-19,19h-72c-10.5,0-19-8.5-19-19l0,0
		C-20.7,59.6-12.2,51-1.7,51z"/>
	<text transform="matrix(1 0 0 1 21.7156 75.05)" class="st4 st5 st6">P1</text>
</g>
<path class="st7" d="M144.4,309.7l-12.6,4.4l4.4-12.6L144.4,309.7z M144.9,302.1l-2.1,2.1l-1.1-1.1l2.1-2.1L144.9,302.1z
	 M149.2,297.9L147,300l-1.1-1.1l2.1-2.1L149.2,297.9z M153.4,293.6l-2.1,2.1l-1.1-1.1l2.1-2.1L153.4,293.6z M157.6,289.4l-2.1,2.1
	l-1.1-1.1l2.1-2.1L157.6,289.4z"/>
<path class="st7" d="M249,301.8l4.4,12.6l-12.6-4.4L249,301.8z M241.4,301.3l2.1,2.1l-1.1,1.1l-2.1-2.1L241.4,301.3z M237.2,297.1
	l2.1,2.1l-1.1,1.1l-2.1-2.1L237.2,297.1z M232.9,292.8l2.1,2.1L234,296l-2.1-2.1L232.9,292.8z M228.7,288.6l2.1,2.1l-1.1,1.1
	l-2.1-2.1L228.7,288.6z"/>
<g transform="translate(-654 -2951) translate(654 2951) translate(158)">
	<path class="st16" d="M-116.5,327.5h72c10.5,0,19,8.5,19,19l0,0c0,10.5-8.5,19-19,19h-72c-10.5,0-19-8.5-19-19l0,0
		C-135.5,336-127,327.5-116.5,327.5z"/>
	<text transform="matrix(1 0 0 1 -93.0999 352.2559)" class="st4 st5 st6">P2</text>
</g>
<g transform="translate(-654 -2951) translate(654 2951) translate(158)">
	<path class="st16" d="M112.5,327.5h72c10.5,0,19,8.5,19,19l0,0c0,10.5-8.5,19-19,19h-72c-10.5,0-19-8.5-19-19l0,0
		C93.5,336,102,327.5,112.5,327.5z"/>
	<text transform="matrix(1 0 0 1 135.9001 352.2559)" class="st4 st5 st6">P3</text>
</g>
<defs>
	<filter id="Adobe_OpacityMaskFilter_3_" filterUnits="userSpaceOnUse" x="38.6" y="412.9" width="169.9" height="70">
		<feColorMatrix  type="matrix" values="1 0 0 0 0  0 1 0 0 0  0 0 1 0 0  0 0 0 1 0"/>
	</filter>
</defs>
<mask maskUnits="userSpaceOnUse" x="38.6" y="412.9" width="169.9" height="70" id="e1pfd8f6ib_10_">
	<g class="st17">
		<circle id="nzo1tz9nda_10_" class="st1" cx="89.6" cy="584.9" r="229"/>
	</g>
</mask>
<g class="st18">
	<g>
		<g transform="translate(178 57)">
			<circle class="st10" cx="-104.4" cy="390.9" r="35"/>
			<g transform="translate(23 23)">
				<g>
					<path id="cdywg28x6d_3_" class="st11" d="M-127.4,355.9c-6.6,0-12,5.4-12,12c0,6.6,5.4,12,12,12c6.6,0,12-5.4,12-12
						C-115.4,361.3-120.8,355.9-127.4,355.9z M-122.4,368.5c-0.1,0.2-0.2,0.3-0.4,0.4v0l-6.8,3.4c-0.4,0.2-0.9,0-1.1-0.4
						c-0.1-0.1-0.1-0.3-0.1-0.4v-6.8c0-0.5,0.4-0.9,0.9-0.9c0.1,0,0.3,0,0.4,0.1l6.8,3.4C-122.4,367.6-122.2,368.1-122.4,368.5z"/>
				</g>
				<g>
					<path id="cdywg28x6d_2_" class="st1" d="M-127.4,355.9c-6.6,0-12,5.4-12,12c0,6.6,5.4,12,12,12c6.6,0,12-5.4,12-12
						C-115.4,361.3-120.8,355.9-127.4,355.9z M-122.4,368.5c-0.1,0.2-0.2,0.3-0.4,0.4v0l-6.8,3.4c-0.4,0.2-0.9,0-1.1-0.4
						c-0.1-0.1-0.1-0.3-0.1-0.4v-6.8c0-0.5,0.4-0.9,0.9-0.9c0.1,0,0.3,0,0.4,0.1l6.8,3.4C-122.4,367.6-122.2,368.1-122.4,368.5z"/>
				</g>
			</g>
		</g>
		<g>
			<g class="st3">
				<text transform="matrix(1 0 0 1 122.6067 449.9011)" class="st7 st12 st13">Sub Topic 1.1</text>
			</g>
		</g>
	</g>
</g>
<path class="st7" d="M80.3,395.7l-5.8,12l-5.8-12H80.3z M75.3,390.1v3h-1.5v-3H75.3z M75.3,384.1v3h-1.5v-3H75.3z M75.3,378.1v3
	h-1.5v-3H75.3z M75.3,372.1v3h-1.5v-3H75.3z"/>
<defs>
	<filter id="Adobe_OpacityMaskFilter_4_" filterUnits="userSpaceOnUse" x="38.6" y="524" width="169.9" height="70">
		<feColorMatrix  type="matrix" values="1 0 0 0 0  0 1 0 0 0  0 0 1 0 0  0 0 0 1 0"/>
	</filter>
</defs>
<mask maskUnits="userSpaceOnUse" x="38.6" y="524" width="169.9" height="70" id="e1pfd8f6ib_9_">
	<g class="st19">
		<circle id="nzo1tz9nda_9_" class="st1" cx="89.6" cy="586" r="229"/>
	</g>
</mask>
<g class="st20">
	<g>
		<g transform="translate(178 167)">
			<circle class="st10" cx="-104.4" cy="392" r="35"/>
			<g>
				<path class="st1" d="M-93.2,382.3c-6.4-2.6-9.8,0.2-11.3,2.1c-1.4-1.7-4.3-4.2-9.7-2.6c-0.6,0.2-1.1,0.4-1.6,0.6
					c-0.1,0.1-0.2,0.1-0.3,0.2c-0.1,0.1-0.1,0.1-0.1,0.2c0,0.1-0.1,0.1-0.1,0.2c0,0.1-0.1,0.2-0.1,0.4v15.9c0,0.1,0,0.2,0.1,0.3v0.1
					c0.2,0.4,0.5,0.6,0.9,0.6c0.1,0,0.3,0,0.4-0.1c7.1-2.9,9.5,2.2,9.6,2.5c0,0,0,0.1,0.1,0.1c0,0.1,0.1,0.1,0.1,0.2
					c0,0,0.1,0.1,0.1,0.1c0,0,0.1,0.1,0.1,0.1l0.2,0.1c0.1,0,0.1,0,0.2,0c0,0,0.1,0,0.1,0c0,0,0.1,0,0.1,0c0.1,0,0.1,0,0.2,0
					l0.2-0.1c0.1,0,0.1-0.1,0.1-0.1c0,0,0.1-0.1,0.1-0.1c0.1-0.1,0.1-0.1,0.1-0.2l0.1-0.1c0.1-0.3,2.4-5.4,9.6-2.4
					c0.3,0.1,0.7,0.1,0.9-0.1c0.3-0.2,0.4-0.5,0.4-0.8v-15.9C-92.6,382.8-92.8,382.5-93.2,382.3L-93.2,382.3z M-114.4,397.7v-13.8
					c0.2-0.1,0.4-0.2,0.6-0.2c0.2-0.1,0.3-0.1,0.4-0.1c0.3-0.1,0.5-0.1,0.7-0.2c0.1,0,0.3,0,0.4-0.1c0.1,0,0.4-0.1,0.6-0.1h1
					c0.2,0,0.3,0,0.4,0c0.1,0,0.3,0,0.5,0.1l0.4,0.1c0.1,0,0.3,0.1,0.4,0.1l0.3,0.1l0.4,0.1l0.3,0.1c0.1,0.1,0.2,0.1,0.3,0.2
					c0.1,0.1,0.2,0.1,0.2,0.1c0.1,0,0.2,0.1,0.3,0.2c0.1,0.1,0.1,0.1,0.2,0.1c0.1,0,0.2,0.2,0.3,0.3c0.1,0.1,0.1,0.1,0.1,0.1
					c0.1,0.1,0.2,0.2,0.3,0.4l0.1,0.1l0.2,0.2c0,0,0.1,0.1,0.1,0.1l0.1,0.2l0.1,0.1l0.1,0.2c0,0,0,0.1,0,0.1c0,0,0,0,0,0.1v12.7
					C-107.1,397.7-110,396.3-114.4,397.7z M-94.6,397.7c-4.4-1.4-7.3,0-8.9,1.5v-12.8c0.4-0.9,2.8-4.7,8.9-2.5V397.7z"/>
			</g>
		</g>
		<g>
			<g class="st3">
				<text transform="matrix(1 0 0 1 122.6067 561.044)" class="st7 st12 st13">Sub Topic 1.2</text>
			</g>
		</g>
	</g>
</g>
<path class="st7" d="M79.3,506.9l-5.8,12l-5.8-12H79.3z M74.3,501.2v3h-1.5v-3H74.3z M74.3,495.2v3h-1.5v-3H74.3z M74.3,489.2v3
	h-1.5v-3H74.3z M74.3,483.2v3h-1.5v-3H74.3z"/>
<defs>
	<filter id="Adobe_OpacityMaskFilter_5_" filterUnits="userSpaceOnUse" x="272.6" y="413.3" width="169.9" height="70">
		<feColorMatrix  type="matrix" values="1 0 0 0 0  0 1 0 0 0  0 0 1 0 0  0 0 0 1 0"/>
	</filter>
</defs>
<mask maskUnits="userSpaceOnUse" x="272.6" y="413.3" width="169.9" height="70" id="e1pfd8f6ib_6_">
	<g class="st21">
		<circle id="nzo1tz9nda_7_" class="st1" cx="323.6" cy="585.3" r="229"/>
	</g>
</mask>
<g class="st22">
	<g>
		<g transform="translate(178 57)">
			<circle class="st10" cx="129.6" cy="391.3" r="35"/>
			<g transform="translate(23 23)">
				<g>
					<path id="cdywg28x6d_5_" class="st11" d="M106.6,356.3c-6.6,0-12,5.4-12,12c0,6.6,5.4,12,12,12s12-5.4,12-12
						C118.6,361.7,113.2,356.3,106.6,356.3z M111.6,369c-0.1,0.2-0.2,0.3-0.4,0.4v0l-6.8,3.4c-0.4,0.2-0.9,0-1.1-0.4
						c-0.1-0.1-0.1-0.3-0.1-0.4v-6.8c0-0.5,0.4-0.9,0.9-0.9c0.1,0,0.3,0,0.4,0.1l6.8,3.4C111.6,368,111.8,368.5,111.6,369z"/>
				</g>
				<g>
					<path id="cdywg28x6d_4_" class="st1" d="M106.6,356.3c-6.6,0-12,5.4-12,12c0,6.6,5.4,12,12,12s12-5.4,12-12
						C118.6,361.7,113.2,356.3,106.6,356.3z M111.6,369c-0.1,0.2-0.2,0.3-0.4,0.4v0l-6.8,3.4c-0.4,0.2-0.9,0-1.1-0.4
						c-0.1-0.1-0.1-0.3-0.1-0.4v-6.8c0-0.5,0.4-0.9,0.9-0.9c0.1,0,0.3,0,0.4,0.1l6.8,3.4C111.6,368,111.8,368.5,111.6,369z"/>
				</g>
			</g>
		</g>
		<g>
			<g class="st3">
				<text transform="matrix(1 0 0 1 356.6065 450.3179)" class="st7 st12 st13">Sub Topic 1.1</text>
			</g>
		</g>
	</g>
</g>
<path class="st7" d="M314.2,396.2l-5.8,12l-5.8-12H314.2z M309.2,390.5v3h-1.5v-3H309.2z M309.2,384.5v3h-1.5v-3H309.2z
	 M309.2,378.5v3h-1.5v-3H309.2z M309.2,372.5v3h-1.5v-3H309.2z"/>
<defs>
	<filter id="Adobe_OpacityMaskFilter_6_" filterUnits="userSpaceOnUse" x="272.6" y="524.5" width="169.9" height="70">
		<feColorMatrix  type="matrix" values="1 0 0 0 0  0 1 0 0 0  0 0 1 0 0  0 0 0 1 0"/>
	</filter>
</defs>
<mask maskUnits="userSpaceOnUse" x="272.6" y="524.5" width="169.9" height="70" id="e1pfd8f6ib_5_">
	<g class="st23">
		<circle id="nzo1tz9nda_6_" class="st1" cx="323.6" cy="586.5" r="229"/>
	</g>
</mask>
<g class="st24">
	<g>
		<g transform="translate(178 167)">
			<circle class="st10" cx="129.6" cy="392.5" r="35"/>
			<g>
				<path class="st1" d="M140.8,382.7c-6.4-2.6-9.8,0.2-11.3,2.1c-1.4-1.7-4.3-4.2-9.7-2.6c-0.6,0.2-1.1,0.4-1.6,0.6
					c-0.1,0.1-0.2,0.1-0.3,0.2c-0.1,0.1-0.1,0.1-0.1,0.2c0,0.1-0.1,0.1-0.1,0.2c0,0.1-0.1,0.2-0.1,0.4v15.9c0,0.1,0,0.2,0.1,0.3v0.1
					c0.2,0.4,0.5,0.6,0.9,0.6c0.1,0,0.3,0,0.4-0.1c7.1-2.9,9.5,2.2,9.6,2.5c0,0,0,0.1,0.1,0.1c0,0.1,0.1,0.1,0.1,0.2
					c0,0,0.1,0.1,0.1,0.1c0,0,0.1,0.1,0.1,0.1l0.2,0.1c0.1,0,0.1,0,0.2,0c0,0,0.1,0,0.1,0c0,0,0.1,0,0.1,0c0.1,0,0.1,0,0.2,0
					l0.2-0.1c0.1,0,0.1-0.1,0.1-0.1c0,0,0.1-0.1,0.1-0.1c0.1-0.1,0.1-0.1,0.1-0.2l0.1-0.1c0.1-0.3,2.4-5.4,9.6-2.4
					c0.3,0.1,0.7,0.1,0.9-0.1c0.3-0.2,0.4-0.5,0.4-0.8v-15.9C141.4,383.2,141.2,382.9,140.8,382.7L140.8,382.7z M119.6,398.1v-13.8
					c0.2-0.1,0.4-0.2,0.6-0.2c0.2-0.1,0.3-0.1,0.4-0.1c0.3-0.1,0.5-0.1,0.7-0.2c0.1,0,0.3,0,0.4-0.1c0.1,0,0.4-0.1,0.6-0.1h1
					c0.2,0,0.3,0,0.4,0s0.3,0,0.5,0.1l0.4,0.1c0.1,0,0.3,0.1,0.4,0.1l0.3,0.1l0.4,0.1l0.3,0.1c0.1,0.1,0.2,0.1,0.3,0.2
					c0.1,0.1,0.2,0.1,0.2,0.1c0.1,0,0.2,0.1,0.3,0.2c0.1,0.1,0.1,0.1,0.2,0.1c0.1,0,0.2,0.2,0.3,0.3c0.1,0.1,0.1,0.1,0.1,0.1
					c0.1,0.1,0.2,0.2,0.3,0.4l0.1,0.1l0.2,0.2c0,0,0.1,0.1,0.1,0.1l0.1,0.2l0.1,0.1l0.1,0.2c0,0,0,0.1,0,0.1c0,0,0,0,0,0.1v12.7
					C126.9,398.1,124,396.7,119.6,398.1z M139.4,398.1c-4.4-1.4-7.3,0-8.9,1.5v-12.8c0.4-0.9,2.8-4.7,8.9-2.5V398.1z"/>
			</g>
		</g>
		<g>
			<g class="st3">
				<text transform="matrix(1 0 0 1 356.6065 561.4608)" class="st7 st12 st13">Sub Topic 1.2</text>
			</g>
		</g>
	</g>
</g>
<path class="st7" d="M313.2,507.3l-5.8,12l-5.8-12H313.2z M308.2,501.6v3h-1.5v-3H308.2z M308.2,495.6v3h-1.5v-3H308.2z
	 M308.2,489.6v3h-1.5v-3H308.2z M308.2,483.6v3h-1.5v-3H308.2z"/>
</svg>
