<svg width="204" height="171" viewBox="0 0 204 171" fill="none" xmlns="http://www.w3.org/2000/svg">
<path d="M63 115.194V100.75H68.6274V91.096H75.1989V99.163H80.2654V87.632H79.2371V85.7553H90.8751V87.7254H89.7441V98.7896H92.4643V101.413H97.4467V81.1616L102.42 76.1944L104.102 77.875H105.757V106.007H111.431V103.757L115.75 99.4431H119.218V106.007H122.789V89.1259H128.509V101.32H133.202V110.507H139.4V100.377H150V115.194H63Z" fill="url(#paint0_linear)"/>
<path d="M75.1881 90.9693H72.6455V115.175H75.1881V90.9693Z" fill="url(#paint1_linear)"/>
<path d="M85.6777 85.6027V106.825H80.086V111.92H75.1885V115.185H89.7871V87.5823H90.9223V85.6027H85.6777Z" fill="url(#paint2_linear)"/>
<path d="M102.509 75.9954V109.433H97.6118V101.337H94.8722V108.495H89.7871V115.185H105.859V77.6842H104.198L102.509 75.9954Z" fill="url(#paint3_linear)"/>
<path d="M115.888 99.3569V108.308L112.754 111.441H110.324V113.064H105.858V115.185H119.369V99.3569H115.888Z" fill="url(#paint4_linear)"/>
<path d="M128.694 88.9897H126.292V115.175H128.694V88.9897Z" fill="url(#paint5_linear)"/>
<path d="M150.264 100.295H144.334V111.413H142.636V113.608H128.694V115.185H150.264V100.295Z" fill="url(#paint6_linear)"/>
<path d="M133.404 101.243H131.565V111.741L129.004 114.312H133.404V101.243Z" fill="url(#paint7_linear)"/>
<path d="M68.5924 100.67H65.9561V115.175H68.5924V100.67Z" fill="url(#paint8_linear)"/>
<path d="M87 114.217C87 114.217 94.5969 110.619 96.1506 111.692C97.7043 112.776 104.777 110.39 109.791 111.493C114.795 112.597 117.731 115.151 122.563 112.706C127.396 110.261 133.096 111.195 133.954 112.706C134.821 114.217 136.022 113.531 141.551 112.706C147.07 111.881 146.727 112.239 153.98 114.217C161.234 116.194 166 116.194 166 116.194H87.0095V114.217H87Z" fill="#FAFAFA"/>
<path d="M146 170.194H79V162.67C79 162.67 82.2092 156.731 87.4641 155.442C88.7028 155.136 90.0541 155.088 91.4992 155.442C92.4657 155.671 93.4698 156.082 94.5207 156.702C103.839 162.25 111.834 155.451 118.158 163.51C124.483 171.579 131.146 160.942 142.34 167.559C143.832 168.447 145.024 169.325 146 170.194Z" fill="#E7E7E7"/>
<path d="M204 85.1944C204 85.75 203.556 86.1944 203 86.1944C202.444 86.1944 202 85.75 202 85.1944C202 84.6388 202.444 84.1944 203 84.1944C203.556 84.1944 204 84.6388 204 85.1944Z" fill="white"/>
<path d="M113 20.1944C113 20.75 112.333 21.1944 111.5 21.1944C110.667 21.1944 110 20.75 110 20.1944C110 19.6388 110.667 19.1944 111.5 19.1944C112.333 19.1944 113 19.6388 113 20.1944Z" fill="white"/>
<path d="M159.974 47.8111C159.849 48.0808 159.298 48.2468 158.768 48.1794C158.228 48.1171 157.895 47.8422 158.03 47.5777C158.155 47.308 158.706 47.142 159.236 47.2094C159.766 47.2717 160.099 47.5414 159.974 47.8111Z" fill="white"/>
<path d="M158.986 78.8099C158.92 79.0739 158.657 79.2388 158.383 79.1838C158.12 79.1178 157.956 78.8539 158.011 78.5789C158.076 78.3149 158.339 78.15 158.613 78.205C158.887 78.2709 159.051 78.5459 158.986 78.8099Z" fill="white"/>
<path d="M152.97 8.8111C152.845 9.08082 152.296 9.2468 151.767 9.17937C151.227 9.11713 150.895 8.84222 151.03 8.57769C151.155 8.30797 151.704 8.14199 152.233 8.20942C152.773 8.27167 153.105 8.54138 152.97 8.8111Z" fill="white"/>
<path d="M141.5 28.1944C142.328 28.1944 143 27.5228 143 26.6944C143 25.866 142.328 25.1944 141.5 25.1944C140.672 25.1944 140 25.866 140 26.6944C140 27.5228 140.672 28.1944 141.5 28.1944Z" fill="white"/>
<path d="M109.986 60.8099C109.92 61.0738 109.657 61.2388 109.383 61.1838C109.11 61.1288 108.956 60.8539 109.011 60.5789C109.077 60.3149 109.34 60.15 109.613 60.205C109.887 60.2709 110.051 60.5459 109.986 60.8099Z" fill="white"/>
<path d="M138 64.1944C138 64.749 137.555 65.1944 137 65.1944C136.445 65.1944 136 64.749 136 64.1944C136 63.6398 136.445 63.1944 137 63.1944C137.555 63.1944 138 63.6398 138 64.1944Z" fill="white"/>
<path d="M137.986 43.8099C137.92 44.0739 137.657 44.2388 137.383 44.1838C137.12 44.1178 136.956 43.8539 137.011 43.5789C137.076 43.3149 137.339 43.15 137.613 43.205C137.887 43.2709 138.051 43.5459 137.986 43.8099Z" fill="white"/>
<path d="M133.085 0H132.663V49.2563H133.085V0Z" fill="#EBF3F7"/>
<path d="M117.408 53.7785C117.408 53.7785 124.97 47.4924 132.87 47.4924C140.77 47.4924 148.332 53.7785 148.332 53.7785H117.408Z" fill="#EBF3F7"/>
<path d="M81.8118 0H81.3896V49.2563H81.8118V0Z" fill="#EBF3F7"/>
<path d="M66.1348 53.7785C66.1348 53.7785 73.6968 47.4924 81.5965 47.4924C89.5057 47.4924 97.0583 53.7785 97.0583 53.7785H66.1348Z" fill="#EBF3F7"/>
<path d="M89.6746 68.4052C89.8623 67.1855 89.8717 65.9565 89.7215 64.7556L91.8794 63.3483L90.8474 60.7494L89.8154 58.1505L87.2822 58.6103C86.5691 57.6345 85.7154 56.7526 84.7396 55.9926L85.2744 53.4782L82.7131 52.3711L80.1517 51.264L78.6881 53.375C77.4685 53.1874 76.2394 53.1686 75.0385 53.3281L73.6312 51.1702L71.0323 52.2023L68.4334 53.2343L68.8932 55.7675C67.9174 56.4805 67.0355 57.3343 66.2756 58.31L63.7611 57.7753L62.654 60.3366L61.5469 62.8979L63.6579 64.3615C63.4703 65.5812 63.4515 66.8103 63.611 68.0112L61.4531 69.4185L62.4852 72.0174L63.5172 74.6162L66.0504 74.1565C66.7634 75.1322 67.6172 76.0142 68.5929 76.7741L68.0582 79.2885L70.6195 80.3956L73.1808 81.5027L74.6444 79.3917C75.8641 79.5794 77.0932 79.5888 78.2941 79.4386L79.7014 81.5965L82.3003 80.5645L84.8991 79.5325L84.4394 76.9993C85.4151 76.2862 86.2971 75.4325 87.057 74.4567L89.5714 74.9915L90.6785 72.4302L91.7856 69.8688L89.6746 68.4052ZM72.7961 75.3855C67.833 73.2464 65.5437 67.4858 67.6829 62.5226C69.822 57.5595 75.5826 55.2702 80.5458 57.4094C85.509 59.5485 87.7982 65.3091 85.6591 70.2723C83.5199 75.2354 77.7593 77.5247 72.7961 75.3855Z" fill="url(#paint9_linear)"/>
<path d="M16.559 71.0698H16.043L17.6098 67.8986H18.1258L16.559 71.0698Z" fill="#B8D6FF"/>
<path d="M24.919 70.7789H0V71.173H24.919V70.7789Z" fill="#B8D6FF"/>
<path d="M13.3133 72.0643H0V74.3535H13.3133V72.0643Z" fill="#B8D6FF"/>
<path d="M22.9764 66.6414H16.043V67.8986H22.9764V66.6414Z" fill="#B8D6FF"/>
<path d="M22.9764 66.0503H16.043V66.2849H22.9764V66.0503Z" fill="#B8D6FF"/>
<g opacity="0.44">
<path opacity="0.44" d="M148.623 81.6716H140.845V82.2533H148.623V81.6716Z" fill="#B8D6FF"/>
<path opacity="0.44" d="M148.623 82.5066H140.845V84.0828H148.623V82.5066Z" fill="#B8D6FF"/>
<path opacity="0.44" d="M142.14 69.4842V74.7382H129.258V75.667H142.14V76.4833H129.258V80.3675H142.14H142.43H142.721V69.4842H142.14Z" fill="#B8D6FF"/>
</g>
<path d="M102.106 49.1531C102.191 48.5901 102.2 48.0272 102.125 47.483L103.11 46.8357L102.641 45.6441L102.172 44.4526L101.009 44.659C100.68 44.2087 100.296 43.8052 99.8452 43.4581L100.089 42.3041L98.9164 41.7975L97.7436 41.2908L97.0775 42.2572C96.5146 42.1727 95.9516 42.1634 95.4075 42.2384L94.7601 41.2533L93.5686 41.7224L92.377 42.1915L92.5835 43.3549C92.1331 43.6833 91.7297 44.0679 91.3825 44.5183L90.2285 44.2743L89.7219 45.4471L89.2153 46.6199L90.1816 47.286C90.0972 47.8489 90.0878 48.4119 90.1629 48.956L89.1777 49.6034L89.6468 50.7949L90.1159 51.9865L91.2793 51.7801C91.6077 52.2304 91.9924 52.6338 92.4427 52.981L92.1988 54.135L93.3715 54.6416L94.5443 55.1483L95.2105 54.1819C95.7734 54.2663 96.3363 54.2757 96.8805 54.2007L97.5278 55.1858L98.7194 54.7167L99.9109 54.2476L99.7045 53.0842C100.155 52.7558 100.558 52.3711 100.905 51.9208L102.059 52.1647L102.566 50.992L103.073 49.8192L102.106 49.1531ZM94.3661 52.3524C92.0862 51.3672 91.0354 48.7309 92.0205 46.451C93.0057 44.1711 95.642 43.1203 97.9219 44.1055C100.202 45.0906 101.253 47.727 100.267 50.0068C99.2823 52.2867 96.6459 53.3375 94.3661 52.3524Z" fill="url(#paint10_linear)"/>
<path d="M62.373 43.5519H50.5234C50.0261 43.5519 49.6133 43.1485 49.6133 42.6419V40.8124C49.6133 40.3151 50.0167 39.9023 50.5234 39.9023H62.373C62.8703 39.9023 63.2831 40.3057 63.2831 40.8124V42.6419C63.2737 43.1485 62.8703 43.5519 62.373 43.5519Z" fill="#D0E5F5"/>
<path d="M62.373 50.3728H50.5234C50.0261 50.3728 49.6133 49.9693 49.6133 49.4627V47.6332C49.6133 47.1359 50.0167 46.7231 50.5234 46.7231H62.373C62.8703 46.7231 63.2831 47.1265 63.2831 47.6332V49.4627C63.2737 49.9693 62.8703 50.3728 62.373 50.3728Z" fill="#D0E5F5"/>
<path d="M62.373 57.1936H50.5234C50.0261 57.1936 49.6133 56.7901 49.6133 56.2835V54.454C49.6133 53.9567 50.0167 53.5439 50.5234 53.5439H62.373C62.8703 53.5439 63.2831 53.9473 63.2831 54.454V56.2835C63.2737 56.7901 62.8703 57.1936 62.373 57.1936Z" fill="#D0E5F5"/>
<path d="M43.0179 31.7867C39.978 23.2959 31.8625 18.07 23.306 18.3327C21.2325 18.3984 19.1403 18.7737 17.0762 19.5149C10.8465 21.7478 6.3712 26.711 4.54168 32.5748C3.26571 36.6373 3.26571 41.1407 4.80438 45.4565C4.95449 45.8881 5.12337 46.3103 5.30163 46.7231C6.11788 48.5901 7.17806 50.2883 8.44465 51.7707C13.7549 58.0098 22.5648 60.6556 30.7366 57.7283C41.2916 53.9567 46.7895 42.3416 43.0179 31.7867ZM29.0291 52.9434C22.9025 55.1389 16.2975 53.1592 12.3101 48.4775C11.3625 47.3611 10.565 46.0945 9.95518 44.6872C9.82383 44.3775 9.69248 44.0586 9.57989 43.7396C8.42589 40.5027 8.42589 37.1251 9.38287 34.0853C10.762 29.6851 14.1115 25.9604 18.7838 24.2904C20.3225 23.7368 21.8987 23.4554 23.4561 23.4084C29.8735 23.2114 35.9625 27.1238 38.233 33.4943C41.0664 41.4128 36.9476 50.1194 29.0291 52.9434Z" fill="#D0E5F5"/>
<path d="M9.3828 34.0853L4.53223 32.5748C6.37113 26.711 10.837 21.7478 17.0668 19.5149C19.1215 18.783 21.2231 18.3984 23.2965 18.3327L23.4466 23.4084C21.8892 23.4554 20.3224 23.7462 18.7743 24.2904C14.1114 25.9604 10.762 29.6851 9.3828 34.0853Z" fill="#78B0DE"/>
<path d="M9.95462 44.6871L5.30108 46.7231C5.12282 46.3103 4.95394 45.8881 4.80382 45.4565C3.25577 41.1407 3.26515 36.6373 4.54112 32.5748L9.39169 34.0853C8.43471 37.1345 8.43471 40.5027 9.58872 43.7396C9.7013 44.0679 9.82327 44.3775 9.95462 44.6871Z" fill="#98C3E6"/>
<path d="M8.4438 51.7707C7.17721 50.2789 6.11703 48.5901 5.30078 46.7231L9.95433 44.6965C10.5642 46.1039 11.3617 47.3704 12.3092 48.4869L8.4438 51.7707Z" fill="#B5D2EB"/>
<path d="M104.874 86.4753L100.314 82.4972C99.9386 82.1689 99.9011 81.6059 100.229 81.2306C100.558 80.8554 101.121 80.8178 101.496 81.1462L104.724 83.9515L109.321 78.8288C109.649 78.4629 110.221 78.4254 110.587 78.7631C110.953 79.0915 110.991 79.6638 110.653 80.0297L104.874 86.4753Z" fill="url(#paint11_linear)"/>
<path d="M117.746 70.4693C117.296 70.4693 116.93 70.1034 116.93 69.6531V58.3945C116.93 57.9442 117.296 57.5782 117.746 57.5782C118.196 57.5782 118.562 57.9442 118.562 58.3945V69.6531C118.562 70.1128 118.196 70.4693 117.746 70.4693Z" fill="url(#paint12_linear)"/>
<path d="M123.376 64.84H112.117C111.667 64.84 111.301 64.4741 111.301 64.0238C111.301 63.5734 111.667 63.2075 112.117 63.2075H123.376C123.826 63.2075 124.192 63.5734 124.192 64.0238C124.192 64.4741 123.826 64.84 123.376 64.84Z" fill="url(#paint13_linear)"/>
<path d="M60.411 161.288H8.72475C6.64191 161.288 4.95312 159.6 4.95312 157.517V151.39C4.95312 149.307 6.64191 147.619 8.72475 147.619H60.411V161.288Z" fill="url(#paint14_linear)"/>
<path d="M69.287 149.026V159.881H70.197V161.288H32.7247C30.6419 161.288 28.9531 159.6 28.9531 157.517V151.39C28.9531 149.307 30.6419 147.619 32.7247 147.619H70.1877V149.026H69.287Z" fill="#FF9F55"/>
<path d="M69.2868 159.881H35.4923C33.4095 159.881 31.7207 158.192 31.7207 156.11V152.798C31.7207 150.715 33.4095 149.026 35.4923 149.026H69.2868V159.881Z" fill="#EFF7FE"/>
<path d="M62.8227 147.619H6.23896C3.62134 147.619 1.50098 145.498 1.50098 142.881V136.463C1.50098 133.846 3.62134 131.725 6.23896 131.725H62.8227V147.619Z" fill="url(#paint15_linear)"/>
<path d="M72.8616 133.367V145.986H73.6403V147.619H42.8669C40.2493 147.619 38.1289 145.498 38.1289 142.881V136.463C38.1289 133.846 40.2493 131.725 42.8669 131.725H73.6403V133.358H72.8616V133.367Z" fill="#5284FC"/>
<path d="M72.8614 145.986H45.2497C42.6321 145.986 40.5117 143.866 40.5117 141.248V138.105C40.5117 135.488 42.6321 133.367 45.2497 133.367H72.8614V145.986V145.986Z" fill="#EFF7FE"/>
<path d="M22.0576 131.725H65.0654C67.8988 131.725 70.1974 129.427 70.1974 126.593V117.371C70.1974 114.537 67.8988 112.239 65.0654 112.239H22.0576V131.725Z" fill="url(#paint16_linear)"/>
<path d="M14.3545 114.246V129.718H13.5664V131.725H44.2273C47.0607 131.725 49.3593 129.427 49.3593 126.593V117.371C49.3593 114.537 47.0607 112.239 44.2273 112.239H13.5664V114.246H14.3545Z" fill="#FF9F55"/>
<path d="M14.3545 129.718H41.4689C44.2835 129.718 46.5634 127.438 46.5634 124.623V119.341C46.5634 116.526 44.2835 114.246 41.4689 114.246H14.3545V129.718Z" fill="#EFF7FE"/>
<path d="M54.2664 112.239H8.66915C5.69501 112.239 3.27441 109.827 3.27441 106.844V98.1466C3.27441 95.1725 5.68563 92.7519 8.66915 92.7519H54.2664V112.239Z" fill="url(#paint17_linear)"/>
<path d="M62.4284 94.7597V110.231H63.2635V112.239H30.7356C27.7614 112.239 25.3408 109.827 25.3408 106.844V98.1466C25.3408 95.1725 27.752 92.7519 30.7356 92.7519H63.2541V94.7597H62.4284V94.7597Z" fill="#5284FC"/>
<path d="M62.4196 110.231H33.5414C30.5766 110.231 28.1748 107.829 28.1748 104.864V100.126C28.1748 97.1615 30.5766 94.7597 33.5414 94.7597H62.4196V110.231Z" fill="#EFF7FE"/>
<path d="M67.1199 92.7519H19.4774C17.6291 92.7519 16.1279 91.2508 16.1279 89.4025V81.3526C16.1279 79.5043 17.6291 78.0032 19.4774 78.0032H67.1199V92.7519V92.7519Z" fill="url(#paint18_linear)"/>
<path d="M75.2824 79.5231V91.232H76.1174V92.7519H41.5535C39.7052 92.7519 38.2041 91.2508 38.2041 89.4025V81.3526C38.2041 79.5043 39.7052 78.0032 41.5535 78.0032H76.1174V79.5231H75.2824Z" fill="#5284FC"/>
<path d="M75.2818 91.232H44.0955C42.2472 91.232 40.7461 89.7309 40.7461 87.8826V82.8631C40.7461 81.0148 42.2472 79.5137 44.0955 79.5137H75.2912V91.232H75.2818Z" fill="#EFF7FE"/>
<path d="M144.616 108.561L96.6264 108.805C94.628 108.814 93.0049 107.2 92.9955 105.211L92.836 73.6217C92.8266 71.6233 94.4403 70.0002 96.4293 69.9908L144.419 69.7469C146.417 69.7375 148.041 71.3513 148.05 73.3403L148.209 104.93C148.219 106.928 146.614 108.551 144.616 108.561Z" fill="#8DBDE3"/>
<path d="M127.244 69.2722L113.78 69.3416L113.796 72.3814L127.259 72.312L127.244 69.2722Z" fill="#706865"/>
<path d="M107.059 77.5247C107.059 77.5247 107.078 86.3533 106.111 89.8904L104.038 91.2039L96.7012 91.2414C98.0803 87.5261 98.0616 77.5716 98.0616 77.5716L107.059 77.5247Z" fill="white"/>
<path d="M104.047 91.2039L104.038 89.8716L106.121 89.8622L104.047 91.2039Z" fill="#C9C9C9"/>
<path d="M115.935 75.3574C115.935 75.3574 115.944 81.4652 115.278 83.9046L113.852 84.8146L108.776 84.8428C109.724 82.2721 109.715 75.3856 109.715 75.3856L115.935 75.3574Z" fill="white"/>
<path d="M113.852 84.8146L113.843 83.8952L115.288 83.8858L113.852 84.8146Z" fill="#C9C9C9"/>
<path d="M128.395 76.9149C128.395 76.9149 128.414 85.2744 127.503 88.6332L125.533 89.881L118.581 89.9185C119.885 86.3908 119.866 76.9712 119.866 76.9712L128.395 76.9149Z" fill="white"/>
<path d="M125.533 89.8716L125.523 88.6144L127.494 88.605L125.533 89.8716Z" fill="#C9C9C9"/>
<path d="M137.26 87.5636C137.26 87.5636 137.27 93.2117 136.66 95.4727L135.327 96.3171L130.627 96.3453C131.509 93.9622 131.499 87.6011 131.499 87.6011L137.26 87.5636Z" fill="white"/>
<path d="M135.327 96.3171V95.4634L136.659 95.454L135.327 96.3171Z" fill="#C9C9C9"/>
<path d="M137.26 75.9766C137.26 75.9766 137.27 81.6247 136.66 83.8858L135.327 84.7302L130.627 84.7583C131.509 82.3753 131.499 76.0142 131.499 76.0142L137.26 75.9766Z" fill="white"/>
<path d="M135.327 84.7302V83.8764L136.659 83.867L135.327 84.7302Z" fill="#C9C9C9"/>
<path d="M144.56 81.559C144.56 81.559 144.569 85.8936 144.1 87.6387L143.077 88.286L139.475 88.3048C140.15 86.4753 140.141 81.5872 140.141 81.5872L144.56 81.559Z" fill="white"/>
<path d="M143.078 88.2767V87.6199H144.101L143.078 88.2767Z" fill="#C9C9C9"/>
<path d="M115.616 88.6332C115.616 88.6332 115.625 93.1366 115.062 94.938L113.861 95.6135L109.602 95.6322C110.399 93.737 110.39 88.6613 110.39 88.6613L115.616 88.6332Z" fill="white"/>
<path d="M113.86 95.6135V94.9286H115.061L113.86 95.6135Z" fill="#C9C9C9"/>
<path d="M109.885 99.0943H97.0498V99.7604H109.885V99.0943Z" fill="white"/>
<path d="M111.854 103.729H97.0488V104.395H111.854V103.729Z" fill="white"/>
<path d="M106.168 101.412H97.0488V102.078H106.168V101.412Z" fill="white"/>
<path d="M100.782 118.787H86.0049V119.669H100.782V118.787Z" fill="#FFAA55"/>
<path d="M87.9855 161.844H89.2803V121.942H87.9855V161.844Z" fill="#706865"/>
<path d="M108.747 118.534H98.4736V119.791H108.747V118.534Z" fill="#CCBDB7"/>
<path d="M105.558 107.848H101.664V119.66H105.558V107.848Z" fill="#FFAA55"/>
<path d="M137.626 119.679H80.7041V121.949H137.626V119.679Z" fill="#B59074"/>
<path d="M69.7828 105.943C69.7828 105.943 69.1636 114.678 70.8618 115.719C71.9313 116.376 76.1908 118.581 76.0688 118.994C75.9469 119.407 73.667 122.681 73.667 122.681C73.667 122.681 65.4858 117.296 65.2231 115.597C64.9698 113.937 65.6265 102.819 66.7524 102.303C67.5968 101.918 68.0377 102.237 69.0979 103.025C70.5803 104.123 69.7828 105.943 69.7828 105.943Z" fill="#D44040"/>
<path d="M84.7008 108.439L85.4232 108.176C85.4232 108.176 84.5225 106.065 84.1285 106.112C83.6782 106.168 83.1152 106.319 83.1152 106.319L84.7008 108.439Z" fill="#EAD8CF"/>
<path d="M84.8605 108.805C84.7667 108.739 83.3312 105.971 83.3312 105.971L80.2539 106.394L81.9145 109.668L84.8605 108.805Z" fill="#DA9B5B"/>
<path d="M79.8504 156.4C79.8504 156.4 79.5971 158.164 79.5596 158.436C79.5314 158.699 76.7261 158.277 76.7261 158.277L76.501 156.175C76.5104 156.175 79.5033 156.147 79.8504 156.4Z" fill="#424773"/>
<path d="M79.5978 158.202C79.5978 158.202 80.4891 159.262 81.3428 159.731C82.1966 160.191 83.5476 160.378 84.0543 160.857C84.4202 161.204 85.3865 162.696 81.8213 162.668C78.2561 162.64 76.5392 162.874 76.1639 162.302C75.7792 161.729 76.7174 158.08 76.7174 158.08C76.7174 158.08 77.5618 158.389 79.5978 158.202Z" fill="#292C47"/>
<path d="M97.7889 156.419C97.7889 156.419 97.5356 158.183 97.498 158.455C97.4605 158.727 94.6646 158.296 94.6646 158.296L94.4395 156.194C94.4395 156.185 97.4324 156.166 97.7889 156.419Z" fill="#424773"/>
<path d="M97.5265 158.221C97.5265 158.221 98.4178 159.281 99.2715 159.75C100.125 160.21 103.287 160.594 103.794 161.073C104.16 161.42 104.769 162.818 99.7594 162.686C96.1942 162.593 94.4773 162.893 94.0926 162.321C93.7079 161.748 94.6461 158.099 94.6461 158.099C94.6461 158.099 95.4436 158.427 97.5265 158.221Z" fill="#292C47"/>
<path d="M70.8249 125.88C70.8249 125.88 81.0045 127.607 83.3031 127.963C85.6018 128.32 98.0613 131.425 99.6281 132.373C100.867 133.123 98.9807 151.193 98.5398 158.08H93.6329L93.2764 137.402C87.3844 137.552 83.1812 136.022 78.8935 136.679C74.6059 137.327 71.0313 138.255 68.3011 134.596C68.2823 134.606 68.1885 126.687 70.8249 125.88Z" fill="#292C47"/>
<path d="M80.8543 158.099L76.0694 157.798L75.6003 137.402C73.0671 137.467 72.1945 137.308 70.1399 137.054L66.2744 128.076C69.6614 128.751 80.5071 131.491 81.952 132.363C83.1998 133.123 81.2952 151.212 80.8543 158.099Z" fill="#292C47"/>
<path d="M75.5061 87.7419C75.5061 87.7419 79.2402 86.7098 80.6569 89.6089C82.083 92.508 81.4356 97.9965 79.5592 98.5126C77.6827 99.0286 74.9713 98.4375 74.1926 96.6361C73.4139 94.8348 72.7853 92.2734 72.9729 90.6128C73.1699 88.9428 74.521 88.1359 75.5061 87.7419Z" fill="#EEA886"/>
<path d="M78.5831 97.9309C78.5831 97.9309 78.5456 100.136 78.7895 100.605C79.0334 101.074 73.5918 100.961 73.5918 100.961C73.5918 100.961 74.4456 98.3155 73.9671 96.0638C73.4792 93.8215 78.5831 97.9309 78.5831 97.9309Z" fill="#EEA886"/>
<path d="M73.6679 95.2194C73.6679 95.2194 73.9587 95.8105 75.3661 95.7167C76.7734 95.6229 78.6311 93.9247 79.2315 93.7746C79.832 93.6245 79.8601 93.2867 79.8601 93.2867L80.1791 93.8496L80.7889 93.9434C80.7889 93.9434 80.667 92.5361 81.2768 91.6448C81.5489 91.2508 80.864 86.2219 76.2761 87.3853C76.2761 87.3853 72.7766 88.0233 72.7297 89.9842C72.6922 91.9263 72.9924 94.1874 73.6679 95.2194Z" fill="#3A3F47"/>
<path d="M79.0717 100.539C79.0717 100.539 79.0529 99.6384 78.6495 99.554C78.2461 99.4695 74.3713 98.9347 73.874 99.1318L73.6582 100.314C73.6676 100.323 74.6246 100.914 79.0717 100.539Z" fill="#E2D2CA"/>
<path d="M80.1886 92.8739C80.0854 92.1421 79.2504 91.2977 78.7719 92.4423C78.2934 93.5869 79.0909 95.257 79.635 95.1631C80.1698 95.0787 80.3387 93.8778 80.1886 92.8739Z" fill="#EEA886"/>
<path d="M95.2746 111.141C95.2746 111.141 95.2654 111.141 95.2746 111.141C95.2931 111.15 95.3024 111.159 95.2746 111.141Z" fill="#323657"/>
<path d="M74.4178 88.2672C74.4178 88.2672 69.8675 88.0515 73.6203 95.1537L74.4178 88.2672Z" fill="#3A3F47"/>
<path d="M64.2852 160.519L64.6229 161.476L78.9213 157.048L78.2364 155.115L64.2852 160.519Z" fill="#918783"/>
<path d="M79.4092 140.826H77.7861V156.372H79.4092V140.826Z" fill="#918783"/>
<path d="M83.3972 140H73.8086V140.92H83.3972V140Z" fill="#5E5854"/>
<path d="M93.0414 160.519L92.7037 161.476L78.4053 157.048L79.0339 154.993L93.0414 160.519Z" fill="#918783"/>
<path d="M82.965 161.373V162.48L78.4053 157.048L79.0339 154.993L82.965 161.373Z" fill="#918783"/>
<path d="M94.3745 161.842C94.3745 162.583 93.774 163.174 93.0422 163.174C92.301 163.174 91.71 162.574 91.71 161.842C91.71 161.101 92.3104 160.51 93.0422 160.51C93.774 160.51 94.3745 161.11 94.3745 161.842Z" fill="#BFB2AC"/>
<path d="M83.0776 161.842C83.0776 162.583 82.4772 163.174 81.7454 163.174C81.0042 163.174 80.4131 162.574 80.4131 161.842C80.4131 161.101 81.0135 160.51 81.7454 160.51C82.4772 160.51 83.0776 161.11 83.0776 161.842Z" fill="#BFB2AC"/>
<path d="M65.6177 161.842C65.6177 162.583 65.0172 163.174 64.2854 163.174C63.5442 163.174 62.9531 162.574 62.9531 161.842C62.9531 161.101 63.5536 160.51 64.2854 160.51C65.0266 160.51 65.6177 161.11 65.6177 161.842Z" fill="#BFB2AC"/>
<path d="M88.3029 140H69.0226C68.075 140 67.3057 139.231 67.3057 138.283V138.237C67.3057 137.289 68.075 136.52 69.0226 136.52H88.3029C89.2505 136.52 90.0198 137.289 90.0198 138.237V138.283C90.0105 139.231 89.2505 140 88.3029 140Z" fill="#254380"/>
<path d="M130.346 121.949H129.051V161.851H130.346V121.949Z" fill="#706865"/>
<path d="M118.702 113.543H88.5288C87.5812 113.543 86.8213 112.773 86.8213 111.835V91.551C86.8213 90.6034 87.5906 89.8434 88.5288 89.8434H118.702C119.649 89.8434 120.409 90.6128 120.409 91.551V111.835C120.409 112.773 119.64 113.543 118.702 113.543Z" fill="url(#paint19_linear)"/>
<path d="M119.096 91.1194H88.1348V109.818H119.096V91.1194Z" fill="#F5F7FF"/>
<path d="M110.567 119.707V119.285C110.567 119.285 109.976 116.658 105.782 116.658C101.589 116.658 101.673 119.707 101.673 119.707H110.567Z" fill="#FFC655"/>
<path d="M101.617 117.052C101.617 117.052 102.527 116.977 102.865 116.78C103.203 116.583 105.192 115.232 105.661 115.447C106.13 115.663 109.254 116.62 109.142 117.07C109.029 117.53 108.748 117.483 108.523 117.399C108.298 117.314 106.036 116.845 105.839 116.92C105.839 116.92 108.063 117.737 108.072 118.328C108.082 118.919 107.603 119.069 107.397 119.285C107.19 119.51 106.928 120.063 106.355 120.11C105.783 120.157 102.978 119.181 102.406 119.135C101.833 119.088 100.764 119.172 100.689 119.078C100.614 118.984 101.617 117.052 101.617 117.052Z" fill="#EEA886"/>
<path d="M85.0393 101.787C82.1308 101.28 79.0816 100.539 79.0816 100.539L73.6681 100.323C73.6681 100.323 68.705 101.421 66.7441 102.303C66.5564 102.387 66.5564 106.731 66.0498 107.876L67.6729 111.3C67.6729 111.3 68.6111 118.074 68.8082 121.086C68.902 122.465 68.5548 134.456 68.5548 134.456C68.5548 134.456 69.0427 134.699 72.7299 135.103C76.4265 135.506 85.6491 134.953 85.7054 134.521C85.7617 134.08 83.9228 118.281 83.8384 117.464C83.7164 116.207 84.2043 110.409 84.2043 110.409C84.8985 111.347 86.6718 115.56 88.52 117.568C89.6084 118.75 94.9937 119.472 96.007 119.51C98.2118 119.585 102.246 120.026 102.368 119.81C102.462 119.679 102.715 116.235 102.462 116.151C102.237 116.076 94.7592 115.644 92.8358 114.631C92.1322 114.256 90.0399 109.687 90.0399 109.687C90.0399 109.687 86.6342 102.509 85.0393 101.787Z" fill="#D44040"/>
<path d="M74.3711 134.099H65.2892C63.4691 134.099 61.9961 132.626 61.9961 130.806V115.691C61.9961 113.871 63.4691 112.398 65.2892 112.398H74.3711C76.1913 112.398 77.6643 113.871 77.6643 115.691V130.806C77.6643 132.626 76.1913 134.099 74.3711 134.099Z" fill="#254380"/>
<path d="M74.8873 139.128C72.5793 139.128 70.7029 138.349 69.3237 136.82C66.1901 133.367 66.753 127.288 66.7812 127.034C66.8281 126.556 67.2597 126.209 67.7381 126.256C68.2166 126.302 68.5638 126.725 68.5169 127.213C68.5075 127.278 68.0102 132.786 70.6185 135.666C71.6693 136.829 73.0672 137.392 74.8873 137.392C75.3658 137.392 75.7599 137.786 75.7599 138.265C75.7599 138.743 75.3658 139.128 74.8873 139.128Z" fill="#254380"/>
<path d="M99.1493 93.5963H90.574C90.4427 93.5963 90.3301 93.4837 90.3301 93.3524V92.8551C90.3301 92.7238 90.4427 92.6112 90.574 92.6112H99.1493C99.2806 92.6112 99.3932 92.7238 99.3932 92.8551V93.3524C99.3932 93.4931 99.29 93.5963 99.1493 93.5963Z" fill="#DFE1E8"/>
<path d="M99.1493 95.7167H90.574C90.4427 95.7167 90.3301 95.6041 90.3301 95.4727V94.9755C90.3301 94.8441 90.4427 94.7316 90.574 94.7316H99.1493C99.2806 94.7316 99.3932 94.8441 99.3932 94.9755V95.4727C99.3932 95.6135 99.29 95.7167 99.1493 95.7167Z" fill="#DFE1E8"/>
<path d="M98.5672 108.336H91.1459C90.6956 108.336 90.3203 107.97 90.3203 107.51V97.9871C90.3203 97.5368 90.6862 97.1615 91.1459 97.1615H98.5672C99.0176 97.1615 99.3929 97.5274 99.3929 97.9871V107.51C99.3929 107.97 99.0269 108.336 98.5672 108.336Z" fill="#DFE1E8"/>
<path d="M116.075 108.336H102.527C101.804 108.336 101.223 107.754 101.223 107.032V93.9153C101.223 93.1929 101.804 92.6112 102.527 92.6112H116.075C116.797 92.6112 117.379 93.1929 117.379 93.9153V107.032C117.379 107.754 116.797 108.336 116.075 108.336Z" fill="#DFE1E8"/>
<path d="M130.646 107.06C128.619 107.06 126.978 105.418 126.978 103.391C126.978 102.847 127.1 102.331 127.315 101.862C127.897 100.605 129.164 99.7229 130.646 99.7229C132.673 99.7229 134.314 101.365 134.314 103.391C134.314 104.086 134.117 104.733 133.789 105.286C133.132 106.356 131.969 107.06 130.646 107.06Z" fill="#36572B"/>
<path d="M126.922 106.731C125.505 106.731 124.36 105.587 124.36 104.17C124.36 104.086 124.36 104.01 124.37 103.926C124.492 102.622 125.589 101.599 126.922 101.599C128.338 101.599 129.483 102.744 129.483 104.161C129.483 105.061 129.023 105.849 128.32 106.309C127.926 106.581 127.438 106.731 126.922 106.731Z" fill="#45613C"/>
<path d="M130.703 103.588C130.703 103.588 130.909 105.286 130.975 107.604C131.04 109.921 129.202 109.921 129.202 109.921V118.403H127.926C127.926 118.403 127.954 109.752 127.316 109.058C126.678 108.364 126.678 105.061 126.678 105.061L127.044 104.846C127.044 104.846 126.499 108.748 128.976 109.321C131.453 109.893 130.515 103.757 130.515 103.757L130.703 103.588Z" fill="#925E2E"/>
<path d="M131.547 103.992C129.446 103.598 128.057 102.688 127.307 101.871C127.888 100.614 129.155 99.7322 130.637 99.7322C132.664 99.7322 134.306 101.374 134.306 103.401C134.306 104.095 134.109 104.742 133.78 105.296C133.677 104.799 133.133 104.283 131.547 103.992Z" fill="#48753A"/>
<path d="M126.171 104.874C125.318 104.63 124.745 104.292 124.37 103.926C124.492 102.622 125.59 101.599 126.922 101.599C128.339 101.599 129.483 102.744 129.483 104.161C129.483 105.061 129.024 105.849 128.32 106.309C128.067 105.821 127.476 105.249 126.171 104.874Z" fill="#538742"/>
<path d="M124.727 114.462H133.349L132.908 116.057H125.261L124.727 114.462Z" fill="#877670"/>
<path d="M125.805 116.057H132.203L131.312 119.679H126.424L125.805 116.057Z" fill="#876455"/>
<path d="M126.687 101.928L126.462 101.993C126.462 101.993 126.115 101.046 126.087 100.914C126.078 100.792 126.687 101.928 126.687 101.928Z" fill="#538742"/>
<path d="M124.595 101.993L125.692 102.322C125.692 102.322 125.683 102.416 125.542 102.416C125.402 102.425 124.595 101.993 124.595 101.993Z" fill="#538742"/>
<path d="M124.98 104.292H125.262C125.262 104.292 125.205 104.705 124.98 104.977C124.746 105.24 124.98 104.292 124.98 104.292Z" fill="#538742"/>
<path d="M131.707 99.0473C131.819 99.1318 131.303 100.389 131.303 100.389H131.05C131.05 100.38 131.594 98.9629 131.707 99.0473Z" fill="#48753A"/>
<path d="M130.514 100.07C130.467 99.7322 130.73 99.1505 130.73 99.1505V100.014C130.73 100.023 130.561 100.417 130.514 100.07Z" fill="#48753A"/>
<path d="M132.542 105.024C132.382 104.892 132.373 103.748 132.373 103.748L132.626 103.842C132.626 103.842 132.701 105.155 132.542 105.024Z" fill="#48753A"/>
<path d="M127.926 116.057H132.204L131.313 119.679H129.915C130.712 116.77 127.926 116.057 127.926 116.057Z" fill="#715346"/>
<path d="M131.087 119.679C130.74 119.529 130.168 117.877 129.896 117.014C129.802 116.714 129.736 116.508 129.736 116.508H132.945C132.664 118.487 131.997 119.679 131.997 119.679H131.087V119.679Z" fill="#9E633A"/>
<path d="M130.834 115.522C130.834 115.41 130.318 114.922 130.065 114.612C129.811 114.303 130.168 113.702 130.168 113.702C131.322 114.181 131.115 115.532 131.115 115.532C131.115 115.532 130.834 115.635 130.834 115.522Z" fill="#97A43C"/>
<path d="M131.49 115.569H131.35C131.35 115.569 131.246 113.233 132.1 112.914C132.954 112.595 132.954 111.967 132.954 111.967C132.954 111.967 133.207 112.839 132.794 113.299C132.382 113.759 131.903 114.293 131.978 114.725C132.063 115.166 131.49 115.569 131.49 115.569Z" fill="#97A43C"/>
<path d="M129.906 117.014C129.812 116.714 129.746 116.508 129.746 116.508H132.955C132.673 118.487 132.007 119.679 132.007 119.679H131.801C131.838 117.821 130.609 117.211 129.906 117.014Z" fill="#82522F"/>
<path d="M129.746 115.522H132.982L133.161 116.508H129.614L129.746 115.522Z" fill="#C67B47"/>
<path d="M81.4371 91.1757C81.4371 91.1757 80.5083 93.9622 73.6312 95.1444L72.9463 94.2155C72.9463 94.2155 79.0259 93.5494 81.2776 90.078L81.4371 91.1757Z" fill="#254380"/>
<path d="M69.3064 96.8425C68.6309 97.2178 68.7153 99.0286 68.7153 99.0286H69.3064H69.8974C69.8974 99.038 69.9819 97.2272 69.3064 96.8425Z" fill="#254380"/>
<path d="M69.4091 91.7011H69.1934V97.3773H69.4091V91.7011Z" fill="#254380"/>
<path d="M67.1289 92.0764L76.5392 95.5853L85.0113 87.9576L75.282 85.462L67.1289 92.0764Z" fill="#1A2F59"/>
<path d="M142.224 145.996H174.686C175.859 145.996 176.806 145.048 176.806 143.875V136.613C176.806 135.441 175.859 134.493 174.686 134.493H142.224V145.996Z" fill="url(#paint20_linear)"/>
<path d="M131.979 163.24H171.543C172.387 163.24 173.072 162.555 173.072 161.711V156.888C173.072 156.044 172.387 155.359 171.543 155.359H131.979V163.24Z" fill="url(#paint21_linear)"/>
<path d="M127.766 156.222V162.377H126.724V163.24H145.282C145.864 163.24 146.333 162.771 146.333 162.189V156.419C146.333 155.837 145.864 155.368 145.282 155.368H126.715V156.232H127.766V156.222Z" fill="#F08533"/>
<path d="M127.766 162.377H144.381C144.944 162.377 145.395 161.926 145.395 161.364V157.235C145.395 156.672 144.944 156.222 144.381 156.222H127.766V162.377Z" fill="#FAE6DE"/>
<path d="M136.688 135.675V144.813H136.125V145.996H159.646C160.856 145.996 161.841 145.01 161.841 143.8V136.679C161.841 135.469 160.856 134.484 159.646 134.484H136.125V135.666H136.688V135.675Z" fill="#F08533"/>
<path d="M136.688 144.813H158.445C159.655 144.813 160.64 143.828 160.64 142.618V137.871C160.64 136.66 159.655 135.675 158.445 135.675H136.688V144.813Z" fill="#FAE6DE"/>
<path d="M149.231 155.359H181.112C182.613 155.359 183.823 154.149 183.823 152.648V148.707C183.823 147.206 182.613 145.996 181.112 145.996H149.231V155.359V155.359Z" fill="url(#paint22_linear)"/>
<path d="M143.697 146.962V154.402H143.134V155.368H166.139C167.64 155.368 168.85 154.158 168.85 152.657V148.716C168.85 147.215 167.64 146.005 166.139 146.005H143.134V146.971H143.697V146.962Z" fill="#495DA1"/>
<path d="M143.696 154.402H165.003C166.504 154.402 167.715 153.192 167.715 151.691V149.673C167.715 148.172 166.504 146.962 165.003 146.962H143.696V154.402Z" fill="#FAE6DE"/>
<path d="M147.452 149.565H156.581V149.33H147.452V149.565Z" fill="#DECCC5"/>
<path d="M151.114 150.281H160.862V150.046H151.114V150.281Z" fill="#DECCC5"/>
<path d="M129.956 158.046H139.085V157.811H129.956V158.046Z" fill="#DECCC5"/>
<path d="M133.617 158.762H143.365V158.527H133.617V158.762Z" fill="#DECCC5"/>
<path d="M140.306 159.42H144.341V159.185H140.306V159.42Z" fill="#DECCC5"/>
<path d="M147.358 142.086H157.106V141.851H147.358V142.086Z" fill="#DECCC5"/>
<path d="M146.549 142.743H150.583V142.509H146.549V142.743Z" fill="#DECCC5"/>
<path d="M166.88 134.493H150.499C149.842 134.493 149.308 133.958 149.308 133.302V131.359C149.308 130.703 149.842 130.168 150.499 130.168H166.88V134.493Z" fill="url(#paint23_linear)"/>
<path d="M169.694 130.609V134.052H169.985V134.502H158.108C157.451 134.502 156.916 133.968 156.916 133.311V131.369C156.916 130.712 157.451 130.177 158.108 130.177H169.985V130.628H169.694V130.609Z" fill="#FF9F55"/>
<path d="M169.695 134.043H158.981C158.324 134.043 157.789 133.508 157.789 132.851V131.8C157.789 131.144 158.324 130.609 158.981 130.609H169.695V134.043Z" fill="#EFF7FE"/>
<path d="M167.64 130.159H149.701C148.876 130.159 148.2 129.483 148.2 128.657V126.621C148.2 125.796 148.876 125.12 149.701 125.12H167.64V130.159Z" fill="url(#paint24_linear)"/>
<path d="M170.83 125.646V129.643H171.074V130.159H161.317C160.491 130.159 159.815 129.483 159.815 128.657V126.621C159.815 125.796 160.491 125.12 161.317 125.12H171.074V125.636H170.83V125.646Z" fill="#5284FC"/>
<path d="M170.831 129.643H162.077C161.252 129.643 160.576 128.967 160.576 128.141V127.147C160.576 126.321 161.252 125.646 162.077 125.646H170.831V129.643Z" fill="#EFF7FE"/>
<path d="M154.722 125.12H168.354C169.255 125.12 169.977 124.389 169.977 123.497V120.57C169.977 119.669 169.245 118.947 168.354 118.947H154.722V125.12Z" fill="url(#paint25_linear)"/>
<path d="M152.282 119.585V124.492H152.028V125.13H161.748C162.649 125.13 163.371 124.398 163.371 123.507V120.579C163.371 119.679 162.64 118.956 161.748 118.956H152.028V119.594H152.282V119.585Z" fill="#FF9F55"/>
<path d="M152.281 124.482H160.875C161.767 124.482 162.489 123.76 162.489 122.869V121.199C162.489 120.307 161.767 119.585 160.875 119.585H152.281V124.482Z" fill="#EFF7FE"/>
<path d="M164.929 118.947H150.471C149.524 118.947 148.764 118.178 148.764 117.239V114.481C148.764 113.533 149.533 112.773 150.471 112.773H164.929V118.947Z" fill="url(#paint26_linear)"/>
<path d="M167.519 113.402V118.309H167.781V118.947H157.47C156.523 118.947 155.763 118.178 155.763 117.239V114.481C155.763 113.533 156.532 112.773 157.47 112.773H167.781V113.411H167.519V113.402Z" fill="#5284FC"/>
<path d="M167.518 118.309H158.361C157.423 118.309 156.663 117.549 156.663 116.611V115.11C156.663 114.171 157.423 113.411 158.361 113.411H167.518V118.309Z" fill="#EFF7FE"/>
<path d="M169.01 112.764H153.905C153.323 112.764 152.845 112.286 152.845 111.704V109.152C152.845 108.57 153.323 108.092 153.905 108.092H169.01V112.764Z" fill="url(#paint27_linear)"/>
<path d="M171.59 108.58V112.295H171.853V112.773H160.894C160.312 112.773 159.834 112.295 159.834 111.713V109.161C159.834 108.58 160.312 108.101 160.894 108.101H171.853V108.58H171.59V108.58Z" fill="#5284FC"/>
<path d="M171.59 112.286H161.701C161.119 112.286 160.641 111.807 160.641 111.225V109.64C160.641 109.058 161.119 108.58 161.701 108.58H171.59V112.286Z" fill="#EFF7FE"/>
<defs>
<linearGradient id="paint0_linear" x1="106.5" y1="65.5548" x2="106.5" y2="134.998" gradientUnits="userSpaceOnUse">
<stop stop-color="#DBDBE6"/>
<stop offset="1" stop-color="white"/>
</linearGradient>
<linearGradient id="paint1_linear" x1="73.9156" y1="131.384" x2="73.9156" y2="59.5026" gradientUnits="userSpaceOnUse">
<stop stop-color="#FCFCFC"/>
<stop offset="1" stop-color="#FDFDFD"/>
</linearGradient>
<linearGradient id="paint2_linear" x1="83.0538" y1="154.875" x2="83.0538" y2="71.5536" gradientUnits="userSpaceOnUse">
<stop stop-color="#FCFCFC"/>
<stop offset="1" stop-color="#FDFDFD"/>
</linearGradient>
<linearGradient id="paint3_linear" x1="97.8252" y1="154.875" x2="97.8252" y2="71.5535" gradientUnits="userSpaceOnUse">
<stop stop-color="#FCFCFC"/>
<stop offset="1" stop-color="#FDFDFD"/>
</linearGradient>
<linearGradient id="paint4_linear" x1="112.615" y1="154.875" x2="112.615" y2="71.5536" gradientUnits="userSpaceOnUse">
<stop stop-color="#FCFCFC"/>
<stop offset="1" stop-color="#FDFDFD"/>
</linearGradient>
<linearGradient id="paint5_linear" x1="127.493" y1="154.875" x2="127.493" y2="71.5535" gradientUnits="userSpaceOnUse">
<stop stop-color="#FCFCFC"/>
<stop offset="1" stop-color="#FDFDFD"/>
</linearGradient>
<linearGradient id="paint6_linear" x1="139.481" y1="154.875" x2="139.481" y2="71.5536" gradientUnits="userSpaceOnUse">
<stop stop-color="#FCFCFC"/>
<stop offset="1" stop-color="#FDFDFD"/>
</linearGradient>
<linearGradient id="paint7_linear" x1="131.203" y1="154.875" x2="131.203" y2="71.5534" gradientUnits="userSpaceOnUse">
<stop stop-color="#FCFCFC"/>
<stop offset="1" stop-color="#FDFDFD"/>
</linearGradient>
<linearGradient id="paint8_linear" x1="67.2743" y1="131.384" x2="67.2743" y2="59.5024" gradientUnits="userSpaceOnUse">
<stop stop-color="#FCFCFC"/>
<stop offset="1" stop-color="#FDFDFD"/>
</linearGradient>
<linearGradient id="paint9_linear" x1="62.6549" y1="60.36" x2="90.6827" y2="72.436" gradientUnits="userSpaceOnUse">
<stop stop-color="#FF9F55"/>
<stop offset="1" stop-color="#FFD255"/>
</linearGradient>
<linearGradient id="paint10_linear" x1="89.7184" y1="45.4629" x2="102.568" y2="50.999" gradientUnits="userSpaceOnUse">
<stop stop-color="#FF9F55"/>
<stop offset="1" stop-color="#FFD255"/>
</linearGradient>
<linearGradient id="paint11_linear" x1="105.085" y1="79.526" x2="107.105" y2="85.752" gradientUnits="userSpaceOnUse">
<stop stop-color="#FF9F55"/>
<stop offset="1" stop-color="#FFD255"/>
</linearGradient>
<linearGradient id="paint12_linear" x1="115.839" y1="58.1592" x2="119.649" y2="69.8977" gradientUnits="userSpaceOnUse">
<stop stop-color="#FF9F55"/>
<stop offset="1" stop-color="#FFD255"/>
</linearGradient>
<linearGradient id="paint13_linear" x1="116.956" y1="61.6004" x2="118.532" y2="66.4566" gradientUnits="userSpaceOnUse">
<stop stop-color="#FF9F55"/>
<stop offset="1" stop-color="#FFD255"/>
</linearGradient>
<linearGradient id="paint14_linear" x1="32.6804" y1="160.075" x2="32.6804" y2="145.419" gradientUnits="userSpaceOnUse">
<stop stop-color="#FF9F55"/>
<stop offset="1" stop-color="#FFD255"/>
</linearGradient>
<linearGradient id="paint15_linear" x1="32.1637" y1="127.03" x2="32.1637" y2="147.318" gradientUnits="userSpaceOnUse">
<stop stop-color="#40D5E6"/>
<stop offset="1" stop-color="#5577FF"/>
</linearGradient>
<linearGradient id="paint16_linear" x1="46.1261" y1="128.004" x2="46.1261" y2="112.836" gradientUnits="userSpaceOnUse">
<stop stop-color="#FF9F55"/>
<stop offset="1" stop-color="#FFD255"/>
</linearGradient>
<linearGradient id="paint17_linear" x1="28.767" y1="87.2235" x2="28.767" y2="104.263" gradientUnits="userSpaceOnUse">
<stop stop-color="#40D5E6"/>
<stop offset="1" stop-color="#5577FF"/>
</linearGradient>
<linearGradient id="paint18_linear" x1="41.6283" y1="78.8215" x2="41.6283" y2="92.4507" gradientUnits="userSpaceOnUse">
<stop stop-color="#40D5E6"/>
<stop offset="1" stop-color="#5577FF"/>
</linearGradient>
<linearGradient id="paint19_linear" x1="120.408" y1="101.69" x2="86.816" y2="101.69" gradientUnits="userSpaceOnUse">
<stop stop-color="#FF9F55"/>
<stop offset="1" stop-color="#FFD255"/>
</linearGradient>
<linearGradient id="paint20_linear" x1="150.143" y1="140.244" x2="173.023" y2="140.244" gradientUnits="userSpaceOnUse">
<stop stop-color="#FF9F55"/>
<stop offset="1" stop-color="#FFD255"/>
</linearGradient>
<linearGradient id="paint21_linear" x1="139.395" y1="159.299" x2="162.053" y2="159.299" gradientUnits="userSpaceOnUse">
<stop stop-color="#FF9F55"/>
<stop offset="1" stop-color="#FFD255"/>
</linearGradient>
<linearGradient id="paint22_linear" x1="189.675" y1="150.68" x2="146.457" y2="150.68" gradientUnits="userSpaceOnUse">
<stop stop-color="#609FF0"/>
<stop offset="1" stop-color="#5A3F9E"/>
</linearGradient>
<linearGradient id="paint23_linear" x1="158.09" y1="134.107" x2="158.09" y2="129.462" gradientUnits="userSpaceOnUse">
<stop stop-color="#FF9F55"/>
<stop offset="1" stop-color="#FFD255"/>
</linearGradient>
<linearGradient id="paint24_linear" x1="157.926" y1="123.633" x2="157.926" y2="130.064" gradientUnits="userSpaceOnUse">
<stop stop-color="#40D5E6"/>
<stop offset="1" stop-color="#5577FF"/>
</linearGradient>
<linearGradient id="paint25_linear" x1="162.352" y1="123.942" x2="162.352" y2="119.134" gradientUnits="userSpaceOnUse">
<stop stop-color="#FF9F55"/>
<stop offset="1" stop-color="#FFD255"/>
</linearGradient>
<linearGradient id="paint26_linear" x1="156.85" y1="111.016" x2="156.85" y2="116.417" gradientUnits="userSpaceOnUse">
<stop stop-color="#40D5E6"/>
<stop offset="1" stop-color="#5577FF"/>
</linearGradient>
<linearGradient id="paint27_linear" x1="160.926" y1="108.352" x2="160.926" y2="112.672" gradientUnits="userSpaceOnUse">
<stop stop-color="#40D5E6"/>
<stop offset="1" stop-color="#5577FF"/>
</linearGradient>
</defs>
</svg>
