<svg width="38" height="38" viewBox="0 0 38 38" fill="none" xmlns="http://www.w3.org/2000/svg">
<path d="M10.6365 12.1755L8.44438 14.3676L4.46454 10.3878L6.65663 8.1957L10.6365 12.1755Z" fill="#DBD8EA"/>
<path d="M5.79958 6.98262L3.25001 9.53219C2.7526 10.0296 2.7526 10.8361 3.25001 11.3335C3.74743 11.8309 4.55389 11.8309 5.0513 11.3335L7.60087 8.78391C8.09828 8.2865 8.09828 7.48004 7.60087 6.98262C7.10345 6.48528 6.29699 6.48528 5.79958 6.98262Z" fill="#AC80DD"/>
<path d="M33.541 10.3855L29.5612 14.3653L27.3691 12.1732L31.3489 8.1934L33.541 10.3855Z" fill="#DBD8EA"/>
<path d="M32.1997 6.98262L34.7493 9.53219C35.2467 10.0296 35.2467 10.8361 34.7493 11.3335C34.2519 11.8309 33.4454 11.8309 32.948 11.3335L30.3985 8.78391C29.901 8.2865 29.901 7.48004 30.3985 6.98262C30.8959 6.48528 31.7023 6.48528 32.1997 6.98262Z" fill="#AC80DD"/>
<path d="M17.1367 2.85205H20.8636V9.46405H17.1367V2.85205Z" fill="#DBD8EA"/>
<path d="M19 37.4433C27.3411 37.4433 34.103 30.6815 34.103 22.3403C34.103 13.9991 27.3411 7.2373 19 7.2373C10.6588 7.2373 3.89697 13.9991 3.89697 22.3403C3.89697 30.6815 10.6588 37.4433 19 37.4433Z" fill="#7FB2F9"/>
<path d="M18.9999 34.538C25.7366 34.538 31.1977 29.0769 31.1977 22.3403C31.1977 15.6037 25.7366 10.1426 18.9999 10.1426C12.2633 10.1426 6.80225 15.6037 6.80225 22.3403C6.80225 29.0769 12.2633 34.538 18.9999 34.538Z" fill="white"/>
<path d="M19.0003 10.1426C18.3048 10.1426 17.6232 10.2017 16.9595 10.3135C22.7244 11.2847 27.1163 16.2992 27.1163 22.3403C27.1163 28.3814 22.7243 33.3958 16.9595 34.3671C17.6232 34.4788 18.3048 34.538 19.0003 34.538C25.7369 34.538 31.198 29.0769 31.198 22.3403C31.198 15.6037 25.7369 10.1426 19.0003 10.1426Z" fill="#EAF2FF"/>
<path d="M22.0848 4.921H15.9151C15.1546 4.921 14.5381 4.30454 14.5381 3.54402V1.93362C14.5381 1.17318 15.1545 0.556641 15.9151 0.556641H22.0848C22.8452 0.556641 23.4618 1.1731 23.4618 1.93362V3.54402C23.4617 4.30446 22.8452 4.921 22.0848 4.921Z" fill="#AC80DD"/>
<path d="M22.0847 0.556641H18.5879C19.0308 0.556641 19.39 0.915711 19.39 1.35872V4.11892C19.39 4.56186 19.0309 4.921 18.5879 4.921H22.0847C22.8451 4.921 23.4617 4.30454 23.4617 3.54402V1.93362C23.4616 1.1731 22.8451 0.556641 22.0847 0.556641Z" fill="#9D66D5"/>
<path d="M19 13.433V22.3403H27.9074C28.098 22.3403 28.2519 22.1822 28.2448 21.9917C28.0658 17.1596 24.1808 13.2745 19.3486 13.0954C19.1582 13.0885 19 13.2423 19 13.433Z" fill="#DB578E"/>
<path d="M28.2448 21.9916C28.1404 19.1756 26.7772 16.6816 24.7017 15.0549C26.2181 17.0877 27.116 19.609 27.116 22.3403H27.9073C28.098 22.3403 28.2518 22.1822 28.2448 21.9916Z" fill="#DA4093"/>
<path d="M18.9997 23.747C19.7765 23.747 20.4061 23.1173 20.4061 22.3405C20.4061 21.5638 19.7765 20.9341 18.9997 20.9341C18.2229 20.9341 17.5933 21.5638 17.5933 22.3405C17.5933 23.1173 18.2229 23.747 18.9997 23.747Z" fill="#AC80DD"/>
<path d="M12.2625 28.3886L11.8666 28.7846C11.6492 29.0019 11.6493 29.3544 11.8666 29.5718C12.084 29.7891 12.4365 29.7892 12.6539 29.5718L13.0498 29.1758C13.2671 28.9584 13.2671 28.606 13.0498 28.3886C12.8323 28.1712 12.4799 28.1713 12.2625 28.3886Z" fill="black"/>
<path d="M10.0287 21.8821H9.46875C9.16134 21.8821 8.91211 22.1313 8.91211 22.4387C8.91211 22.7461 9.16134 22.9954 9.46875 22.9954H10.0287C10.3361 22.9954 10.5853 22.7461 10.5853 22.4387C10.5853 22.1313 10.3361 21.8821 10.0287 21.8821Z" fill="black"/>
<path d="M24.9501 28.3888C24.7328 28.6062 24.7328 28.9587 24.9501 29.176L25.346 29.572C25.5635 29.7894 25.9158 29.7894 26.1333 29.572C26.3507 29.3546 26.3507 29.0022 26.1333 28.7848L25.7374 28.3888C25.52 28.1715 25.1675 28.1715 24.9501 28.3888Z" fill="black"/>
<path d="M13.0502 15.7015L12.6543 15.3056C12.4369 15.0882 12.0845 15.0882 11.8671 15.3056C11.6498 15.523 11.6498 15.8755 11.8671 16.0928L12.263 16.4887C12.4804 16.7061 12.8329 16.7061 13.0502 16.4887C13.2676 16.2713 13.2676 15.9188 13.0502 15.7015Z" fill="black"/>
<path d="M18.4434 31.4102V31.9701C18.4434 32.2775 18.6926 32.5267 19 32.5267C19.3074 32.5267 19.5566 32.2775 19.5566 31.9701V31.4102C19.5566 31.1027 19.3074 30.8535 19 30.8535C18.6926 30.8535 18.4434 31.1027 18.4434 31.4102Z" fill="black"/>
<path d="M35.1433 11.7272C35.857 11.0136 35.857 9.85239 35.1433 9.13878L32.5938 6.58914C31.8801 5.87553 30.7189 5.87553 30.0053 6.58914C29.365 7.22943 29.3011 8.22893 29.8097 8.94321L28.6986 10.0543C26.6298 8.41767 24.1397 7.29155 21.4201 6.86783V5.47764H22.0849C23.1511 5.47764 24.0185 4.61025 24.0185 3.54402V1.93362C24.0185 0.867395 23.151 0 22.0848 0H15.915C14.8488 0 13.9814 0.867395 13.9814 1.93362V3.54402C13.9814 4.61025 14.8489 5.47764 15.915 5.47764H16.5798V6.86791C13.8602 7.29162 11.3701 8.41774 9.30127 10.0543L8.19021 8.94328C8.69876 8.22893 8.63478 7.2295 7.99457 6.58921C7.28103 5.8756 6.11981 5.8756 5.40612 6.58921L2.85655 9.13878C2.14287 9.85239 2.14287 11.0136 2.85655 11.7272C3.5004 12.3711 4.49954 12.4335 5.21196 11.9242L6.3749 13.0871C4.46844 15.6813 3.34031 18.8813 3.34031 22.3403C3.34031 30.9751 10.3652 38 19 38C27.6347 38 34.6596 30.9751 34.6596 22.3404C34.6596 18.8814 33.5315 15.6814 31.625 13.0872L32.7879 11.9243C33.4981 12.4318 34.4976 12.3731 35.1433 11.7272ZM30.7925 7.37638C30.9323 7.23663 31.1159 7.16671 31.2996 7.16671C31.4832 7.16671 31.6668 7.23663 31.8066 7.37638L34.3562 9.92594C34.6358 10.2055 34.6358 10.6604 34.3562 10.9401C34.0761 11.2202 33.6224 11.2203 33.3421 10.9401L30.7925 8.39043C30.5129 8.11085 30.5129 7.65596 30.7925 7.37638ZM15.0947 3.54402V1.93362C15.0947 1.48126 15.4627 1.11328 15.915 1.11328H22.0848C22.5371 1.11328 22.9051 1.48126 22.9051 1.93362V3.54402C22.9051 3.99638 22.5371 4.36436 22.0848 4.36436H15.915C15.4628 4.36436 15.0947 3.99638 15.0947 3.54402ZM17.6932 5.47764H20.3068V6.73572C19.8757 6.69995 19.4401 6.68073 19 6.68073C18.5598 6.68073 18.1242 6.69995 17.6932 6.73572V5.47764ZM3.64379 10.94C3.36421 10.6604 3.36421 10.2055 3.64379 9.92587L6.19336 7.3763C6.47286 7.0968 6.92782 7.09665 7.20741 7.3763C7.48699 7.65589 7.48699 8.11077 7.20741 8.39036L4.65777 10.94C4.37767 11.2202 3.92404 11.2202 3.64379 10.94ZM6.01716 11.1551L7.42242 9.74982L8.45035 10.7778C7.96073 11.2248 7.50005 11.703 7.07025 12.2082L6.01716 11.1551ZM19 36.8867C10.9791 36.8867 4.45359 30.3613 4.45359 22.3404C4.45359 14.3195 10.9791 7.79401 19 7.79401C27.0208 7.79401 33.5463 14.3195 33.5463 22.3404C33.5463 30.3613 27.0208 36.8867 19 36.8867ZM29.5496 10.7778L30.5775 9.74982L31.9827 11.1551L30.9297 12.2082C30.4998 11.703 30.0391 11.2248 29.5496 10.7778Z" fill="black"/>
<path d="M7.35881 22.3403C7.35881 15.9214 12.581 10.6992 18.9999 10.6992C21.6502 10.6992 24.1467 11.5667 26.2197 13.208C26.4607 13.3988 26.8108 13.3581 27.0017 13.117C27.1925 12.876 27.1518 12.526 26.9108 12.3351C24.6392 10.5366 21.9036 9.58594 19 9.58594C11.9672 9.58594 6.24561 15.3075 6.24561 22.3403C6.24561 25.2361 7.19167 27.9659 8.98153 30.2345C9.17205 30.4758 9.52207 30.5171 9.76335 30.3267C10.0047 30.1363 10.046 29.7863 9.85561 29.5449C8.22213 27.4747 7.35881 24.9834 7.35881 22.3403Z" fill="black"/>
<path d="M28.0471 14.1398C27.8103 14.3358 27.7772 14.6866 27.9732 14.9235C29.6938 17.0026 30.6413 19.6367 30.6413 22.3404C30.6413 28.7593 25.4192 33.9814 19.0003 33.9814C16.3009 33.9814 13.6703 33.0366 11.5928 31.321C11.3557 31.1252 11.0049 31.1588 10.8091 31.3957C10.6133 31.6328 10.6468 31.9836 10.8839 32.1794C13.1603 34.0594 16.0427 35.0947 19.0002 35.0947C26.0329 35.0947 31.7545 29.3731 31.7545 22.3404C31.7545 19.3782 30.7162 16.4921 28.8308 14.2138C28.6348 13.977 28.2839 13.9437 28.0471 14.1398Z" fill="black"/>
<path d="M28.8011 21.9711C28.7092 19.4932 27.6915 17.1613 25.9352 15.4051C24.1789 13.6488 21.8471 12.6311 19.3693 12.5393C18.8739 12.5193 18.4433 12.9196 18.4433 13.433V20.4582C17.6312 20.6988 17.0369 21.4513 17.0369 22.3404C17.0369 23.4228 17.9175 24.3035 19 24.3035C19.889 24.3035 20.6415 23.7091 20.8821 22.897H27.9073C28.4128 22.897 28.8198 22.4763 28.8011 21.9711ZM19 23.1901C18.5314 23.1901 18.1501 22.8089 18.1501 22.3403C18.1501 21.8718 18.5313 21.4905 19 21.4905C19.4686 21.4905 19.8498 21.8717 19.8498 22.3403C19.8498 22.8089 19.4686 23.1901 19 23.1901ZM20.8821 21.7837C20.6938 21.1481 20.1921 20.6463 19.5566 20.4581V13.6632C21.6672 13.7966 23.6452 14.6895 25.148 16.1923C26.6509 17.6951 27.5437 19.673 27.6771 21.7837H20.8821Z" fill="black"/>
</svg>
