<svg width="189" height="189" viewBox="0 0 189 189" fill="none" xmlns="http://www.w3.org/2000/svg">
<path d="M189 94.5C189 146.691 146.691 189 94.5 189C42.3091 189 0 146.691 0 94.5C0 42.3091 42.3091 0 94.5 0C146.691 0 189 42.3091 189 94.5ZM15.12 94.5C15.12 138.34 50.6596 173.88 94.5 173.88C138.34 173.88 173.88 138.34 173.88 94.5C173.88 50.6596 138.34 15.12 94.5 15.12C50.6596 15.12 15.12 50.6596 15.12 94.5Z" fill="#E9E9FF"/>
<path d="M94.5 7.56001C94.5 3.38475 97.8902 -0.0314221 102.052 0.302242C114.848 1.32807 127.328 4.9528 138.719 10.9842C152.343 18.1973 163.995 28.6336 172.659 41.3831C181.324 54.1326 186.738 68.8082 188.429 84.1301C190.121 99.4521 188.039 114.955 182.364 129.288C176.689 143.62 167.595 156.347 155.873 166.358C144.151 176.37 130.158 183.361 115.115 186.724C100.071 190.087 84.4327 189.718 69.564 185.651C57.1314 182.249 45.5523 176.348 35.5224 168.337C32.2601 165.731 32.1273 160.92 34.9855 157.877C37.8436 154.833 42.608 154.715 45.9097 157.271C54.1125 163.621 63.501 168.316 73.5538 171.067C86.0435 174.483 99.1794 174.793 111.816 171.968C124.453 169.144 136.207 163.27 146.053 154.861C155.899 146.452 163.539 135.761 168.306 123.722C173.072 111.682 174.822 98.6597 173.401 85.7893C171.98 72.9188 167.432 60.5914 160.154 49.8818C152.875 39.1723 143.088 30.4058 131.644 24.3467C122.433 19.4699 112.375 16.4662 102.049 15.4797C97.8923 15.0827 94.5 11.7353 94.5 7.56001Z" fill="url(#paint0_radial)"/>
<path d="M72.9874 110.755C72.7208 110.755 72.4941 110.661 72.3074 110.475C72.1208 110.288 72.0274 110.061 72.0274 109.795V104.675H59.3474C59.0808 104.675 58.8541 104.581 58.6674 104.395C58.4808 104.208 58.3874 103.981 58.3874 103.715V100.995C58.3874 100.568 58.5341 100.168 58.8274 99.7946L70.6274 83.4346C70.7608 83.2213 70.9608 83.0613 71.2274 82.9546C71.4941 82.8213 71.7874 82.7546 72.1074 82.7546H76.4674C76.7608 82.7546 76.9874 82.848 77.1474 83.0346C77.3341 83.1946 77.4274 83.4213 77.4274 83.7146V99.9546H80.9874C81.2808 99.9546 81.5208 100.048 81.7074 100.235C81.8941 100.395 81.9874 100.621 81.9874 100.915V103.715C81.9874 103.981 81.8941 104.208 81.7074 104.395C81.5208 104.581 81.2941 104.675 81.0274 104.675H77.4274V109.795C77.4274 110.061 77.3341 110.288 77.1474 110.475C76.9874 110.661 76.7608 110.755 76.4674 110.755H72.9874ZM72.1474 100.115V88.5546L63.9474 100.115H72.1474ZM86.8859 114.115C86.6725 114.115 86.4859 114.035 86.3259 113.875C86.1659 113.715 86.0859 113.515 86.0859 113.275C86.0859 113.115 86.1125 112.968 86.1659 112.835L99.8059 80.1546C99.8859 79.9413 100.019 79.7546 100.206 79.5946C100.419 79.408 100.686 79.3146 101.006 79.3146H103.606C103.819 79.3146 104.006 79.3946 104.166 79.5546C104.353 79.7146 104.446 79.9146 104.446 80.1546C104.446 80.2346 104.406 80.3813 104.326 80.5946L90.6859 113.275C90.4192 113.835 90.0059 114.115 89.4459 114.115H86.8859ZM119.248 111.195C117.034 111.195 115.128 110.821 113.528 110.075C111.954 109.328 110.741 108.341 109.888 107.115C109.061 105.888 108.621 104.568 108.568 103.155V103.075C108.568 102.861 108.648 102.688 108.808 102.555C108.968 102.421 109.168 102.355 109.408 102.355H113.128C113.741 102.355 114.141 102.621 114.328 103.155C114.701 104.328 115.314 105.195 116.168 105.755C117.048 106.315 118.074 106.595 119.248 106.595C120.741 106.595 121.981 106.141 122.968 105.235C123.981 104.328 124.488 103.061 124.488 101.435C124.488 99.9946 123.981 98.8213 122.968 97.9146C121.981 97.008 120.741 96.5546 119.248 96.5546C118.448 96.5546 117.794 96.6613 117.288 96.8746C116.781 97.088 116.288 97.3813 115.808 97.7546C115.488 97.9946 115.234 98.168 115.048 98.2746C114.888 98.3546 114.688 98.3946 114.448 98.3946H110.768C110.528 98.3946 110.314 98.3146 110.128 98.1546C109.968 97.968 109.888 97.7546 109.888 97.5146L111.288 83.8346C111.314 83.5146 111.421 83.2613 111.608 83.0746C111.821 82.8613 112.088 82.7546 112.408 82.7546H127.448C127.714 82.7546 127.941 82.848 128.128 83.0346C128.314 83.2213 128.408 83.448 128.408 83.7146V86.3946C128.408 86.6613 128.314 86.888 128.128 87.0746C127.941 87.2613 127.714 87.3546 127.448 87.3546H115.888L115.248 93.8746C116.554 92.968 118.301 92.5146 120.488 92.5146C122.221 92.5146 123.821 92.888 125.288 93.6346C126.781 94.3546 127.968 95.408 128.848 96.7946C129.728 98.1546 130.168 99.7413 130.168 101.555C130.168 103.501 129.714 105.208 128.808 106.675C127.901 108.115 126.621 109.235 124.968 110.035C123.341 110.808 121.434 111.195 119.248 111.195Z" fill="#070417"/>
<defs>
<radialGradient id="paint0_radial" cx="0" cy="0" r="1" gradientUnits="userSpaceOnUse" gradientTransform="translate(25.9875 -80.325) rotate(42.7688) scale(257.458)">
<stop stop-color="white"/>
<stop offset="1" stop-color="#2F80ED"/>
</radialGradient>
</defs>
</svg>
