<svg width="289" height="213" viewBox="0 0 289 213" fill="none" xmlns="http://www.w3.org/2000/svg">
<path d="M0 144.34H57.62C57.62 125.29 63.78 107.68 74.19 93.37L27.59 59.51C10.25 83.33 0 112.63 0 144.34Z" fill="#FF4230"/>
<path d="M231.07 144.34H288.69C288.69 112.63 278.44 83.33 261.1 59.51L214.49 93.37C224.91 107.69 231.07 125.29 231.07 144.34Z" fill="#00B81E"/>
<path d="M117.54 61.8601L99.73 7.06006C70.46 16.5601 45.31 35.1501 27.58 59.5201L74.18 93.3801C84.84 78.7401 99.95 67.5701 117.54 61.8601Z" fill="#FFB700"/>
<path d="M144.34 57.62C153.7 57.62 162.7 59.12 171.14 61.86L188.94 7.06001C174.89 2.50001 159.91 0 144.33 0C128.76 0 113.77 2.50001 99.72 7.06001L117.53 61.86C125.98 59.12 134.98 57.62 144.34 57.62Z" fill="#FFEA00"/>
<path d="M214.49 93.3801L261.1 59.5201C243.37 35.1601 218.22 16.5701 188.95 7.06006L171.15 61.8601C188.73 67.5701 203.84 78.7401 214.49 93.3801Z" fill="#83C400"/>
<path d="M244.32 102.73C245.88 102.73 247.33 102.95 248.53 103.33C248.53 103.32 248.53 103.31 248.53 103.31C248.53 100.98 246.64 99.1 244.32 99.1C241.99 99.1 240.11 100.99 240.11 103.31C240.11 103.32 240.11 103.33 240.11 103.33C241.31 102.95 242.76 102.73 244.32 102.73Z" fill="#00AB1C"/>
<path d="M258.86 102.73C260.42 102.73 261.87 102.95 263.07 103.33C263.07 103.32 263.07 103.31 263.07 103.31C263.07 100.98 261.18 99.1 258.86 99.1C256.53 99.1 254.65 100.99 254.65 103.31C254.65 103.32 254.65 103.33 254.65 103.33C255.85 102.95 257.3 102.73 258.86 102.73Z" fill="#00AB1C"/>
<path d="M261.59 109.09C261.59 114.61 257.11 119.09 251.59 119.09C246.07 119.09 241.59 114.61 241.59 109.09H261.59Z" fill="#00AB1C"/>
<path d="M43.58 119.83C43.02 119.83 42.51 119.47 42.35 118.91C41.32 115.39 38.25 113.03 34.7 113.03C31.15 113.03 28.07 115.39 27.05 118.91C26.85 119.59 26.14 119.98 25.46 119.78C24.78 119.58 24.39 118.87 24.59 118.19C25.94 113.57 30 110.46 34.7 110.46C39.4 110.46 43.46 113.57 44.81 118.19C45.01 118.87 44.62 119.58 43.94 119.78C43.82 119.82 43.7 119.83 43.58 119.83Z" fill="#C73528"/>
<path d="M30.3 102.19C30.3 104.4 28.51 106.19 26.3 106.19C24.09 106.19 22.3 104.4 22.3 102.19C22.3 99.98 24.09 98.19 26.3 98.19C28.51 98.18 30.3 99.98 30.3 102.19Z" fill="#C73528"/>
<path d="M47.0901 102.19C47.0901 104.4 45.3001 106.19 43.0901 106.19C40.8801 106.19 39.0901 104.4 39.0901 102.19C39.0901 99.98 40.8801 98.19 43.0901 98.19C45.3001 98.18 47.0901 99.98 47.0901 102.19Z" fill="#C73528"/>
<path d="M151.08 150.67L267.49 85.3301L144.83 138.02L151.08 150.67Z" fill="#656D78"/>
<path d="M147.95 144.34L267.49 85.3301L144.83 138.02L147.95 144.34Z" fill="#494E57"/>
<path d="M70.13 44.83C70.13 46.87 68.47 48.53 66.43 48.53C64.39 48.53 62.73 46.87 62.73 44.83C62.73 42.79 64.39 41.13 66.43 41.13C68.48 41.13 70.13 42.79 70.13 44.83Z" fill="#E8AA00"/>
<path d="M85.63 44.83C85.63 46.87 83.97 48.53 81.93 48.53C79.89 48.53 78.23 46.87 78.23 44.83C78.23 42.79 79.89 41.13 81.93 41.13C83.98 41.13 85.63 42.79 85.63 44.83Z" fill="#E8AA00"/>
<path d="M84.22 57.9C84.01 57.9 83.79 57.84 83.59 57.72C77.93 54.16 70.43 54.16 64.78 57.72C64.23 58.07 63.5 57.9 63.16 57.35C62.81 56.8 62.98 56.07 63.53 55.72C69.94 51.69 78.4399 51.69 84.8499 55.72C85.3999 56.07 85.57 56.79 85.22 57.35C84.99 57.7 84.61 57.9 84.22 57.9Z" fill="#E8AA00"/>
<path d="M140.54 21.25C140.54 23.41 138.79 25.16 136.63 25.16C134.47 25.16 132.72 23.41 132.72 21.25C132.72 19.09 134.47 17.34 136.63 17.34C138.79 17.34 140.54 19.09 140.54 21.25Z" fill="#FAC400"/>
<path d="M156.93 21.25C156.93 23.41 155.18 25.16 153.02 25.16C150.86 25.16 149.11 23.41 149.11 21.25C149.11 19.09 150.86 17.34 153.02 17.34C155.18 17.34 156.93 19.09 156.93 21.25Z" fill="#FAC400"/>
<path d="M153.79 35.5599H135.87C135.18 35.5599 134.62 34.9999 134.62 34.3099C134.62 33.6199 135.18 33.0599 135.87 33.0599H153.79C154.48 33.0599 155.04 33.6199 155.04 34.3099C155.04 34.9999 154.48 35.5599 153.79 35.5599Z" fill="#FAC400"/>
<path d="M212.21 64.36C205.7 64.36 200.07 60.16 198.2 53.91C198 53.25 198.38 52.56 199.04 52.36C199.7 52.16 200.39 52.54 200.59 53.19C202.15 58.38 206.82 61.86 212.22 61.86C217.62 61.86 222.29 58.37 223.85 53.19C224.05 52.53 224.74 52.16 225.4 52.36C226.06 52.56 226.43 53.25 226.24 53.91C224.35 60.17 218.72 64.36 212.21 64.36Z" fill="#B4BA00"/>
<path d="M207.94 45.65C207.94 47.8 206.2 49.5401 204.05 49.5401C201.9 49.5401 200.16 47.8 200.16 45.65C200.16 43.5 201.9 41.7601 204.05 41.7601C206.2 41.7501 207.94 43.5 207.94 45.65Z" fill="#B4BA00"/>
<path d="M224.26 45.65C224.26 47.8 222.52 49.5401 220.37 49.5401C218.22 49.5401 216.48 47.8 216.48 45.65C216.48 43.5 218.22 41.7601 220.37 41.7601C222.51 41.7501 224.26 43.5 224.26 45.65Z" fill="#B4BA00"/>
<path d="M182.632 171.57C197.047 148.758 190.239 118.578 167.426 104.163C144.614 89.748 114.434 96.5556 100.019 119.368C85.604 142.181 92.4116 172.36 115.224 186.776C138.037 201.191 168.217 194.383 182.632 171.57Z" fill="#D9D9D9"/>
<path d="M190.17 145.47C190.17 172.46 168.29 194.33 141.31 194.33C114.32 194.33 92.4501 172.45 92.4501 145.47H190.17Z" fill="#BDBDBD"/>
<path d="M154.269 188.741C178.17 181.594 191.752 156.424 184.605 132.522C177.458 108.621 152.288 95.0389 128.387 102.186C104.485 109.333 90.9032 134.503 98.0505 158.405C105.198 182.306 130.368 195.888 154.269 188.741Z" fill="#EBEBEB"/>
<path d="M156.993 183.874C178.194 175.221 188.366 151.02 179.713 129.819C171.06 108.618 146.858 98.4458 125.657 107.099C104.456 115.752 94.2842 139.953 102.937 161.154C111.59 182.355 135.792 192.528 156.993 183.874Z" fill="#00B81E"/>
<path d="M125.97 135.87C129.26 135.87 132.32 136.33 134.86 137.13C134.86 137.11 134.86 137.1 134.86 137.08C134.86 132.17 130.88 128.19 125.97 128.19C121.06 128.19 117.08 132.17 117.08 137.08C117.08 137.1 117.08 137.11 117.08 137.13C119.62 136.34 122.67 135.87 125.97 135.87Z" fill="#00AB1C"/>
<path d="M156.66 135.87C159.95 135.87 163.01 136.33 165.55 137.13C165.55 137.11 165.55 137.1 165.55 137.08C165.55 132.17 161.57 128.19 156.66 128.19C151.75 128.19 147.77 132.17 147.77 137.08C147.77 137.1 147.77 137.11 147.77 137.13C150.3 136.34 153.36 135.87 156.66 135.87Z" fill="#00AB1C"/>
<path d="M162.41 149.28C162.41 160.93 152.96 170.38 141.31 170.38C129.66 170.38 120.21 160.93 120.21 149.28H162.41Z" fill="#00AB1C"/>
<path d="M4.58004 164.66H3.50005C3.28005 164.66 3.17004 164.55 3.17004 164.33V149.62C3.17004 149.4 3.28005 149.29 3.50005 149.29H9.10004C10.2 149.29 11.06 149.61 11.68 150.24C12.3 150.87 12.61 151.73 12.61 152.83V155.48C12.61 156.6 12.3 157.46 11.68 158.09C11.06 158.71 10.2 159.02 9.10004 159.02H5.15004C4.99004 159.02 4.91004 159.09 4.91004 159.24V164.33C4.92004 164.54 4.80004 164.66 4.58004 164.66ZM5.15004 157.46H8.86004C10.2 157.46 10.87 156.77 10.87 155.4V152.89C10.87 151.5 10.2 150.81 8.86004 150.81H5.15004C4.99004 150.81 4.91004 150.88 4.91004 151.02V157.24C4.92004 157.39 4.99004 157.46 5.15004 157.46Z" fill="#494E57"/>
<path d="M21.89 164.66H19.04C17.94 164.66 17.08 164.35 16.45 163.73C15.82 163.11 15.51 162.24 15.51 161.13V152.83C15.51 151.71 15.82 150.84 16.45 150.22C17.08 149.6 17.95 149.29 19.04 149.29H21.89C22.99 149.29 23.85 149.61 24.49 150.24C25.12 150.87 25.43 151.73 25.43 152.83V161.13C25.43 162.23 25.12 163.1 24.49 163.73C23.86 164.34 22.99 164.66 21.89 164.66ZM19.24 163.13H21.68C23.02 163.13 23.69 162.44 23.69 161.05V152.89C23.69 151.5 23.02 150.81 21.68 150.81H19.24C17.92 150.81 17.26 151.5 17.26 152.89V161.05C17.25 162.44 17.92 163.13 19.24 163.13Z" fill="#494E57"/>
<path d="M35.12 164.66H32.27C31.17 164.66 30.31 164.35 29.68 163.73C29.05 163.11 28.74 162.24 28.74 161.13V152.83C28.74 151.71 29.05 150.84 29.68 150.22C30.31 149.6 31.18 149.29 32.27 149.29H35.12C36.22 149.29 37.09 149.61 37.72 150.24C38.35 150.87 38.66 151.73 38.66 152.83V161.13C38.66 162.23 38.34 163.1 37.72 163.73C37.08 164.34 36.22 164.66 35.12 164.66ZM32.46 163.13H34.9C36.24 163.13 36.91 162.44 36.91 161.05V152.9C36.91 151.51 36.24 150.82 34.9 150.82H32.46C31.14 150.82 30.47 151.51 30.47 152.9V161.06C30.48 162.43 31.14 163.13 32.46 163.13Z" fill="#494E57"/>
<path d="M43.6001 164.66H42.5201C42.3001 164.66 42.1901 164.55 42.1901 164.33V149.62C42.1901 149.4 42.3001 149.28 42.5201 149.29H48.0201C49.1201 149.29 49.9901 149.61 50.6301 150.24C51.2701 150.87 51.5901 151.73 51.5901 152.83V155C51.5901 155.89 51.3801 156.63 50.9501 157.21C50.5201 157.79 49.9201 158.18 49.1601 158.37V158.46L51.9301 164.27C52.0701 164.52 51.9901 164.65 51.6901 164.65H50.6101C50.3401 164.65 50.1401 164.54 50.0101 164.32L47.3301 158.53H44.1701C44.0101 158.53 43.9301 158.6 43.9301 158.75V164.32C43.9401 164.55 43.8301 164.66 43.6001 164.66ZM44.1801 157.08H47.7901C49.1601 157.08 49.8501 156.39 49.8501 155.02V152.89C49.8501 151.5 49.1601 150.81 47.7901 150.81H44.1801C44.0201 150.81 43.9401 150.88 43.9401 151.02V156.86C43.9401 157 44.0201 157.08 44.1801 157.08Z" fill="#494E57"/>
<path d="M242.53 164.66H239.95C238.85 164.66 237.99 164.35 237.36 163.73C236.73 163.11 236.42 162.24 236.42 161.12V152.82C236.42 151.7 236.73 150.83 237.37 150.21C238 149.59 238.86 149.28 239.96 149.28H242.54C243.64 149.28 244.5 149.6 245.12 150.22C245.74 150.85 246.05 151.71 246.05 152.81V153.79C246.05 154.03 245.94 154.15 245.71 154.15H244.63C244.41 154.15 244.3 154.03 244.3 153.79V152.88C244.3 151.49 243.64 150.8 242.31 150.8H240.14C238.82 150.8 238.16 151.49 238.16 152.88V161.03C238.16 162.42 238.82 163.11 240.15 163.11H242.32C243.64 163.11 244.3 162.42 244.3 161.03V158.35C244.3 158.19 244.23 158.11 244.09 158.11H241.72C241.5 158.11 241.39 158.01 241.39 157.8V156.91C241.39 156.69 241.5 156.58 241.72 156.58H245.57C245.89 156.58 246.05 156.75 246.05 157.08V161.1C246.05 162.22 245.73 163.08 245.12 163.71C244.49 164.35 243.63 164.66 242.53 164.66Z" fill="#494E57"/>
<path d="M255.73 164.66H252.89C251.79 164.66 250.93 164.35 250.29 163.73C249.66 163.11 249.35 162.24 249.35 161.12V152.82C249.35 151.71 249.67 150.84 250.29 150.22C250.92 149.6 251.79 149.29 252.89 149.29H255.73C256.83 149.29 257.69 149.61 258.33 150.23C258.95 150.86 259.27 151.72 259.27 152.82V161.12C259.27 162.22 258.95 163.09 258.33 163.71C257.69 164.34 256.83 164.66 255.73 164.66ZM253.08 163.13H255.52C256.86 163.13 257.53 162.44 257.53 161.05V152.9C257.53 151.51 256.86 150.82 255.52 150.82H253.08C251.76 150.82 251.1 151.51 251.1 152.9V161.05C251.09 162.43 251.75 163.13 253.08 163.13Z" fill="#494E57"/>
<path d="M268.95 164.66H266.11C265.01 164.66 264.15 164.35 263.51 163.73C262.88 163.11 262.57 162.24 262.57 161.12V152.82C262.57 151.71 262.89 150.84 263.51 150.22C264.14 149.6 265.01 149.29 266.11 149.29H268.95C270.05 149.29 270.91 149.61 271.55 150.23C272.17 150.86 272.49 151.72 272.49 152.82V161.12C272.49 162.22 272.17 163.09 271.55 163.71C270.92 164.34 270.05 164.66 268.95 164.66ZM266.3 163.13H268.74C270.08 163.13 270.75 162.44 270.75 161.05V152.9C270.75 151.51 270.08 150.82 268.74 150.82H266.3C264.98 150.82 264.32 151.51 264.32 152.9V161.05C264.31 162.43 264.98 163.13 266.3 163.13Z" fill="#494E57"/>
<path d="M276.03 164.32V149.61C276.03 149.39 276.14 149.28 276.36 149.28H282.24C283.34 149.28 284.2 149.6 284.84 150.22C285.47 150.85 285.78 151.71 285.78 152.81V161.11C285.78 162.21 285.46 163.08 284.84 163.7C284.21 164.33 283.34 164.64 282.24 164.64H276.36C276.14 164.66 276.03 164.55 276.03 164.32ZM278.02 163.13H282.04C283.38 163.13 284.05 162.44 284.05 161.05V152.9C284.05 151.51 283.38 150.82 282.04 150.82H278.02C277.86 150.82 277.78 150.89 277.79 151.04V162.92C277.78 163.06 277.86 163.13 278.02 163.13Z" fill="#494E57"/>
</svg>
