<svg width="489" height="12" viewBox="0 0 489 12" fill="none" xmlns="http://www.w3.org/2000/svg">
<path d="M216.7 11.1H211.1C209.6 11.1 208.4 9.9 208.4 8.4V2.7C208.4 1.2 209.6 0 211.1 0H216.7C218.2 0 219.4 1.2 219.4 2.7V8.3C219.4 9.8 218.2 11.1 216.7 11.1Z" fill="#FFC900"/>
<path d="M231.9 11.1H226.3C224.8 11.1 223.6 9.9 223.6 8.4V2.7C223.6 1.2 224.8 0 226.3 0H231.9C233.4 0 234.6 1.2 234.6 2.7V8.3C234.6 9.8 233.4 11.1 231.9 11.1Z" fill="#FF71A3"/>
<path d="M247.1 11.1H241.5C240 11.1 238.8 9.9 238.8 8.4V2.7C238.8 1.2 240 0 241.5 0H247.1C248.6 0 249.8 1.2 249.8 2.7V8.3C249.8 9.8 248.6 11.1 247.1 11.1Z" fill="#8DDA98"/>
<path d="M262.3 11.1H256.7C255.2 11.1 254 9.9 254 8.4V2.7C254 1.2 255.2 0 256.7 0H262.3C263.8 0 265 1.2 265 2.7V8.3C265 9.8 263.8 11.1 262.3 11.1Z" fill="#A557DC"/>
<path d="M277.5 11.1H271.9C270.4 11.1 269.2 9.9 269.2 8.4V2.7C269.2 1.2 270.4 0 271.9 0H277.5C279 0 280.2 1.2 280.2 2.7V8.3C280.2 9.8 279 11.1 277.5 11.1Z" fill="#00B2F8"/>
<path d="M293.3 5.5H487.6" stroke="#768DAD" stroke-miterlimit="10" stroke-linecap="round" stroke-linejoin="round"/>
<path d="M1 5.5H195.3" stroke="#768DAD" stroke-miterlimit="10" stroke-linecap="round" stroke-linejoin="round"/>
</svg>
