<svg width="25" height="25" viewBox="0 0 25 25" fill="none" xmlns="http://www.w3.org/2000/svg">
<g clip-path="url(#clip0)">
<path d="M24.786 0.214629C24.5788 0.00735333 24.2679 -0.0564162 23.9961 0.0525194L0.460914 9.46648C0.191578 9.57415 0.0112558 9.83064 0.000953046 10.1205C-0.00934969 10.4103 0.152369 10.679 0.413258 10.8055L9.69387 15.3066L14.1949 24.5872C14.3177 24.8404 14.5741 25 14.8538 25C14.8625 25 14.8712 24.9999 14.88 24.9995C15.1698 24.9892 15.4262 24.8089 15.534 24.5396L24.9481 1.00457C25.0569 0.732549 24.9931 0.421806 24.786 0.214629Z" fill="#4DBBEB"/>
<path d="M24.7854 0.2146L9.69336 15.3065L14.1944 24.5872C14.3172 24.8403 14.5735 24.9999 14.8533 24.9999C14.862 24.9999 14.8707 24.9998 14.8794 24.9995C15.1693 24.9892 15.4257 24.8088 15.5334 24.5395L24.9475 1.00454C25.0563 0.732519 24.9926 0.421777 24.7854 0.2146Z" fill="#0C5D79"/>
</g>
<defs>
<clipPath id="clip0">
<rect width="25" height="25" fill="white"/>
</clipPath>
</defs>
</svg>
