<svg width="23" height="23" viewBox="0 0 23 23" fill="none" xmlns="http://www.w3.org/2000/svg">
<path d="M10.4219 11.5C10.4219 11.7859 10.5355 12.0602 10.7377 12.2623C10.9398 12.4645 11.2141 12.5781 11.5 12.5781C11.7859 12.5781 12.0602 12.4645 12.2624 12.2623C12.4645 12.0602 12.5781 11.7859 12.5781 11.5C12.5781 11.2141 12.4645 10.9398 12.2624 10.7376C12.0602 10.5355 11.7859 10.4219 11.5 10.4219C11.2141 10.4219 10.9398 10.5355 10.7377 10.7376C10.5355 10.9398 10.4219 11.2141 10.4219 11.5ZM14.9141 11.5C14.9141 11.7859 15.0277 12.0602 15.2298 12.2623C15.432 12.4645 15.7063 12.5781 15.9922 12.5781C16.2781 12.5781 16.5524 12.4645 16.7545 12.2623C16.9567 12.0602 17.0703 11.7859 17.0703 11.5C17.0703 11.2141 16.9567 10.9398 16.7545 10.7376C16.5524 10.5355 16.2781 10.4219 15.9922 10.4219C15.7063 10.4219 15.432 10.5355 15.2298 10.7376C15.0277 10.9398 14.9141 11.2141 14.9141 11.5ZM5.92969 11.5C5.92969 11.7859 6.04328 12.0602 6.24547 12.2623C6.44766 12.4645 6.72188 12.5781 7.00782 12.5781C7.29375 12.5781 7.56798 12.4645 7.77017 12.2623C7.97236 12.0602 8.08594 11.7859 8.08594 11.5C8.08594 11.2141 7.97236 10.9398 7.77017 10.7376C7.56798 10.5355 7.29375 10.4219 7.00782 10.4219C6.72188 10.4219 6.44766 10.5355 6.24547 10.7376C6.04328 10.9398 5.92969 11.2141 5.92969 11.5ZM20.7809 7.60078C20.2732 6.39463 19.5455 5.31201 18.6179 4.38213C17.6967 3.45763 16.6032 2.72276 15.3992 2.21914C14.1639 1.70029 12.8522 1.4375 11.5 1.4375H11.4551C10.094 1.44424 8.77549 1.71377 7.53565 2.24385C6.34198 2.75264 5.2587 3.48881 4.3462 4.41133C3.42754 5.33896 2.70655 6.41709 2.20792 7.61875C1.69131 8.86309 1.43077 10.186 1.43751 11.5472C1.44513 13.107 1.81416 14.6439 2.51563 16.0371V19.4512C2.51563 19.7252 2.62449 19.988 2.81825 20.1818C3.01201 20.3755 3.27481 20.4844 3.54883 20.4844H6.96514C8.35838 21.1858 9.89524 21.5549 11.4551 21.5625H11.5023C12.8477 21.5625 14.1526 21.302 15.3813 20.7921C16.5792 20.2945 17.6686 19.5682 18.5887 18.6538C19.5163 17.7352 20.2463 16.6615 20.7562 15.4644C21.2862 14.2245 21.5558 12.9061 21.5625 11.5449C21.5692 10.1771 21.3042 8.84961 20.7809 7.60078ZM17.387 17.4387C15.8125 18.9975 13.7236 19.8555 11.5 19.8555H11.4618C10.1074 19.8487 8.76202 19.5118 7.57383 18.8784L7.38516 18.7773H4.22266V15.6148L4.12159 15.4262C3.48819 14.238 3.15127 12.8926 3.14454 11.5382C3.13555 9.29883 3.99131 7.19648 5.56133 5.61299C7.12911 4.02949 9.22471 3.15352 11.4641 3.14453H11.5023C12.6253 3.14453 13.7147 3.3624 14.7411 3.79365C15.7429 4.21367 16.6413 4.81787 17.414 5.59053C18.1844 6.36094 18.7908 7.26162 19.2108 8.26338C19.6466 9.30107 19.8645 10.4017 19.86 11.5382C19.8465 13.7753 18.9683 15.8709 17.387 17.4387Z" fill="#FF9F2E"/>
</svg>
