<svg width="23" height="23" viewBox="0 0 23 23" fill="none" xmlns="http://www.w3.org/2000/svg">
<path d="M18.2764 4.72362C17.3894 3.82955 16.3338 3.12033 15.1708 2.63703C14.0078 2.15373 12.7604 1.90595 11.501 1.90803C10.2413 1.90606 8.99371 2.15389 7.8304 2.63718C6.66709 3.12046 5.61115 3.82962 4.72367 4.72362C0.987129 8.4592 0.987129 14.5398 4.72367 18.2764C5.61117 19.1706 6.66724 19.8799 7.83075 20.3632C8.99426 20.8465 10.2421 21.0942 11.502 21.092C12.7613 21.0942 14.0086 20.8465 15.1716 20.3634C16.3347 19.8803 17.3903 19.1712 18.2774 18.2773C22.0139 14.5417 22.0139 8.46112 18.2764 4.72362ZM11.6735 3.83332H11.3295C11.3879 3.83237 11.4435 3.8247 11.502 3.8247C11.5604 3.8247 11.615 3.83237 11.6735 3.83332ZM17.4829 16.2917H15.3334L14.1278 18.7028C13.2868 19.0135 12.3976 19.1735 11.501 19.1753C10.6028 19.1736 9.7119 19.0134 8.86942 18.7019L7.66671 16.3012H5.52484C4.73463 15.3188 4.20024 14.1559 3.96946 12.9164L5.75005 10.5417L4.58471 8.21003C4.95655 7.41901 5.46197 6.69801 6.07875 6.0787C6.94201 5.21242 8.00011 4.56541 9.16459 4.19174L11.5 5.74999L13.8365 4.1927C15.0006 4.56663 16.0586 5.21324 16.9223 6.0787C17.5384 6.69728 18.0435 7.41727 18.4154 8.20716L17.25 10.5417L19.0306 12.9164C18.8009 14.1519 18.2692 15.3114 17.4829 16.2917Z" fill="#F24500"/>
<path d="M8.14587 10.5417L9.58337 14.375H13.4167L14.8542 10.5417L11.5 8.14584L8.14587 10.5417Z" fill="#F24500"/>
</svg>
