<svg width="23" height="23" viewBox="0 0 23 23" fill="none" xmlns="http://www.w3.org/2000/svg">
<g clip-path="url(#clip0)">
<path d="M11.1952 6.66013L3.83319 13.4815V20.8438C3.83319 21.0344 3.90051 21.2172 4.02032 21.352C4.14013 21.4868 4.30264 21.5625 4.47208 21.5625L8.94669 21.5495C9.11558 21.5485 9.27727 21.4724 9.39639 21.3377C9.51552 21.203 9.58239 21.0207 9.58239 20.8307V16.5313C9.58239 16.3406 9.6497 16.1578 9.76951 16.023C9.88933 15.8882 10.0518 15.8125 10.2213 15.8125H12.7768C12.9463 15.8125 13.1088 15.8882 13.2286 16.023C13.3484 16.1578 13.4157 16.3406 13.4157 16.5313V20.8276C13.4155 20.9222 13.4318 21.0159 13.4638 21.1033C13.4958 21.1908 13.5428 21.2703 13.6021 21.3373C13.6615 21.4043 13.732 21.4574 13.8096 21.4937C13.8873 21.5299 13.9705 21.5486 14.0546 21.5486L18.5276 21.5625C18.6971 21.5625 18.8596 21.4868 18.9794 21.352C19.0992 21.2172 19.1665 21.0344 19.1665 20.8438V13.4766L11.8061 6.66013C11.7196 6.58166 11.6118 6.53887 11.5006 6.53887C11.3895 6.53887 11.2817 6.58166 11.1952 6.66013ZM22.8241 11.2965L19.486 8.20095V1.97882C19.486 1.83585 19.4355 1.69874 19.3456 1.59765C19.2557 1.49655 19.1339 1.43976 19.0068 1.43976H16.7707C16.6436 1.43976 16.5217 1.49655 16.4319 1.59765C16.342 1.69874 16.2915 1.83585 16.2915 1.97882V5.2406L12.7165 1.93165C12.3735 1.61405 11.943 1.44039 11.4987 1.44039C11.0543 1.44039 10.6238 1.61405 10.2808 1.93165L0.173164 11.2965C0.124644 11.3416 0.0845008 11.3971 0.0550289 11.4596C0.025557 11.5222 0.00733384 11.5907 0.00140073 11.6612C-0.00453239 11.7317 0.00194079 11.8028 0.0204504 11.8705C0.03896 11.9382 0.0691433 12.0011 0.109276 12.0557L1.1275 13.4483C1.16753 13.503 1.21675 13.5484 1.27237 13.5817C1.32799 13.615 1.3889 13.6356 1.45162 13.6424C1.51433 13.6492 1.57763 13.6421 1.63788 13.6213C1.69813 13.6006 1.75415 13.5666 1.80273 13.5215L11.1952 4.81833C11.2817 4.73987 11.3895 4.69708 11.5006 4.69708C11.6118 4.69708 11.7196 4.73987 11.8061 4.81833L21.199 13.5215C21.2475 13.5666 21.3034 13.6006 21.3636 13.6214C21.4237 13.6423 21.487 13.6495 21.5496 13.6429C21.6123 13.6362 21.6732 13.6157 21.7288 13.5825C21.7844 13.5494 21.8337 13.5042 21.8738 13.4496L22.892 12.057C22.9321 12.0022 22.9622 11.9389 22.9805 11.8709C22.9988 11.803 23.0049 11.7316 22.9986 11.6609C22.9923 11.5902 22.9736 11.5217 22.9437 11.4591C22.9138 11.3966 22.8731 11.3413 22.8241 11.2965Z" fill="#6C93F5"/>
</g>
<defs>
<clipPath id="clip0">
<rect width="23" height="23" fill="white"/>
</clipPath>
</defs>
</svg>
