<svg width="23" height="23" viewBox="0 0 23 23" fill="none" xmlns="http://www.w3.org/2000/svg">
<g clip-path="url(#clip0)">
<path d="M22.0417 1.91667H0.958333C0.704167 1.91667 0.460412 2.01764 0.280689 2.19736C0.100967 2.37708 0 2.62084 0 2.87501L0 20.125C0 20.3792 0.100967 20.6229 0.280689 20.8027C0.460412 20.9824 0.704167 21.0833 0.958333 21.0833H22.0417C22.2958 21.0833 22.5396 20.9824 22.7193 20.8027C22.899 20.6229 23 20.3792 23 20.125V2.87501C23 2.62084 22.899 2.37708 22.7193 2.19736C22.5396 2.01764 22.2958 1.91667 22.0417 1.91667ZM21.0833 19.1667H19.1667V18.2083H14.375V19.1667H1.91667V3.83334H21.0833V19.1667ZM9.86125 9.30542C9.86125 8.8708 10.0339 8.45398 10.3412 8.14665C10.6486 7.83933 11.0654 7.66667 11.5 7.66667C12.4104 7.66667 13.1388 8.40459 13.1388 9.30542C13.1388 10.2158 12.4104 10.9538 11.5 10.9538C10.5896 10.9538 9.86125 10.2158 9.86125 9.30542ZM5.47208 10.8196C5.47208 10.1392 6.02792 9.58334 6.70833 9.58334C7.03621 9.58334 7.35065 9.71359 7.58249 9.94543C7.81434 10.1773 7.94458 10.4917 7.94458 10.8196C7.94458 11.5 7.38875 12.0463 6.70833 12.0463C6.02792 12.0463 5.47208 11.5 5.47208 10.8196ZM15.0554 10.8196C15.0554 10.4917 15.1857 10.1773 15.4175 9.94543C15.6493 9.71359 15.9638 9.58334 16.2917 9.58334C16.6195 9.58334 16.934 9.71359 17.1658 9.94543C17.3977 10.1773 17.5279 10.4917 17.5279 10.8196C17.5279 11.5 16.9721 12.0463 16.2917 12.0463C15.6112 12.0463 15.0554 11.5 15.0554 10.8196ZM19.1667 14.5092V15.3333H3.83333V14.5092C3.83333 13.6083 5.31875 12.8704 6.70833 12.8704C7.23542 12.8704 7.77208 12.9758 8.24167 13.1579C8.96042 12.4967 10.2542 12.0463 11.5 12.0463C12.7458 12.0463 14.0396 12.4967 14.7583 13.1579C15.2279 12.9758 15.7646 12.8704 16.2917 12.8704C17.6812 12.8704 19.1667 13.6083 19.1667 14.5092Z" fill="#017A9B"/>
</g>
<defs>
<clipPath id="clip0">
<rect width="23" height="23" fill="white"/>
</clipPath>
</defs>
</svg>
