<svg width="23" height="23" viewBox="0 0 23 23" fill="none" xmlns="http://www.w3.org/2000/svg">
<path d="M3.83325 8.21429L11.4999 3.83334L18.0626 7.58343C18.398 7.77503 18.6768 8.05192 18.8707 8.38603C19.0646 8.72013 19.1667 9.09957 19.1666 9.48586V14.6094C19.1667 14.9957 19.0646 15.3751 18.8707 15.7092C18.6768 16.0433 18.398 16.3202 18.0626 16.5118L12.5864 19.6409C12.2555 19.8299 11.881 19.9293 11.4999 19.9293C11.1188 19.9293 10.7443 19.8299 10.4134 19.6409L4.93725 16.5118C4.60183 16.3202 4.32304 16.0433 4.12915 15.7092C3.93527 15.3751 3.83318 14.9957 3.83325 14.6094V11.5405" stroke="#05790C" stroke-linecap="round" stroke-linejoin="round"/>
<path d="M10.4617 12.0367C10.7808 12.2085 11.1375 12.2984 11.5 12.2984C11.8624 12.2984 12.2191 12.2085 12.5382 12.0367L18.619 8.7619" stroke="#05790C" stroke-linecap="round" stroke-linejoin="round"/>
<path d="M11.5 12.5952V19.7143" stroke="#05790C" stroke-linecap="round" stroke-linejoin="round"/>
<path fill-rule="evenodd" clip-rule="evenodd" d="M3.83332 8.21429L11.5 12.5952L8.21427 13.6905L0.547607 9.30952L3.83332 8.21429Z" stroke="#05790C" stroke-linecap="round" stroke-linejoin="round"/>
<path fill-rule="evenodd" clip-rule="evenodd" d="M11.5 3.83333L19.1667 8.21429L21.3571 6.02381L13.6905 1.64286L11.5 3.83333Z" stroke="#05790C" stroke-linecap="round" stroke-linejoin="round"/>
</svg>
