<svg width="27" height="27" viewBox="0 0 27 27" fill="none" xmlns="http://www.w3.org/2000/svg">
<g clip-path="url(#clip0)">
<path d="M23.3237 2.43508H3.67625C1.94265 2.43508 0.537231 3.8405 0.537231 5.5741V23.861C0.537231 25.5946 1.94265 27 3.67625 27H23.3237C25.0573 27 26.4627 25.5946 26.4627 23.861V5.5741C26.4627 3.84041 25.0573 2.43508 23.3237 2.43508Z" fill="#EBF0F3"/>
<path d="M26.4627 8.33294V4.52954C26.4627 2.79595 25.0573 1.39053 23.3237 1.39053H3.67625C1.94265 1.39053 0.537231 2.79595 0.537231 4.52954V8.33294H26.4627Z" fill="#CE412D"/>
<path d="M26.4627 9.04255V5.5741C26.4627 3.8405 25.0573 2.43508 23.3237 2.43508H3.67625C1.94265 2.43508 0.537231 3.8405 0.537231 5.5741V9.04255H26.4627Z" fill="#E56353"/>
<path d="M5.67888 4.12093C5.07382 4.12093 4.58331 4.61143 4.58331 5.2165C4.58331 5.82157 5.07382 6.31198 5.67888 6.31198C6.28395 6.31198 6.77437 5.82148 6.77437 5.2165C6.77446 4.61143 6.28395 4.12093 5.67888 4.12093Z" fill="#D15241"/>
<path d="M5.67888 0C5.35522 0 5.09277 0.26245 5.09277 0.586111V5.15266C5.09277 5.47641 5.35522 5.73877 5.67888 5.73877C6.00255 5.73877 6.26499 5.47641 6.26499 5.15266V0.586111C6.26499 0.26245 6.00264 0 5.67888 0V0Z" fill="#4D5C7D"/>
<path d="M10.8929 4.12093C10.2879 4.12093 9.79736 4.61143 9.79736 5.2165C9.79736 5.82157 10.2879 6.31198 10.8929 6.31198C11.498 6.31198 11.9884 5.82148 11.9884 5.2165C11.9885 4.61143 11.498 4.12093 10.8929 4.12093Z" fill="#D15241"/>
<path d="M10.8929 0C10.5693 0 10.3068 0.26245 10.3068 0.586111V5.15266C10.3068 5.47641 10.5693 5.73877 10.8929 5.73877C11.2166 5.73877 11.479 5.47641 11.479 5.15266V0.586111C11.479 0.26245 11.2166 0 10.8929 0V0Z" fill="#4D5C7D"/>
<path d="M16.107 4.12093C15.5019 4.12093 15.0114 4.61143 15.0114 5.2165C15.0114 5.82157 15.5019 6.31198 16.107 6.31198C16.7121 6.31198 17.2025 5.82148 17.2025 5.2165C17.2025 4.61143 16.7121 4.12093 16.107 4.12093Z" fill="#D15241"/>
<path d="M16.107 0C15.7833 0 15.5209 0.26245 15.5209 0.586111V5.15266C15.5209 5.47641 15.7833 5.73877 16.107 5.73877C16.4306 5.73877 16.6931 5.47641 16.6931 5.15266V0.586111C16.6931 0.26245 16.4306 0 16.107 0V0Z" fill="#4D5C7D"/>
<path d="M21.321 4.12093C20.716 4.12093 20.2255 4.61143 20.2255 5.2165C20.2255 5.82157 20.716 6.31198 21.321 6.31198C21.9261 6.31198 22.4165 5.82148 22.4165 5.2165C22.4165 4.61143 21.926 4.12093 21.321 4.12093Z" fill="#D15241"/>
<path d="M21.321 0C20.9973 0 20.7349 0.26245 20.7349 0.586111V5.15266C20.7349 5.47641 20.9973 5.73877 21.321 5.73877C21.6446 5.73877 21.9071 5.47641 21.9071 5.15266V0.586111C21.9071 0.26245 21.6447 0 21.321 0V0Z" fill="#4D5C7D"/>
<path d="M10.1031 13.3795H12.4726V15.749H10.1031V13.3795Z" fill="#E56353"/>
<path d="M14.5273 13.3795H16.8968V15.749H14.5273V13.3795Z" fill="#E56353"/>
<path d="M18.9516 13.3795H21.321V15.749H18.9516V13.3795Z" fill="#E56353"/>
<path d="M5.67889 17.094H8.04834V19.4634H5.67889V17.094Z" fill="#E56353"/>
<path d="M10.1031 17.094H12.4726V19.4634H10.1031V17.094Z" fill="#E56353"/>
<path d="M14.5273 17.094H16.8968V19.4634H14.5273V17.094Z" fill="#E56353"/>
<path d="M18.9516 17.094H21.321V19.4634H18.9516V17.094Z" fill="#E56353"/>
<path d="M5.67889 20.8085H8.04834V23.1779H5.67889V20.8085Z" fill="#E56353"/>
<path d="M10.1031 20.8085H12.4726V23.1779H10.1031V20.8085Z" fill="#E56353"/>
<path d="M14.5273 20.8085H16.8968V23.1779H14.5273V20.8085Z" fill="#E56353"/>
</g>
<defs>
<clipPath id="clip0">
<rect width="27" height="27" fill="white"/>
</clipPath>
</defs>
</svg>
