<?xml version="1.0" encoding="utf-8"?>
<!-- Generator: Adobe Illustrator 25.0.0, SVG Export Plug-In . SVG Version: 6.00 Build 0)  -->
<svg version="1.1" id="_x2018_ëîé_x5F_1" xmlns="http://www.w3.org/2000/svg" xmlns:xlink="http://www.w3.org/1999/xlink"
	 x="0px" y="0px" viewBox="0 0 3000 2000" style="enable-background:new 0 0 3000 2000;" xml:space="preserve">
<style type="text/css">
	.st0{opacity:0.4;fill:#F9DDBF;}
	.st1{fill:#82B378;}
	.st2{fill:#EAC3A0;}
	.st3{fill:#D39E7A;}
	.st4{fill:#FFFFFF;}
	.st5{fill:#FFEEDE;}
	.st6{fill:#EFCBAB;}
	.st7{fill:#F9DDBF;}
	.st8{fill:#FCECDB;}
	.st9{fill:#699DEE;}
	.st10{fill:#548EE2;}
	.st11{fill:#F4D2B8;}
	.st12{fill:#B5453C;}
	.st13{fill:#568CDB;}
	.st14{fill:#F99746;}
	.st15{fill:#FFF0E3;}
	.st16{fill:#FFB27D;}
	.st17{fill:#F3A36C;}
	.st18{fill:#233862;}
	.st19{fill:#ADC8FE;}
	.st20{fill:#8EB3EF;}
	.st21{fill:#ED7D2B;}
	.st22{fill:#E8945B;}
	.st23{fill:#D7E6FF;}
	.st24{fill:#2E3552;}
	.st25{fill:#A8D29F;}
</style>
<g>
	<path class="st0" d="M2854.2,1995.9c0,0,211.1-268,103.8-996C2766.5-299.7,248.2-63,468.7,756.7
		C607.3,1272.1-238,1173.5,86.1,1996.6L2854.2,1995.9z"/>
	<rect x="816.9" y="355.6" class="st1" width="1303.7" height="870.8"/>
	<g>
		<path class="st2" d="M2144.5,1245.4H793.1V336.6h1351.5V1245.4z M816.9,1226.4h1303.7V355.6H816.9V1226.4z"/>
	</g>
	<path class="st3" d="M2155,1244.7H784.7c-6.2,0-11.3-5.1-11.3-11.3v-4.2c0-6.2,5.1-11.3,11.3-11.3H2155c6.2,0,11.3,5.1,11.3,11.3
		v4.2C2166.3,1239.6,2161.2,1244.7,2155,1244.7z"/>
	<path class="st4" d="M1863,1217.9H1821c-4.1,0-7.5-3.4-7.5-7.5v-2.8c0-4.1,3.4-7.5,7.5-7.5h42.1c4.1,0,7.5,3.4,7.5,7.5v2.8
		C1870.5,1214.5,1867.2,1217.9,1863,1217.9z"/>
	<path class="st4" d="M1601.1,1217.9h-21.6c-3.1,0-5.7-2.6-5.7-5.7v-6.4c0-3.1,2.6-5.7,5.7-5.7h21.6c3.1,0,5.7,2.6,5.7,5.7v6.4
		C1606.8,1215.3,1604.2,1217.9,1601.1,1217.9z"/>
	<path class="st4" d="M1556.5,1217.9h-42.5c-4.1,0-7.5-3.4-7.5-7.5v-2.8c0-4.1,3.4-7.5,7.5-7.5h42.5c4.1,0,7.5,3.4,7.5,7.5v2.8
		C1564,1214.5,1560.6,1217.9,1556.5,1217.9z"/>
	<g>
		<path class="st2" d="M2519.1,708.2h-187.3c-7.3,0-13.2-6-13.2-13.2V514c0-7.3,6-13.2,13.2-13.2h187.3c7.3,0,13.2,6,13.2,13.2
			v180.9C2532.3,702.2,2526.3,708.2,2519.1,708.2z"/>
		<path class="st5" d="M2510.9,699.2h-171.1c-6.7,0-12.1-5.4-12.1-12.1V521.8c0-6.7,5.4-12.1,12.1-12.1h171.1
			c6.7,0,12.1,5.4,12.1,12.1v165.2C2523,693.7,2517.6,699.2,2510.9,699.2z"/>
		<g>
			<g>
				<path class="st2" d="M2421,528.7c0-2.4,2-4.4,4.4-4.4s4.4,2,4.4,4.4s-2,4.4-4.4,4.4S2421,531.1,2421,528.7z"/>
				<path class="st2" d="M2456.7,534.9c1.2-2.1,3.9-2.9,6-1.7c2.1,1.2,2.9,3.9,1.7,6c-1.2,2.1-3.9,2.9-6,1.7
					C2456.3,539.8,2455.5,537.1,2456.7,534.9z"/>
				<path class="st2" d="M2487.3,559.3c2.1-1.3,4.8-0.7,6.1,1.3c1.3,2.1,0.7,4.8-1.3,6.1c-2.1,1.3-4.8,0.7-6.1-1.3
					C2484.7,563.3,2485.3,560.6,2487.3,559.3z"/>
				<path class="st2" d="M2502.5,596.9c2.4,0,4.4,2,4.4,4.4c0,2.4-2,4.4-4.4,4.4c-2.4,0-4.4-2-4.4-4.4
					C2498.1,598.9,2500,596.9,2502.5,596.9z"/>
				<path class="st2" d="M2494.7,640.6c1.7,1.7,1.7,4.5,0,6.3c-1.7,1.7-4.5,1.7-6.3,0c-1.7-1.7-1.7-4.5,0-6.3
					C2490.2,638.9,2493,638.9,2494.7,640.6z"/>
				<path class="st2" d="M2466.9,668.5c1.7,1.7,1.7,4.5,0,6.3c-1.7,1.7-4.5,1.7-6.3,0c-1.7-1.7-1.7-4.5,0-6.3
					C2462.4,666.7,2465.2,666.7,2466.9,668.5z"/>
				<path class="st2" d="M2421,682.8c0-2.4,2-4.4,4.4-4.4s4.4,2,4.4,4.4c0,2.4-2,4.4-4.4,4.4S2421,685.3,2421,682.8z"/>
			</g>
			<g>
				<path class="st2" d="M2394,534.9c-1.2-2.1-3.9-2.9-6-1.7c-2.1,1.2-2.9,3.9-1.7,6c1.2,2.1,3.9,2.9,6,1.7
					C2394.4,539.8,2395.1,537.1,2394,534.9z"/>
				<path class="st2" d="M2363.3,559.3c-2.1-1.3-4.8-0.7-6.1,1.3c-1.3,2.1-0.7,4.8,1.3,6.1c2.1,1.3,4.8,0.7,6.1-1.3
					C2366,563.3,2365.4,560.6,2363.3,559.3z"/>
				<path class="st2" d="M2348.2,596.9c-2.4,0-4.4,2-4.4,4.4c0,2.4,2,4.4,4.4,4.4s4.4-2,4.4-4.4
					C2352.6,598.9,2350.6,596.9,2348.2,596.9z"/>
				<path class="st2" d="M2355.9,640.6c-1.7,1.7-1.7,4.5,0,6.3c1.7,1.7,4.5,1.7,6.3,0c1.7-1.7,1.7-4.5,0-6.3
					C2360.5,638.9,2357.7,638.9,2355.9,640.6z"/>
				<path class="st2" d="M2383.7,668.5c-1.7,1.7-1.7,4.5,0,6.3c1.7,1.7,4.5,1.7,6.3,0c1.7-1.7,1.7-4.5,0-6.3
					C2388.3,666.7,2385.5,666.7,2383.7,668.5z"/>
			</g>
		</g>
		<g>
			<path class="st2" d="M2424.2,601.3c0-2.4,2-4.4,4.4-4.4c2.4,0,4.4,2,4.4,4.4c0,2.4-2,4.4-4.4,4.4
				C2426.2,605.8,2424.2,603.8,2424.2,601.3z"/>
			<g>
				<rect x="2428" y="546" class="st2" width="1.2" height="55.3"/>
			</g>
			<g>
				
					<rect x="2424.1" y="587.9" transform="matrix(0.7866 -0.6174 0.6174 0.7866 157.0833 1634.0311)" class="st2" width="37.3" height="3.6"/>
			</g>
		</g>
	</g>
	<path class="st3" d="M689.4,1504.1v12.3c0,4.3-1.4,7.8-3.1,7.8H236.8c-1.7,0-3.1-3.5-3.1-7.8v-12.3c0-4.3,1.4-7.8,3.1-7.8h449.5
		C688,1496.2,689.4,1499.8,689.4,1504.1z"/>
	<path class="st6" d="M689.4,1504.1v12.3c0,4.3-1.3,7.8-2.8,7.8H329.7c-1.6,0-2.8-3.5-2.8-7.8v-12.3c0-4.3,1.3-7.8,2.8-7.8h356.8
		C688.1,1496.2,689.4,1499.8,689.4,1504.1z"/>
	<rect x="256.5" y="1524.2" class="st2" width="319.1" height="465.1"/>
	<rect x="346" y="1524.2" class="st7" width="319.1" height="465.1"/>
	<g>
		<g>
			<path class="st2" d="M647.9,1963.6H363.1v-426.3h284.8V1963.6z M366.2,1960.6h278.7v-420.1H366.2V1960.6z"/>
		</g>
		<g>
			<rect x="364.7" y="1678.4" class="st2" width="281.7" height="3.1"/>
		</g>
		<g>
			<rect x="364.7" y="1822.1" class="st2" width="281.7" height="3.1"/>
		</g>
		<path class="st2" d="M534.4,1564.8h-52.3c-2.5,0-4.6-2.1-4.6-4.6l0,0c0-2.5,2.1-4.6,4.6-4.6h52.3c2.5,0,4.6,2.1,4.6,4.6l0,0
			C539,1562.8,536.9,1564.8,534.4,1564.8z"/>
		<path class="st2" d="M534.4,1705.4h-52.3c-2.5,0-4.6-2.1-4.6-4.6l0,0c0-2.5,2.1-4.6,4.6-4.6h52.3c2.5,0,4.6,2.1,4.6,4.6l0,0
			C539,1703.4,536.9,1705.4,534.4,1705.4z"/>
		<path class="st2" d="M534.4,1852h-52.3c-2.5,0-4.6-2.1-4.6-4.6l0,0c0-2.5,2.1-4.6,4.6-4.6h52.3c2.5,0,4.6,2.1,4.6,4.6l0,0
			C539,1849.9,536.9,1852,534.4,1852z"/>
	</g>
	<g>
		<path class="st2" d="M2434.6,1984h0.6c3.3,0,5.9-2.7,5.8-5.9l-8.8-381.9l-26-3l22.1,384.9C2428.5,1981.4,2431.3,1984,2434.6,1984z
			"/>
	</g>
	<g>
		<path class="st2" d="M2585.8,1984h0.6c3.3,0,5.9-2.7,5.8-5.9l-8.8-381.9l-26-3l22.1,384.9C2579.8,1981.4,2582.5,1984,2585.8,1984z
			"/>
	</g>
	<g>
		<path class="st2" d="M2168.5,1984h-0.6c-3.3,0-5.9-2.7-5.8-5.9l8.8-381.9l26-3l-22.1,384.9C2174.6,1981.4,2171.9,1984,2168.5,1984
			z"/>
	</g>
	<path class="st6" d="M2603,1572.5v-261.7c0-46-37.3-83.4-83.4-83.4h-188.5c-46,0-83.4,37.3-83.4,83.4v271.7L2603,1572.5z"/>
	<path class="st2" d="M2214,1613.8h367.3c12,0,21.7-9.7,21.7-21.7v-19.6h-389V1613.8z"/>
	<path class="st7" d="M2167.9,1613.8h280.3c8.9,0,16-7.2,16-16v-9.2c0-8.9-7.2-16-16-16h-280.3c-8.9,0-16,7.2-16,16v9.2
		C2151.9,1606.7,2159.1,1613.8,2167.9,1613.8z"/>
	<g>
		<g>
			<path class="st3" d="M2784.6,1992h0.7c4.3,0,7.8-3.8,7.7-8.3l-11.7-534.6l-34.3-4.2l29.3,538.9
				C2776.6,1988.4,2780.2,1992,2784.6,1992z"/>
		</g>
		<g>
			<path class="st3" d="M1947.6,1992h-0.7c-4.3,0-7.8-3.8-7.7-8.3l11.7-534.6l34.3-4.2l-29.3,538.9
				C1955.6,1988.4,1952,1992,1947.6,1992z"/>
		</g>
		<path class="st3" d="M2851,1458.9h-949.3c-6.4,0-11.5-5.2-11.5-11.5V1433c0-6.4,5.2-11.5,11.5-11.5H2851c6.4,0,11.5,5.2,11.5,11.5
			v14.3C2862.5,1453.7,2857.4,1458.9,2851,1458.9z"/>
	</g>
	<g>
		<g>
			<g>
				<path class="st8" d="M2062.9,1398.1h-86.9V1368h87.2c5.8,0,10.4,4.7,10.4,10.4v9C2073.5,1393.4,2068.7,1398.1,2062.9,1398.1z"/>
				<path class="st9" d="M2146.3,1380.4v4.5c0,2.4-0.7,4.7-1.8,6.6c-2.3,3.9-6.5,6.6-11.4,6.6h-159.8c-1.1,0-1.9-0.9-1.9-1.9v-0.7
					c0-1.1,0.9-1.9,1.9-1.9h97.4c0.5-0.6,1-1.3,1.4-2.1c0.9-1.7,1.4-3.7,1.4-5.8v-5.8c0-1.1-0.1-2.1-0.4-3.1
					c-0.4-1.7-1.2-3.2-2.3-4.5h-97.5c-1.1,0-1.9-0.9-1.9-1.9v-0.7c0-1.1,0.9-1.9,1.9-1.9h160.6c5.7,0,10.4,3.8,11.9,9
					C2146.1,1378.1,2146.3,1379.2,2146.3,1380.4z"/>
				<path class="st10" d="M2145.8,1377h-72.7c-0.4-1.7-1.2-3.2-2.3-4.5h-97.5c-1.1,0-1.9-0.9-1.9-1.9v-0.7c0-1.1,0.9-1.9,1.9-1.9
					h160.6C2139.6,1368,2144.3,1371.8,2145.8,1377z"/>
			</g>
			<polygon class="st11" points="1975.9,1383.1 1987.8,1383.6 1975.9,1383.9 			"/>
			<polygon class="st11" points="1975.9,1387.8 2004.1,1388.3 1975.9,1388.6 			"/>
		</g>
		<g>
			<g>
				<g>
					<path class="st12" d="M1996.3,1421.5h90.8v-23.4h-91.5c-6.3,0-11.3,5.1-11.3,11.3l0,0
						C1984.2,1416.1,1989.6,1421.5,1996.3,1421.5z"/>
					<path class="st8" d="M2080.3,1421.5h104.9v-23.4H2080c-5.5,0-10,4.5-10,10v3.2C2070,1416.9,2074.6,1421.5,2080.3,1421.5z"/>
					<path class="st12" d="M2063.1,1421.5h125.6c1,0,1.8-0.8,1.8-1.8l0,0c0-1-0.8-1.8-1.8-1.8h-125.6c-1,0-1.8,0.8-1.8,1.8l0,0
						C2061.4,1420.7,2062.2,1421.5,2063.1,1421.5z"/>
					<path class="st12" d="M2063.1,1401.6h125.6c1,0,1.8-0.8,1.8-1.8l0,0c0-1-0.8-1.8-1.8-1.8h-125.6c-1,0-1.8,0.8-1.8,1.8l0,0
						C2061.4,1400.8,2062.2,1401.6,2063.1,1401.6z"/>
				</g>
				<polygon class="st11" points="2185.1,1409.8 2171.2,1410.2 2185.1,1410.4 				"/>
				<polygon class="st11" points="2185.1,1404.4 2151.9,1404.8 2185.1,1405 				"/>
			</g>
			<g>
				<path class="st9" d="M2152.3,1404.7c0,0,1.4,1,1.9,2.7c0.1,0.3,0.1,0.6,0.1,0.9c0.1,2.2,0,7.2,0,7.2l4.2-2.5l4.2,2.5v-6.7
					c0-1.3-0.4-2.5-1-3.3c-0.3-0.4-0.7-0.7-1.2-0.7H2152.3z"/>
				<path class="st13" d="M2152.3,1404.7c0,0,1.4,1,1.9,2.7l8.4,0.1c0,0-0.3-2.4-2.1-2.8H2152.3z"/>
			</g>
		</g>
	</g>
	<g>
		<g>
			<g>
				<g>
					<path class="st14" d="M2154,1368h-49.7v-22.5h50c3.1,0,5.6,2.5,5.6,5.6v10.9C2160,1365.3,2157.3,1368,2154,1368z"/>
					<path class="st8" d="M2119,1368h-154.1v-22.5h154.3c5.1,0,9.3,4.2,9.3,9.3v3.7C2128.5,1363.8,2124.2,1368,2119,1368z"/>
					<path class="st14" d="M2139.4,1368h-180.7c-0.8,0-1.4-0.6-1.4-1.4v-0.6c0-0.8,0.6-1.4,1.4-1.4h180.7c0.8,0,1.4,0.6,1.4,1.4v0.5
						C2140.8,1367.4,2140.1,1368,2139.4,1368z"/>
					<path class="st14" d="M2139.4,1348.9h-180.7c-0.8,0-1.4-0.6-1.4-1.4v-0.6c0-0.8,0.6-1.4,1.4-1.4h180.7c0.8,0,1.4,0.6,1.4,1.4
						v0.6C2140.8,1348.2,2140.1,1348.9,2139.4,1348.9z"/>
				</g>
			</g>
		</g>
	</g>
	<g>
		<g>
			<g>
				<polygon class="st2" points="2750.3,1406.2 2743.8,1406.2 2743.8,1295.3 2809.7,1127.1 2692,1035.8 2696,1030.7 2817.5,1124.9 
					2750.3,1296.5 				"/>
			</g>
			<path class="st2" d="M2678.7,1047.5L2678.7,1047.5c-3-2.1-3.7-6.2-1.6-9.2l9.8-13.8c2.1-3,6.2-3.7,9.2-1.6l0,0
				c3,2.1,3.7,6.2,1.6,9.2l-9.8,13.8C2685.8,1048.9,2681.7,1049.6,2678.7,1047.5z"/>
			<circle class="st2" cx="2812.2" cy="1125.1" r="8.5"/>
		</g>
		<g>
			<path class="st14" d="M2693.3,1143.2c-0.3,0.3-0.6,0.7-0.9,1l-0.1,0.1c-0.3,0.3-0.6,0.7-0.9,1c-8.8,7.6-38-6.1-66.2-31.3
				c-28.2-25.2-45.1-52.7-38.5-62.3c0.3-0.3,0.6-0.7,0.9-1l0.1-0.1c0.3-0.4,0.6-0.7,0.9-1c25.9-28.9,70.3-31.4,99.2-5.5
				C2716.7,1069.8,2719.2,1114.2,2693.3,1143.2z"/>
			<path class="st7" d="M2692.4,1144.2L2692.4,1144.2c-0.2,0.2-0.3,0.3-0.4,0.4c-0.2,0.2-0.4,0.4-0.6,0.6c-8.8,7.6-38-6-66.2-31.3
				c-28.2-25.2-45.1-52.7-38.5-62.3c0.2-0.2,0.4-0.5,0.5-0.7c0.1-0.1,0.2-0.2,0.3-0.3l0.1-0.1c6-5.7,22.3-0.6,41.3,11.7
				c8.1,5.2,16.7,11.8,25.2,19.4c6.7,6,12.7,12.1,18,18C2689.2,1119,2697.8,1137,2692.4,1144.2z"/>
			<path class="st15" d="M2672.1,1099.6c-5,4.1-11.4,6.6-18.3,6.6c-16,0-29-13-29-29c0-5.5,1.5-10.6,4.2-15
				c8.1,5.2,16.7,11.8,25.2,19.4C2660.8,1087.6,2666.8,1093.7,2672.1,1099.6z"/>
		</g>
		<g>
			<path class="st2" d="M2778.3,1421.5h-64.8v-8.1c0-5.7,4.6-10.3,10.3-10.3h43.8c5.9,0,10.7,4.8,10.7,10.7V1421.5z"/>
			<rect x="2740.2" y="1303.1" class="st2" width="13.6" height="103.1"/>
		</g>
	</g>
	<g>
		<path class="st7" d="M1360.7,1517.1l56.1-225.5l396,98.5L1360.7,1517.1z M1434.8,1321.6l-39.8,160.2l321.3-90.3L1434.8,1321.6z"/>
	</g>
	
		<rect x="1537" y="1338.5" transform="matrix(0.9705 0.2413 -0.2413 0.9705 383.3634 -331.754)" class="st2" width="18.8" height="122.2"/>
	<g>
		<path class="st16" d="M1213.6,1477.9c-27.2,169.1-49.6,351.3-39.9,447.2c8,26.9,32.7,35.8,54.5,39.3l-15,16.4l-42.2,2.4
			l-56.3-22.2c0,0,3.3-11.1,5.8-30.5c3-22.6-7.5-74.1-7.5-74.1s-27.5-178.1-11.8-218c4.4-11.4,7.4-24.4,9.2-38.5v0
			c4.6-36,2-79.2-1-121.2c-3.3-45.7-7.1-89.9-2.8-121.8c19.7-145.7,19.9-271.7,19.9-271.7h110.6c0,0,31.3,89,16.7,165.3
			C1241.4,1315.3,1226.9,1395,1213.6,1477.9z"/>
		<path class="st17" d="M1110.4,1599.8c4.6-36,2-79.2-1-121.2l81.6-33l22.6,32.3C1210.1,1482.2,1149.4,1553.8,1110.4,1599.8z"/>
		<path class="st16" d="M1428,973.4c0,0,12.5-13.2,21.5-19.8s34.1-13.1,36.7-2.1c1.1,4.9-7.7,15.7-14.1,19.6
			c-6.4,3.9-7.4,8.8-14.1,15.6c-6.8,6.9-23.3,7.2-23.3,7.2L1428,973.4z"/>
		<path class="st18" d="M1060.1,864c-5.3-10.2,114.9-46.7,116.8,53.5c0,0,225.1-5.5,117.6-131c-37.2-43.4-33.4-79.4-32.3-112.8
			c1.1-33.4-23.2-130.6-106.5-120.8c0,0-21.8-8.9-49.1,5.2C1044.8,590.3,906.1,901,1060.1,864z"/>
		<path class="st19" d="M1216.3,983.3c0,0,8,15.8,22.4,33.9c17.4,21.8,44.3,47,78,52c16.1,2.4,31.8-1.1,46.3-7.5c0,0,0.1,0,0.1,0
			c40.9-18.2,71.7-60,71.7-60c7.2-19.7-4.6-33-4.6-33s-82.7,18.6-90.5,14.7c-7.9-3.9-53.8-136.3-64.7-152.9
			c-10.9-16.6-48.2-25.3-48.2-25.3L1216.3,983.3z"/>
		<path class="st20" d="M1238.7,1017.2c17.4,21.8,44.3,47,78,52c16.1,2.4,31.8-1.1,46.3-7.5c-1.6,0.2-42.5,5.3-58.8-23.9
			c-16.6-29.7-34.6-77-59.3-61.2C1234.2,983.3,1234.7,1000.2,1238.7,1017.2z"/>
		<path class="st16" d="M983.1,1990.9c0,0-27,0-38.1,0c-11.1,0-23.7-8.5-26.8-28.5c-3.1-20-25.8-30.9-30.8-47.3
			c-3.4-11.2,4.6-19.3,12.2-25.4c3.5-2.8,6.8-5.3,9-7.5c7.7-7.8,15.1-41.6,15.1-41.6l40.2,21.1c0,0-18.9,32.2-8,68.4
			c5.1,16.9,9.7,32.5,21,42.2c2.7,2.3,5.7,4.3,9.2,5.8C1003.6,1986.2,983.1,1990.9,983.1,1990.9z"/>
		<path class="st19" d="M1012.3,917.6c0,0-2.1,29.8,0,65.5c1.4,23.7,25.4,55.4,28.8,63.3c8.5,19.7,18.1,22.9,18.1,22.9l74.4,18.2
			l26.2,6.4l82.5-24.6c0,0,37.6-104.9,22.5-164c-15.1-59.1-38.1-100.1-38.1-100.1s-94.9-24.7-168.4-3.2L1012.3,917.6z"/>
		<path class="st16" d="M1063.9,1081.3c0,0-62.3,83.6-68.1,140.2c-5.8,56.5,49.3,213,36.9,268.1c-9.2,40.9-58.2,73.4-71.7,176.5
			c-4.7,35.8-21.7,107.5-37.3,174.5l34.5,33.9c82.3-187.5,167.3-305.5,172.3-347c3.6-29.3,20.2-183.7,87.7-297.6
			c16.2-27.4-9.9-136.1-9.9-136.1L1063.9,1081.3z"/>
		<path class="st14" d="M1257.7,1273.9c-9.2,111.7-20,205.7-20,205.7s-52.1,35.1-125.8,39.6l0,0h0c-33.7,2-71.8-2.3-111.6-19.3
			c0,0-15.2-269.7-5.5-312.7c9.7-43,52.4-102.1,52.4-102.1l192.3,7.4C1239.5,1092.6,1266.8,1162.2,1257.7,1273.9z"/>
		<path class="st21" d="M1243.6,1065.5c0,0-16.4,13-49,13.6c-38.9,0.8-135.4-9.9-135.4-9.9s-4.3,12-4.1,24.6
			c0,0,117.8,29.7,186.1,4.3C1241.2,1098.2,1250,1081.6,1243.6,1065.5z"/>
		<g>
			<path class="st4" d="M1186.2,1092.6c0-11.1,8-20.1,17.8-20.1c9.8,0,17.8,9,17.8,20.1c0,11.1-8,20.1-17.8,20.1
				C1194.1,1112.7,1186.2,1103.7,1186.2,1092.6z M1192.1,1092.6c0,7.8,5.3,14.2,11.9,14.2c6.5,0,11.9-6.4,11.9-14.2
				c0-7.8-5.3-14.2-11.9-14.2C1197.4,1078.4,1192.1,1084.7,1192.1,1092.6z"/>
		</g>
		
			<rect x="984.7" y="948.9" transform="matrix(-0.7542 -0.6567 0.6567 -0.7542 1172.5306 2555.8545)" class="st18" width="160" height="219.1"/>
		<path class="st16" d="M1086.4,1088.9c0,0,44.2,5.2,44.1,15.7c-0.1,10.5-11,32.1-16.5,33c-5.5,1-36-29.2-36-29.2L1086.4,1088.9z"/>
		<path class="st19" d="M1071.7,799.6c0,0-59,4.1-81.7,59.2c-22.6,55-65.6,147.4-65.6,162.9c0,15.5,24,63.4,152.8,91
			c0,0,13.3-14,12.5-25.1c0,0-80.4-69.1-80.2-77.1c0.4-15.3,13.2-35.4,83.8-106C1112.5,885.2,1071.7,799.6,1071.7,799.6z"/>
		<g>
			<path class="st7" d="M1419.5,1131l176.9-520c0.8-2.4,1.9-4.6-0.5-5.5l-2.1-0.8c-2.4-0.9-3.1,0.7-4,3.1l-188.6,512.6
				c-1.8,4.9,0.5,10.3,5.3,12.5l4.4,1.9C1414.3,1136.3,1418.2,1134.5,1419.5,1131z"/>
		</g>
		<path class="st16" d="M1443.5,970.9c0,0,8-0.3,16.5-2.5c6.7-1.8,15.3-4.9,15.3-4.9c5.1,3.7-12.5,13.7-17,20.6
			c-3.7,5.6-7.8,7.2-17.9,9.4L1443.5,970.9z"/>
		<path class="st18" d="M1160.7,1989.4c24.6-3.1,18.1,3.2,52.6,3.4c34.5,0.2,46.3-11.3,47.9-16.2c1.5-4.4-15.2-7.9-33-12.1l-0.6,0.4
			c0,0-21.7,12-50.1,9.3c-23.2-2.1-46.8-11.6-62.8-13.2c-1,5.2-2,10.6-1.5,16C1114.4,1992.4,1136.1,1992.4,1160.7,1989.4z"/>
		<path class="st18" d="M983.1,1990.9c0,0-27,0-38.1,0c-11.1,0-23.7-8.5-26.8-28.5c-3.1-20-25.8-30.9-30.8-47.3
			c-3.4-11.2,4.6-19.3,12.2-25.4c4.2,6.3,13.2,21.9,22.1,50.8c10.4,33.7,35.2,34.7,55.1,31.9c2.7,2.3,5.7,4.3,9.2,5.8
			C1003.6,1986.2,983.1,1990.9,983.1,1990.9z"/>
		<path class="st16" d="M1080.9,796.8c12-2.7,21.9-11.1,26-22.6c5-13.9,8.9-34.4,8.8-60.2l3.7,0.7l62.8,12.4c0,0-1.4,19.8-1.5,38.4
			c0,0.2,0,0.3,0,0.5c-0.1,16.2,10.5,30.5,26.1,34.9c7.9,2.3-37.8,62.6-43.1,61.4C1152.9,859.9,1077.1,797.6,1080.9,796.8z"/>
		<path class="st22" d="M1182.3,727.2c0,0-1.4,19.8-1.5,38.4c-35.2-1-53.7-33.1-61.3-50.8L1182.3,727.2z"/>
		<path class="st16" d="M1194,744.8c0,0-83.2,1.4-83.2-50.4c-0.1-51.8-10.8-86.5,42.3-89.6c53.1-3.1,63.4,16.7,67.7,34
			C1225,656,1215.7,743.1,1194,744.8z"/>
		<path class="st18" d="M1191,603.5c0,0-22.8,60.8-57.7,69.8c-34.9,9-50.1-0.4-50.1-0.4s26.8-21.3,32.4-58.5
			C1115.5,614.4,1173.8,574.6,1191,603.5z"/>
		<path class="st18" d="M1185.3,608.4c0,0,16.9,6.3,23.8,18.6c6.8,12,12.6,28,11.2,47.6c0,0,17.2-41.3-2.1-64.7
			C1197.8,585.2,1185.3,608.4,1185.3,608.4z"/>
		<path class="st4" d="M1177.8,714.1c0,0,1.4,6.1,16.6,5.2c0,0,12.8-0.8,12.4-7.5C1206.8,711.7,1194.4,706.9,1177.8,714.1z"/>
		<path class="st23" d="M1163.8,862.3c0,0-56.3-60.1-58.4-84.7c0,0-14.3,4-31.2,20.4c0,0,13.5,33.9,29.7,45c0,0,11.7-1.7,21-5.5
			c0,0-5.9,9.7-10.5,15.6C1114.4,853.2,1139.9,867.7,1163.8,862.3z"/>
		<path class="st23" d="M1183.5,780c0,0,22.2,40.6-19.7,82.4c0,0,26.3-5,39.8-23.6c0,0-4.2-10-7.8-12.3c0,0,7.9-3.1,12.9,1.5
			c0,0,3-21.7,0-28.4C1205.7,793,1190.1,779.8,1183.5,780z"/>
		<path class="st18" d="M1159.6,862.3c0-2.3,1.9-4.2,4.2-4.2s4.2,1.9,4.2,4.2s-1.9,4.2-4.2,4.2S1159.6,864.7,1159.6,862.3z"/>
		<path class="st18" d="M1182,921.7c0-2.3,1.9-4.2,4.2-4.2c2.3,0,4.2,1.9,4.2,4.2c0,2.3-1.9,4.2-4.2,4.2
			C1183.9,925.9,1182,924.1,1182,921.7z"/>
		<path class="st18" d="M1186.2,991.4c0-2.3,1.9-4.2,4.2-4.2s4.2,1.9,4.2,4.2c0,2.3-1.9,4.2-4.2,4.2S1186.2,993.7,1186.2,991.4z"/>
		<path class="st21" d="M1257.7,1273.9c-9.2,111.7-20,205.7-20,205.7s-52.1,35.1-125.8,39.6c1.3-0.5,43.2-16.6,74.2-53
			C1217.7,1429.3,1257.7,1273.9,1257.7,1273.9z"/>
	</g>
	<path class="st24" d="M-72.2,2000h3144.3c1.8,0,3.2-1.4,3.2-3.2v-2.6c0-1.8-1.4-3.2-3.2-3.2H-72.2c-1.8,0-3.2,1.4-3.2,3.2v2.6
		C-75.4,1998.6-73.9,2000-72.2,2000z"/>
	<g>
		<g>
			
				<rect x="2577.4" y="1298.9" transform="matrix(0.9873 -0.1587 0.1587 0.9873 -180.4709 426.6454)" class="st12" width="7.5" height="88.9"/>
			<polygon class="st7" points="2571.6,1284 2570.4,1300 2577.8,1298.8 			"/>
		</g>
		<g>
			
				<rect x="2642.9" y="1306.2" transform="matrix(0.9832 0.1826 -0.1826 0.9832 291.1678 -460.632)" class="st12" width="7.5" height="88.9"/>
			<polygon class="st6" points="2657.6,1291.5 2651.1,1306.2 2658.5,1307.6 			"/>
		</g>
		<g>
			
				<rect x="2633.5" y="1280.5" transform="matrix(0.9832 0.1826 -0.1826 0.9832 286.3281 -459.346)" class="st12" width="7.5" height="88.9"/>
			<polygon class="st6" points="2648.2,1265.9 2641.7,1280.6 2649.1,1282 			"/>
		</g>
		<g>
			<rect x="2598.3" y="1335.9" class="st21" width="59.4" height="85.6"/>
			<rect x="2568.6" y="1335.9" class="st14" width="59.4" height="85.6"/>
		</g>
	</g>
	<g>
		<g>
			<path class="st1" d="M439.3,1313.7c0,0,29.3-34.2,1.8-55.9c0,0-20.1-12.2-36.4-11.2c0,0,23.2,38.9,15.7,42.8
				c-7.5,3.9-22.7-45.2-22.7-45.2s-45.7-4.4-60.4,2.6c0,0,39.1,32,30.8,33.9c-8.2,1.9-50.4-29.5-50.4-29.5s-42.5,7.2-40.3,33.2
				c2.3,25.9,16.9,34,23.4,33.3c6.4-0.7,44.1-15.1,44.9-9.8c0.8,5.3-21.9,22.5-37.7,23.3c0,0,30,33.1,49.9,23.5
				c19.9-9.5,21.6-24.7,34-30.3c12.4-5.7,23-5.7,17.9,0.1c-5.1,5.8-27.6,11.4-34.7,24c-7.1,12.6-13.5,21,7.1,17.9
				c20.6-3.1,54.1-18.2,55.6-35.5C439.3,1313.7,439.3,1313.7,439.3,1313.7z"/>
			<g>
				<path class="st1" d="M298.3,1285.1c0,0,115.5-4.5,141,28.6c0,0,5.6,16.9,23,32.3l2.7,7.4c0,0-20-21.1-27.2-22.4
					C437.9,1330.9,449.1,1290,298.3,1285.1z"/>
				<path class="st1" d="M462.3,1345.9c0,0,24.8,18.3,26.5,51.1l-4.5,0.4c0,0-7.9-33.9-22.2-47.1
					C447.8,1337.1,462.3,1345.9,462.3,1345.9z"/>
			</g>
		</g>
		<g>
			<path class="st25" d="M541.8,1270.7c0,0-46.6-26.1-24.9-61.5c0,0,17.4-21.7,36-27.3c0,0-9.9,52.8,0,54.1
				c9.9,1.2,6.8-59.6,6.8-59.6s49.1-23.6,68.3-21.7c0,0-30.4,51.6-20.5,50.3c9.9-1.2,44.1-53.4,44.1-53.4s50.3-9.3,58.4,20.5
				c8.1,29.8-5,44.7-12.4,46.6c-7.5,1.9-55.3,1.2-54.1,7.5c1.2,6.2,33.5,16.2,51.6,10.6c0,0-19.9,49.1-46,46.6
				c-26.1-2.5-34.2-18.6-50.3-19.9c-16.2-1.2-28,3.1-19.9,7.5c8.1,4.3,35.4,1.4,48.5,12.5c13,11.1,23.6,17.9-0.6,22.9
				c-24.2,5-67.7,1.9-76.4-16.8C541.8,1270.7,541.8,1270.7,541.8,1270.7z"/>
			<g>
				<path class="st1" d="M687.1,1181.2c0,0-130.5,42.2-145.4,89.5c0,0,0.6,21.1-12.4,45.4v9.3c0,0,13.7-31.7,21.1-36
					C550.5,1289.3,521.3,1248.3,687.1,1181.2z"/>
				<path class="st1" d="M529.3,1316c0,0-20.1,30.6-8.6,67.7l5.2-1.4c0,0-5-41,5.5-61.6C541.9,1300.2,529.3,1316,529.3,1316z"/>
			</g>
		</g>
		<g>
			<path class="st25" d="M467.6,1234.7c0,0,61.4-34.4,32.8-81.1c0,0-22.9-28.7-47.5-36c0,0,13.1,69.6,0,71.3
				c-13.1,1.6-9-78.6-9-78.6s-64.7-31.1-90.1-28.7c0,0,40.1,68,27,66.3c-13.1-1.6-58.1-70.4-58.1-70.4s-66.3-12.3-77,27
				c-10.6,39.3,6.6,59,16.4,61.4c9.8,2.5,72.9,1.6,71.3,9.8c-1.6,8.2-44.2,21.3-68,13.9c0,0,26.2,64.7,60.6,61.4
				c34.4-3.3,45-24.6,66.3-26.2c21.3-1.6,36.9,4.1,26.2,9.8c-10.6,5.7-46.7,1.9-63.9,16.5c-17.2,14.6-31.1,23.6,0.8,30.2
				c31.9,6.6,89.3,2.5,100.7-22.1C467.6,1234.7,467.6,1234.7,467.6,1234.7z"/>
			<g>
				<path class="st1" d="M276,1116.8c0,0,172,55.7,191.6,117.9c0,0-0.8,27.8,16.4,59.8v12.3c0,0-18-41.8-27.8-47.5
					C456.2,1259.3,494.6,1205.2,276,1116.8z"/>
				<path class="st1" d="M484,1294.5c0,0,26.5,40.3,11.4,89.3l-6.8-1.8c0,0,6.6-54-7.3-81.2C467.5,1273.6,484,1294.5,484,1294.5z"/>
			</g>
		</g>
		<path class="st21" d="M349.4,1369.8c0,66.4,53.9,120.3,120.3,120.3c13.9,0,27.2-2.3,39.6-6.7c47-16.4,80.7-61.1,80.7-113.6H349.4z
			"/>
		<path class="st14" d="M428.6,1369.8c0,45.1,10.8,91,47.5,111.6c6.1,3.4,26.5-0.3,33.2,2.1c47-16.4,80.7-61.1,80.7-113.6H428.6z"/>
		<path class="st21" d="M347.7,1496.2h244c0-4.1-1.7-7.8-4.3-10.5c-2.7-2.7-6.4-4.3-10.5-4.3H362.6
			C354.4,1481.4,347.7,1488,347.7,1496.2z"/>
		<path class="st14" d="M462,1496.2h129.7c0-4.1-1.7-7.8-4.3-10.5c-2.7-2.7-6.4-4.3-10.5-4.3h-100C468.7,1481.4,462,1488,462,1496.2
			z"/>
		
			<rect x="346.6" y="1369.8" transform="matrix(-1 -1.224647e-16 1.224647e-16 -1 940.6046 2743.2603)" class="st12" width="247.3" height="3.7"/>
	</g>
</g>
<g>
	<g>
		<path class="st4" d="M1870.5,550.5c-3.7-6.1-4.1-11.8-3.6-18.7c0.2-3.1,0.5-7.1-2.1-9.1c-5.2-4-10-0.6-12.8,3.7
			c-0.6,0.9,0.8,1.9,1.4,1c1.8-3.7,6.1-5.3,9.4-2c1.2,1.2,1.7,2.8,1.7,4.4c0,1.4-0.2,2.8-0.4,4.3c-0.1,1.2-0.2,2.4-0.2,3.6
			c-5.6-5.9-19-1.4-18.7,7.3c0.4,10.2,16.8,13.6,21.6,5c0.4,0.7,0.7,1.4,1.1,2.1C1869,553.8,1871.6,552.2,1870.5,550.5z
			 M1865.5,547.9c-3.3,2.8-6.6,5.3-11.1,4c-2.6-0.7-5.1-2.6-6.1-5.2c-1.3-3.4,0.9-6.6,3.9-8.2c4.2-2.3,8.5-1.9,11.8,1.3
			c0,0.6,0.1,1.2,0.2,1.8c0.3,2.2,0.9,4.2,1.7,6.2C1865.7,547.8,1865.6,547.8,1865.5,547.9z"/>
		<path class="st4" d="M1898.4,535.8c-2.7-0.5-5.5-0.2-8.3-0.2c-2.7,0-5.5-0.2-8.1,0.2c-0.6,0.1-0.5,0.7,0,0.9
			c4.5,1.7,12,1.8,16.6,0.3C1899.2,536.8,1899.1,536,1898.4,535.8z"/>
		<path class="st4" d="M1898.5,544.4c-2.9-0.6-6.1-0.1-9,0.1c-2.6,0.1-5.2,0-7.7,0.7c-0.6,0.2-0.6,1,0,1.1c2.7,0.6,5.5,0.4,8.3,0.3
			c2.8-0.1,5.8,0.1,8.5-0.8C1899.1,545.6,1899.2,544.6,1898.5,544.4z"/>
		<path class="st4" d="M2082.9,498c-11-1-22.5,0.7-33.5,1c-11.9,0.3-23.8,0.3-35.7-0.1c-22.6-0.8-45.1,1.2-67.7,0
			c-0.6,0-0.9,0.3-0.9,0.8c-0.2,0.1-0.4,0.2-0.5,0.4c-10.6,16-19.7,34.4-25.8,52.6c-6.5-11.5-11.5-23.5-17-35.5
			c-0.2-0.5-1-0.1-0.9,0.4c3.5,12.9,9.8,25.4,16.4,37c0.4,0.7,1.1,0.6,1.6,0.3c0.2,0,0.5-0.1,0.6-0.3c4.1-8.7,7.8-17.5,12.1-26
			c4.6-9.2,10-17.9,15.1-26.9c0.1-0.2,0.2-0.4,0.2-0.6c11.1,0.9,22.2,1,33.4,0.4c11.6-0.6,22.8-0.5,34.4-0.1
			c11.2,0.4,22.4,0.5,33.6,0.3c11.3-0.2,23.7,0.4,34.8-2.3C2083.6,499.2,2083.7,498.1,2082.9,498z"/>
		<path class="st4" d="M1960.2,550.1c-5.5,1.3-14.7,4.2-18.7-1.8c-1.9-2.8-2-6.7-0.5-9.7c1.2-2.4,4.7-6.6,7.3-7.6
			c2.4-0.9,10.1-0.1,12.4,1c0.5,0.3,1-0.5,0.6-0.8c-8.9-7.2-21.6-0.6-23.8,9.7c-1,4.7,0.7,9.1,4.7,11.7c5.7,3.7,13,2.6,18.8,0
			C1962.7,552,1961.9,549.7,1960.2,550.1z"/>
		<path class="st4" d="M1978.8,531.2c-2.4-0.1-4.8-0.1-7.1-0.1c-0.8,0-1.6,0-2.4,0c0.2-0.2,0.3-0.3,0.5-0.5c-0.1-0.3,0.3-1.9,0-1.9
			c0.9-0.6,4-1,4.9-1.5c1.6-0.8,2.9-1.8,3.7-3.4c1.4-2.4,1.1-5.5-1.1-7.3c-2.8-2.2-6.4-1.2-9.4-0.1c-0.9,0.3-0.4,1.8,0.4,1.5
			c1.7-0.5,5.6-1.7,7.2-0.2c2.2,1.9,1.9,3.9,0.7,5.2c-0.4,0.5-0.9,0.9-1.4,1.2c-1.2,0.8-2.3,1.2-3.6,1.6c-1.9,0.5-3.6,0.5-4,2.7
			c-0.3,1.7-0.5,4.3,1.3,5.1c1.1,0.5,2.8,0.2,3.9,0.2c2.2,0,4.4,0.1,6.6,0.1C1980.7,533.9,1980.5,531.2,1978.8,531.2z"/>
		<path class="st4" d="M2051.4,531.2c-2.4-0.1-4.8-0.1-7.1-0.1c-0.8,0-1.6,0-2.4,0c0.2-0.2,0.3-0.3,0.5-0.5c-0.1-0.3,0.3-1.9,0-1.9
			c0.9-0.6,4-1,4.9-1.5c1.6-0.8,2.9-1.8,3.7-3.4c1.4-2.4,1.1-5.5-1.1-7.3c-2.8-2.2-6.4-1.2-9.4-0.1c-0.9,0.3-0.4,1.8,0.4,1.5
			c1.7-0.5,5.6-1.7,7.2-0.2c2.2,1.9,1.9,3.9,0.7,5.2c-0.4,0.5-0.9,0.9-1.4,1.2c-1.2,0.8-2.3,1.2-3.6,1.6c-1.9,0.5-3.6,0.5-4,2.7
			c-0.3,1.7-0.5,4.3,1.3,5.1c1.1,0.5,2.8,0.2,3.9,0.2c2.2,0,4.4,0.1,6.6,0.1C2053.3,533.9,2053.2,531.2,2051.4,531.2z"/>
		<path class="st4" d="M2006.3,538.7c-5-0.2-10,0.3-15.1,0.4c-0.4,0-0.5,0.6-0.2,0.8c2,1.4,4.6,1.1,7,1.2c2.8,0.1,5.6,0.2,8.4,0
			C2007.8,540.9,2007.6,538.7,2006.3,538.7z"/>
		<path class="st4" d="M2041.6,543.8c-1.2-4.4-3.5-8-8.5-7.6c-3.7,0.3-7.6,1.8-10.3,4.4c0.1-1.4,0.2-2.9,0.2-4.3
			c0-3.8-0.3-7.6-1.8-11.1c-0.2-0.5-1-0.4-1,0.2c0,5.6,0.3,11-0.1,16.6c-0.3,4.2-0.4,8.8,1.5,12.6c0.5,0.9,1.8,0.4,1.8-0.5
			c0.1-0.9,0-1.8-0.1-2.7c3.1,2.7,7.5,3.8,11.5,2.7C2040,552.6,2043.1,549,2041.6,543.8z M2031.9,551.8c-6.4,0-9.1-4-9.3-4.1
			c-0.1-1.2,0-4,0-5.2c4.4-4,13.8-7.1,16.2-0.2C2040.8,547.6,2038.7,551.8,2031.9,551.8z"/>
		<path class="st4" d="M2045.2,638.2c-3.7-6.1-4.1-11.8-3.6-18.7c0.2-3.1,0.5-7.1-2.1-9.1c-5.2-4-10-0.6-12.8,3.7
			c-0.6,0.9,0.8,1.9,1.4,1c1.8-3.7,6.1-5.3,9.4-2c1.2,1.2,1.7,2.8,1.7,4.4c0,1.4-0.2,2.8-0.4,4.3c-0.1,1.2-0.2,2.4-0.2,3.6
			c-5.6-5.9-19-1.4-18.7,7.3c0.4,10.2,16.8,13.6,21.6,5c0.4,0.7,0.7,1.4,1.1,2.1C2043.6,641.4,2046.2,639.8,2045.2,638.2z
			 M2040.1,635.5c-3.3,2.8-6.6,5.3-11.1,4c-2.6-0.7-5.1-2.6-6.1-5.2c-1.3-3.4,0.9-6.6,3.9-8.2c4.2-2.3,8.5-1.9,11.8,1.3
			c0,0.6,0.1,1.2,0.2,1.8c0.3,2.2,0.9,4.2,1.7,6.2C2040.3,635.4,2040.2,635.5,2040.1,635.5z"/>
		<path class="st4" d="M1898.4,623.5c-2.7-0.5-5.5-0.2-8.3-0.2c-2.7,0-5.5-0.2-8.1,0.2c-0.6,0.1-0.5,0.7,0,0.9
			c4.5,1.7,12,1.8,16.6,0.3C1899.2,624.5,1899.1,623.6,1898.4,623.5z"/>
		<path class="st4" d="M1898.5,632.1c-2.9-0.6-6.1-0.1-9,0.1c-2.6,0.1-5.2,0-7.7,0.7c-0.6,0.2-0.6,1,0,1.1c2.7,0.6,5.5,0.4,8.3,0.3
			c2.8-0.1,5.8,0.1,8.5-0.8C1899.1,633.3,1899.2,632.2,1898.5,632.1z"/>
		<path class="st4" d="M2082.9,585.7c-11-1-22.5,0.7-33.5,1c-11.9,0.3-23.8,0.3-35.7-0.1c-22.6-0.8-45.1,1.2-67.7,0
			c-0.6,0-0.9,0.3-0.9,0.8c-0.2,0.1-0.4,0.2-0.5,0.4c-10.6,16-19.7,34.4-25.8,52.6c-6.5-11.5-11.5-23.5-17-35.5
			c-0.2-0.5-1-0.1-0.9,0.4c3.5,12.9,9.8,25.4,16.4,37c0.4,0.7,1.1,0.6,1.6,0.3c0.2,0,0.5-0.1,0.6-0.3c4.1-8.7,7.8-17.5,12.1-26
			c4.6-9.2,10-17.9,15.1-26.9c0.1-0.2,0.2-0.4,0.2-0.6c11.1,0.9,22.2,1,33.4,0.4c11.6-0.6,22.8-0.5,34.4-0.1
			c11.2,0.4,22.4,0.5,33.6,0.3c11.3-0.2,23.7,0.4,34.8-2.3C2083.6,586.9,2083.7,585.8,2082.9,585.7z"/>
		<path class="st4" d="M1960.2,637.8c-5.5,1.3-14.7,4.2-18.7-1.8c-1.9-2.8-2-6.7-0.5-9.7c1.2-2.4,4.7-6.6,7.3-7.6
			c2.4-0.9,10.1-0.1,12.4,1c0.5,0.3,1-0.5,0.6-0.8c-8.9-7.2-21.6-0.6-23.8,9.7c-1,4.7,0.7,9.1,4.7,11.7c5.7,3.7,13,2.6,18.8,0
			C1962.7,639.6,1961.9,637.4,1960.2,637.8z"/>
		<path class="st4" d="M1978.8,618.8c-2.4-0.1-4.8-0.1-7.1-0.1c-0.8,0-1.6,0-2.4,0c0.2-0.2,0.3-0.3,0.5-0.5c-0.1-0.3,0.3-1.9,0-1.9
			c0.9-0.6,4-1,4.9-1.5c1.6-0.8,2.9-1.8,3.7-3.4c1.4-2.4,1.1-5.5-1.1-7.3c-2.8-2.2-6.4-1.2-9.4-0.1c-0.9,0.3-0.4,1.8,0.4,1.5
			c1.7-0.5,5.6-1.7,7.2-0.2c2.2,1.9,1.9,3.9,0.7,5.2c-0.4,0.5-0.9,0.9-1.4,1.2c-1.2,0.8-2.3,1.2-3.6,1.6c-1.9,0.5-3.6,0.5-4,2.7
			c-0.3,1.7-0.5,4.3,1.3,5.1c1.1,0.5,2.8,0.2,3.9,0.2c2.2,0,4.4,0.1,6.6,0.1C1980.7,621.6,1980.5,618.9,1978.8,618.8z"/>
		<path class="st4" d="M2058.1,618.8c-2.4-0.1-4.8-0.1-7.1-0.1c-0.8,0-1.6,0-2.4,0c0.2-0.2,0.3-0.3,0.5-0.5c-0.1-0.3,0.3-1.9,0-1.9
			c0.9-0.6,4-1,4.9-1.5c1.6-0.8,2.9-1.8,3.7-3.4c1.4-2.4,1.1-5.5-1.1-7.3c-2.8-2.2-6.4-1.2-9.4-0.1c-0.9,0.3-0.4,1.8,0.4,1.5
			c1.7-0.5,5.6-1.7,7.2-0.2c2.2,1.9,1.9,3.9,0.7,5.2c-0.4,0.5-0.9,0.9-1.4,1.2c-1.2,0.8-2.3,1.2-3.6,1.6c-1.9,0.5-3.6,0.5-4,2.7
			c-0.3,1.7-0.5,4.3,1.3,5.1c1.1,0.5,2.8,0.2,3.9,0.2c2.2,0,4.4,0.1,6.6,0.1C2060,621.6,2059.8,618.9,2058.1,618.8z"/>
		<path class="st4" d="M2006.3,626.3c-5-0.2-10,0.3-15.1,0.4c-0.4,0-0.5,0.6-0.2,0.8c2,1.4,4.6,1.1,7,1.2c2.8,0.1,5.6,0.2,8.4,0
			C2007.8,628.6,2007.6,626.4,2006.3,626.3z"/>
		<path class="st4" d="M1867,631.4c-1.2-4.4-3.5-8-8.5-7.6c-3.7,0.3-7.6,1.8-10.3,4.4c0.1-1.4,0.2-2.9,0.2-4.3
			c0-3.8-0.3-7.6-1.8-11.1c-0.2-0.5-1-0.4-1,0.2c0,5.6,0.3,11-0.1,16.6c-0.3,4.2-0.4,8.8,1.5,12.6c0.5,0.9,1.8,0.4,1.8-0.5
			c0.1-0.9,0-1.8-0.1-2.7c3.1,2.7,7.5,3.8,11.5,2.7C1865.3,640.3,1868.5,636.7,1867,631.4z M1857.3,639.4c-6.4,0-9.1-4-9.3-4.1
			c-0.1-1.2,0-4,0-5.2c4.4-4,13.8-7.1,16.2-0.2C1866.2,635.2,1864.1,639.4,1857.3,639.4z"/>
		<path class="st4" d="M1966.7,725.8c-3.7-6.1-4.1-11.8-3.6-18.7c0.2-3.1,0.5-7.1-2.1-9.1c-5.2-4-10-0.6-12.8,3.7
			c-0.6,0.9,0.8,1.9,1.4,1c1.8-3.7,6.1-5.3,9.4-2c1.2,1.2,1.7,2.8,1.7,4.4c0,1.4-0.2,2.8-0.4,4.3c-0.1,1.2-0.2,2.4-0.2,3.6
			c-5.6-5.9-19-1.4-18.7,7.3c0.4,10.2,16.8,13.6,21.6,5c0.4,0.7,0.7,1.4,1.1,2.1C1965.1,729.1,1967.7,727.5,1966.7,725.8z
			 M1961.6,723.2c-3.3,2.8-6.6,5.3-11.1,4c-2.6-0.7-5.1-2.6-6.1-5.2c-1.3-3.4,0.9-6.6,3.9-8.2c4.2-2.3,8.5-1.9,11.8,1.3
			c0,0.6,0.1,1.2,0.2,1.8c0.3,2.2,0.9,4.2,1.7,6.2C1961.8,723.1,1961.7,723.1,1961.6,723.2z"/>
		<path class="st4" d="M1898.4,711.1c-2.7-0.5-5.5-0.2-8.3-0.2c-2.7,0-5.5-0.2-8.1,0.2c-0.6,0.1-0.5,0.7,0,0.9
			c4.5,1.7,12,1.8,16.6,0.3C1899.2,712.2,1899.1,711.3,1898.4,711.1z"/>
		<path class="st4" d="M1898.5,719.7c-2.9-0.6-6.1-0.1-9,0.1c-2.6,0.1-5.2,0-7.7,0.7c-0.6,0.2-0.6,1,0,1.1c2.7,0.6,5.5,0.4,8.3,0.3
			c2.8-0.1,5.8,0.1,8.5-0.8C1899.1,720.9,1899.2,719.9,1898.5,719.7z"/>
		<path class="st4" d="M2082.9,673.3c-11-1-22.5,0.7-33.5,1c-11.9,0.3-23.8,0.3-35.7-0.1c-22.6-0.8-45.1,1.2-67.7,0
			c-0.6,0-0.9,0.3-0.9,0.8c-0.2,0.1-0.4,0.2-0.5,0.4c-10.6,16-19.7,34.4-25.8,52.6c-6.5-11.5-11.5-23.5-17-35.5
			c-0.2-0.5-1-0.1-0.9,0.4c3.5,12.9,9.8,25.4,16.4,37c0.4,0.7,1.1,0.6,1.6,0.3c0.2,0,0.5-0.1,0.6-0.3c4.1-8.7,7.8-17.5,12.1-26
			c4.6-9.2,10-17.9,15.1-26.9c0.1-0.2,0.2-0.4,0.2-0.6c11.1,0.9,22.2,1,33.4,0.4c11.6-0.6,22.8-0.5,34.4-0.1
			c11.2,0.4,22.4,0.5,33.6,0.3c11.3-0.2,23.7,0.4,34.8-2.3C2083.6,674.5,2083.7,673.4,2082.9,673.3z"/>
		<path class="st4" d="M1868.1,725.4c-5.5,1.3-14.7,4.2-18.7-1.8c-1.9-2.8-2-6.7-0.5-9.7c1.2-2.4,4.7-6.6,7.3-7.6
			c2.4-0.9,10.1-0.1,12.4,1c0.5,0.3,1-0.5,0.6-0.8c-8.9-7.2-21.6-0.6-23.8,9.7c-1,4.7,0.7,9.1,4.7,11.7c5.7,3.7,13,2.6,18.8,0
			C1870.6,727.3,1869.8,725,1868.1,725.4z"/>
		<path class="st4" d="M1978.8,706.5c-2.4-0.1-4.8-0.1-7.1-0.1c-0.8,0-1.6,0-2.4,0c0.2-0.2,0.3-0.3,0.5-0.5c-0.1-0.3,0.3-1.9,0-1.9
			c0.9-0.6,4-1,4.9-1.5c1.6-0.8,2.9-1.8,3.7-3.4c1.4-2.4,1.1-5.5-1.1-7.3c-2.8-2.2-6.4-1.2-9.4-0.1c-0.9,0.3-0.4,1.8,0.4,1.5
			c1.7-0.5,5.6-1.7,7.2-0.2c2.2,1.9,1.9,3.9,0.7,5.2c-0.4,0.5-0.9,0.9-1.4,1.2c-1.2,0.8-2.3,1.2-3.6,1.6c-1.9,0.5-3.6,0.5-4,2.7
			c-0.3,1.7-0.5,4.3,1.3,5.1c1.1,0.5,2.8,0.2,3.9,0.2c2.2,0,4.4,0.1,6.6,0.1C1980.7,709.2,1980.5,706.5,1978.8,706.5z"/>
		<path class="st4" d="M2051.4,706.5c-2.4-0.1-4.8-0.1-7.1-0.1c-0.8,0-1.6,0-2.4,0c0.2-0.2,0.3-0.3,0.5-0.5c-0.1-0.3,0.3-1.9,0-1.9
			c0.9-0.6,4-1,4.9-1.5c1.6-0.8,2.9-1.8,3.7-3.4c1.4-2.4,1.1-5.5-1.1-7.3c-2.8-2.2-6.4-1.2-9.4-0.1c-0.9,0.3-0.4,1.8,0.4,1.5
			c1.7-0.5,5.6-1.7,7.2-0.2c2.2,1.9,1.9,3.9,0.7,5.2c-0.4,0.5-0.9,0.9-1.4,1.2c-1.2,0.8-2.3,1.2-3.6,1.6c-1.9,0.5-3.6,0.5-4,2.7
			c-0.3,1.7-0.5,4.3,1.3,5.1c1.1,0.5,2.8,0.2,3.9,0.2c2.2,0,4.4,0.1,6.6,0.1C2053.3,709.2,2053.2,706.5,2051.4,706.5z"/>
		<path class="st4" d="M2006.3,714c-5-0.2-10,0.3-15.1,0.4c-0.4,0-0.5,0.6-0.2,0.8c2,1.4,4.6,1.1,7,1.2c2.8,0.1,5.6,0.2,8.4,0
			C2007.8,716.2,2007.6,714,2006.3,714z"/>
		<path class="st4" d="M2041.6,719.1c-1.2-4.4-3.5-8-8.5-7.6c-3.7,0.3-7.6,1.8-10.3,4.4c0.1-1.4,0.2-2.9,0.2-4.3
			c0-3.8-0.3-7.6-1.8-11.1c-0.2-0.5-1-0.4-1,0.2c0,5.6,0.3,11-0.1,16.6c-0.3,4.2-0.4,8.8,1.5,12.6c0.5,0.9,1.8,0.4,1.8-0.5
			c0.1-0.9,0-1.8-0.1-2.7c3.1,2.7,7.5,3.8,11.5,2.7C2040,727.9,2043.1,724.4,2041.6,719.1z M2031.9,727.1c-6.4,0-9.1-4-9.3-4.1
			c-0.1-1.2,0-4,0-5.2c4.4-4,13.8-7.1,16.2-0.2C2040.8,722.9,2038.7,727.1,2031.9,727.1z"/>
	</g>
	<g>
		<path class="st4" d="M1665.5,533.7c-3.7-6.1-4.1-11.8-3.6-18.7c0.2-3.1,0.5-7.1-2.1-9.1c-5.2-4-10-0.6-12.8,3.7
			c-0.6,0.9,0.8,1.9,1.4,1c1.8-3.7,6.1-5.3,9.4-2c1.2,1.2,1.7,2.8,1.7,4.4c0,1.4-0.2,2.8-0.4,4.3c-0.1,1.2-0.2,2.4-0.2,3.6
			c-5.6-5.9-19-1.4-18.7,7.3c0.4,10.2,16.8,13.6,21.6,5c0.4,0.7,0.7,1.4,1.1,2.1C1664,537,1666.5,535.4,1665.5,533.7z M1660.5,531.1
			c-3.3,2.8-6.6,5.3-11.1,4c-2.6-0.7-5.1-2.6-6.1-5.2c-1.3-3.4,0.9-6.6,3.9-8.2c4.2-2.3,8.5-1.9,11.8,1.3c0,0.6,0.1,1.2,0.2,1.8
			c0.3,2.2,0.9,4.2,1.7,6.2C1660.7,531,1660.6,531,1660.5,531.1z"/>
		<path class="st4" d="M1770.4,507.1c-5.5,1.3-14.7,4.2-18.7-1.8c-1.9-2.8-2-6.7-0.5-9.7c1.2-2.4,4.7-6.6,7.3-7.6
			c2.4-0.9,10.1-0.1,12.4,1c0.5,0.3,1-0.5,0.6-0.8c-8.9-7.2-21.6-0.6-23.8,9.7c-1,4.7,0.7,9.1,4.7,11.7c5.7,3.7,13,2.6,18.8,0
			C1772.9,509,1772.1,506.7,1770.4,507.1z"/>
		<path class="st4" d="M1778,595.1c-1.2-4.4-3.5-8-8.5-7.6c-3.7,0.3-7.6,1.8-10.3,4.4c0.1-1.4,0.2-2.9,0.2-4.3
			c0-3.8-0.3-7.6-1.8-11.1c-0.2-0.5-1-0.4-1,0.2c0,5.6,0.3,11-0.1,16.6c-0.3,4.2-0.4,8.8,1.5,12.6c0.5,0.9,1.8,0.4,1.8-0.5
			c0.1-0.9,0-1.8-0.1-2.7c3.1,2.7,7.5,3.8,11.5,2.7C1776.3,604,1779.4,600.4,1778,595.1z M1768.3,603.1c-6.4,0-9.1-4-9.3-4.1
			c-0.1-1.2,0-4,0-5.2c4.4-4,13.8-7.1,16.2-0.2C1777.1,598.9,1775.1,603.1,1768.3,603.1z"/>
		<path class="st4" d="M1808.4,562.4c-0.1-0.1-0.1-0.1-0.2-0.2c0,0,0,0,0,0c0,0,0,0,0,0c-0.1-0.1-0.1-0.1-0.2-0.2
			c-22.2-14.7-49.3-32.8-71.5-47.4c-10.8-7.1-21.7-14.3-32.5-21.4c-6.6-4.3-15.2-12.1-23.7-11c0-0.3-0.1-0.5-0.1-0.8
			c-0.1-0.4-0.8-0.6-0.8-0.1c0,0.3-0.1,0.7-0.1,1c-0.6,0.1-1.2,0.3-1.8,0.5c-0.6,0.2-0.5,1.1,0.2,1.1c0.5,0,1,0,1.5,0.1
			c-1.5,13.5-0.5,27.6-1,41.2c-0.2,6.6-0.5,13.1-0.8,19.7c-0.3,6.4-1.5,13.1-0.6,19.5c0.1,0.9,1.4,1.1,1.6,0.2
			c0.1-0.3,53,1.6,64.4,2c21.6,0.7,43.5-0.5,65-2.1c0.9-0.1,1.2-0.8,1.1-1.4C1808.7,562.9,1808.6,562.6,1808.4,562.4z M1678.5,561
			c1.1-5.6,1-10.3,1.1-15.7c5.7,0.9,11.7,0.8,17.5,1c-0.8,5-0.7,10.2-0.8,15.2C1690.3,561.1,1684,560.8,1678.5,561z M1740.3,563.8
			c-11-0.5-21.4-0.8-32.4-1.5c-2.9-0.2-6.1-0.4-9.4-0.7c0.2-5.3,0.7-10.7,0.2-16c0.4-0.7,0.2-1.7-0.8-1.7c-6-0.3-12.3-1.1-18.4-0.6
			c0.3-6.7,0.5-13.4,0.6-20.2c0.3-12.7,1.5-26.2,0.1-38.9c12.2,1.4,24.5,12.7,34.2,19.1c9.5,6.3,19,12.6,28.4,18.9
			c19,12.6,42.2,27.1,61.5,39.8C1783.1,562.6,1761.7,564.7,1740.3,563.8z"/>
	</g>
	<g>
		<path class="st4" d="M1699.8,698.5c-3.7-6.1-4.1-11.8-3.6-18.7c0.2-3.1,0.5-7.1-2.1-9.1c-5.2-4-10-0.6-12.8,3.7
			c-0.6,0.9,0.8,1.9,1.4,1c1.8-3.7,6.1-5.3,9.4-2c1.2,1.2,1.7,2.8,1.7,4.4c0,1.4-0.2,2.8-0.4,4.3c-0.1,1.2-0.2,2.4-0.2,3.6
			c-5.6-5.9-19-1.4-18.7,7.3c0.4,10.2,16.8,13.6,21.6,5c0.4,0.7,0.7,1.4,1.1,2.1C1698.2,701.8,1700.8,700.1,1699.8,698.5z
			 M1694.7,695.9c-3.3,2.8-6.6,5.3-11.1,4c-2.6-0.7-5.1-2.6-6.1-5.2c-1.3-3.4,0.9-6.6,3.9-8.2c4.2-2.3,8.5-1.9,11.8,1.3
			c0,0.6,0.1,1.2,0.2,1.8c0.3,2.2,0.9,4.2,1.7,6.2C1694.9,695.7,1694.8,695.8,1694.7,695.9z"/>
		<path class="st4" d="M1788.9,690.5c-5.5,1.3-14.7,4.2-18.7-1.8c-1.9-2.8-2-6.7-0.5-9.7c1.2-2.4,4.7-6.6,7.3-7.6
			c2.4-0.9,10.1-0.1,12.4,1c0.5,0.3,1-0.5,0.6-0.8c-8.9-7.2-21.6-0.6-23.8,9.7c-1,4.7,0.7,9.1,4.7,11.7c5.7,3.7,13,2.6,18.8,0
			C1791.4,692.4,1790.6,690.1,1788.9,690.5z"/>
		<path class="st4" d="M1770.6,793.7c-1.2-4.4-3.5-8-8.5-7.6c-3.7,0.3-7.6,1.8-10.3,4.4c0.1-1.4,0.2-2.9,0.2-4.3
			c0-3.8-0.3-7.6-1.8-11.1c-0.2-0.5-1-0.4-1,0.2c0,5.6,0.3,11-0.1,16.6c-0.3,4.2-0.4,8.8,1.5,12.6c0.5,0.9,1.8,0.4,1.8-0.5
			c0.1-0.9,0-1.8-0.1-2.7c3.1,2.7,7.5,3.8,11.5,2.7C1769,802.5,1772.1,799,1770.6,793.7z M1761,801.7c-6.4,0-9.1-4-9.3-4.1
			c-0.1-1.2,0-4,0-5.2c4.4-4,13.8-7.1,16.2-0.2C1769.8,797.5,1767.7,801.7,1761,801.7z"/>
		<path class="st4" d="M1713.8,629c-0.7-0.1-1.4,0.2-1.4,1.1c-1.5,21.5-2.8,43.5-2.1,65c0.4,11.4,2.2,64.4,2,64.4
			c-1,0.2-0.7,1.5,0.2,1.6c6.3,0.8,13.1-0.3,19.5-0.6c6.6-0.3,13.1-0.6,19.7-0.8c13.5-0.5,27.7,0.5,41.2-1c0,0.5,0.1,1,0.1,1.5
			c0,0.7,0.9,0.7,1.1,0.2c0.2-0.6,0.4-1.2,0.5-1.8c0.3,0,0.7-0.1,1-0.1c0.5-0.1,0.3-0.8-0.1-0.8c-0.3,0-0.5-0.1-0.8-0.1
			c1.1-8.6-6.6-17.1-11-23.7c-7.2-10.8-14.3-21.7-21.4-32.5c-14.6-22.2-32.7-49.3-47.4-71.5c0-0.1-0.1-0.2-0.2-0.2c0,0,0,0,0,0
			s0,0,0,0c-0.1-0.1-0.1-0.2-0.2-0.2C1714.3,629,1714,628.9,1713.8,629z M1715.4,741.4c5-0.1,10.3,0,15.2-0.8c0.2,5.7,0,11.8,1,17.5
			c-5.5,0.2-10.1,0-15.7,1.1C1716.1,753.6,1715.8,747.4,1715.4,741.4z M1714.8,633.1c12.7,19.2,27.2,42.5,39.8,61.5
			c6.3,9.5,12.6,19,18.9,28.4c6.5,9.7,17.7,22.1,19.1,34.2c-12.7-1.4-26.3-0.2-38.9,0.1c-6.7,0.2-13.4,0.4-20.2,0.6
			c0.4-6-0.4-12.4-0.6-18.4c0-1-1-1.2-1.7-0.8c-5.2-0.4-10.7,0-16,0.2c-0.2-3.3-0.4-6.5-0.7-9.4c-0.8-10.9-1-21.4-1.5-32.4
			C1712.2,675.9,1714.3,654.5,1714.8,633.1z"/>
	</g>
</g>
</svg>
