<?xml version="1.0" encoding="utf-8"?>
<!-- Generator: Adobe Illustrator 25.0.0, SVG Export Plug-In . SVG Version: 6.00 Build 0)  -->
<svg version="1.1" xmlns="http://www.w3.org/2000/svg" xmlns:xlink="http://www.w3.org/1999/xlink" x="0px" y="0px"
	 viewBox="0 0 500 500" style="enable-background:new 0 0 500 500;" xml:space="preserve">
<style type="text/css">
	.st0{fill:#E3EDFC;}
	.st1{fill:#814C4A;}
	.st2{opacity:0.2;}
	.st3{fill:#B76A6A;}
	.st4{fill:#FFAE8A;}
	.st5{fill:#F79B77;}
	.st6{opacity:0.5;fill:#FFBCA1;}
	.st7{fill:#FAC849;}
	.st8{fill:#F9B212;}
	.st9{fill:#AA6868;}
	.st10{fill:#111B24;}
	.st11{fill:#F4472A;}
	.st12{fill:#FFFFFF;}
	.st13{fill:#F89675;}
	.st14{opacity:0.1;}
	.st15{fill:#F4B425;}
	.st16{fill:#F4885D;}
	.st17{fill:#5D93F4;}
	.st18{opacity:0.5;fill:#1A65D3;}
	.st19{fill:#1A65D3;}
	.st20{opacity:0.5;fill:#0952AA;}
	.st21{opacity:0.2;fill:#814C4A;}
	.st22{opacity:0.2;fill:#FFFFFF;}
	.st23{fill:#2D80E2;}
	.st24{fill:#184A7C;}
	.st25{fill:#1D5393;}
	.st26{opacity:0.6;fill:#114068;}
	.st27{fill:#A9D0FF;}
	.st28{opacity:0.1;fill:#114068;}
	.st29{clip-path:url(#SVGID_2_);}
	.st30{opacity:0.5;}
	.st31{fill:#FC8B3F;}
	.st32{font-family:'Montserrat-ExtraBold';}
	.st33{font-size:15.1199px;}
	.st34{fill:#F46C0F;}
	.st35{fill:#B6CDEF;}
	.st36{font-size:14.9344px;}
	.st37{fill:#CEDDF4;}
	.st38{fill:#AF622E;}
</style>
<g id="BACKGROUND">
</g>
<g id="OBJECTS">
	<g>
		<g>
			<path class="st0" d="M468.8,433.4H24.5l-0.4-0.4c-0.2-0.2-20.2-24.6-0.1-53.5c20-28.9,24-40.4,13.3-66.2
				c-1.8-4.5-4.2-9.4-6.7-14.5c-12.5-25.9-28.1-58.2,0.5-83c2.3-2,4.5-3.9,6.7-5.8C67,184.7,86.3,168,93.7,138.3
				c3-12.2,9.6-29.6,23.8-43.5c13.4-13.1,30.2-19.7,50-19.7c15.4,0,32.4,4.1,50.6,12.3c53.8,24,72.8,31,95.1,31
				c7.4,0,15.3-0.7,25.6-1.8c4.1-0.4,8.4-0.6,12.6-0.6c27.1,0,50.6,8.3,64.5,22.8c11,11.5,16.2,26.6,15.4,44.9
				c-0.5,11-1.2,20.3-1.9,28.6c-2.7,33.4-3.7,45.9,21.3,67.5c36.2,31.3,60,87.9,18.5,153.1L468.8,433.4z M25.7,431h441.8
				c40.3-63.7,17-118.9-18.4-149.4c-25.9-22.4-24.8-36.2-22.1-69.5c0.7-8.2,1.4-17.5,1.9-28.5c0.8-17.6-4.2-32.1-14.7-43.1
				c-13.4-14-36.3-22.1-62.7-22.1c-4.1,0-8.3,0.2-12.4,0.6c-10.4,1-18.4,1.8-25.9,1.8c-22.7,0-41.9-7-96.1-31.2
				c-17.9-8-34.6-12-49.6-12c-13.2,0-57.4,4.4-71.5,61.4c-7.6,30.5-27,47.4-56.5,72.9c-2.2,1.9-4.4,3.8-6.6,5.8
				c-27.2,23.6-12,55,0.1,80.1c2.5,5.2,4.9,10.1,6.7,14.6c11.6,28.2,5.8,40.5-13.6,68.5C8.4,406.2,23.2,427.7,25.7,431z"/>
		</g>
		<path class="st0" d="M33.8,432.2c0,0-19.1-22.6,0-50.1c19.1-27.4,23.6-38.8,13-64.8c-10.7-26-38.5-64.5-6.3-92.5
			c32.2-28,52.7-44,60.4-75.1c10.1-40.6,46.3-80.2,118.1-48.2c71.7,32,78.6,32,116.7,28.2c38.1-3.8,90,9.9,87.7,63.3
			c-2.3,53.3-11.4,67,19.1,93.3c30.5,26.3,59.5,80,17.5,145.8H33.8z"/>
	</g>
	<g>
		<g>
			<path class="st1" d="M200.4,198c0,0-18.4,113.3,51.8,113.3c70.1,0,53.7-117.7,53.7-117.7L202.6,198"/>
			<g class="st2">
				<g>
					<path class="st3" d="M207.2,213.9c0,0,0,1.2,0,3.4c0,2.2,0.1,5.2,0.2,8.9c0.1,3.7,0.4,8,0.8,12.5c0.2,2.3,0.5,4.6,0.8,7
						c0.3,2.4,0.7,4.8,1.1,7.2c0.4,2.4,0.9,4.8,1.5,7.1c0.3,1.2,0.6,2.3,0.9,3.4c0.3,1.1,0.7,2.2,1,3.3c0.4,1.1,0.7,2.1,1.1,3.2
						c0.4,1,0.8,2,1.2,3c0.4,1,0.8,1.9,1.2,2.8c0.4,0.9,0.9,1.7,1.3,2.5c0.9,1.6,1.7,3.1,2.5,4.3c0.8,1.3,1.6,2.3,2.2,3.2
						c1.3,1.7,2.1,2.6,2.1,2.6s-0.2-0.2-0.7-0.6c-0.4-0.4-1.1-0.9-1.8-1.7c-0.7-0.8-1.7-1.7-2.6-2.9c-0.5-0.6-1-1.2-1.5-1.9
						c-0.5-0.7-1-1.4-1.5-2.2c-0.5-0.8-1-1.6-1.5-2.5c-0.5-0.9-0.9-1.8-1.4-2.8c-0.5-1-0.9-2-1.4-3c-0.4-1-0.8-2.1-1.3-3.2
						c-0.8-2.2-1.5-4.5-2.1-6.9c-0.6-2.4-1.2-4.8-1.6-7.2c-0.4-2.4-0.8-4.9-1.1-7.3c-0.3-2.4-0.5-4.8-0.6-7.1
						c-0.1-2.3-0.2-4.6-0.2-6.7c0-2.1,0-4.1,0.1-6c0.2-3.7,0.5-6.8,0.7-8.9C206.9,215.1,207.2,213.9,207.2,213.9z"/>
					<path class="st3" d="M215.8,213.9c0,0,0.1,1.1,0.2,3.2c0.1,1,0.2,2.2,0.3,3.6c0.1,1.4,0.2,3,0.4,4.7c0.2,1.7,0.3,3.6,0.5,5.5
						c0.2,2,0.4,4,0.7,6.1c0.2,2.1,0.6,4.3,0.9,6.5c0.3,2.2,0.7,4.5,1.1,6.7c0.4,2.2,0.8,4.5,1.2,6.7c0.5,2.2,0.9,4.3,1.5,6.4
						c0.6,2,1,4.1,1.6,5.9c0.6,1.9,1.2,3.6,1.7,5.2c0.6,1.6,1.2,3.1,1.7,4.3c0.1,0.3,0.2,0.6,0.4,0.9c0.1,0.3,0.3,0.6,0.4,0.8
						c0.3,0.5,0.5,1,0.7,1.5c0.8,1.8,1.3,2.9,1.3,2.9s-0.6-1-1.7-2.6c-0.3-0.4-0.6-0.9-0.9-1.4c-0.2-0.3-0.3-0.5-0.5-0.8
						c-0.1-0.3-0.3-0.6-0.5-0.9c-0.6-1.2-1.4-2.7-2.1-4.2c-0.7-1.6-1.4-3.3-2.1-5.2c-0.7-1.9-1.3-3.9-2-5.9
						c-0.6-2.1-1.1-4.3-1.7-6.5c-0.4-2.2-0.9-4.5-1.3-6.8c-0.3-2.3-0.7-4.6-1-6.8c-0.3-2.3-0.5-4.5-0.7-6.6
						c-0.2-2.1-0.3-4.2-0.4-6.2c-0.1-2-0.1-3.8-0.1-5.6C215.3,218.5,215.8,213.9,215.8,213.9z"/>
					<path class="st3" d="M229,217c0,0,0.2,4.3,0.6,10.7c0.2,3.2,0.4,6.9,0.6,10.9c0.1,2,0.3,4,0.4,6.1c0.1,2.1,0.3,4.2,0.5,6.3
						c0.2,2.1,0.4,4.2,0.6,6.3c0.2,2.1,0.4,4.1,0.7,6.1c0.3,2,0.5,3.9,0.8,5.7c0.3,1.8,0.6,3.5,1,5c0.4,1.5,0.7,3,1.1,4.2
						c0.4,1.2,0.7,2.3,1.1,3.2c0.3,0.9,0.6,1.5,0.8,2c0.2,0.5,0.3,0.7,0.3,0.7s-0.2-0.2-0.4-0.6c-0.3-0.4-0.7-1-1.1-1.9
						c-0.5-0.8-1-1.9-1.5-3.1c-0.2-0.6-0.5-1.3-0.8-1.9c-0.2-0.7-0.5-1.4-0.8-2.2c-0.2-0.8-0.5-1.6-0.7-2.4
						c-0.2-0.8-0.4-1.7-0.7-2.6c-0.4-1.8-0.8-3.7-1.2-5.7c-0.3-2-0.7-4-0.9-6.1c-0.3-2.1-0.5-4.2-0.7-6.4c-0.2-2.1-0.3-4.3-0.4-6.4
						c-0.1-2.1-0.2-4.2-0.2-6.2c-0.1-4,0-7.8,0.1-11C228.5,221.3,229,217,229,217z"/>
				</g>
				<g>
					<path class="st3" d="M297.2,213.9c0,0,0,1.2,0,3.4c0,2.2-0.1,5.2-0.2,8.9c-0.1,3.7-0.4,8-0.8,12.5c-0.2,2.3-0.5,4.6-0.8,7
						c-0.3,2.4-0.7,4.8-1.1,7.2c-0.4,2.4-0.9,4.8-1.5,7.1c-0.3,1.2-0.6,2.3-0.9,3.4c-0.3,1.1-0.7,2.2-1,3.3
						c-0.4,1.1-0.7,2.1-1.1,3.2c-0.4,1-0.8,2-1.2,3c-0.4,1-0.8,1.9-1.2,2.8c-0.4,0.9-0.9,1.7-1.3,2.5c-0.9,1.6-1.7,3.1-2.5,4.3
						c-0.8,1.3-1.6,2.3-2.2,3.2c-1.3,1.7-2.1,2.6-2.1,2.6s0.2-0.2,0.7-0.6c0.4-0.4,1.1-0.9,1.8-1.7c0.7-0.8,1.7-1.7,2.6-2.9
						c0.5-0.6,1-1.2,1.5-1.9c0.5-0.7,1-1.4,1.5-2.2c0.5-0.8,1-1.6,1.5-2.5c0.5-0.9,0.9-1.8,1.4-2.8c0.5-1,0.9-2,1.4-3
						c0.4-1,0.8-2.1,1.3-3.2c0.8-2.2,1.5-4.5,2.1-6.9c0.6-2.4,1.2-4.8,1.6-7.2c0.4-2.4,0.8-4.9,1.1-7.3c0.3-2.4,0.5-4.8,0.6-7.1
						c0.1-2.3,0.2-4.6,0.2-6.7c0-2.1,0-4.1-0.1-6c-0.2-3.7-0.5-6.8-0.7-8.9C297.4,215.1,297.2,213.9,297.2,213.9z"/>
					<path class="st3" d="M288.5,213.9c0,0-0.1,1.1-0.2,3.2c-0.1,1-0.2,2.2-0.3,3.6c-0.1,1.4-0.2,3-0.4,4.7
						c-0.2,1.7-0.3,3.6-0.5,5.5c-0.2,2-0.4,4-0.7,6.1c-0.2,2.1-0.6,4.3-0.9,6.5c-0.3,2.2-0.7,4.5-1.1,6.7c-0.4,2.2-0.8,4.5-1.2,6.7
						c-0.5,2.2-0.9,4.3-1.5,6.4c-0.6,2-1,4.1-1.6,5.9c-0.6,1.9-1.2,3.6-1.7,5.2c-0.6,1.6-1.2,3.1-1.7,4.3c-0.1,0.3-0.2,0.6-0.4,0.9
						c-0.1,0.3-0.3,0.6-0.4,0.8c-0.3,0.5-0.5,1-0.7,1.5c-0.8,1.8-1.3,2.9-1.3,2.9s0.6-1,1.7-2.6c0.3-0.4,0.6-0.9,0.9-1.4
						c0.2-0.3,0.3-0.5,0.5-0.8c0.1-0.3,0.3-0.6,0.5-0.9c0.6-1.2,1.4-2.7,2.1-4.2c0.7-1.6,1.4-3.3,2.1-5.2c0.7-1.9,1.3-3.9,2-5.9
						c0.6-2.1,1.1-4.3,1.7-6.5c0.4-2.2,0.9-4.5,1.3-6.8c0.3-2.3,0.7-4.6,1-6.8c0.3-2.3,0.5-4.5,0.7-6.6c0.2-2.1,0.3-4.2,0.4-6.2
						c0.1-2,0.1-3.8,0.1-5.6C289.1,218.5,288.5,213.9,288.5,213.9z"/>
					<path class="st3" d="M275.3,217c0,0-0.2,4.3-0.6,10.7c-0.2,3.2-0.4,6.9-0.6,10.9c-0.1,2-0.3,4-0.4,6.1
						c-0.1,2.1-0.3,4.2-0.5,6.3c-0.2,2.1-0.4,4.2-0.6,6.3c-0.2,2.1-0.4,4.1-0.7,6.1c-0.3,2-0.5,3.9-0.8,5.7c-0.3,1.8-0.6,3.5-1,5
						c-0.4,1.5-0.7,3-1.1,4.2c-0.4,1.2-0.7,2.3-1.1,3.2c-0.3,0.9-0.6,1.5-0.8,2c-0.2,0.5-0.3,0.7-0.3,0.7s0.2-0.2,0.4-0.6
						c0.3-0.4,0.7-1,1.1-1.9c0.5-0.8,1-1.9,1.5-3.1c0.2-0.6,0.5-1.3,0.8-1.9c0.2-0.7,0.5-1.4,0.8-2.2c0.2-0.8,0.5-1.6,0.7-2.4
						c0.2-0.8,0.4-1.7,0.7-2.6c0.4-1.8,0.8-3.7,1.2-5.7c0.3-2,0.7-4,0.9-6.1c0.3-2.1,0.5-4.2,0.7-6.4c0.2-2.1,0.3-4.3,0.4-6.4
						c0.1-2.1,0.2-4.2,0.2-6.2c0.1-4,0-7.8-0.1-11C275.9,221.3,275.3,217,275.3,217z"/>
				</g>
			</g>
		</g>
		<g>
			<g>
				<g>
					<g>
						<g>
							<g>
								<polygon class="st4" points="264.3,237.9 252.2,237.9 240,237.9 229.7,280 252.2,311.3 274.7,277.4 								"/>
							</g>
							<path class="st5" d="M264.3,237.9h-12.1H240l-2.5,10.3c7.2,7.2,22.1,12,31.3,6.8L264.3,237.9z"/>
						</g>
						<g>
							<g>
								<g>
									<path class="st4" d="M209.1,196.4c0,0-7.3-11.8-11.7-6.2c-4.4,5.6,2.7,19.1,11.7,16.8V196.4z"/>
									<path class="st4" d="M295.3,196.4c0,0,7.3-11.8,11.7-6.2c4.4,5.6-2.7,19.1-11.7,16.8V196.4z"/>
								</g>
								<g>
									<path class="st4" d="M252.3,132.4c-49.7,0-45.8,63.5-44.9,79c1,15.5,10.5,20.8,22.9,30.6c12.4,9.7,21.9,8.7,21.9,8.7
										s9.5,1,21.9-8.7c12.4-9.8,21.9-15.1,22.9-30.6C298.2,196,302.1,132.4,252.3,132.4z"/>
									<path class="st6" d="M297.4,188.7c0.3,8.3-0.1,15.4-0.4,19.4c-1,15.5-10.5,20.8-22.9,30.6c-12.4,9.7-21.9,8.7-21.9,8.7
										s-9.5,1-21.9-8.7c-12.4-9.8-21.9-15.1-22.9-30.6c0-0.8-0.1-1.7-0.2-2.7c0.1,2.5,0.2,4.5,0.3,6.1
										c1,15.5,10.5,20.8,22.9,30.6c12.4,9.7,21.9,8.7,21.9,8.7s9.5,1,21.9-8.7c12.4-9.8,21.9-15.1,22.9-30.6
										C297.5,207,298,198.5,297.4,188.7z"/>
								</g>
							</g>
						</g>
						<g>
							<path class="st7" d="M315.2,270.9l-44.9-10.4c0,14.1-15.8,14-17.1,13.8v0c0,0,0,0,0,0c0,0,0,0,0,0v0
								c-1.3,0.3-18.6,0.3-18.6-13.8l-43.4,10.4l9.3,42.8c0,0-11.9,26.1,8.9,44.6L213,422h40.1h0.1h41.4l2.5-63.7
								c20.8-18.5,8.9-44.6,8.9-44.6L315.2,270.9z"/>
							<path class="st8" d="M253.1,278.6L253.1,278.6C253.1,278.6,253.1,278.6,253.1,278.6c0.1,0,0.1,0,0.1,0v0
								c1.6,0.3,21.3,0.4,21.6-17.1l-4.5-1c0,14.1-15.8,14-17.1,13.8v0c0,0,0,0,0,0c0,0,0,0,0,0v0c-1.3,0.3-18.6,0.3-18.6-13.8
								l-4.9,1.2C230,279,251.5,278.9,253.1,278.6z"/>
						</g>
						<g>
							<g>
								<g>
									<path class="st9" d="M264.9,189.8c0,0-0.3-3.6,0.9-4.3c1.2-0.7,12.2-1.1,16.2,0c4,1.1,5.7,6.1,5.7,6.1s-1.4-2.1-7.6-2.7
										C275.5,188.4,266.4,190.6,264.9,189.8z"/>
									<path class="st9" d="M239.8,189.8c0,0,0.3-3.6-0.9-4.3c-1.2-0.7-12.2-1.1-16.2,0c-4,1.1-5.7,6.1-5.7,6.1s1.4-2.1,7.6-2.7
										C229.1,188.4,238.3,190.6,239.8,189.8z"/>
								</g>
								<g>
									<path class="st10" d="M279.2,202c0,2.6-1.5,4.8-3.2,4.8c-1.8,0-3.2-2.1-3.2-4.8c0-2.6,1.5-4.8,3.2-4.8
										C277.8,197.3,279.2,199.4,279.2,202z"/>
									<path class="st10" d="M232.6,202c0,2.6-1.5,4.8-3.2,4.8c-1.8,0-3.2-2.1-3.2-4.8c0-2.6,1.5-4.8,3.2-4.8
										C231.2,197.3,232.6,199.4,232.6,202z"/>
								</g>
							</g>
							<g>
								<path class="st11" d="M238,226.7c0,0,4.2,10,14.4,10c10.1,0,14.3-10,14.3-10S254.8,232,238,226.7z"/>
								<path class="st12" d="M238,226.8c0,0,7,5.8,14.5,5.8c7.5,0,14-5.8,14-5.8S254.7,233.4,238,226.8z"/>
								<g>
									<g>
										<path class="st11" d="M267.1,226.4c0,0-10-0.6-11.9,0c-1.9,0.6-2,0.7-2.6,0.7c-0.7,0-0.7-0.1-2.6-0.7
											c-1.9-0.6-11.9,0-11.9,0C249.7,232.3,264.9,228.6,267.1,226.4z"/>
									</g>
									<g>
										<path class="st11" d="M235.6,225.7c10,5.1,23.6,5.5,33.4,0c0.2-0.1,0-0.4-0.2-0.3c-9.7,5.4-23.1,5.1-33,0
											C235.6,225.3,235.4,225.5,235.6,225.7L235.6,225.7z"/>
									</g>
								</g>
							</g>
							<path class="st13" d="M247.1,217c0,0,0.7,0.2,1.8,0.6c0.5,0.2,1.1,0.3,1.7,0.5c0.3,0.1,0.6,0.1,0.9,0.2
								c0.3,0,0.6,0.1,0.9,0.1c0.3,0,0.6,0,0.9,0c0.3,0,0.6-0.1,0.9-0.1c0.3,0,0.6-0.2,0.8-0.2c0.3-0.1,0.5-0.2,0.8-0.3
								c0.2-0.1,0.5-0.2,0.7-0.3c0.2-0.1,0.4-0.2,0.6-0.2c0.3-0.1,0.5-0.2,0.5-0.2s-0.1,0.2-0.2,0.5c-0.1,0.3-0.3,0.8-0.8,1.3
								c-0.2,0.2-0.4,0.5-0.7,0.7c-0.3,0.2-0.6,0.5-1,0.6c-0.4,0.1-0.8,0.4-1.2,0.4c-0.4,0.1-0.9,0.2-1.3,0.1
								c-0.5,0-0.9-0.1-1.3-0.2c-0.4-0.1-0.8-0.3-1.2-0.5c-0.7-0.4-1.3-0.9-1.7-1.3C247.3,217.9,247.1,217,247.1,217z"/>
						</g>
						<g class="st14">
							<path class="st11" d="M230.7,215.2c0,4.4-4,8-9,8c-5,0-9-3.6-9-8c0-4.4,4-8,9-8C226.6,207.2,230.7,210.8,230.7,215.2z"/>
							<path class="st11" d="M293.3,215.2c0,4.4-4.1,8-9,8c-5,0-9-3.6-9-8c0-4.4,4-8,9-8C289.2,207.2,293.3,210.8,293.3,215.2z"/>
						</g>
					</g>
					<path class="st15" d="M314.9,270.9c0,0,16,5.5,23.7,23.8c7.7,18.3,26.5,73.4,23.4,85.7c-3.3,13.2-67,38.5-67,38.5l-9.6-16.6
						c0,0,39.4-27.6,46-32.8l-25.6-55.7L314.9,270.9z"/>
					<path class="st15" d="M191.2,270.9c0,0-16,5.5-23.7,23.8c-7.7,18.3-26.5,73.4-23.5,85.7c3.3,13.2,67,38.5,67,38.5l9.6-16.6
						c0,0-39.4-27.6-46-32.8l25.7-55.7L191.2,270.9z"/>
					<path class="st15" d="M274.5,357.5c-8.7-2.7-16.9-5-21.4-5v0v0c-4.5,0-12.7,2.3-21.4,5c-8.7,2.7-14.9,1.2-14.9,1.2
						c6.2,3.8,14.7,4.4,23.2,1.2c7.5-2.8,13.1-2.7,13.1-2.7v0v0c0,0,5.6,0.1,13.1,2.7c8.6,2.9,17,2.6,23.2-1.2
						C289.4,358.7,283.2,360.2,274.5,357.5z"/>
					<g>
						<path class="st16" d="M306.9,192.5c-1.9-1.6-3.4-1.5-4.6-0.4c-0.1,0.1-0.3,0.2-0.3,0.3c-2.2,2.2-3.4,7.1-3.7,9.4
							c-0.2,0.9,1.3,1.4,1.5,0.4c0.3-1.6,1.2-6.3,2.9-8.3c1,1.8,1.1,4,0,5.8c-0.5,0.8,0.8,1.6,1.3,0.8c1.4-2.3,1.3-5.2-0.1-7.5
							c0.6-0.2,1.3-0.1,2.1,0.6C306.5,194.2,307.6,193.2,306.9,192.5z"/>
						<path class="st16" d="M198.4,192.5c1.9-1.6,3.4-1.5,4.6-0.4c0.1,0.1,0.3,0.2,0.3,0.3c2.2,2.2,3.4,7.1,3.7,9.4
							c0.2,0.9-1.3,1.4-1.5,0.4c-0.3-1.6-1.2-6.3-2.9-8.3c-1,1.8-1.1,4,0,5.8c0.5,0.8-0.8,1.6-1.3,0.8c-1.4-2.3-1.3-5.2,0.1-7.5
							c-0.6-0.2-1.3-0.1-2.1,0.6C198.7,194.2,197.6,193.2,198.4,192.5z"/>
					</g>
				</g>
				<path class="st4" d="M287.8,406.1c0,0-13.8-0.2-16,1.8c-2.2,2-8.8,14.2-7.8,15.5c1,1.2,16.7-1.6,20.7-3.2c4-1.6,9.3-3.5,9.3-3.5
					L287.8,406.1z"/>
				<path class="st4" d="M217.8,406.1c0,0,13.8-0.2,16,1.8c2.2,2,8.8,14.2,7.8,15.5c-1,1.2-16.7-1.6-20.7-3.2
					c-4-1.6-9.3-3.5-9.3-3.5L217.8,406.1z"/>
			</g>
			<g>
				<path class="st1" d="M207.1,193.5c0,0,23.9-12.3,30.4-35.8c0,0,19.6,33.1,60.1,35.8c0,0,3.9-5.4,8.3-4.4c0,0,2.8-63.5-53.7-63.5
					c-56.5,0-51.7,63.1-51.7,63.1S203.6,189.6,207.1,193.5z"/>
				<g class="st2">
					<path class="st3" d="M244.9,147.5c0,0,0.6,0.7,1.6,1.9c1,1.2,2.5,2.9,4.4,4.8c0.9,1,2,2,3,3.1c1.1,1.1,2.3,2.1,3.5,3.3
						c1.3,1.1,2.5,2.2,3.9,3.3c0.7,0.5,1.4,1.1,2.1,1.6c0.7,0.5,1.4,1,2.1,1.6c0.7,0.5,1.4,1.1,2.1,1.6c0.7,0.5,1.5,1,2.2,1.4
						c1.4,1,2.9,1.8,4.4,2.7c1.4,0.9,2.9,1.6,4.2,2.3c0.7,0.3,1.3,0.7,2,1c0.7,0.3,1.3,0.6,1.9,0.8c1.2,0.5,2.3,1.1,3.3,1.5
						c1,0.4,1.9,0.7,2.6,1c1.5,0.6,2.3,0.9,2.3,0.9s-0.9-0.2-2.4-0.5c-0.8-0.2-1.7-0.4-2.8-0.6c-1.1-0.3-2.3-0.7-3.6-1.1
						c-0.7-0.2-1.3-0.4-2-0.6c-0.7-0.3-1.4-0.6-2.1-0.9c-1.4-0.6-3-1.2-4.5-2c-1.5-0.8-3.1-1.6-4.6-2.6c-0.8-0.5-1.5-1-2.3-1.4
						c-0.8-0.5-1.5-1-2.2-1.6c-0.7-0.5-1.5-1.1-2.2-1.6c-0.7-0.6-1.4-1.2-2.1-1.7c-0.7-0.6-1.4-1.1-2-1.8c-0.6-0.6-1.3-1.2-1.9-1.8
						c-1.2-1.2-2.3-2.4-3.4-3.6c-1-1.2-2-2.3-2.8-3.4c-0.9-1.1-1.6-2.1-2.2-3c-0.6-0.9-1.1-1.7-1.5-2.4
						C245.2,148.3,244.9,147.5,244.9,147.5z"/>
					<path class="st3" d="M250.7,139.1c0,0,2.4,2.1,6,5.1c0.9,0.7,1.9,1.6,2.9,2.4c1,0.8,2.2,1.7,3.3,2.6c2.3,1.8,4.8,3.7,7.4,5.5
						l1.9,1.4c0.6,0.4,1.3,0.9,1.9,1.3c1.3,0.9,2.5,1.7,3.8,2.5c1.2,0.8,2.4,1.5,3.6,2.2c1.2,0.7,2.2,1.4,3.3,1.9
						c1,0.6,2,1.1,2.8,1.6c0.9,0.4,1.6,0.8,2.2,1.1c1.2,0.6,1.9,1,1.9,1s-0.8-0.2-2.1-0.6c-0.7-0.2-1.5-0.5-2.4-0.7
						c-0.9-0.3-1.9-0.7-3-1.2c-0.6-0.2-1.1-0.4-1.7-0.7c-0.6-0.3-1.2-0.6-1.8-0.9c-1.2-0.6-2.5-1.2-3.8-2c-1.3-0.7-2.7-1.5-4-2.3
						c-0.7-0.4-1.3-0.9-2-1.3l-2-1.4c-1.3-0.9-2.6-1.9-3.8-2.9c-1.3-0.9-2.4-2-3.5-3c-2.2-2-4.2-3.9-5.8-5.7
						c-1.6-1.7-2.9-3.3-3.7-4.4C251.1,139.7,250.7,139.1,250.7,139.1z"/>
					<path class="st3" d="M254.3,132.7c0,0,3.1,0.1,7.7,1.2c1.1,0.3,2.4,0.6,3.7,1c0.6,0.2,1.3,0.4,2,0.6c0.7,0.3,1.3,0.5,2,0.8
						c1.4,0.5,2.8,1.2,4.2,1.9c1.4,0.7,2.8,1.5,4.1,2.3l2,1.3l1,0.7l0.9,0.7c1.2,1,2.4,1.9,3.5,3c0.5,0.5,1.1,1,1.5,1.6
						c0.5,0.5,0.9,1.1,1.3,1.6c0.8,1.1,1.7,2,2.2,3.1c0.6,1,1.2,2,1.6,2.8c0.4,0.9,0.7,1.7,1,2.3c0.5,1.3,0.8,2,0.8,2
						s-0.5-0.7-1.2-1.8c-0.4-0.6-0.8-1.3-1.3-2c-0.6-0.7-1.3-1.6-2-2.5c-0.7-0.9-1.6-1.8-2.5-2.7c-0.9-1-1.9-1.9-3-2.8
						c-1-1-2.3-1.8-3.4-2.7l-0.9-0.7l-1-0.6l-1.9-1.2c-1.3-0.8-2.6-1.6-3.9-2.3c-1.4-0.6-2.6-1.4-3.9-2c-0.7-0.3-1.3-0.6-1.9-0.9
						c-0.6-0.3-1.3-0.5-1.9-0.8c-1.2-0.5-2.4-1-3.5-1.4c-2.2-0.8-4-1.4-5.3-1.9C255,132.9,254.3,132.7,254.3,132.7z"/>
					<path class="st3" d="M234.6,147.5c0,0-0.1,0.7-0.5,1.9c-0.3,1.2-0.9,2.9-1.7,4.9c-0.8,2-1.9,4.3-3.2,6.7
						c-0.7,1.2-1.3,2.4-2.1,3.6c-0.8,1.2-1.6,2.4-2.4,3.6c-0.4,0.6-0.9,1.2-1.3,1.7c-0.5,0.6-0.9,1.1-1.4,1.7
						c-0.9,1.1-1.9,2.1-2.8,3.1c-0.9,1-1.9,1.9-2.8,2.7c-0.5,0.4-0.9,0.8-1.4,1.2c-0.5,0.4-0.9,0.7-1.4,1c-0.9,0.7-1.7,1.3-2.4,1.7
						c-0.8,0.5-1.4,0.9-1.9,1.2c-1.1,0.6-1.7,1-1.7,1s0.5-0.5,1.4-1.4c0.5-0.4,1-0.9,1.7-1.5c0.6-0.6,1.3-1.3,2.1-2.1
						c0.4-0.4,0.8-0.8,1.2-1.2c0.4-0.4,0.8-0.9,1.2-1.3c0.8-0.9,1.7-1.8,2.5-2.8c0.9-1,1.7-2,2.6-3.1c0.4-0.5,0.9-1.1,1.3-1.6
						l1.2-1.7c0.9-1.1,1.7-2.3,2.4-3.4c0.8-1.1,1.5-2.3,2.3-3.4c0.7-1.1,1.4-2.2,2-3.3c0.6-1.1,1.2-2,1.7-3
						C233.3,150.1,234.6,147.5,234.6,147.5z"/>
					<path class="st3" d="M239.8,134.9c0,0-0.2,0-0.5,0.2c-0.3,0.1-0.8,0.3-1.4,0.5c-0.6,0.3-1.3,0.5-2.1,0.9
						c-0.8,0.4-1.7,0.8-2.6,1.3c-0.5,0.2-0.9,0.6-1.4,0.9c-0.5,0.3-1,0.6-1.5,1c-0.5,0.4-1,0.7-1.5,1.1c-0.5,0.4-1,0.8-1.5,1.2
						c-1.1,0.8-2,1.8-3,2.7c-1,1-1.9,2-2.8,3.1c-0.8,1.1-1.8,2.2-2.5,3.4c-0.7,1.2-1.6,2.3-2.2,3.4c-0.6,1.2-1.3,2.3-1.9,3.4
						c-0.5,1.1-1,2.2-1.5,3.1c-0.2,0.5-0.5,1-0.7,1.4c-0.2,0.5-0.4,0.9-0.5,1.3c-0.3,0.8-0.6,1.5-0.9,2.1c-0.5,1.2-0.8,1.8-0.8,1.8
						s0.1-0.7,0.4-2c0.1-0.6,0.3-1.4,0.5-2.3c0.1-0.4,0.2-0.9,0.3-1.4c0.2-0.5,0.3-1,0.5-1.5c0.3-1,0.7-2.2,1.1-3.4
						c0.5-1.2,1.1-2.4,1.7-3.6c0.3-0.6,0.7-1.2,1-1.9c0.4-0.6,0.7-1.2,1.1-1.9c0.8-1.3,1.7-2.4,2.6-3.6c1-1.1,2-2.2,3.1-3.3
						c1.1-1,2.2-2,3.3-2.7c0.6-0.4,1.1-0.8,1.7-1.2c0.6-0.3,1.2-0.7,1.7-1c1.1-0.6,2.2-1.1,3.3-1.5c1-0.4,2-0.7,2.9-1
						c0.9-0.3,1.6-0.4,2.3-0.5C239.1,134.9,239.8,134.9,239.8,134.9z"/>
				</g>
			</g>
		</g>
		<g>
			<g>
				<path class="st17" d="M204.3,180.4l-7.2,0c0-0.6,0.9-59.4,56.1-59.4c55.1,0,55.7,58.8,55.7,59.4h-7.2c0-2.1-0.7-52.2-48.5-52.2
					c-20.2,0-34.5,8.7-42.6,25.8C204.4,167.1,204.3,180.3,204.3,180.4z"/>
			</g>
			<path class="st18" d="M204.3,180.4c0-0.1,0.1-13.3,6.3-26.4c8.1-17.1,22.4-25.8,42.6-25.8c47.8,0,48.5,50,48.5,52.2h3.8
				c-0.3-7.5-4.4-54.8-52.3-54.8c-48,0-52.3,47.3-52.7,54.8L204.3,180.4z"/>
		</g>
		<g>
			<g>
				<g>
					<path class="st17" d="M300.7,208.8c-6.6,5.6-13.2,11.3-19.8,16.9c-1.6,1.4,0.4,3.9,2,2.6c6.6-5.6,13.2-11.3,19.8-16.9
						C304.4,210,302.3,207.4,300.7,208.8L300.7,208.8z"/>
				</g>
				<g>
					<path class="st19" d="M288.5,221.9c1.2,1.5,1,3.8-0.6,5l-5.5,4.4c-1.5,1.2-3.8,1-5-0.6l0,0c-1.2-1.5-1-3.8,0.6-5l5.5-4.4
						C285.1,220.1,287.3,220.4,288.5,221.9L288.5,221.9z"/>
					<path class="st20" d="M288.5,221.9c-0.8-1-2.1-1.5-3.4-1.3c0.2,0.2,0.4,0.3,0.5,0.5c1.2,1.5,1,3.8-0.6,5l-5.5,4.4
						c-0.5,0.4-1,0.6-1.6,0.7c1.3,1,3.1,1.1,4.4,0l5.5-4.4C289.5,225.7,289.7,223.4,288.5,221.9z"/>
				</g>
			</g>
			<g>
				<g>
					<g>
						<path class="st19" d="M203.4,176.6h-2.7v1.4c-2.8,2.9-4.7,10.2-4.7,18.7c0,8.5,2,15.8,4.7,18.7v1.4h2.7c4.1,0,7.5-9,7.5-20.1
							C210.8,185.6,207.5,176.6,203.4,176.6z"/>
						<path class="st17" d="M200.6,176.6c-0.7,0-1.3,0.3-1.9,0.7c-2.8,1.5-7.7,6-7.7,19.4c0,12.1,4,16.8,6.8,18.6
							c0.9,1,1.8,1.5,2.8,1.5c4.1,0,7.5-9,7.5-20.1C208.1,185.6,204.8,176.6,200.6,176.6z"/>
						<path class="st21" d="M202.8,177.5c1.9,3.7,3.1,9.6,3.1,16.4c0,11.1-3.3,20.1-7.5,20.1c-1,0-2-0.5-2.8-1.5
							c-0.5-0.3-1.1-0.8-1.6-1.3c1.2,2.2,2.6,3.5,3.8,4.2c0.9,1,1.8,1.5,2.8,1.5c4.1,0,7.5-9,7.5-20.1
							C208.1,187.6,205.9,179.9,202.8,177.5z"/>
					</g>
					<path class="st22" d="M198,182c0,0-0.1,0.4-0.2,1c-0.1,0.6-0.3,1.5-0.5,2.5c-0.1,0.5-0.2,1.1-0.3,1.7c-0.1,0.6-0.2,1.2-0.3,1.8
						c-0.1,0.6-0.2,1.3-0.3,1.9c-0.1,0.7-0.1,1.3-0.2,2c-0.1,0.7-0.1,1.4-0.2,2c0,0.7-0.1,1.3-0.2,2c0,0.7-0.1,1.3-0.1,1.9
						c0,0.6-0.1,1.2-0.1,1.7c-0.1,1.1-0.1,2-0.2,2.7c-0.1,0.7-0.1,1.1-0.1,1.1s-0.2-0.3-0.4-0.9c-0.2-0.6-0.6-1.5-0.8-2.6
						c-0.1-0.5-0.3-1.1-0.4-1.8c-0.1-0.6-0.2-1.3-0.2-2c-0.1-0.7-0.1-1.5-0.1-2.2c0-0.8,0.1-1.5,0.1-2.3c0.1-0.8,0.2-1.5,0.3-2.3
						c0.2-0.7,0.3-1.5,0.5-2.1c0.2-0.7,0.4-1.3,0.7-1.9c0.2-0.6,0.5-1.1,0.8-1.6c0.5-0.9,1.1-1.6,1.5-2C197.8,182.2,198,182,198,182
						z"/>
				</g>
				<g>
					<g>
						<path class="st19" d="M301.5,176.6h2.7v1.4c2.8,2.9,4.7,10.2,4.7,18.7c0,8.5-2,15.8-4.7,18.7v1.4h-2.7c-4.1,0-7.5-9-7.5-20.1
							C294,185.6,297.3,176.6,301.5,176.6z"/>
						<path class="st17" d="M304.2,176.6c0.7,0,1.3,0.3,1.9,0.7c2.8,1.5,7.7,6,7.7,19.4c0,12.1-4,16.8-6.8,18.6
							c-0.9,1-1.8,1.5-2.8,1.5c-4.1,0-7.5-9-7.5-20.1C296.7,185.6,300,176.6,304.2,176.6z"/>
						<path class="st21" d="M302,177.5c-1.9,3.7-3.1,9.6-3.1,16.4c0,11.1,3.3,20.1,7.5,20.1c1,0,2-0.5,2.8-1.5
							c0.5-0.3,1.1-0.8,1.6-1.3c-1.2,2.2-2.6,3.5-3.8,4.2c-0.9,1-1.8,1.5-2.8,1.5c-4.1,0-7.5-9-7.5-20.1
							C296.7,187.6,298.9,179.9,302,177.5z"/>
					</g>
					<path class="st22" d="M306.8,182c0,0,0.1,0.4,0.2,1c0.1,0.6,0.3,1.5,0.5,2.5c0.1,0.5,0.2,1.1,0.3,1.7c0.1,0.6,0.2,1.2,0.3,1.8
						c0.1,0.6,0.2,1.3,0.3,1.9c0.1,0.7,0.2,1.3,0.2,2c0.1,0.7,0.1,1.4,0.2,2c0,0.7,0.1,1.3,0.2,2c0,0.7,0.1,1.3,0.1,1.9
						c0,0.6,0.1,1.2,0.1,1.7c0.1,1.1,0.1,2,0.2,2.7c0.1,0.7,0.1,1.1,0.1,1.1s0.2-0.3,0.4-0.9c0.2-0.6,0.6-1.5,0.8-2.6
						c0.1-0.5,0.3-1.1,0.4-1.8c0.1-0.6,0.2-1.3,0.2-2c0.1-0.7,0.1-1.5,0.1-2.2c0-0.8-0.1-1.5-0.1-2.3c-0.1-0.8-0.2-1.5-0.3-2.3
						c-0.2-0.7-0.3-1.5-0.5-2.1c-0.2-0.7-0.4-1.3-0.7-1.9c-0.2-0.6-0.5-1.1-0.8-1.6c-0.5-0.9-1.1-1.6-1.5-2
						C307,182.2,306.8,182,306.8,182z"/>
				</g>
			</g>
		</g>
	</g>
	<g>
		<rect x="38.2" y="432.2" class="st17" width="429.7" height="21.1"/>
		<path class="st23" d="M487.5,437.9c0,3.2-2.7,5.7-6,5.7H24.7c-3.3,0-6-2.6-6-5.7s2.7-5.7,6-5.7h456.8
			C484.8,432.2,487.5,434.7,487.5,437.9z"/>
	</g>
	<path class="st24" d="M359.4,427.1c0,2.8-2.3,5.1-5.1,5.1H151.8c-2.8,0-5.1-2.3-5.1-5.1l0,0c0-2.8,2.3-5.1,5.1-5.1h202.5
		C357.1,422,359.4,424.3,359.4,427.1L359.4,427.1z"/>
	<g>
		<g>
			<path class="st25" d="M343.4,414c0,5.3-4.3,9.6-9.6,9.6H172.4c-5.3,0-9.6-4.3-9.6-9.6v-88.4c0-5.3,4.3-9.6,9.6-9.6h161.3
				c5.3,0,9.6,4.3,9.6,9.6V414z"/>
			<path class="st17" d="M260.2,369.1c0,3.9-3.2,7.1-7.1,7.1c-3.9,0-7.1-3.2-7.1-7.1c0-3.9,3.2-7.1,7.1-7.1
				C257,362,260.2,365.2,260.2,369.1z"/>
		</g>
		<path class="st26" d="M333.7,316H299c-2,65.4-91,96.2-130.7,106.7c1.3,0.6,2.7,1,4.1,1h161.3c5.3,0,9.6-4.3,9.6-9.6v-88.4
			C343.4,320.4,339,316,333.7,316z"/>
	</g>
	<g>
		<g>
			<path class="st17" d="M120,115.1H66.1c-6.5,0-11.8,5.3-11.8,11.8v38.2c0,6.5,5.3,11.8,11.8,11.8h26.3l15.1,11v-11H120
				c6.5,0,11.8-5.3,11.8-11.8V127C131.8,120.4,126.5,115.1,120,115.1z"/>
			<g>
				<path class="st27" d="M95,130.2c0,1-0.8,1.8-1.8,1.8H65.6c-1,0-1.8-0.8-1.8-1.8l0,0c0-1,0.8-1.8,1.8-1.8h27.6
					C94.2,128.4,95,129.2,95,130.2L95,130.2z"/>
				<path class="st27" d="M124.6,140.1c0,1-0.8,1.8-1.8,1.8H65.6c-1,0-1.8-0.8-1.8-1.8l0,0c0-1,0.8-1.8,1.8-1.8h57.2
					C123.8,138.3,124.6,139.1,124.6,140.1L124.6,140.1z"/>
				<path class="st27" d="M124.6,149.9c0,1-0.8,1.8-1.8,1.8H65.6c-1,0-1.8-0.8-1.8-1.8l0,0c0-1,0.8-1.8,1.8-1.8h57.2
					C123.8,148.1,124.6,148.9,124.6,149.9L124.6,149.9z"/>
				<path class="st27" d="M114.7,159.8c0,1-0.8,1.8-1.8,1.8H65.6c-1,0-1.8-0.8-1.8-1.8l0,0c0-1,0.8-1.8,1.8-1.8h47.3
					C113.9,158,114.7,158.8,114.7,159.8L114.7,159.8z"/>
			</g>
			<path class="st28" d="M120,115.1h-1c0.5,31.9-24.4,51.5-43.5,61.8h16.9l15.1,9.8V177H120c6.5,0,11.8-5.3,11.8-11.8V127
				C131.8,120.4,126.5,115.1,120,115.1z"/>
		</g>
		<g>
			<g>
				<rect x="55.6" y="267" class="st7" width="53" height="33"/>
				<polygon class="st15" points="55.6,267 108.6,267 82.1,290.1 				"/>
				<g>
					<defs>
						<rect id="SVGID_1_" x="55.6" y="267" width="53" height="33"/>
					</defs>
					<clipPath id="SVGID_2_">
						<use xlink:href="#SVGID_1_"  style="overflow:visible;"/>
					</clipPath>
					<g class="st29">
						<g>
							<path class="st15" d="M56.5,301.1c6-8,12-15.9,17.9-23.9c1.1-1.4-0.7-3.6-1.8-2.1c-6,8-12,15.9-17.9,23.9
								C53.7,300.4,55.4,302.5,56.5,301.1L56.5,301.1z"/>
						</g>
						<g>
							<path class="st15" d="M109.1,298.9c-6-8-12-15.9-17.9-23.9c-1.1-1.4-2.8,0.7-1.8,2.1c6,8,12,15.9,17.9,23.9
								C108.4,302.5,110.2,300.4,109.1,298.9L109.1,298.9z"/>
						</g>
					</g>
				</g>
			</g>
			<path class="st28" d="M74.1,300h34.5v-33H93C96,283.4,85.3,293.8,74.1,300z"/>
		</g>
		<g>
			<g>
				<path class="st7" d="M396.1,212.4h-47.6c-3.2,0-5.7,2.6-5.7,5.7v18.4c0,3.2,2.6,5.7,5.7,5.7H372l7.3,8.8v-8.8h16.8
					c3.2,0,5.7-2.6,5.7-5.7v-18.4C401.8,214.9,399.3,212.4,396.1,212.4z"/>
				<g>
					<path class="st12" d="M360.5,226.8c0,1.8-1.5,3.3-3.3,3.3c-1.8,0-3.3-1.5-3.3-3.3c0-1.8,1.5-3.3,3.3-3.3
						C359,223.5,360.5,225,360.5,226.8z"/>
					<path class="st12" d="M375.6,226.8c0,1.8-1.5,3.3-3.3,3.3c-1.8,0-3.3-1.5-3.3-3.3c0-1.8,1.5-3.3,3.3-3.3
						C374.1,223.5,375.6,225,375.6,226.8z"/>
					<path class="st12" d="M390.7,226.8c0,1.8-1.5,3.3-3.3,3.3c-1.8,0-3.3-1.5-3.3-3.3c0-1.8,1.5-3.3,3.3-3.3
						C389.2,223.5,390.7,225,390.7,226.8z"/>
				</g>
			</g>
			<path class="st28" d="M396.1,212.4h-7c1,16.8-15.5,25.5-29.5,29.9H372l7.3,8.8v-8.8h16.8c3.2,0,5.7-2.6,5.7-5.7v-18.4
				C401.8,214.9,399.3,212.4,396.1,212.4z"/>
		</g>
		<g>
			<g>
				<path class="st17" d="M391.5,114.5c-1.2-0.6-3.4-0.1-5.5,0.6c-0.6-2.2-1.5-4.2-2.5-6.2c2-1,3.9-2.2,4.4-3.4
					c1-2.9-4.5-8.4-4.5-8.4s-5.5-5.5-8.4-4.5c-1.2,0.4-2.5,2.4-3.5,4.4c-1.9-1.1-4-1.9-6.2-2.5c0.7-2.1,1.2-4.4,0.7-5.5
					c-1.3-2.8-9.1-2.8-9.1-2.8s-7.7,0-9.1,2.8c-0.6,1.2-0.1,3.4,0.6,5.5c-2.2,0.6-4.2,1.5-6.2,2.5c-1-2-2.2-3.9-3.4-4.4
					c-2.9-1-8.4,4.5-8.4,4.5s-5.5,5.5-4.5,8.4c0.4,1.2,2.4,2.5,4.4,3.5c-1.1,1.9-1.9,4-2.5,6.2c-2.1-0.7-4.4-1.2-5.5-0.7
					c-2.8,1.3-2.8,9.1-2.8,9.1s0,7.7,2.8,9.1c1.2,0.6,3.4,0.1,5.5-0.6c0.6,2.2,1.5,4.2,2.5,6.2c-2,1-3.9,2.2-4.4,3.4
					c-1,2.9,4.5,8.4,4.5,8.4s5.5,5.5,8.4,4.5c1.2-0.4,2.5-2.4,3.5-4.4c1.9,1.1,4,1.9,6.2,2.5c-0.7,2.1-1.2,4.4-0.6,5.5
					c1.3,2.8,9.1,2.8,9.1,2.8s7.7,0,9.1-2.8c0.6-1.2,0.1-3.4-0.6-5.5c2.2-0.6,4.2-1.5,6.2-2.5c1,2,2.2,3.9,3.4,4.4
					c2.9,1,8.4-4.5,8.4-4.5s5.5-5.5,4.5-8.4c-0.4-1.2-2.4-2.5-4.4-3.5c1.1-1.9,1.9-4,2.5-6.2c2.1,0.7,4.4,1.2,5.5,0.7
					c2.8-1.3,2.8-9.1,2.8-9.1S394.3,115.9,391.5,114.5z M356.8,137.7c-7.8,0-14.1-6.3-14.1-14.1c0-7.8,6.3-14.1,14.1-14.1
					c7.8,0,14.1,6.3,14.1,14.1C370.9,131.4,364.6,137.7,356.8,137.7z"/>
				<g class="st30">
					<path class="st19" d="M356.8,145.2c-11.9,0-21.6-9.7-21.6-21.6c0-11.9,9.7-21.6,21.6-21.6c11.9,0,21.6,9.7,21.6,21.6
						C378.4,135.5,368.7,145.2,356.8,145.2z M356.8,106.3c-9.5,0-17.3,7.8-17.3,17.3c0,9.5,7.8,17.3,17.3,17.3
						c9.5,0,17.3-7.8,17.3-17.3C374.1,114.1,366.3,106.3,356.8,106.3z"/>
				</g>
			</g>
			<path class="st28" d="M338.7,154.6c1.2-0.4,2.5-2.4,3.5-4.4c1.9,1.1,4,1.9,6.2,2.5c-0.7,2.1-1.2,4.4-0.6,5.5
				c1.3,2.8,9.1,2.8,9.1,2.8s7.7,0,9.1-2.8c0.6-1.2,0.1-3.4-0.6-5.5c2.2-0.6,4.2-1.5,6.2-2.5c1,2,2.2,3.9,3.4,4.4
				c2.9,1,8.4-4.5,8.4-4.5s5.5-5.5,4.5-8.4c-0.4-1.2-2.4-2.5-4.4-3.5c1.1-1.9,1.9-4,2.5-6.2c2.1,0.7,4.4,1.2,5.5,0.7
				c2.8-1.3,2.8-9.1,2.8-9.1s0-7.7-2.8-9.1c-1.2-0.6-3.4-0.1-5.5,0.6c-0.6-2.2-1.5-4.2-2.5-6.2c2-1,3.9-2.2,4.4-3.4
				c1-2.9-4.5-8.4-4.5-8.4s-0.6-0.6-1.5-1.3c-2.4,8.8-6.6,16.4-11.9,23c0.5,1.5,0.9,3.1,0.9,4.8c0,7.8-6.3,14.1-14.1,14.1
				c-2.1,0-4.1-0.5-5.9-1.3c-7.5,5.2-15.3,9.2-22.1,12.1c0.8,1,1.5,1.7,1.5,1.7S335.7,155.6,338.7,154.6z"/>
		</g>
		<g>
			<g>
				<path class="st7" d="M145.3,70.5c-0.6-0.3-1.7,0-2.8,0.3c-0.3-1.1-0.8-2.1-1.3-3.1c1-0.5,2-1.1,2.2-1.7c0.5-1.5-2.3-4.3-2.3-4.3
					s-2.8-2.8-4.3-2.3c-0.6,0.2-1.2,1.2-1.8,2.2c-1-0.5-2-1-3.1-1.3c0.4-1.1,0.6-2.2,0.3-2.8c-0.7-1.4-4.6-1.4-4.6-1.4
					s-3.9,0-4.6,1.4c-0.3,0.6,0,1.7,0.3,2.8c-1.1,0.3-2.1,0.8-3.1,1.3c-0.5-1-1.1-2-1.7-2.2c-1.5-0.5-4.3,2.3-4.3,2.3
					s-2.8,2.8-2.3,4.3c0.2,0.6,1.2,1.3,2.2,1.8c-0.5,1-1,2-1.3,3.1c-1.1-0.4-2.2-0.6-2.8-0.3c-1.4,0.7-1.4,4.6-1.4,4.6
					s0,3.9,1.4,4.6c0.6,0.3,1.7,0,2.8-0.3c0.3,1.1,0.7,2.1,1.3,3.1c-1,0.5-2,1.1-2.2,1.7c-0.5,1.5,2.3,4.3,2.3,4.3s2.8,2.8,4.3,2.3
					c0.6-0.2,1.3-1.2,1.8-2.2c1,0.5,2,1,3.1,1.3c-0.4,1.1-0.6,2.2-0.3,2.8c0.7,1.4,4.6,1.4,4.6,1.4s3.9,0,4.6-1.4
					c0.3-0.6,0-1.7-0.3-2.8c1.1-0.3,2.1-0.8,3.1-1.3c0.5,1,1.1,2,1.7,2.2c1.5,0.5,4.3-2.3,4.3-2.3s2.8-2.8,2.3-4.3
					c-0.2-0.6-1.2-1.3-2.2-1.8c0.5-1,1-2,1.3-3.1c1.1,0.4,2.2,0.6,2.8,0.3c1.4-0.7,1.4-4.6,1.4-4.6S146.7,71.2,145.3,70.5z
					 M127.7,82.2c-3.9,0-7.1-3.2-7.1-7.1c0-3.9,3.2-7.1,7.1-7.1c3.9,0,7.1,3.2,7.1,7.1C134.8,79,131.6,82.2,127.7,82.2z"/>
				<g class="st30">
					<path class="st15" d="M127.7,86c-6,0-10.9-4.9-10.9-10.9c0-6,4.9-10.9,10.9-10.9c6,0,10.9,4.9,10.9,10.9
						C138.6,81.1,133.7,86,127.7,86z M127.7,66.3c-4.8,0-8.7,3.9-8.7,8.7c0,4.8,3.9,8.8,8.7,8.8c4.8,0,8.8-3.9,8.8-8.8
						C136.4,70.3,132.5,66.3,127.7,66.3z"/>
				</g>
			</g>
			<path class="st28" d="M118.5,90.8c0.6-0.2,1.3-1.2,1.8-2.2c1,0.5,2,1,3.1,1.3c-0.4,1.1-0.6,2.2-0.3,2.8c0.7,1.4,4.6,1.4,4.6,1.4
				s3.9,0,4.6-1.4c0.3-0.6,0-1.7-0.3-2.8c1.1-0.3,2.1-0.8,3.1-1.3c0.5,1,1.1,2,1.7,2.2c1.5,0.5,4.3-2.3,4.3-2.3s2.8-2.8,2.3-4.3
				c-0.2-0.6-1.2-1.3-2.2-1.8c0.5-1,1-2,1.3-3.1c1.1,0.4,2.2,0.6,2.8,0.3c1.4-0.7,1.4-4.6,1.4-4.6s0-3.9-1.4-4.6
				c-0.6-0.3-1.7,0-2.8,0.3c-0.3-1.1-0.8-2.1-1.3-3.1c1-0.5,2-1.1,2.2-1.7c0.5-1.5-2.3-4.3-2.3-4.3s-0.1-0.1-0.3-0.3
				c-1.8,3.9-4.1,7.4-6.7,10.5c0.5,1,0.8,2,0.8,3.2c0,3.9-3.2,7.1-7.1,7.1c-1.4,0-2.6-0.4-3.7-1.1c-3.5,2.6-7.1,4.7-10.5,6.4
				c0.4,0.5,0.8,0.9,0.8,0.9S117,91.3,118.5,90.8z"/>
		</g>
		<g>
			<g>
				<path class="st31" d="M117.7,205.1h42.1c2.8,0,5.1,2.3,5.1,5.1v16.3c0,2.8-2.3,5.1-5.1,5.1h-20.8l-6.4,7.8v-7.8h-14.9
					c-2.8,0-5.1-2.3-5.1-5.1v-16.3C112.7,207.3,115,205.1,117.7,205.1z"/>
				<g>
					<path class="st12" d="M138,212.9c-1.5-0.9-3.8,0-5.7,2.1c-1.8-2.1-4.1-3-5.7-2.1c-2,1.1-2,4.7-0.1,8c1.5,2.7,3.9,4.3,5.7,4.2
						c1.9,0,4.2-1.6,5.7-4.2C140,217.6,140,214,138,212.9z"/>
					<text transform="matrix(1 0 0 1 143.8926 225.1733)" class="st12 st32 st33">1</text>
				</g>
				<path class="st28" d="M164.9,210.1c0-2.8-2.3-5.1-5.1-5.1h-8.6c0.6,14.8-13.1,22.5-25.3,26.4h6.7v7.8l6.4-7.8h20.8
					c2.8,0,5.1-2.3,5.1-5.1V210.1z"/>
			</g>
		</g>
		<g>
			<g>
				<path class="st31" d="M163.2,82.2h42.1c2.8,0,5.1,2.3,5.1,5.1v16.3c0,2.8-2.3,5.1-5.1,5.1h-20.8l-6.4,7.8v-7.8h-14.9
					c-2.8,0-5.1-2.3-5.1-5.1V87.3C158.1,84.5,160.4,82.2,163.2,82.2z"/>
				<g>
					<text transform="matrix(1 0 0 1 189.3057 101.8193)" class="st12 st32 st33">1</text>
					<path class="st12" d="M182.3,91.1h-8.6c-1,0-1.9,0.8-1.9,1.9V99c0,1,0.8,1.9,1.9,1.9h4.2l2.4,2.9v-2.9h2c1,0,1.9-0.8,1.9-1.9
						V93C184.2,91.9,183.4,91.1,182.3,91.1z"/>
				</g>
				<path class="st28" d="M210.3,87.3c0-2.8-2.3-5.1-5.1-5.1h-8.6c0.6,14.8-13.1,22.5-25.3,26.4h6.7v7.8l6.4-7.8h20.8
					c2.8,0,5.1-2.3,5.1-5.1V87.3z"/>
			</g>
		</g>
		<g>
			
				<ellipse transform="matrix(2.500860e-02 -0.9997 0.9997 2.500860e-02 261.7224 608.231)" class="st31" cx="442.7" cy="169.9" rx="31" ry="31"/>
			<path class="st12" d="M458.1,156.7c-5.8,5.2-11.5,10.4-17.3,15.6c-3.7-1.8-7.3-3.7-11-5.5c-2.2-1.1-4.2,2.2-2,3.4
				c4.1,2.1,8.2,4.1,12.3,6.2c0.8,0.4,1.7,0.3,2.4-0.3c6.1-5.5,12.2-11,18.4-16.5C462.7,157.8,460,155,458.1,156.7z"/>
			<g>
				<g>
					<g>
						<circle class="st34" cx="442.7" cy="144.2" r="1.6"/>
						<path class="st34" d="M444.3,196.1c0,0.9-0.7,1.6-1.6,1.6c-0.9,0-1.6-0.7-1.6-1.6c0-0.9,0.7-1.6,1.6-1.6
							C443.6,194.4,444.3,195.2,444.3,196.1z"/>
					</g>
					<g>
						<path class="st34" d="M468.6,171.7c-0.9,0-1.6-0.7-1.6-1.6c0-0.9,0.7-1.6,1.6-1.6c0.9,0,1.6,0.7,1.6,1.6
							C470.2,171,469.5,171.7,468.6,171.7z"/>
						<path class="st34" d="M416.7,171.7c-0.9,0-1.6-0.7-1.6-1.6c0-0.9,0.7-1.6,1.6-1.6c0.9,0,1.6,0.7,1.6,1.6
							C418.3,171,417.6,171.7,416.7,171.7z"/>
					</g>
				</g>
				<g>
					<g>
						<path class="st34" d="M457.2,148.5c-0.4,0.8-1.4,1-2.2,0.6c-0.8-0.4-1-1.4-0.6-2.2c0.4-0.8,1.4-1,2.2-0.6
							C457.4,146.8,457.6,147.8,457.2,148.5z"/>
						<path class="st34" d="M431,193.3c-0.5,0.8-1.4,1-2.2,0.6c-0.8-0.4-1-1.4-0.6-2.2c0.4-0.8,1.4-1,2.2-0.6
							C431.2,191.6,431.4,192.5,431,193.3z"/>
					</g>
					<g>
						<path class="st34" d="M464.3,184.6c-0.8-0.4-1-1.4-0.6-2.2c0.4-0.8,1.4-1,2.2-0.6c0.8,0.4,1,1.4,0.6,2.2
							C466,184.8,465,185,464.3,184.6z"/>
						<path class="st34" d="M419.5,158.4c-0.8-0.4-1-1.4-0.6-2.2c0.4-0.8,1.4-1,2.2-0.6c0.8,0.4,1,1.4,0.6,2.2
							C421.2,158.6,420.2,158.9,419.5,158.4z"/>
					</g>
				</g>
				<g>
					<g>
						<path class="st34" d="M428.2,148.5c0.4,0.8,1.4,1,2.2,0.6c0.8-0.4,1-1.4,0.6-2.2c-0.5-0.8-1.4-1-2.2-0.6
							C428,146.8,427.7,147.8,428.2,148.5z"/>
						<path class="st34" d="M454.4,193.3c0.4,0.8,1.4,1,2.2,0.6c0.8-0.4,1-1.4,0.6-2.2c-0.4-0.8-1.4-1-2.2-0.6
							C454.2,191.6,453.9,192.5,454.4,193.3z"/>
					</g>
					<g>
						<path class="st34" d="M421.1,184.6c0.8-0.4,1-1.4,0.6-2.2c-0.4-0.8-1.4-1-2.2-0.6c-0.8,0.4-1,1.4-0.6,2.2
							C419.3,184.8,420.3,185,421.1,184.6z"/>
						<path class="st34" d="M465.9,158.4c0.8-0.4,1-1.4,0.6-2.2c-0.4-0.8-1.4-1-2.2-0.6c-0.8,0.4-1,1.4-0.6,2.2
							C464.1,158.6,465.1,158.9,465.9,158.4z"/>
					</g>
				</g>
			</g>
		</g>
		<g>
			<text transform="matrix(1 0 0 1 238.6099 68.1055)" class="st35 st32 st36">24/7</text>
			<path class="st35" d="M282.9,62.7c-0.3,12.1-7.7,22.4-19.2,26.2c-11.5,3.9-24.1-1-31-10.7c-7-9.8-6-23.4,1.2-32.8
				c7.9-10.2,22.2-12.8,33.6-7.4c-3,1.1-6,2.2-9.1,3.2c-1.4,0.5-0.8,2.7,0.6,2.2c3.7-1.3,7.4-2.6,11.1-4c0.6-0.2,1-0.8,0.8-1.4
				c-1-3.8-1.9-7.7-2.9-11.5c-0.4-1.4-2.6-0.8-2.2,0.6c0.7,2.8,1.4,5.7,2.1,8.5c-12.5-5.5-26.8-2.5-35.8,8.1
				c-8.5,10-8.7,24.8-1.6,35.6c7.2,11,21.2,15.3,33.6,11.7c12.5-3.6,20.6-15.7,20.9-28.5C285.3,61.2,282.9,61.2,282.9,62.7z"/>
		</g>
	</g>
	<g>
		<g>
			<g>
				<path class="st35" d="M420.6,350.6c-6.1-5.1-15.1,8.8-16.9,16c-1-5.7-2.3-11.5-3.9-17.1c3.4,0.2,15.5-13.9,9.1-17.4
					c-5.2-2.8-9.6,8.2-10.1,14c-1.5-4.7-3.3-9.3-5.4-13.7c4.6-1.3,15.2-23.9,5.6-26.1c-7.3-1.7-9.4,12.2-8.5,20.5
					c-2.2-3.9-4.6-7.6-7.4-11c3.7-2.9,8.7-22.4,0.4-22.8c-6.4-0.4-6.2,11.7-4.2,18.5c-1.6-1.7-3.3-3.3-5-4.8
					c1.5-4.8-19-26.5-25.5-17c-6.2,9.1,18.6,19.7,24.4,17.9c2.2,1.8,4.2,3.8,6.1,6c-6.2-2.6-19.3-4.1-19.3,2.5
					c0,8.1,19.4,4.3,22.2,0.9c2.9,3.7,5.5,7.8,7.8,12.1c-6.5-4.3-21.1-8.7-22.5-1.1c-1.7,9,20.3,8.9,24.8,5.7
					c1.7,3.7,3.3,7.6,4.6,11.5c-4.3-4-12.2-8.4-14.4-3.8c-2.8,5.8,11.7,9.9,16.1,9c1.3,4.6,2.4,9.3,3.3,13.9
					c-4.5-6.3-13.5-14-17.5-8.8c-5.3,6.9,13.3,16.3,18.6,15.7c0.8,6,1.3,11.9,1.5,17.4c0,1,1.5,1,1.5,0c-0.2-5.8-0.7-11.8-1.6-18
					C408.7,371.7,427.9,356.8,420.6,350.6z"/>
				<path class="st35" d="M458.1,300c2-3.2,4.1-6.4,6.3-9.5c5.7,0.8,28.2-15.3,20-22.9c-8.3-7.7-23.2,17.1-21.2,22
					c-1.5,2.1-3,4.3-4.4,6.5c1.1-6.8,0.4-16.5-5.3-15.9c-7.9,0.8-2.2,19.4,1.4,22c-0.9,1.5-1.7,2.9-2.6,4.4
					c-1.8,3.1-3.5,6.2-5.1,9.4c1-7.6-1-20.8-7.8-19.2c-9.1,2.1,1.2,23.8,5.3,24.3c-2.7,5.6-5.1,11.3-7.2,17.1
					c0.1-9.4-4.4-25.9-12.6-22.8c-10.8,4.1,5.5,29.2,10.5,28.9c-1.9,5.7-3.6,11.5-5,17.4c-1.3-6.3-5.7-15.3-10.5-12.6
					c-6.4,3.6,5,17.1,9.2,18.1c-2.5,11.2-4.1,22.6-4.9,34.1c-0.1,1,1.4,1.2,1.5,0.2c0.8-11.5,2.5-22.9,5-34.1
					c3.9,1.7,21.9-3.2,18.5-10.1c-2.8-5.6-13.4,1.2-17.5,6c1.5-6.2,3.3-12.4,5.3-18.5c6.1,3,32.5-0.2,29.1-10.8
					c-2.8-8.9-19.7-1.4-27,4.8c2.1-5.7,4.5-11.4,7.1-17c4.9,3,25.9,3,24.3-5.7c-1.3-7.3-15.3-3.3-21.9,0.8c1.4-2.9,2.9-5.7,4.5-8.5
					c1-1.8,2.1-3.6,3.1-5.4c2.9,3.4,23.3,6.4,22.9-2C478.8,293.8,463.8,296.7,458.1,300z"/>
			</g>
			<g>
				<g>
					<path class="st31" d="M444.5,427c-0.4,2.8-3,5.2-5.9,5.2h-44.5c-2.9,0-5.5-2.3-5.8-5.2l-5.3-47.8c-0.3-2.8,1.8-5.2,4.6-5.2
						h58.8c2.9,0,4.9,2.3,4.5,5.2L444.5,427z"/>
					<path class="st28" d="M446.4,374h-10.7c1.6,16.6-1.8,41.5-30.5,58.2h33.4c2.9,0,5.5-2.3,5.9-5.2l6.4-47.9
						C451.3,376.3,449.3,374,446.4,374z"/>
				</g>
				<path class="st34" d="M457.7,378.5c0,3.7-3,6.8-6.8,6.8h-68c-3.7,0-6.8-3-6.8-6.8l0,0c0-3.7,3-6.8,6.8-6.8h68
					C454.7,371.8,457.7,374.8,457.7,378.5L457.7,378.5z"/>
			</g>
		</g>
		<g>
			<g>
				<g>
					<path class="st31" d="M106.9,429.9c-0.9,0-1.7-0.1-2.6-0.2c-9.3-1.8-15.1-12.9-12.9-24.7c2-10.8,9.8-18.6,18.4-18.6
						c0.9,0,1.7,0.1,2.6,0.2c9.3,1.8,15.1,12.9,12.9,24.7C123.3,422.1,115.5,429.9,106.9,429.9z M109.8,392.4
						c-5.7,0-11,5.9-12.5,13.7c-1.6,8.6,2,16.5,8.1,17.7c0.5,0.1,1,0.1,1.5,0.1c5.7,0,11-5.9,12.5-13.7c1.6-8.6-2-16.5-8.1-17.7
						C110.8,392.5,110.3,392.4,109.8,392.4z"/>
				</g>
				<g>
					<path class="st31" d="M106.4,381.3H61.2c0,0-6,35.4,11.8,50.8h9.7h2.2h9.7C112.4,416.8,106.4,381.3,106.4,381.3z"/>
					<path class="st28" d="M84.9,432.2h9.7c17.9-15.4,11.8-50.8,11.8-50.8h-12c-3.5,13.1-11.4,33.3-27.6,43.1
						c1.7,2.9,3.7,5.5,6.3,7.8h9.7H84.9z"/>
				</g>
			</g>
			<g>
				<path class="st37" d="M76.8,377.6c0,0-6.2-4.1-4.7-9.7c1.5-5.6,8.8-15.8,2.2-22.6c0,0,10.5,5.6,7.1,13.7
					C78.1,367,74,370.3,76.8,377.6z"/>
				<path class="st37" d="M92.8,369.9c0,0-6.2-4.1-4.7-9.7c1.5-5.6,8.7-15.8,2.2-22.6c0,0,10.5,5.6,7.1,13.7
					C94.1,359.2,90,362.6,92.8,369.9z"/>
			</g>
		</g>
	</g>
	<g>
		<path class="st34" d="M106.4,381.3c0,2.5-10.2,4.5-22.7,4.5c-12.6,0-22.7-2-22.7-4.5c0-2.5,10.2-4.5,22.7-4.5
			C96.2,376.9,106.4,378.9,106.4,381.3z"/>
		<path class="st38" d="M64,383.6c3.9,1.3,11.3,2.2,19.7,2.2c8.4,0,15.7-0.9,19.7-2.2c-3.9-1.3-11.3-2.2-19.7-2.2
			C75.2,381.3,67.9,382.2,64,383.6z"/>
	</g>
	<g>
		<polygon class="st0" points="322.3,49.1 318.6,36.5 314.9,49.1 303.3,53 314.9,57 318.6,69.6 322.3,57 333.9,53 		"/>
		<polygon class="st12" points="340.7,188.2 338.2,179.7 335.7,188.2 327.8,190.9 335.7,193.6 338.2,202.1 340.7,193.6 348.5,190.9 
					"/>
		<polygon class="st12" points="379.7,176.1 378.4,171.6 377,176.1 373,177.5 377,178.9 378.4,183.3 379.7,178.9 383.8,177.5 		"/>
		<polygon class="st0" points="460.3,236.8 457.7,228 455.2,236.8 447.2,239.5 455.2,242.3 457.7,251 460.3,242.3 468.3,239.5 		"/>
		<polygon class="st12" points="406.1,272.9 403.1,263 400.2,272.9 391.2,276 400.2,279.1 403.1,289 406.1,279.1 415.1,276 		"/>
		<polygon class="st12" points="339.5,264.8 338.2,260.3 336.9,264.8 332.8,266.2 336.9,267.6 338.2,272.1 339.5,267.6 343.6,266.2 
					"/>
		<polygon class="st0" points="431.1,113.6 429.6,108.6 428.1,113.6 423.5,115.1 428.1,116.7 429.6,121.7 431.1,116.7 435.6,115.1 
					"/>
		<polygon class="st0" points="146.9,24.2 145.4,19.2 143.9,24.2 139.3,25.8 143.9,27.4 145.4,32.4 146.9,27.4 151.4,25.8 		"/>
		<polygon class="st0" points="385.7,32 383.1,23.3 380.5,32 372.5,34.8 380.5,37.5 383.1,46.3 385.7,37.5 393.7,34.8 		"/>
		<polygon class="st0" points="196,49.9 193.4,41.2 190.8,49.9 182.8,52.7 190.8,55.4 193.4,64.2 196,55.4 204,52.7 		"/>
		<polygon class="st0" points="77,62.6 75.5,57.6 74.1,62.6 69.5,64.2 74.1,65.7 75.5,70.8 77,65.7 81.6,64.2 		"/>
		<polygon class="st0" points="29,162.4 25.3,149.8 21.6,162.4 10,166.4 21.6,170.3 25.3,182.9 29,170.3 40.6,166.4 		"/>
		<polygon class="st12" points="172.4,143.8 168.3,130 164.2,143.8 151.7,148.1 164.2,152.5 168.3,166.2 172.4,152.5 185,148.1 		
			"/>
		<polygon class="st12" points="63.4,224.8 60.9,216.3 58.4,224.8 50.6,227.5 58.4,230.2 60.9,238.7 63.4,230.2 71.2,227.5 		"/>
		<polygon class="st12" points="159.4,264.8 158.1,260.3 156.8,264.8 152.7,266.2 156.8,267.6 158.1,272.1 159.4,267.6 163.5,266.2 
					"/>
		<polygon class="st12" points="127.1,324.6 124.6,316 122.1,324.6 114.2,327.3 122.1,330 124.6,338.5 127.1,330 134.9,327.3 		"/>
		<polygon class="st0" points="9.1,308.5 6.5,299.8 4,308.5 -4,311.3 4,314 6.5,322.8 9.1,314 17.1,311.3 		"/>
		<polygon class="st0" points="18.7,347.1 17.2,342.1 15.7,347.1 11.1,348.7 15.7,350.2 17.2,355.2 18.7,350.2 23.2,348.7 		"/>
		<polygon class="st0" points="498.2,335.8 495.6,327 493,335.8 485,338.5 493,341.3 495.6,350 498.2,341.3 506.2,338.5 		"/>
	</g>
</g>
</svg>
