<?xml version="1.0" encoding="utf-8"?>
<!-- Generator: Adobe Illustrator 25.0.0, SVG Export Plug-In . SVG Version: 6.00 Build 0)  -->
<svg version="1.1" id="Capa_1" xmlns="http://www.w3.org/2000/svg" xmlns:xlink="http://www.w3.org/1999/xlink" x="0px" y="0px"
	 viewBox="0 0 505.4 505.4" style="enable-background:new 0 0 505.4 505.4;" xml:space="preserve">
<style type="text/css">
	.st0{fill:#F0F5F9;}
	.st1{fill:#335CE5;}
</style>
<circle class="st0" cx="253" cy="253.5" r="109"/>
<path class="st1" d="M272.9,231.8h-33.2c-3,0-5.4,2.4-5.4,5.4v33.2c0,3,2.4,5.4,5.4,5.4h33.2c3,0,5.4-2.4,5.4-5.4v-33.2
	C278.3,234.2,275.9,231.8,272.9,231.8z M275.8,270.4c0,1.6-1.3,2.9-2.9,2.9h-33.2c-1.6,0-2.9-1.3-2.9-2.9v-33.2
	c0-1.6,1.3-2.9,2.9-2.9h33.2c1.6,0,2.9,1.3,2.9,2.9V270.4z"/>
<path class="st1" d="M277,225.6h-41.5c-4.1,0-7.5,3.3-7.5,7.5v41.5c0,4.1,3.3,7.5,7.5,7.5H277c4.1,0,7.5-3.3,7.5-7.5v-41.5
	C284.5,229,281.2,225.6,277,225.6z M282,274.6c0,2.8-2.2,5-5,5h-41.5c-2.8,0-5-2.2-5-5v-41.5c0-2.8,2.2-5,5-5H277c2.7,0,5,2.2,5,5
	V274.6z"/>
<path class="st1" d="M260.8,286.1c-0.7,0-1.2,0.6-1.2,1.2v10.4c0,0.7,0.6,1.2,1.2,1.2c0.7,0,1.2-0.6,1.2-1.2v-10.4
	C262,286.7,261.5,286.1,260.8,286.1z"/>
<path class="st1" d="M251.8,286.1c-0.7,0-1.2,0.6-1.2,1.2v10.4c0,0.7,0.6,1.2,1.2,1.2s1.2-0.6,1.2-1.2v-10.4
	C253.1,286.7,252.5,286.1,251.8,286.1z"/>
<path class="st1" d="M242.8,286.1c-0.7,0-1.2,0.6-1.2,1.2v10.4c0,0.7,0.6,1.2,1.2,1.2s1.2-0.6,1.2-1.2v-10.4
	C244.1,286.7,243.5,286.1,242.8,286.1z"/>
<path class="st1" d="M269.8,286.1c-0.7,0-1.2,0.6-1.2,1.2v10.4c0,0.7,0.6,1.2,1.2,1.2s1.2-0.6,1.2-1.2v-10.4
	C271,286.7,270.4,286.1,269.8,286.1z"/>
<path class="st1" d="M253.1,220.2v-10.4c0-0.7-0.6-1.2-1.2-1.2s-1.2,0.6-1.2,1.2v10.4c0,0.7,0.6,1.2,1.2,1.2
	S253.1,220.9,253.1,220.2z"/>
<path class="st1" d="M262,220.2v-10.4c0-0.7-0.6-1.2-1.2-1.2c-0.7,0-1.2,0.6-1.2,1.2v10.4c0,0.7,0.6,1.2,1.2,1.2
	C261.5,221.5,262,220.9,262,220.2z"/>
<path class="st1" d="M271,220.2v-10.4c0-0.7-0.6-1.2-1.2-1.2s-1.2,0.6-1.2,1.2v10.4c0,0.7,0.6,1.2,1.2,1.2S271,220.9,271,220.2z"/>
<path class="st1" d="M244.1,220.2v-10.4c0-0.7-0.6-1.2-1.2-1.2s-1.2,0.6-1.2,1.2v10.4c0,0.7,0.6,1.2,1.2,1.2
	S244.1,220.9,244.1,220.2z"/>
<path class="st1" d="M300.2,248.1h-10.4c-0.7,0-1.2,0.6-1.2,1.2s0.6,1.2,1.2,1.2h10.4c0.7,0,1.2-0.6,1.2-1.2
	S300.9,248.1,300.2,248.1z"/>
<path class="st1" d="M300.2,257h-10.4c-0.7,0-1.2,0.6-1.2,1.2c0,0.7,0.6,1.2,1.2,1.2h10.4c0.7,0,1.2-0.6,1.2-1.2
	C301.5,257.6,300.9,257,300.2,257z"/>
<path class="st1" d="M300.2,266h-10.4c-0.7,0-1.2,0.6-1.2,1.2s0.6,1.2,1.2,1.2h10.4c0.7,0,1.2-0.6,1.2-1.2
	C301.5,266.6,300.9,266,300.2,266z"/>
<path class="st1" d="M300.2,239.1h-10.4c-0.7,0-1.2,0.6-1.2,1.2s0.6,1.2,1.2,1.2h10.4c0.7,0,1.2-0.6,1.2-1.2
	S300.9,239.1,300.2,239.1z"/>
<path class="st1" d="M222.7,257h-10.4c-0.7,0-1.2,0.6-1.2,1.2c0,0.7,0.6,1.2,1.2,1.2h10.4c0.7,0,1.2-0.6,1.2-1.2
	C224,257.6,223.4,257,222.7,257z"/>
<path class="st1" d="M222.7,248.1h-10.4c-0.7,0-1.2,0.6-1.2,1.2s0.6,1.2,1.2,1.2h10.4c0.7,0,1.2-0.6,1.2-1.2
	S223.4,248.1,222.7,248.1z"/>
<path class="st1" d="M222.7,239.1h-10.4c-0.7,0-1.2,0.6-1.2,1.2s0.6,1.2,1.2,1.2h10.4c0.7,0,1.2-0.6,1.2-1.2
	S223.4,239.1,222.7,239.1z"/>
<path class="st1" d="M222.7,266h-10.4c-0.7,0-1.2,0.6-1.2,1.2s0.6,1.2,1.2,1.2h10.4c0.7,0,1.2-0.6,1.2-1.2
	C224,266.6,223.4,266,222.7,266z"/>
<path class="st1" d="M255.1,245c-0.2-0.5-0.9-0.8-1.6-0.8s-1.3,0.3-1.5,0.8l-4.5,14.8c0,0.1,0,0.1,0,0.2c0,0.6,0.9,1,1.5,1
	c0.4,0,0.7-0.1,0.9-0.5l0.9-3.2h5.6l0.9,3.2c0.1,0.4,0.4,0.5,0.8,0.5c0.7,0,1.5-0.4,1.5-1c0-0.1,0-0.1,0-0.2L255.1,245z
	 M251.3,255.3l2.3-7.8l2.3,7.8H251.3z"/>
<path class="st1" d="M262.7,244.3c-0.6,0-1.2,0.2-1.2,0.8v15.1c0,0.5,0.6,0.8,1.2,0.8c0.6,0,1.2-0.3,1.2-0.8v-15.1
	C263.9,244.5,263.3,244.3,262.7,244.3z"/>
</svg>
