<svg id="Capa_1" data-name="Capa 1" xmlns="http://www.w3.org/2000/svg" viewBox="0 0 175 175"><defs><style>.cls-1{fill:#fff6ed;}.cls-2{fill:#f9b78a;}</style></defs><rect class="cls-1" width="175" height="175" rx="35.5"/><path class="cls-2" d="M289.41,241.74a11.46,11.46,0,0,0,4.86-9.25,11.33,11.33,0,1,0-22.66,0,11.13,11.13,0,0,0,4.87,9.25,21,21,0,0,0-6.71,3.91,25.62,25.62,0,0,0-9.17-5,14.37,14.37,0,1,0-14.85,0,25.91,25.91,0,0,0-9.1,4.94,19.06,19.06,0,0,0-6.62-3.83,11.47,11.47,0,0,0,4.87-9.25,11.34,11.34,0,1,0-22.67,0,11.15,11.15,0,0,0,4.87,9.25,19.86,19.86,0,0,0-13.41,18.76v1.27a.08.08,0,0,0,.08.08h24a23.73,23.73,0,0,0-.24,3.36v1.35A10.49,10.49,0,0,0,238,277h30.41a10.49,10.49,0,0,0,10.45-10.46v-1.35a23.73,23.73,0,0,0-.24-3.36h24.18a.08.08,0,0,0,.08-.08V260.5A20.11,20.11,0,0,0,289.41,241.74Zm-14.69-9.25a8.22,8.22,0,1,1,8.38,8.22h-.32A8.23,8.23,0,0,1,274.72,232.49Zm-32.88-4.07a11.18,11.18,0,1,1,11.81,11.17h-1.27A11.2,11.2,0,0,1,241.84,228.42Zm-26.57,4.07a8.22,8.22,0,0,1,16.44,0,8.29,8.29,0,0,1-8.06,8.22h-.32A8.23,8.23,0,0,1,215.27,232.49Zm13,26.33H206.81a16.81,16.81,0,0,1,16.52-15h.16a16.33,16.33,0,0,1,10.69,4A26.38,26.38,0,0,0,228.27,258.82Zm47.33,7.82a7.29,7.29,0,0,1-7.26,7.27H237.93a7.29,7.29,0,0,1-7.26-7.27v-1.35a22.51,22.51,0,0,1,21.87-22.51h1.27a22.51,22.51,0,0,1,21.87,22.51v1.35Zm2.31-7.82a25.71,25.71,0,0,0-6-10.93,17,17,0,0,1,10.77-4.07h.16a16.81,16.81,0,0,1,16.52,15Z" transform="translate(-164.5 -162.5)"/></svg>