<svg id="Layer_5" data-name="Layer 5" xmlns="http://www.w3.org/2000/svg" viewBox="0 0 175 175"><defs><style>.cls-1{fill:#fff6ed;}.cls-2{fill:#f9b78a;}</style></defs><rect class="cls-1" width="175" height="175" rx="35.5"/><path class="cls-2" d="M295.87,244.58a9.86,9.86,0,0,0-5.9-2.87l-3.43-.4a2.41,2.41,0,0,1-2.08-2.39v-.56a9.73,9.73,0,0,0,4.63-6.46l1.91-1.44a7.67,7.67,0,0,0,3-6.14,8.62,8.62,0,0,0-3.82-7.17,10.75,10.75,0,0,0-9.81-6.38h-1.52a10.58,10.58,0,0,0-9.81,6.38,8.62,8.62,0,0,0-3.82,7.17,7.52,7.52,0,0,0,3.11,6.14l1.91,1.36a10.13,10.13,0,0,0,4.62,6.46v.4a2.41,2.41,0,0,1-2,2.39,23.41,23.41,0,0,0-4.38,1,21.9,21.9,0,0,0-6.78,4.3l-9.65-9.65-3-2.95a4.74,4.74,0,0,0-3.35-1.35,4.47,4.47,0,0,0-4.07,2.39h-.48a3.57,3.57,0,0,0-3.59,3.59v2.39a3.58,3.58,0,0,0,3.59,3.59h5.51l9.56,9.57a8.3,8.3,0,0,0,5.91,2.47,7.59,7.59,0,0,0,4-1l1.44-.79v28.22h24v-8.61a3.21,3.21,0,0,0,1.2.24h2.39a3.57,3.57,0,0,0,3.59-3.59V251.75a10.06,10.06,0,0,0-2.95-7.17ZM284,242.74a2.09,2.09,0,0,0,.95.48L283.75,250l-2.56-3.27ZM267.56,224.4a6.14,6.14,0,0,1,2.79-5.18l.64-.4.16-.32a8.29,8.29,0,0,1,7.73-5.26h1.52a8.29,8.29,0,0,1,7.73,5.26l.16.32.64.4a6.27,6.27,0,0,1,2.79,5.18,5.19,5.19,0,0,1-2.07,4.15l-.32.24v-4.47l-1.2-.4a13.28,13.28,0,0,1-5.18-3.19l-.72-.71-.8.63A16.91,16.91,0,0,1,271.31,224h-1.2v4.79l-.32-.24a5,5,0,0,1-2.23-4.15Zm4.86,5.58v-3.66a20.14,20.14,0,0,0,9.49-3.19,16.47,16.47,0,0,0,4.95,3v4a7.22,7.22,0,0,1-14.44-.08Zm7.18,9.65a12.27,12.27,0,0,0,2.47-.32,4.73,4.73,0,0,0,.4,1.52l-2.87,4-2.87-4a4.86,4.86,0,0,0,.4-1.44,23.24,23.24,0,0,0,2.47.24Zm-1.52,7.18-2.55,3.27-1.27-6.94a8.5,8.5,0,0,0,.87-.48Zm-38.11-6v-2.39a1.23,1.23,0,0,1,1.19-1.2h1.92l.56-1.12a2.29,2.29,0,0,1,2.07-1.27,2.21,2.21,0,0,1,1.59.64l2.95,2.95L246.67,242h-5.51a1.18,1.18,0,0,1-1.19-1.2Zm25,12.44a5.91,5.91,0,0,1-2.87.72,6,6,0,0,1-4.23-1.76l-9.09-9,3.11-3.11,8.61,8.61,1.12,2.24,2.15-1-.8-1.59a19,19,0,0,1,6.14-3.91,27.52,27.52,0,0,1,2.71-.72l2.16,12,5.5-6.86,5.5,6.94,2.15-11.88,2.32.32a8.21,8.21,0,0,1,4.54,2.23,7.85,7.85,0,0,1,2.32,5.5V262.6h-4.79V252.31a2.9,2.9,0,0,1,.88-2.07l-1.68-1.68a5.15,5.15,0,0,0-1.51,3.75v11l-1.36,1.35a3.5,3.5,0,0,0-.87,1.52H270v-14a5.45,5.45,0,0,0-1.51-3.74l-1.68,1.67a2.6,2.6,0,0,1,.8,1.83Zm24.24,27.19H280.8V277a4,4,0,0,1,2.79-3.82l-.8-2.32a6.09,6.09,0,0,0-3.19,2.4,6.79,6.79,0,0,0-3.19-2.4l-.8,2.32A4,4,0,0,1,278.4,277v3.43H270v-12H287.1a3.51,3.51,0,0,0,1.67,1.76l.48.23v10Zm6-8.37h-2.39a1.23,1.23,0,0,1-1.2-1.2V269l-1.75-.88a1.07,1.07,0,0,1-.64-1,1,1,0,0,1,.32-.8l1.35-1.36h5.51v6a1.23,1.23,0,0,1-1.2,1.2Z" transform="translate(-171 -165)"/><path class="cls-2" d="M248.34,267.7l-.8-.16a9.27,9.27,0,0,0,.88-3.9v-7.18a9.65,9.65,0,0,0-19.3,0v7.18a9.55,9.55,0,0,0,.88,3.9l-.8.16a6,6,0,0,0-4.78,5.9v9.25h28.86V273.6A6.3,6.3,0,0,0,248.34,267.7Zm-4.23-.87a2.27,2.27,0,0,1-1.43-1.12,6.93,6.93,0,0,0,1.59-2.07h.48a3.21,3.21,0,0,0,1.2-.24v.24a7.32,7.32,0,0,1-.88,3.43Zm-1.75-5.59a3.59,3.59,0,1,1-7.18,0v-3.66a10.94,10.94,0,0,0,3.59-1,11.53,11.53,0,0,0,3.59,1Zm-1.52,10.85h-4.3l-.88-3.75a3.71,3.71,0,0,0,1.12-1.35,7.15,7.15,0,0,0,1.83.31,7.23,7.23,0,0,0,1.84-.31,9,9,0,0,0,1.11,1.35Zm-.47,2.39-1.36,6h-.48l-1.35-6Zm4.38-15.63a1.2,1.2,0,1,1,0,2.39Zm-6-9.65a7.2,7.2,0,0,1,7.18,7.18v.24a3.21,3.21,0,0,0-1.2-.24v-1.2h-1.19a8.72,8.72,0,0,1-4-1l-.8-.4-.8.4a9,9,0,0,1-4,1h-1.2v1.2a3.21,3.21,0,0,0-1.2.24v-.24A7.15,7.15,0,0,1,238.77,249.2Zm-6.06,12a1.2,1.2,0,1,1,0-2.39Zm-1.2,2.4v-.24a3.21,3.21,0,0,0,1.2.24h.48a5.14,5.14,0,0,0,1.59,2.07,2.31,2.31,0,0,1-1.35,1.12l-1.12.24a8.34,8.34,0,0,1-.8-3.43Zm-4.78,10a3.57,3.57,0,0,1,2.87-3.5l3.91-.8,2.55,11.24h-9.33Zm24,6.86H241.4L244,269.22l3.91.8a3.56,3.56,0,0,1,2.87,3.5Z" transform="translate(-171 -165)"/><path class="cls-2" d="M231.51,213.16h16.83v2.39H231.51Z" transform="translate(-171 -165)"/><path class="cls-2" d="M231.51,217.94h12.05v2.4H231.51Z" transform="translate(-171 -165)"/><path class="cls-2" d="M246,217.94h2.39v2.4H246Z" transform="translate(-171 -165)"/><path class="cls-2" d="M231.35,225.2h8.14l4,4a2.88,2.88,0,0,0,4.94-2v-1.91h.24a4.62,4.62,0,0,0,4.62-4.63v-7.41a4.8,4.8,0,0,0-4.78-4.79H231.67a4.8,4.8,0,0,0-4.78,4.79v7.41A4.37,4.37,0,0,0,231.35,225.2Zm-2.23-12a2.4,2.4,0,0,1,2.39-2.39h16.83a2.39,2.39,0,0,1,2.39,2.39v7.42a2.23,2.23,0,0,1-2.23,2.23h-2.63v4.3a.52.52,0,0,1-.88.32l-4.62-4.62h-9.09a2.23,2.23,0,0,1-2.24-2.23v-7.42Z" transform="translate(-171 -165)"/></svg>