<svg id="Layer_1" data-name="Layer 1" xmlns="http://www.w3.org/2000/svg" viewBox="0 0 175 175"><defs><style>.cls-1{fill:#fff6ed;}.cls-2{fill:#f9b78a;}</style></defs><rect class="cls-1" width="175" height="175" rx="35.5"/><path class="cls-2" d="M261,226.46v-.07c0-.32.47-.55.78-.55s.39.08.39.23l1.49,5.17,1.49-5.17a.43.43,0,0,1,.39-.23c.31,0,.78.23.78.55v.07l-1.8,6c-.08.31-.47.39-.78.39s-.71-.16-.79-.39Z" transform="translate(-169 -169)"/><path class="cls-2" d="M267,226.23a.37.37,0,0,1,.39-.39h1.88c1.25,0,2.27.47,2.27,2a1.73,1.73,0,0,1-1.25,1.88l1.25,2.35c0,.07.08.07.08.15a.77.77,0,0,1-.78.63.39.39,0,0,1-.39-.31l-1.34-2.67h-.78v2.51c0,.23-.31.39-.63.39s-.62-.16-.62-.39l-.08-6.11Zm1.25.7v2h1c.63,0,1-.23,1-1s-.39-1-1-1Z" transform="translate(-169 -169)"/><path class="cls-2" d="M293.52,279.57l-.63-3.68a1.11,1.11,0,1,0-2.19.31l.63,3.68a1,1,0,0,1-.32,1,1.22,1.22,0,0,1-.94.47h-7.83l-1.41-8.54a1.11,1.11,0,1,0-2.19.31l1.33,8.23H235.64l1.33-8.23a1.11,1.11,0,1,0-2.19-.31l-1.41,8.54h-7.83a1.12,1.12,0,0,1-.94-.47,1.55,1.55,0,0,1-.32-1l1.49-8.93a9.27,9.27,0,0,1,5.33-6.89.61.61,0,0,0,.39-.16,4.92,4.92,0,0,1,.94-.31l13.31-2.82a21.75,21.75,0,0,0,24,0L283,263.59a9.29,9.29,0,0,1,6.66,7.36,1.11,1.11,0,0,0,2.2-.31,11.64,11.64,0,0,0-8.23-9.17h-.08l-13.86-3-1.33-.31a2.76,2.76,0,0,1-1.8-2.67v-3.76a38.35,38.35,0,0,0,5.09-5.32,14.73,14.73,0,0,0,2.58-7.6l.08-.71h.55a2,2,0,0,0,2-1.41H278a2.26,2.26,0,0,0,2.27-2.27v-9.63a2.27,2.27,0,0,0-2.27-2.27h-1.17a2.24,2.24,0,0,0-1.8-1.41,14.65,14.65,0,0,0-3.68-7.91c-4.94-5.33-12.14-5.41-12.54-5.41h-1.95c-.32,0-7.6.08-12.54,5.41a14.84,14.84,0,0,0-3.68,7.91,2,2,0,0,0-1.8,1.41h-1.17a2.27,2.27,0,0,0-2.27,2.27v3.68h-1.73a3.85,3.85,0,0,0-3.84,3.84v30.07a11.32,11.32,0,0,0-6.1,8.31l-1.49,8.93a3.35,3.35,0,0,0,.78,2.81,3.46,3.46,0,0,0,2.66,1.26h64.38a3.46,3.46,0,0,0,2.67-1.26A3.91,3.91,0,0,0,293.52,279.57ZM277,224.74h1a.08.08,0,0,1,.08.08v9.63a.08.08,0,0,1-.08.08h-1Zm-10.1,35.32a18.92,18.92,0,0,1-18,0,5.2,5.2,0,0,0,2.42-4.38v-2a10.51,10.51,0,0,0,2.12,1.41,10.82,10.82,0,0,0,4.46.94,11.11,11.11,0,0,0,4.47-.94,10.52,10.52,0,0,0,2.11-1.41v2A5.11,5.11,0,0,0,266.89,260.06ZM246,214.64c4.23-4.62,10.81-4.7,10.89-4.7h1.95c.08,0,6.58.08,10.89,4.7a12.22,12.22,0,0,1,3.05,6.42H242.92A13.28,13.28,0,0,1,246,214.64Zm-5,8.69h33.75v12.53H262.35a3.31,3.31,0,0,1-1.73-.47,5.61,5.61,0,0,0-5.63,0,3.12,3.12,0,0,1-1.73.47h-2a1.1,1.1,0,0,0,0,2.2h2a5.1,5.1,0,0,0,2.82-.79,3.29,3.29,0,0,1,3.37,0,5.1,5.1,0,0,0,2.82.79h9.79v.54a13,13,0,0,1-2.19,6.51,47.36,47.36,0,0,1-8.46,7.91,9.37,9.37,0,0,1-7.13,0,25,25,0,0,1-3.37-2.59h0a5,5,0,0,1-.7-.63,30.48,30.48,0,0,1-4.39-4.62,12.69,12.69,0,0,1-2.19-6.5v-.55h2.58a1.1,1.1,0,1,0,0-2.19H241V223.33Zm-3.29,1.49h0l1.09-.08v9.79h-1a.07.07,0,0,1-.07-.08v-9.63Zm-5.56,7.52a1.57,1.57,0,0,1,1.56-1.57h1.73v3.68a2.26,2.26,0,0,0,2.27,2.27h1.17a2.2,2.2,0,0,0,2,1.41h.55l.08.71a14.64,14.64,0,0,0,2.58,7.6,38.66,38.66,0,0,0,5.09,5.32v3.84a2.73,2.73,0,0,1-1.8,2.66l-1.33.32-13.79,2.89V232.34Z" transform="translate(-169 -169)"/></svg>