<?xml version="1.0" encoding="utf-8"?>
<!-- Generator: Adobe Illustrator 25.0.0, SVG Export Plug-In . SVG Version: 6.00 Build 0)  -->
<svg version="1.1" id="Layer_1" xmlns="http://www.w3.org/2000/svg" xmlns:xlink="http://www.w3.org/1999/xlink" x="0px" y="0px"
	 viewBox="0 0 988 598" style="enable-background:new 0 0 988 598;" xml:space="preserve">
<style type="text/css">
	.st0{fill:#FFF6ED;}
	.st1{fill-rule:evenodd;clip-rule:evenodd;fill:#10C9B9;}
	.st2{fill-rule:evenodd;clip-rule:evenodd;fill:#E73958;}
	.st3{fill-rule:evenodd;clip-rule:evenodd;fill:#FFB44D;}
	.st4{fill-rule:evenodd;clip-rule:evenodd;fill:#1F2343;}
	.st5{fill:none;stroke:#F79839;stroke-miterlimit:10;}
	.st6{fill:#10C9B9;}
	.st7{fill:#F9F9F9;}
	.st8{font-family:'Nunito-Bold';}
	.st9{font-size:22.9px;}
	.st10{fill:#E73958;}
	.st11{fill:#FFB44D;}
	.st12{fill:#545454;}
	.st13{font-size:58.82px;}
</style>
<circle class="st0" cx="458.5" cy="300" r="249.5"/>
<path class="st1" d="M557.2,169.1l-26.7,45c37.9,23.4,63.3,64.6,63.3,111.4h53.5c0-66-36.1-124-90-156.5L557.2,169.1z"/>
<path class="st2" d="M385.9,214.1l-26.7-45c-54,32.4-90,90.4-90,156.4h53.5C322.7,278.8,348,237.6,385.9,214.1L385.9,214.1z"/>
<path class="st3" d="M395,208.9c39.7-20.2,86.6-20.2,126.3,0l26.7-45c-56.3-29.4-123.4-29.4-179.7,0L395,208.9z"/>
<path class="st4" d="M449.7,332.6c-0.1-4.7,3.6-8.7,8.4-8.8c4.7-0.1,8.7,3.6,8.8,8.4c0.1,4.7-3.6,8.7-8.4,8.8c-0.1,0-0.2,0-0.2,0
	C453.6,341,449.8,337.3,449.7,332.6z M450.8,319.7h0.2c-4.8,2.5-7.8,7.5-7.8,12.9c0.2,8.4,7.2,15.1,15.7,14.9
	c8.1-0.2,14.7-6.8,14.9-14.9c-0.1-5.4-3.1-10.4-7.8-12.9l-6.7-89.1c0-0.5-0.4-0.8-0.8-0.8s-0.8,0.4-0.8,0.8L450.8,319.7L450.8,319.7
	z"/>
<circle class="st5" cx="454.5" cy="299" r="298.5"/>
<path class="st6" d="M31.5,227.5h155c17.4,0,31.5,14.1,31.5,31.5l0,0c0,17.4-14.1,31.5-31.5,31.5h-155C14.1,290.5,0,276.4,0,259l0,0
	C0,241.6,14.1,227.5,31.5,227.5z"/>
<text transform="matrix(1 0 0 1 16.6 266.08)" class="st7 st8 st9">C</text>
<text transform="matrix(1 0 0 1 31.64 266.08)" class="st7 st8 st9">OM</text>
<text transform="matrix(1 0 0 1 69.49 266.08)" class="st7 st8 st9">F</text>
<text transform="matrix(1 0 0 1 82.06 266.08)" class="st7 st8 st9">O</text>
<text transform="matrix(1 0 0 1 100.04 266.08)" class="st7 st8 st9">R</text>
<text transform="matrix(1 0 0 1 115.29 266.08)" class="st7 st8 st9">T </text>
<text transform="matrix(1 0 0 1 135.71 266.08)" class="st7 st8 st9">Z</text>
<text transform="matrix(1 0 0 1 149.22 266.08)" class="st7 st8 st9">ONE</text>
<path class="st10" d="M658.5,86.5h155c17.4,0,31.5,14.1,31.5,31.5l0,0c0,17.4-14.1,31.5-31.5,31.5h-155c-17.4,0-31.5-14.1-31.5-31.5
	l0,0C627,100.6,641.1,86.5,658.5,86.5z"/>
<text transform="matrix(1 0 0 1 675.6 125.08)" class="st7 st8 st9">F</text>
<text transform="matrix(1 0 0 1 688.47 125.08)" class="st7 st8 st9">E</text>
<text transform="matrix(1 0 0 1 701.84 125.08)" class="st7 st8 st9">AR </text>
<text transform="matrix(1 0 0 1 740.79 125.08)" class="st7 st8 st9">Z</text>
<text transform="matrix(1 0 0 1 754.3 125.08)" class="st7 st8 st9">ONE</text>
<path class="st11" d="M658.5,396.5h298c17.4,0,31.5,14.1,31.5,31.5l0,0c0,17.4-14.1,31.5-31.5,31.5h-298
	c-17.4,0-31.5-14.1-31.5-31.5l0,0C627,410.6,641.1,396.5,658.5,396.5z"/>
<text transform="matrix(1 0 0 1 675.6 435.08)" class="st7 st8 st9">OUT OF </text>
<text transform="matrix(1 0 0 1 767.9399 435.08)" class="st7 st8 st9">C</text>
<text transform="matrix(1 0 0 1 782.99 435.08)" class="st7 st8 st9">OM</text>
<text transform="matrix(1 0 0 1 820.83 435.08)" class="st7 st8 st9">F</text>
<text transform="matrix(1 0 0 1 833.4 435.08)" class="st7 st8 st9">O</text>
<text transform="matrix(1 0 0 1 851.38 435.08)" class="st7 st8 st9">R</text>
<text transform="matrix(1 0 0 1 866.63 435.08)" class="st7 st8 st9">T </text>
<text transform="matrix(1 0 0 1 887.05 435.08)" class="st7 st8 st9">Z</text>
<text transform="matrix(1 0 0 1 900.5601 435.08)" class="st7 st8 st9">ONE</text>
<text transform="matrix(1 0 0 1 401 458.38)" class="st12 st8 st13">ZPF</text>
</svg>
