<?xml version="1.0" encoding="utf-8"?>
<!-- Generator: Adobe Illustrator 26.2.1, SVG Export Plug-In . SVG Version: 6.00 Build 0)  -->
<svg version="1.1" id="Layer_1" xmlns="http://www.w3.org/2000/svg" xmlns:xlink="http://www.w3.org/1999/xlink" x="0px" y="0px"
	 viewBox="0 0 1034 285" style="enable-background:new 0 0 1034 285;" xml:space="preserve">
<style type="text/css">
	.st0{fill-rule:evenodd;clip-rule:evenodd;fill:#72C16C;}
	.st1{fill-rule:evenodd;clip-rule:evenodd;fill:#E53462;}
	.st2{fill-rule:evenodd;clip-rule:evenodd;fill:#FFFFFF;}
	.st3{fill:#AB3BF4;}
	.st4{fill:#E53462;}
	.st5{fill:#72C16C;}
	.st6{fill:#4A62AC;}
	.st7{fill:#FF6712;}
</style>
<path class="st0" d="M218.9,180.6h-39.6v-22h39.5c3.4,0,6.2-2.8,6.2-6.2l0.3-79.6c0-3.4-2.8-6.2-6.2-6.2l-79.6-0.3
	c-3.4,0-6.2,2.8-6.2,6.2l-0.3,96.6h-22l0.3-96.6c0.1-15.6,12.7-28.2,28.3-28.2l0,0l79.7,0.2c15.5,0.1,28,12.8,28,28.3l-0.2,79.7
	c-0.1,15.6-12.8,28.2-28.4,28.2l0,0"/>
<g>
	<path class="st1" d="M161.8,237l-79.3-0.2c-15.7-0.1-28.4-12.8-28.3-28.5l0.3-79.4c0.1-15.7,12.8-28.3,28.4-28.2l0,0h28.7v22H82.9
		c-3.5,0-6.4,2.8-6.4,6.4l-0.2,79.4c0,3.5,2.9,6.4,6.4,6.4l79.3,0.3c3.6,0,6.5-2.9,6.5-6.4l0.3-95.7h22l-0.3,95.7
		C190.4,224.3,177.6,237,161.8,237"/>
</g>
<path class="st0" d="M140.3,167.9c0,10-8.1,18.1-18.1,18.1s-18.1-8.1-18.1-18.1s8.1-18.1,18.1-18.1c0,0,0,0,0.1,0
	C132.2,149.8,140.3,157.9,140.3,167.9L140.3,167.9"/>
<path class="st1" d="M197.4,112.4c0,10-8.1,18.1-18.1,18.1s-18.1-8.1-18.1-18.1s8.1-18.1,18.1-18.1l0,0
	C189.4,94.3,197.4,102.4,197.4,112.4"/>
<path class="st2" d="M331,178l8.4,21.6c0.3,0.9-0.1,1.9-1,2.2c-0.2,0.1-0.4,0.1-0.6,0.1H321c-0.9,0-1.7-0.7-1.7-1.7
	c0-0.2,0-0.4,0.1-0.6l8.4-21.6c0.4-0.9,1.4-1.3,2.2-1C330.4,177.2,330.8,177.6,331,178 M345.4,215.2l3.9,9.8
	c0.3,0.7,0.9,1.1,1.6,1.1h11.8c0.9,0,1.7-0.7,1.7-1.7c0-0.2,0-0.5-0.1-0.7l-27-64.2c-0.3-0.6-0.9-1.1-1.6-1h-12.5
	c-0.7,0-1.3,0.4-1.6,1l-27.2,64.2c-0.4,0.9,0,1.9,0.9,2.2c0.2,0.1,0.4,0.1,0.7,0.1h11.9c0.7,0,1.4-0.4,1.6-1.1l3.8-9.8
	c0.3-0.7,0.9-1.1,1.6-1.1h29C344.6,214.1,345.2,214.5,345.4,215.2 M376,160.6v63.8c0,0.9,0.8,1.7,1.7,1.7l0,0h11.4
	c0.9,0,1.7-0.8,1.7-1.7l0,0v-63.7c0-0.9-0.8-1.7-1.7-1.7h-11.4C376.8,158.9,376,159.7,376,160.6 M482.2,169.7v-9.1
	c0-0.9-0.8-1.7-1.7-1.7h-46.8c-1,0-1.7,0.8-1.7,1.7l0,0v63.8c0,0.9,0.8,1.7,1.7,1.7l0,0h46.7c0.9,0,1.7-0.7,1.7-1.7l0,0v-9.1
	c0-0.9-0.8-1.7-1.7-1.7l0,0h-32c-0.9,0-1.7-0.8-1.7-1.7l0,0v-11.3c0-0.9,0.7-1.7,1.7-1.7l0,0h27.5c0.9,0,1.7-0.8,1.7-1.7l0,0v-8.8
	c0-0.9-0.7-1.7-1.7-1.7l0,0h-27.5c-0.9,0-1.7-0.8-1.7-1.7l0,0v-11.9c0-0.9,0.8-1.7,1.7-1.7l0,0h32
	C481.4,171.5,482.1,170.7,482.2,169.7C482.2,169.8,482.2,169.7,482.2,169.7 M521.4,213.1h-10.3c-0.9,0-1.7-0.7-1.7-1.7l0,0v-37.7
	c0-0.9,0.7-1.7,1.7-1.7l0,0h10.3c11.4-0.5,21,8.3,21.5,19.7s-8.3,21-19.7,21.5C522.6,213.1,522,213.1,521.4,213.1 M521.4,158.9
	h-25.1c-0.9,0-1.7,0.8-1.7,1.7l0,0v63.8c0,0.9,0.7,1.7,1.7,1.7l0,0h25.1c21.4,0,36.4-13.9,36.4-33.8S542.8,158.9,521.4,158.9
	 M629.1,158.9h-11.4c-0.9,0-1.7,0.8-1.7,1.7l0,0v34.6c0,11.4-6.4,18.8-16.4,18.8s-16.3-7.4-16.3-18.8v-34.6c0-0.9-0.7-1.7-1.7-1.7
	l0,0h-11.5c-0.9,0-1.7,0.8-1.7,1.7l0,0v34.2c0,20.5,11.6,32.8,31.1,32.8s31.3-12.3,31.3-32.8v-34.2
	C630.8,159.7,630,158.9,629.1,158.9L629.1,158.9 M697.5,199.7c-0.8,0-1.4,0.5-1.6,1.2c-2.3,7.9-9.7,13.3-18,12.9
	c-11.9,0-20.6-9-20.6-21.4c0-12.3,8.7-21.4,20.6-21.4c8.3-0.3,15.7,5,18,12.9c0.2,0.7,0.9,1.2,1.6,1.2h12c0.9,0,1.7-0.7,1.7-1.7
	c0-0.1,0-0.2,0-0.3c-3.4-15.5-16.3-25.8-33.1-25.8c-20.7,0-35.7,14.7-35.7,35s15,35,35.7,35c16.8,0,29.8-10.2,33.1-25.8
	c0.1-0.9-0.5-1.8-1.5-1.9c-0.1,0-0.2,0-0.2,0L697.5,199.7z M752.6,178l8.4,21.6c0.3,0.9-0.1,1.9-1,2.2c-0.2,0.1-0.4,0.1-0.6,0.1
	h-16.9c-0.9,0-1.7-0.8-1.7-1.7c0-0.2,0-0.4,0.1-0.6l8.5-21.6c0.4-0.9,1.4-1.3,2.2-1C752,177.2,752.4,177.6,752.6,178 M767,215.2
	l3.9,9.8c0.3,0.7,0.9,1.1,1.6,1.1h11.8c0.9,0,1.7-0.8,1.7-1.7c0-0.2,0-0.4-0.1-0.7l-27-64.2c-0.3-0.6-0.9-1-1.6-1h-12.5
	c-0.7,0-1.3,0.4-1.6,1L716,223.7c-0.4,0.9,0.1,1.9,0.9,2.3c0.2,0.1,0.4,0.1,0.7,0.1h11.9c0.7,0,1.3-0.4,1.6-1.1l3.8-9.8
	c0.3-0.7,0.9-1.1,1.6-1.1h29C766.1,214.1,766.7,214.5,767,215.2 M840,158.9h-55.7c-0.9,0-1.7,0.8-1.7,1.7l0,0v9.6
	c0,0.9,0.8,1.7,1.7,1.7l0,0h18.8c0.9,0,1.7,0.7,1.7,1.7l0,0v50.9c0,0.9,0.8,1.7,1.7,1.7l0,0h11.4c0.9,0,1.7-0.8,1.7-1.7l0,0v-50.9
	c0-0.9,0.7-1.7,1.7-1.7l0,0H840c0.9,0,1.7-0.8,1.7-1.7v-9.5C841.7,159.8,841,159,840,158.9 M881.7,214.1
	c-11.9,0.5-21.9-8.8-22.3-20.7c-0.5-11.9,8.8-21.9,20.7-22.3c11.9-0.5,21.9,8.8,22.3,20.7c0,0.3,0,0.5,0,0.8
	c0.3,11.5-8.7,21.2-20.3,21.5C882,214.1,881.8,214.1,881.7,214.1 M881.7,157.6c-19.4,0-35,15.7-35,35c0,19.4,15.7,35,35,35l0,0
	c20.4,0,35.8-15,35.8-35S902.1,157.6,881.7,157.6"/>
<g>
	<path class="st2" d="M945.4,173.4c0-0.9,0.7-1.7,1.7-1.7l0,0h12.4c7.8,0,13.3,4.4,13.3,10.5s-5.6,10.7-13.3,10.7h-12.4
		c-0.9,0-1.7-0.8-1.7-1.7l0,0V173.4z M973.9,226.1h13.4c0.9,0,1.7-0.8,1.7-1.7c0-0.4-0.1-0.8-0.4-1.1l-15.2-20l1.4-0.7
		c7.9-3.8,12.8-11.8,12.6-20.5c0-14.1-10.8-23.3-27.5-23.3h-27.6c-0.9,0-1.7,0.8-1.7,1.7l0,0v63.8c0,0.9,0.7,1.7,1.7,1.7l0,0h11.3
		c0.9,0,1.7-0.7,1.7-1.7l0,0v-16.8c0-0.9,0.7-1.7,1.7-1.7l0,0h10.1c0.5,0,1,0.3,1.4,0.7l14,18.8
		C972.8,225.8,973.4,226.1,973.9,226.1L973.9,226.1z"/>
</g>
<g>
	<path class="st3" d="M362.5,119.6l-0.1-41.9l-20.5,34.5h-7.3l-20.4-33.6v41H299V49.8h13.4l26.1,43.4l25.7-43.4h13.3l0.2,69.8H362.5
		z"/>
	<path class="st4" d="M444.5,104.6h-32.4l-6.2,15h-16.6l31.1-69.8h16l31.2,69.8h-17L444.5,104.6z M439.4,92.3l-11.1-26.7l-11.1,26.7
		H439.4z"/>
	<path class="st5" d="M493.6,62.9h-22.3V49.8h60.8V63h-22.3v56.6h-16.2L493.6,62.9L493.6,62.9z"/>
	<path class="st6" d="M609.1,49.8v69.8h-16.2V91h-31.7v28.6H545V49.8h16.2v27.5h31.7V49.8H609.1z"/>
	<path class="st7" d="M624.5,112.7l5.5-12.2c5.9,4.3,14.7,7.3,23,7.3c9.6,0,13.5-3.2,13.5-7.5c0-13.1-40.6-4.1-40.6-30
		c0-11.9,9.6-21.7,29.4-21.7c8.8,0,17.8,2.1,24.2,6.2l-5,12.3c-6.5-3.7-13.2-5.5-19.3-5.5c-9.6,0-13.3,3.6-13.3,8
		c0,12.9,40.6,4,40.6,29.6c0,11.7-9.7,21.6-29.6,21.6C641.8,120.8,630.6,117.5,624.5,112.7z"/>
</g>
</svg>
