<svg id="Layer_1" data-name="Layer 1" xmlns="http://www.w3.org/2000/svg" xmlns:xlink="http://www.w3.org/1999/xlink" viewBox="0 0 441.95 93.04"><defs><style>.cls-1{fill:#fff;}.cls-1,.cls-2,.cls-4,.cls-5{fill-rule:evenodd;}.cls-2{fill:#30abd6;}.cls-3{mask:url(#mask);}.cls-4{fill:#3a5edd;}.cls-5,.cls-7{fill:#1f2343;}.cls-6{mask:url(#mask-2);}.cls-7{font-size:24.79px;font-family:Nunito-Regular, Nunito;}.cls-8{letter-spacing:0em;}</style><mask id="mask" x="0" y="18.15" width="43.93" height="43.92" maskUnits="userSpaceOnUse"><g transform="translate(-462.05 -321.49)"><g id="smqt65wnlb"><path id="skcwds0xma" class="cls-1" d="M462.05,339.64H506v43.91H462.05Z"/></g></g></mask><mask id="mask-2" x="411.85" y="13.69" width="30.09" height="34.62" maskUnits="userSpaceOnUse"><g transform="translate(-462.05 -321.49)"><g id="nxr9rnh5sd"><path id="xyy4em6d5c" class="cls-1" d="M873.91,335.18H904V369.8H873.91Z"/></g></g></mask></defs><path class="cls-2" d="M515.08,365.4l-12.73,0,0-7.07,12.72,0a2,2,0,0,0,2-2l.09-25.62a2,2,0,0,0-2-2l-25.62-.09a2,2,0,0,0-2,2l-.11,31.09-7.07,0,.1-31.1a9.09,9.09,0,0,1,9.13-9.06l25.65.08a9.08,9.08,0,0,1,9,9.12l-.08,25.64a9.1,9.1,0,0,1-9.13,9.07" transform="translate(-462.05 -321.49)"/><g class="cls-3"><path class="cls-4" d="M496.7,383.55l-25.53-.08a9.16,9.16,0,0,1-9.12-9.18l.09-25.56a9.12,9.12,0,0,1,9.16-9.09l9.22,0,0,7.07-9.22,0a2.07,2.07,0,0,0-2.07,2.05l-.08,25.56a2.07,2.07,0,0,0,2.06,2.07l25.53.09a2.09,2.09,0,0,0,2.09-2.07l.1-30.8,7.08,0-.1,30.8a9.16,9.16,0,0,1-9.19,9.12" transform="translate(-462.05 -321.49)"/></g><path class="cls-2" d="M489.77,361.7a5.82,5.82,0,1,1-5.79-5.83,5.8,5.8,0,0,1,5.79,5.83" transform="translate(-462.05 -321.49)"/><path class="cls-4" d="M508.15,343.46a5.82,5.82,0,1,1-5.8-5.83,5.82,5.82,0,0,1,5.8,5.83" transform="translate(-462.05 -321.49)"/><path class="cls-5" d="M565,345l4.33,11.12a.89.89,0,0,1-.83,1.2h-8.65a.88.88,0,0,1-.83-1.2L563.34,345a.89.89,0,0,1,1.65,0m7.46,19.17,2,5.06a.88.88,0,0,0,.82.56h6.08a.88.88,0,0,0,.82-1.22l-13.93-33.07a.86.86,0,0,0-.81-.54H561a.88.88,0,0,0-.81.54l-14,33.07a.88.88,0,0,0,.81,1.23h6.12a.89.89,0,0,0,.83-.57l1.94-5.06a.88.88,0,0,1,.82-.56h14.93a.88.88,0,0,1,.82.56m15.74-28.11v32.85a.88.88,0,0,0,.88.88h5.85a.88.88,0,0,0,.88-.88V336.07a.89.89,0,0,0-.88-.89h-5.85a.89.89,0,0,0-.88.89m54.71,4.67v-4.67a.89.89,0,0,0-.88-.89H617.94a.89.89,0,0,0-.89.89v32.85a.88.88,0,0,0,.89.88H642a.88.88,0,0,0,.89-.88v-4.68a.88.88,0,0,0-.89-.88H625.54a.88.88,0,0,1-.88-.88v-5.8a.87.87,0,0,1,.88-.88h14.15a.88.88,0,0,0,.88-.89v-4.52a.87.87,0,0,0-.88-.88H625.54a.88.88,0,0,1-.88-.89v-6.11a.88.88,0,0,1,.88-.88H642a.88.88,0,0,0,.89-.88m20.22,22.34h-5.33a.87.87,0,0,1-.88-.88V342.78a.88.88,0,0,1,.88-.89h5.33a10.61,10.61,0,1,1,0,21.2m0-27.91H650.18a.88.88,0,0,0-.88.89v32.85a.87.87,0,0,0,.88.88h12.94c11,0,18.73-7.16,18.73-17.41s-7.7-17.21-18.73-17.21m55.49,0h-5.89a.88.88,0,0,0-.88.89v17.8c0,5.89-3.32,9.7-8.44,9.7s-8.38-3.81-8.38-9.7v-17.8a.88.88,0,0,0-.88-.89h-5.9a.88.88,0,0,0-.88.89v17.64c0,10.57,6,16.89,16,16.89s16.1-6.32,16.1-16.89V336.07a.89.89,0,0,0-.89-.89m35.24,21a.9.9,0,0,0-.85.63,9.27,9.27,0,0,1-9.27,6.67c-6.14,0-10.6-4.64-10.6-11s4.46-11,10.6-11a9.27,9.27,0,0,1,9.27,6.67.89.89,0,0,0,.85.62H760a.87.87,0,0,0,.87-1c-1.73-8-8.39-13.28-17.07-13.28-10.65,0-18.37,7.59-18.37,18.05s7.72,18.05,18.37,18.05c8.68,0,15.34-5.26,17.07-13.27a.88.88,0,0,0-.87-1ZM782.2,345l4.32,11.12a.88.88,0,0,1-.82,1.2H777a.88.88,0,0,1-.82-1.2L780.55,345a.89.89,0,0,1,1.65,0m7.46,19.17,2,5.06a.88.88,0,0,0,.82.56h6.08a.88.88,0,0,0,.81-1.22l-13.92-33.07a.88.88,0,0,0-.81-.54h-6.46a.88.88,0,0,0-.82.54l-14,33.07a.89.89,0,0,0,.82,1.23h6.12a.9.9,0,0,0,.83-.57l1.94-5.06a.88.88,0,0,1,.82-.56h14.93a.85.85,0,0,1,.81.56m37.6-29H798.51a.88.88,0,0,0-.88.89V341a.88.88,0,0,0,.88.88h9.71a.87.87,0,0,1,.88.88v26.2a.88.88,0,0,0,.88.88h5.85a.88.88,0,0,0,.88-.88v-26.2a.87.87,0,0,1,.88-.88h9.66a.89.89,0,0,0,.88-.88v-4.89a.89.89,0,0,0-.88-.89m21.47,28.39a11.08,11.08,0,1,1,10.65-11.08,10.76,10.76,0,0,1-10.65,11.08m0-29.13a18.05,18.05,0,1,0,0,36.1c10.5,0,18.42-7.75,18.42-18.05s-7.92-18.05-18.42-18.05" transform="translate(-462.05 -321.49)"/><g class="cls-6"><path class="cls-5" d="M881.52,342.62a.88.88,0,0,1,.88-.89h6.39c4,0,6.85,2.28,6.85,5.42s-2.88,5.53-6.85,5.53H882.4a.88.88,0,0,1-.88-.88Zm14.71,27.18h6.89a.88.88,0,0,0,.7-1.42L896,358.08l.71-.36a11.51,11.51,0,0,0,6.51-10.57c0-7.27-5.57-12-14.19-12H874.79a.88.88,0,0,0-.88.88v32.86a.87.87,0,0,0,.88.88h5.84a.88.88,0,0,0,.89-.88v-8.65a.87.87,0,0,1,.88-.88h5.22a.9.9,0,0,1,.71.35l7.19,9.7a.86.86,0,0,0,.71.36Z" transform="translate(-462.05 -321.49)"/></g><text class="cls-7" transform="translate(83.95 86.18)">@ 3x <tspan class="cls-8" x="64.12" y="0">l</tspan><tspan x="71.34" y="0">earning</tspan></text></svg>